<?xml version="1.0" encoding="UTF-8"?><svg xmlns="http://www.w3.org/2000/svg" xmlns:xlink="http://www.w3.org/1999/xlink" viewBox="0 0 25 25"><defs><style>.g{fill:#fff;}.h{fill:url(#d);}.h,.i,.j{mix-blend-mode:multiply;opacity:.4;}.k{fill:#fdffff;}.l{isolation:isolate;}.i{fill:url(#f);}.j{fill:url(#e);}.m{fill:none;}.n{fill:#1818b3;}.o{fill:red;}</style><radialGradient id="d" cx="12.9" cy="1.4" fx="12.9" fy="1.4" r="2" gradientTransform="matrix(1, 0, 0, 1, 0, 0)" gradientUnits="userSpaceOnUse"><stop offset="0" stop-color="#1e120d" stop-opacity="0"/><stop offset=".5" stop-color="#1e120d" stop-opacity=".2"/><stop offset="1" stop-color="#1e120d" stop-opacity=".6"/><stop offset="1" stop-color="#1e120d" stop-opacity=".6"/><stop offset="1" stop-color="#1e120d" stop-opacity=".9"/></radialGradient><radialGradient id="e" cx="6.4" cy="2" fx="6.4" fy="2" r=".9" xlink:href="#d"/><radialGradient id="f" cx="2.1" cy="8.2" fx="2.1" fy="8.2" r="1.5" xlink:href="#d"/></defs><g class="l"><g id="a"/><g id="b"><g id="c"><g><path class="n" d="M15,.3l-4.3,2.6V.1c.6,0,1.2-.1,1.8-.1,.9,0,1.7,0,2.5,.3Z"/><path class="n" d="M7.2,1.2v1.7l-1.5-.9c.5-.3,1-.6,1.5-.8Z"/><path class="n" d="M3.7,7.2L.4,9.3c.2-.7,.4-1.4,.8-2.1H3.7Z"/><path class="n" d="M18.1,1.3l-3.7,2.3h3.7v3.6h-3.9l3.9,2.4v1.2h-2.7l-4.7-2.8v2.9h-3.6v-2.8l-4.5,2.8H.1c0,.5-.1,1.1-.1,1.7,0,6.9,5.6,12.5,12.5,12.5s12.5-5.6,12.5-12.5S22.2,3.4,18.1,1.3Z"/><polygon class="k" points="10.3 17.2 10.4 19.1 9 17.7 7.7 19.1 7.8 17.2 5.9 16.9 7.4 15.8 6.5 14.2 8.3 14.7 9 13 9.7 14.7 11.5 14.2 10.6 15.8 12.1 16.9 10.3 17.2"/><polygon class="k" points="22.2 9.9 22.2 10.8 21.6 10.2 20.9 10.8 21 9.9 20.1 9.8 20.8 9.3 20.4 8.5 21.3 8.7 21.6 7.9 21.9 8.7 22.8 8.5 22.3 9.3 23 9.8 22.2 9.9"/><path class="h" d="M15,.3l-4.3,2.6V.1c.6,0,1.2-.1,1.8-.1,.9,0,1.7,0,2.5,.3Z"/><path class="j" d="M7.2,1.2v1.7l-1.5-.9c.5-.3,1-.6,1.5-.8Z"/><path class="i" d="M3.7,7.2L.4,9.3c.2-.7,.4-1.4,.8-2.1H3.7Z"/><path class="m" d="M15,.3l-4.3,2.6V.1c.6,0,1.2-.1,1.8-.1,.9,0,1.7,0,2.5,.3Z"/><path class="m" d="M7.2,1.2v1.7l-1.5-.9c.5-.3,1-.6,1.5-.8Z"/><path class="m" d="M3.7,7.2L.4,9.3c.2-.7,.4-1.4,.8-2.1H3.7Z"/><path class="m" d="M18.1,1.3l-3.7,2.3h3.7v3.6h-3.9l3.9,2.4v1.2h-2.7l-4.7-2.8v2.9h-3.6v-2.8l-4.5,2.8H.1c0,.5-.1,1.1-.1,1.7,0,6.9,5.6,12.5,12.5,12.5s12.5-5.6,12.5-12.5S22.2,3.4,18.1,1.3Z"/><path class="m" d="M15,.3l-4.3,2.6V.1c.6,0,1.2-.1,1.8-.1,.9,0,1.7,0,2.5,.3Z"/><path class="m" d="M7.2,1.2v1.7l-1.5-.9c.5-.3,1-.6,1.5-.8Z"/><path class="m" d="M3.7,7.2L.4,9.3c.2-.7,.4-1.4,.8-2.1H3.7Z"/><path class="m" d="M18.1,1.3l-3.7,2.3h3.7v3.6h-3.9l3.9,2.4v1.2h-2.7l-4.7-2.8v2.9h-3.6v-2.8l-4.5,2.8H.1c0,.5-.1,1.1-.1,1.7,0,6.9,5.6,12.5,12.5,12.5s12.5-5.6,12.5-12.5S22.2,3.4,18.1,1.3Z"/><path class="m" d="M15,.3l-4.3,2.6V.1c.6,0,1.2-.1,1.8-.1,.9,0,1.7,0,2.5,.3Z"/><path class="m" d="M7.2,1.2v1.7l-1.5-.9c.5-.3,1-.6,1.5-.8Z"/><path class="m" d="M3.7,7.2L.4,9.3c.2-.7,.4-1.4,.8-2.1H3.7Z"/><path class="m" d="M18.1,1.3l-3.7,2.3h3.7v3.6h-3.9l3.9,2.4v1.2h-2.7l-4.7-2.8v2.9h-3.6v-2.8l-4.5,2.8H.1c0,.5-.1,1.1-.1,1.7,0,6.9,5.6,12.5,12.5,12.5s12.5-5.6,12.5-12.5S22.2,3.4,18.1,1.3Z"/><path class="o" d="M18.1,6.4h-6.7l1.2,.8,5.5,3.6h-1.5l-5.6-3.6-.3-.2-.7-.5v4.3h-2.1V6.6l-.7,.5h-.2L1.4,10.8H.1s0,0,0-.1l5.3-3.5,1.2-.8H1.6c.4-.7,.9-1.5,1.5-2.1h3.6l-1.1-.7-1.1-.7c.2-.2,.4-.4,.7-.5l1.9,1.2h.2l.7,.6V.9c.7-.3,1.4-.5,2.1-.6V4.2l.7-.5,.2-.2L15.9,.5c.3,0,.7,.2,1,.3l-4.4,2.8-1.1,.7h6.7v2.1Z"/><g><path class="g" d="M14.3,3.6h3.7v.7h-6.7l1.1-.7L16.9,.8c.4,.2,.8,.3,1.2,.5l-3.7,2.3Z"/><path class="g" d="M15.9,.5l-4.9,3.2-.2,.2-.7,.5V.2c.2,0,.5,0,.7-.1V2.9L15,.3h0c.3,0,.6,.1,.8,.2Z"/><path class="g" d="M7.9,.9v3.3l-.7-.5h-.2l-1.9-1.3c.2-.1,.4-.3,.6-.4l1.5,.9V1.2c.2-.1,.5-.2,.7-.3Z"/><path class="g" d="M6.7,4.3H3c.2-.3,.4-.5,.7-.7,.2-.2,.5-.5,.8-.7l1.1,.7,1.1,.7Z"/><path class="g" d="M6.6,6.4l-1.2,.8L.1,10.7c0-.5,.2-1,.3-1.4l3.3-2.1H1.2c.1-.3,.2-.5,.4-.8H6.6Z"/><polygon class="g" points="18.1 7.2 14.2 7.2 18.1 9.6 18.1 10.8 12.5 7.2 11.4 6.4 18.1 6.4 18.1 7.2"/><polygon class="g" points="18.1 10.8 15.4 10.8 10.7 7.9 10.7 10.8 7.2 10.8 7.2 8 2.7 10.8 1.4 10.8 7 7.2 7.2 7.1 7.9 6.6 7.9 10.8 10 10.8 10 6.5 10.7 7 11.1 7.2 16.6 10.8 18.1 10.8"/></g></g></g></g></g></svg>