<?xml version="1.0" encoding="UTF-8"?><svg xmlns="http://www.w3.org/2000/svg" viewBox="0 0 25 25"><defs><style>.d{fill:#fff;}.e{fill:#f01;}</style></defs><g id="a"/><g id="b"><g id="c"><g><path class="e" d="M25,12.5c0,4.2-2.1,7.9-5.3,10.2-2,1.4-4.5,2.3-7.2,2.3s-5.2-.8-7.2-2.3C2.1,20.4,0,16.7,0,12.5S2.1,4.6,5.3,2.3C7.3,.8,9.8,0,12.5,0s5.2,.9,7.2,2.3c3.2,2.3,5.3,6,5.3,10.2Z"/><path class="d" d="M19.7,2.3V22.7c-2,1.4-4.5,2.3-7.2,2.3s-5.2-.8-7.2-2.3V2.3C7.3,.8,9.8,0,12.5,0s5.2,.9,7.2,2.3Z"/><polygon class="e" points="15.3 15.2 12.8 14.9 13 17.6 12 17.6 12.3 14.9 9.7 15.2 10.1 14.6 7.6 13.2 8.4 12.9 7.8 11.4 9.4 11.6 9.3 10.7 11.2 12.4 10.7 9.2 11.5 9.5 12.5 7.4 13.5 9.5 14.3 9.2 13.8 12.4 15.7 10.7 15.6 11.6 17.2 11.4 16.6 12.9 17.4 13.2 15 14.6 15.3 15.2"/></g></g></g></svg>