<?xml version="1.0" encoding="UTF-8"?><svg xmlns="http://www.w3.org/2000/svg" xmlns:xlink="http://www.w3.org/1999/xlink" viewBox="0 0 25 25"><defs><style>.g{fill:#f01;}.h{fill:url(#f);}.i{fill:#047a3d;}.j{fill:url(#d);}.k{fill:url(#e);}.l{fill:none;}.m{fill:#ffc500;}</style><radialGradient id="d" cx="11.3" cy="10.8" fx="11.3" fy="10.8" r="4.9" gradientTransform="matrix(1, 0, 0, 1, 0, 0)" gradientUnits="userSpaceOnUse"><stop offset="0" stop-color="#f2f2f2"/><stop offset="1" stop-color="#d6d6d6"/></radialGradient><radialGradient id="e" cx="9.5" cy="2.3" fx="9.5" fy="2.3" r="9.4" xlink:href="#d"/><linearGradient id="f" x1="8" y1="12.6" x2="17" y2="12.6" gradientTransform="matrix(1, 0, 0, 1, 0, 0)" gradientUnits="userSpaceOnUse"><stop offset="0" stop-color="#000"/><stop offset="0" stop-color="#000"/><stop offset="1" stop-color="#000"/></linearGradient></defs><g id="a"/><g id="b"><g id="c"><g><polygon class="j" points="17 11.6 14.2 13.7 15.3 16.9 15.3 16.9 15.3 16.9 9.7 16.9 9.7 16.9 9.7 16.9 10.8 13.7 8 11.6 11.4 11.6 12.5 8.4 13.6 11.6 17 11.6"/><path class="k" d="M24.3,8.3H.7C2.5,3.5,7.1,0,12.5,0s6.6,1.4,8.8,3.7c.2,.2,.3,.4,.5,.5,0,.1,.2,.2,.3,.3,0,.1,.2,.2,.3,.4,0,0,.1,.2,.2,.2,.7,1,1.3,2,1.7,3.1Z"/><g><path class="g" d="M.7,8.3s0,0,0,0"/><path class="g" d="M22.6,5.1c.7,1,1.3,2,1.7,3.1H.7C2.5,3.5,7.1,0,12.5,0s6.6,1.4,8.8,3.7c.2,.2,.3,.4,.5,.5,.1,.1,.2,.2,.3,.3,0,.1,.2,.2,.3,.4,0,0,.1,.2,.2,.2Z"/><path class="g" d="M24.3,8.3s0,0,0,0"/><path class="g" d="M.8,17h0"/><path class="g" d="M.7,8.3s0,0,0,0"/><polygon class="m" points="17 11.6 14.2 13.7 15.3 16.9 15.3 16.9 15.3 16.9 9.7 16.9 9.7 16.9 9.7 16.9 10.8 13.7 8 11.6 11.4 11.6 12.5 8.4 13.6 11.6 17 11.6"/><path class="g" d="M24.3,8.3s0,0,0,0"/><path class="g" d="M.8,17h0"/><polygon class="g" points="9.7 16.9 9.7 16.9 9.7 16.9 9.7 16.9"/><polygon class="g" points="15.3 16.9 15.3 16.9 15.3 16.9 15.3 16.9"/><path class="g" d="M21.9,20.8c0-.1,.2-.2,.3-.3,0,.1-.2,.2-.3,.3Z"/><path class="g" d="M22.1,20.5c0-.1,.2-.2,.3-.4,0,.1-.2,.2-.3,.4Z"/></g><polygon class="l" points="17 11.6 14.2 13.7 15.3 16.9 15.3 16.9 15.3 16.9 9.7 16.9 9.7 16.9 9.7 16.9 10.8 13.7 8 11.6 11.4 11.6 12.5 8.4 13.6 11.6 17 11.6"/><path class="l" d="M24.3,8.3H.7C2.5,3.5,7.1,0,12.5,0s6.6,1.4,8.8,3.7c.2,.2,.3,.4,.5,.5,.1,.1,.2,.2,.3,.3,0,.1,.2,.2,.3,.4,0,0,.1,.2,.2,.2,.7,1,1.3,2,1.7,3.1Z"/><path class="i" d="M24.2,16.9h0c-.4,1.1-.9,2.1-1.6,3,0,0-.1,.2-.2,.2,0,.1-.2,.2-.3,.4,0,.1-.2,.2-.3,.3-.2,.2-.3,.4-.5,.5-2.3,2.3-5.4,3.7-8.8,3.7-5.3,0-9.9-3.3-11.7-8H24.2Z"/><path class="m" d="M25,12.5c0,1.6-.3,3-.8,4.4H15.3l-1-3.3,2.8-2h-3.4l-1.1-3.3-1.1,3.3h-3.4l2.8,2-1,3.3H.8c-.5-1.4-.8-2.9-.8-4.4s.2-2.9,.7-4.2c0,0,0,0,0,0H24.3s0,0,0,0c.5,1.3,.7,2.7,.7,4.2Z"/><polygon class="l" points="17 11.6 14.2 13.7 15.3 16.9 15.3 16.9 15.3 16.9 9.7 16.9 9.7 16.9 9.7 16.9 10.8 13.7 8 11.6 11.4 11.6 12.5 8.4 13.6 11.6 17 11.6"/><path class="l" d="M.7,8.3C2.5,3.5,7.1,0,12.5,0s6.6,1.4,8.8,3.7c.2,.2,.3,.4,.5,.5,0,.1,.2,.2,.3,.3,0,.1,.2,.2,.3,.4,0,0,.1,.2,.2,.2"/><polygon class="h" points="15.3 16.9 15.3 16.9 15.3 16.9 12.5 14.9 9.7 16.9 9.7 16.9 9.7 16.9 10.8 13.7 8 11.6 11.4 11.6 12.5 8.4 13.6 11.6 17 11.6 14.2 13.7 15.3 16.9"/></g></g></g></svg>