<?xml version="1.0" encoding="UTF-8"?><svg xmlns="http://www.w3.org/2000/svg" viewBox="0 0 25 25"><defs><style>.d{fill:#fff;}.e{fill:#f01;}.f{fill:#00a952;}.g{fill:none;}</style></defs><g id="a"/><g id="b"><g id="c"><g><path class="f" d="M24.3,8.3H.7C2.4,3.5,7.1,0,12.5,0s10.1,3.5,11.8,8.3Z"/><path class="e" d="M24.3,16.7c-1.7,4.9-6.3,8.3-11.8,8.3S2.4,21.5,.7,16.7H24.3Z"/><path class="d" d="M25,12.5c0,1.5-.2,2.9-.7,4.2H.7c-.5-1.3-.7-2.7-.7-4.2s.2-2.9,.7-4.2H24.3c.5,1.3,.7,2.7,.7,4.2Z"/><path class="g" d="M25,12.5c0,1.5-.2,2.9-.7,4.2-1.7,4.9-6.3,8.3-11.8,8.3S2.4,21.5,.7,16.7c-.5-1.3-.7-2.7-.7-4.2s.2-2.9,.7-4.2C2.4,3.5,7.1,0,12.5,0s10.1,3.5,11.8,8.3c.5,1.3,.7,2.7,.7,4.2Z"/><path class="g" d="M25,12.5c0,1.5-.2,2.9-.7,4.2-1.7,4.9-6.3,8.3-11.8,8.3S2.4,21.5,.7,16.7c-.5-1.3-.7-2.7-.7-4.2s.2-2.9,.7-4.2C2.4,3.5,7.1,0,12.5,0s10.1,3.5,11.8,8.3c.5,1.3,.7,2.7,.7,4.2Z"/><g><path class="e" d="M14.8,12.6c.2-1.1-.2-2.1-1.1-2.9,1.2,2,.3,4.1-1,4.9,0-.4,0-.8,0-1.2,0-1.2,0-2.4,0-3.6,0,0,0,0,0-.1-.1,0-.3-.2-.4-.3-.1,0-.3,.2-.4,.3,0,0,0,0,0,.1,0,.8,0,1.5,0,2.3,0,.8,0,1.7,0,2.5,0,0,0,0,0,0-1.1-.8-2.2-2.9-.9-4.9-.6,.4-1,1.3-1.1,2.2,0,1.4,.6,2.5,1.8,3.2-.4,.2-.9,.2-1.3,.2,.5,.2,1.1,.2,1.6,0,.1,.2,.2,.3,.3,.5,.1-.2,.2-.3,.3-.5,.5,0,1,0,1.6,0-.5,0-.9,0-1.3-.2,1-.6,1.6-1.4,1.8-2.6Zm-3.9-3c-1,.3-2,1.2-2.1,2.6,0,1.3,.8,2.2,1.4,2.5-.6-.8-.8-1.7-.7-2.7,.1-1,.6-1.8,1.4-2.4Zm5.3,2.3c-.2-1.3-1.2-2.1-2-2.3,.8,.6,1.2,1.4,1.4,2.4,.2,1,0,1.9-.7,2.7,.8-.5,1.5-1.6,1.3-2.8Zm-2.7-3.1c0,.2-.2,.3-.4,.4-.2,0-.4,0-.5-.2-.2,.3-.7,.3-.9-.1,0,.2,0,.5,.2,.6,.2,.2,.5,.1,.7-.1,.3,.2,.5,.3,.7,.1,.2-.1,.3-.4,.2-.6Z"/><path class="e" d="M13.8,9.7c.8,.8,1.2,1.8,1.1,2.9-.1,1.1-.8,2-1.8,2.6,.4,.2,.9,.2,1.3,.2-.5,.2-1.1,.2-1.6,0-.1,.2-.2,.3-.3,.5-.1-.2-.2-.3-.3-.5-.5,0-1,0-1.6,0,.4,0,.9,0,1.3-.2-1.2-.7-1.9-1.8-1.8-3.2,0-.9,.5-1.8,1.1-2.2-1.3,2.1-.2,4.2,1,4.9,0,0,0,0,0,0,0-.8,0-1.6,0-2.5,0-.8,0-1.5,0-2.3,0,0,0,0,0,0,.1-.1,.3-.2,.4-.3,.1,0,.3,.2,.4,.3,0,0,0,0,0,.1,0,1.2,0,2.4,0,3.6,0,.4,0,.8,0,1.2,1.2-.8,2.2-2.9,1-4.9Z"/><path class="e" d="M10.9,9.6c-.8,.6-1.3,1.4-1.4,2.4-.1,1,0,1.9,.7,2.7-.6-.3-1.4-1.2-1.3-2.5,0-1.4,1.1-2.3,2.1-2.6Z"/><path class="e" d="M14.8,14.7c.6-.8,.8-1.7,.7-2.7-.1-1-.6-1.8-1.4-2.4,.9,.2,1.9,1,2.1,2.3,.2,1.3-.5,2.3-1.3,2.8Z"/><path class="e" d="M11.6,8.8c.2,.5,.7,.5,.9,.1,.1,.2,.3,.3,.5,.2,.2,0,.3-.2,.4-.4,0,.2,0,.5-.2,.6-.2,.2-.5,.1-.7-.1-.3,.2-.5,.3-.7,.1-.2-.1-.3-.4-.2-.6Z"/></g><path class="g" d="M25,12.5c0,1.5-.2,2.9-.7,4.2-1.7,4.9-6.3,8.3-11.8,8.3S2.4,21.5,.7,16.7c-.5-1.3-.7-2.7-.7-4.2s.2-2.9,.7-4.2C2.4,3.5,7.1,0,12.5,0s10.1,3.5,11.8,8.3c.5,1.3,.7,2.7,.7,4.2Z"/></g></g></g></svg>