<?xml version="1.0" encoding="UTF-8"?><svg xmlns="http://www.w3.org/2000/svg" viewBox="0 0 25 25"><defs><style>.d{fill:#fff;}.e{fill:#a4143c;}</style></defs><g id="a"/><g id="b"><g id="c"><g><path class="e" d="M25,12.5c0,6.9-5.6,12.5-12.5,12.5s-5.3-.9-7.3-2.4l3.7-1.1-5-1.5,5-1.5-5-1.5,5-1.5-5-1.5,5-1.5-5-1.5,5-1.5-5-1.5,5-1.5-5-1.5,5-1.5-3.5-1.1C7.4,.8,9.8,0,12.5,0c6.9,0,12.5,5.6,12.5,12.5Z"/><path class="d" d="M8.8,6.3l-5,1.5,5,1.5-5,1.5,5,1.5-5,1.5,5,1.5-5,1.5,5,1.5-5,1.5,5,1.5-3.7,1.1C2,20.3,0,16.7,0,12.5S2.1,4.5,5.3,2.3l3.5,1.1-5,1.5,5,1.5Z"/></g></g></g></svg>