<?xml version="1.0" encoding="UTF-8"?><svg xmlns="http://www.w3.org/2000/svg" viewBox="0 0 25 25"><defs><style>.d{fill:#fff;}.e{fill:#f01;}.f{fill:none;}</style></defs><g id="a"/><g id="b"><g id="c"><g><path class="e" d="M25,12.5c0,6.9-5.6,12.5-12.5,12.5S0,19.4,0,12.5,5.6,0,12.5,0s12.5,5.6,12.5,12.5Z"/><g><g><path class="d" d="M12.5,5c-4.1,0-7.5,3.4-7.5,7.4s3.3,7.6,7.5,7.6,7.5-3.3,7.5-7.4c0-4.2-3.3-7.6-7.5-7.6Zm-3.7,10.8c-1.6-1.8-1.7-4.5-.3-6.3,1.5-1.9,4.1-2.4,5.9-1.5-1.4,0-2.5,.5-3.4,1.4-.9,1-1.3,2.1-1.2,3.4,.1,1.9,1.6,4,4.6,4.1-1.6,.8-4.1,.6-5.6-1.2Z"/><path class="e" d="M14.5,17c-1.6,.8-4.1,.6-5.6-1.2-1.6-1.8-1.7-4.5-.3-6.3,1.5-1.9,4.1-2.4,5.9-1.5-1.4,0-2.5,.5-3.4,1.4-.9,1-1.3,2.1-1.2,3.4,.1,1.9,1.6,4,4.5,4.1Z"/></g><polygon class="e" points="17.1 10.7 14.8 11.3 13.5 9.4 13.4 11.7 11.1 12.4 13.3 13.2 13.2 15.5 14.7 13.8 16.9 14.5 15.7 12.5 17.1 10.7"/></g><path class="f" d="M25,12.5c0,6.9-5.6,12.5-12.5,12.5S0,19.4,0,12.5,5.6,0,12.5,0s12.5,5.6,12.5,12.5Z"/><path class="f" d="M25,12.5c0,6.9-5.6,12.5-12.5,12.5S0,19.4,0,12.5,5.6,0,12.5,0s12.5,5.6,12.5,12.5Z"/><path class="f" d="M25,12.5c0,6.9-5.6,12.5-12.5,12.5S0,19.4,0,12.5,5.6,0,12.5,0s12.5,5.6,12.5,12.5Z"/></g></g></g></svg>