<?xml version="1.0" encoding="UTF-8"?><svg xmlns="http://www.w3.org/2000/svg" viewBox="0 0 25 25"><defs><style>.d{mix-blend-mode:multiply;opacity:.4;}.e{fill:#fff;}.f{isolation:isolate;}.g{fill:#ffe000;}.h{fill:none;}.i{fill:#009fff;}.j{fill:#ee9c00;}</style></defs><g class="f"><g id="a"/><g id="b"><g id="c"><g><path class="i" d="M22.9,19.5c-.7,1.1-1.6,2-2.6,2.8H4.7c-1-.8-1.8-1.7-2.6-2.8H22.9Z"/><path class="i" d="M25,13.9c0,1-.3,1.9-.6,2.8H.7c-.3-.9-.5-1.8-.6-2.8H25Z"/><path class="i" d="M10.4,10.4c-.9-.6-1.8-1.2-2.7-1.8,0,0,.2-.1,.2-.2,0,0,0,0,0,0h.3l2,2Z"/><path class="i" d="M25,11.1H13.9v-2.8h10.5c.3,.9,.5,1.8,.6,2.8Z"/><path class="i" d="M4.5,5.2h0c-.1,0-.2,0-.4-.1-.2,0-.5-.1-.7-.1-.2,0-.5,0-.7,0,0,0,0,0-.1,0,.3-.4,.6-.8,1-1.2,.3,.5,.6,.9,1,1.4Z"/><path class="i" d="M2.5,5.6h-.4c0,0,0,0,0-.1,0,0,.1,0,.2,0,0,0,.1,0,.2,0Z"/><path class="i" d="M5.2,4.2h0c-.4-.2-.9-.5-1.3-.8,.2-.2,.5-.5,.8-.7h0c0,0,0,.1,0,.2,.1,.2,.2,.4,.3,.6,0,.2,.1,.5,.2,.7Z"/><path class="i" d="M6.1,5.1c-.2,0-.4,.2-.5,.3-.6-.6-1.2-1.2-1.8-1.8,0,0,0,0,0,0,.8,.5,1.5,1,2.3,1.6Z"/><path class="i" d="M22.9,5.6H13.9V2.8h6.5c1,.8,1.9,1.7,2.6,2.8Z"/><path class="d" d="M4.5,5.2h0c-.1,0-.2,0-.4-.1-.2,0-.5-.1-.7-.1-.2,0-.5,0-.7,0,0,0,0,0-.1,0,.3-.4,.6-.8,1-1.2,.3,.5,.6,.9,1,1.4Z"/><path class="d" d="M5.2,4.2h0c-.4-.2-.9-.5-1.3-.8,.2-.2,.5-.5,.8-.7h0c0,0,0,.1,0,.2,.1,.2,.2,.4,.3,.6,0,.2,.1,.5,.2,.7Z"/><path class="d" d="M6.1,5.1c-.2,0-.4,.2-.5,.3-.6-.6-1.2-1.2-1.8-1.8,0,0,0,0,0,0,.8,.5,1.5,1,2.3,1.6Z"/><path class="d" d="M11.1,2.6s0,0,0,.1h-.1c0,0,.1,0,.2-.1Z"/><path class="d" d="M11.9,6.9c-1.1,.2-2.1,.4-3.2,.6,0,0,0-.1,0-.2,0-.1,0-.2,0-.4t0,0h3Z"/><path class="d" d="M3.9,6.3c-.8,.2-1.7,.3-2.5,.5,.2-.4,.5-.8,.7-1.2,0,0,0,0,0-.1,0,0,.1,0,.2,0,0,0,.1,0,.2,0,0,0,.2,0,.3,0,.4,.1,.8,.3,1.1,.6h0Z"/><path class="d" d="M5.1,6.2c0,0,0,.1,0,.2,0,.1,0,.2,0,.4t0,0H1.9c1.1-.2,2.1-.4,3.2-.6Z"/><path class="d" d="M10.4,10.4c-.9-.6-1.8-1.2-2.7-1.8,0,0,.2-.1,.2-.2,0,0,0,0,0,0,0,0,.1,0,.2-.1l2.2,2.2Z"/><path class="d" d="M6.1,7.6s0,0,0,0h0s0,0,0,0c0,0,0,0,0,0,0,0,0,0,0,0,0,0,0,0,0,0,0,0,0,0,0,0,0,0,0-.1,0-.2,0,0,0,0,.1-.1,0,0,0,0,0,0Z"/><path class="d" d="M6.5,6.4s0,0,0,0c0,0,0,0,0,0h0c-.1,0-.2,.1-.4,.1,0,0,0,0-.1,0,0,0-.2,0-.2-.2h0s0,0,0,0c0,0,0,0,0-.2,0,0-.1,0-.2,0,0,0,0,0,0,0h.2c0-.2,.2-.2,.3-.2s.2,0,.3,0c.1,0,.2,.1,.2,.2,0,0-.1-.1-.2-.2,0,0,0,.1,0,.2h-.1c0,.1,.1,0,.2,0,0,0,0,0,0,0Z"/><path class="d" d="M6.7,6.1s0,0,0,0c0,0,0,0,0,0,0,0,0,0,0,0h0c0,0,0-.1-.1-.1,0,0-.2,0-.3,0-.2,0-.3,0-.4,0s0,0,0,0c0,0,0,0,0,0,0,0,0,0,0,0,0,0,.2-.1,.3-.2,0,0,.2,0,.2,0,0,0,0,0,0,0,0,0,0,0,.1,0,.2,0,.3,.2,.4,.3h0s0,0,0,0Z"/><path class="d" d="M7.1,8.1c-.1,0-.2,0-.3,0h0c0,0,.2,0,.3,0Z"/><path class="d" d="M7.6,7.3h0c0,0-.1,0-.2,0,0,0-.1,0-.2,0s0,0-.1,0c0,0,0,0,0,0,0,0,0,0,0,0,0,0,0,0-.1,0-.1,0-.2,0-.4,0,0,0-.2,0-.2,0h0c0,0,0-.1,.2-.2h0s0,0,0,0c0,0,0,0,0,0,0,0,0,0,0-.1,0,0,0,0,0,0h0s0,0,0,0c0,0,0,0,0,0s0,0,0,0c0,0,0,0,0,0,0,0,0,0,0,0h0s0,0,0,0h0s0,0,0,0c0,0,0,0,0,0h.2s0,0,0,0c0,0,0,0,0,0h0s0,0,0,0h0s0,0,0,0h0s0,0,0,0c0,0,0,0,0,0h0s0,0,0,0c0,0,0,0,0,0,0,0,0,0,0,0,0,0,0,0,0,0,0,0,0,0,0,0,0,0,0,0,0,.1,0,0,0,0,0,0,0,0,0,0,0,0,0,0,0,0,0,0,0,0,.1,0,.2,.2Z"/><path class="d" d="M7.7,7.7c-.1,0-.2,.1-.3,.2-.1,0-.2,0-.4,.1-.1,0-.3,0-.4,0,0,0-.1,0-.2,0-.1,0-.3-.2-.4-.2,0,0,0,0,0,0,0,0,0,0,0,0h0c0,0-.2,0-.2,0,0,0,0,0,.2,0,0,0,.2,0,.3,0s.2,0,.3,0c.1,0,.2,0,.3,0,0,0,.2,0,.2,0,.1,0,.2,0,.3,0,0,0,0,0,0,0,0,0-.1,0-.2,0h0c0,0,.2,0,.2,0Z"/><path class="d" d="M7.9,7.8h0c0,0,0,0,0,0,0,0,0,0,0,0,0,0,0,0,0,0h0s0,0,0,0h0s0,0,0,0c0,0,0,0,0,0,0,0,0,0,0,.1,0,0,0,0,0,0Z"/><path class="d" d="M8.1,6.4h0c0,0-.2,.2-.2,.2,0,0-.1,0-.2,0,0,0-.2,0-.3,0,0,0,0,0,0,0s0,0,0,0c0,0,0,0,0,0,0,0,0,0,0,0,0,0,.1,0,.2,0h0c-.1,0-.2-.2-.2-.3,0,0-.1,0-.2,.2,0,0,0-.1,0-.2,0,0,0,0,.2,0,0,0,.2,0,.3,0,0,0,.2,0,.2,.1,0,0,.1,0,.2,.2,0,0-.1,0-.2-.1,0,0,0,0,0,.1,0,0,0,0,0,0Z"/><path class="d" d="M8.3,6.1s0,0-.1,0c0,0,0,0,0,0-.1,0-.3,0-.4,0s-.2,0-.3,0c0,0,0,0-.1,0,0,0,0,0,0,0,0,0,0,0,0,0,0,0,0,0,0,0h0s0,0,0,0c0,0,0,0,0,0h0c0-.1,.2-.2,.3-.3,0,0,0,0,.1,0s0,0,.1,0c.2,0,.4,.1,.5,.2,0,0,0,0,0,0Z"/><path class="d" d="M22.9,5.6H13.9V2.8h6.5c1,.8,1.9,1.7,2.6,2.8Z"/><path class="d" d="M25,11.1H13.9v-2.8h10.5c.3,.9,.5,1.8,.6,2.8Z"/><path class="d" d="M25,13.9c0,1-.3,1.9-.6,2.8-.3,1-.8,1.9-1.4,2.8-.7,1.1-1.6,2-2.6,2.8-2.1,1.7-4.9,2.8-7.9,2.8s-5.7-1-7.9-2.8c-1-.8-1.8-1.7-2.6-2.8-.6-.8-1-1.8-1.4-2.8-.3-.9-.5-1.8-.6-2.8H25Z"/><path class="e" d="M20.4,22.3c-2.1,1.7-4.9,2.8-7.9,2.8s-5.7-1-7.9-2.8h15.7Z"/><path class="e" d="M24.3,16.7c-.3,1-.8,1.9-1.4,2.8H2.1c-.6-.8-1-1.8-1.4-2.8H24.3Z"/><path class="e" d="M8.4,8.4h-.3c0,0,.1,0,.2-.1h.1Z"/><path class="e" d="M3.9,6.3c-.8,.2-1.7,.3-2.5,.5,.2-.4,.5-.8,.7-1.2h.4c0,0,.2,0,.3,0,.4,.1,.8,.3,1.1,.6h0Z"/><path class="e" d="M5.1,6.2c0,0,0,.1,0,.2,0,.1,0,.2,0,.4t0,0H1.9c1.1-.2,2.1-.4,3.2-.6Z"/><path class="e" d="M6.1,7.6s0,0,0,0h0s0,0,0,0c0,0,0,0,0,0,0,0,0,0,0,0,0,0,0,0,0,0,0,0,0,0,0,0,0,0,0-.1,0-.2,0,0,0,0,.1-.1,0,0,0,0,0,0Z"/><path class="e" d="M6.5,6.4s0,0,0,0c0,0,0,0,0,0h0c-.1,0-.2,.1-.4,.1,0,0,0,0-.1,0,0,0-.2,0-.2-.2h0s0,0,0,0c0,0,0,0,0-.2,0,0-.1,0-.2,0,0,0,0,0,0,0h.2c0-.2,.2-.2,.3-.2s.2,0,.3,0c.1,0,.2,.1,.2,.2,0,0-.1-.1-.2-.2,0,0,0,.1,0,.2h-.1c0,.1,.1,0,.2,0,0,0,0,0,0,0Z"/><path class="e" d="M6.7,6.1s0,0,0,0c0,0,0,0,0,0,0,0,0,0,0,0h0c0,0,0-.1-.1-.1,0,0-.2,0-.3,0-.2,0-.3,0-.4,0s0,0,0,0c0,0,0,0,0,0,0,0,0,0,0,0,0,0,.2-.1,.3-.2,0,0,.2,0,.2,0,0,0,0,0,0,0,0,0,0,0,.1,0,.2,0,.3,.2,.4,.3h0s0,0,0,0Z"/><path class="e" d="M7.1,8.1c-.1,0-.2,0-.3,0h0c0,0,.2,0,.3,0Z"/><path class="e" d="M7.6,7.3h0c0,0-.1,0-.2,0,0,0-.1,0-.2,0s0,0-.1,0c0,0,0,0,0,0,0,0,0,0,0,0,0,0,0,0-.1,0-.1,0-.2,0-.4,0,0,0-.2,0-.2,0h0c0,0,0-.1,.2-.2h0s0,0,0,0c0,0,0,0,0,0,0,0,0,0,0-.1,0,0,0,0,0,0h0s0,0,0,0c0,0,0,0,0,0s0,0,0,0c0,0,0,0,0,0,0,0,0,0,0,0h0s0,0,0,0h0s0,0,0,0c0,0,0,0,0,0h.2s0,0,0,0c0,0,0,0,0,0h0s0,0,0,0h0s0,0,0,0h0s0,0,0,0c0,0,0,0,0,0h0s0,0,0,0c0,0,0,0,0,0,0,0,0,0,0,0,0,0,0,0,0,0,0,0,0,0,0,0,0,0,0,0,0,.1,0,0,0,0,0,0,0,0,0,0,0,0,0,0,0,0,0,0,0,0,.1,0,.2,.2Z"/><path class="e" d="M7.7,7.7c-.1,0-.2,.1-.3,.2-.1,0-.2,0-.4,.1-.1,0-.3,0-.4,0,0,0-.1,0-.2,0-.1,0-.3-.2-.4-.2,0,0,0,0,0,0,0,0,0,0,0,0h0c0,0-.2,0-.2,0,0,0,0,0,.2,0,0,0,.2,0,.3,0s.2,0,.3,0c.1,0,.2,0,.3,0,0,0,.2,0,.2,0,.1,0,.2,0,.3,0,0,0,0,0,0,0,0,0-.1,0-.2,0h0c0,0,.2,0,.2,0Z"/><path class="e" d="M7.9,7.8h0c0,0,0,0,0,0,0,0,0,0,0,0,0,0,0,0,0,0h0s0,0,0,0h0s0,0,0,0c0,0,0,0,0,0,0,0,0,0,0,.1,0,0,0,0,0,0Z"/><path class="e" d="M8.1,6.4h0c0,0-.2,.2-.2,.2,0,0-.1,0-.2,0,0,0-.2,0-.3,0,0,0,0,0,0,0s0,0,0,0c0,0,0,0,0,0,0,0,0,0,0,0,0,0,.1,0,.2,0h0c-.1,0-.2-.2-.2-.3,0,0-.1,0-.2,.2,0,0,0-.1,0-.2,0,0,0,0,.2,0,0,0,.2,0,.3,0,0,0,.2,0,.2,.1,0,0,.1,0,.2,.2,0,0-.1,0-.2-.1,0,0,0,0,0,.1,0,0,0,0,0,0Z"/><path class="e" d="M8.3,6.1s0,0-.1,0c0,0,0,0,0,0-.1,0-.3,0-.4,0s-.2,0-.3,0c0,0,0,0-.1,0,0,0,0,0,0,0,0,0,0,0,0,0,0,0,0,0,0,0h0s0,0,0,0c0,0,0,0,0,0h0c0-.1,.2-.2,.3-.3,0,0,0,0,.1,0s0,0,.1,0c.2,0,.4,.1,.5,.2,0,0,0,0,0,0Z"/><path class="e" d="M11.9,6.9c-1.1,.2-2.1,.4-3.2,.6,0,0,0-.1,0-.2,0-.1,0-.2,0-.4t0,0h3Z"/><path class="e" d="M11.1,2.6s0,0,0,.1h-.1c0,0,.1,0,.2-.1Z"/><path class="e" d="M4.5,5.2h0c-.1,0-.2,0-.4-.1-.2,0-.5-.1-.7-.1-.2,0-.5,0-.7,0,0,0,0,0-.1,0,.3-.4,.6-.8,1-1.2,.3,.5,.6,.9,1,1.4Z"/><path class="e" d="M5.2,4.2h0c-.4-.2-.9-.5-1.3-.8,.2-.2,.5-.5,.8-.7h0c0,0,0,.1,0,.2,.1,.2,.2,.4,.3,.6,0,.2,.1,.5,.2,.7Z"/><path class="e" d="M6.1,5.1c-.2,0-.4,.2-.5,.3-.6-.6-1.2-1.2-1.8-1.8,0,0,0,0,0,0,.8,.5,1.5,1,2.3,1.6Z"/><path class="e" d="M11.1,2.6s0,0,0,.1h-.1c0,0,.1,0,.2-.1Z"/><path class="e" d="M11.9,6.9c-1.1,.2-2.1,.4-3.2,.6,0,0,0-.1,0-.2,0-.1,0-.2,0-.4t0,0h3Z"/><path class="e" d="M3.9,6.3c-.8,.2-1.7,.3-2.5,.5,.2-.4,.5-.8,.7-1.2,0,0,0,0,0-.1,0,0,.1,0,.2,0,0,0,.1,0,.2,0,0,0,.2,0,.3,0,.4,.1,.8,.3,1.1,.6h0Z"/><path class="e" d="M5.1,6.2c0,0,0,.1,0,.2,0,.1,0,.2,0,.4t0,0H1.9c1.1-.2,2.1-.4,3.2-.6Z"/><path class="e" d="M10.4,10.4c-.9-.6-1.8-1.2-2.7-1.8,0,0,.2-.1,.2-.2,0,0,0,0,0,0,0,0,.1,0,.2-.1l2.2,2.2Z"/><path class="e" d="M6.1,7.6s0,0,0,0h0s0,0,0,0c0,0,0,0,0,0,0,0,0,0,0,0,0,0,0,0,0,0,0,0,0,0,0,0,0,0,0-.1,0-.2,0,0,0,0,.1-.1,0,0,0,0,0,0Z"/><path class="e" d="M6.5,6.4s0,0,0,0c0,0,0,0,0,0h0c-.1,0-.2,.1-.4,.1,0,0,0,0-.1,0,0,0-.2,0-.2-.2h0s0,0,0,0c0,0,0,0,0-.2,0,0-.1,0-.2,0,0,0,0,0,0,0h.2c0-.2,.2-.2,.3-.2s.2,0,.3,0c.1,0,.2,.1,.2,.2,0,0-.1-.1-.2-.2,0,0,0,.1,0,.2h-.1c0,.1,.1,0,.2,0,0,0,0,0,0,0Z"/><path class="e" d="M6.7,6.1s0,0,0,0c0,0,0,0,0,0,0,0,0,0,0,0h0c0,0,0-.1-.1-.1,0,0-.2,0-.3,0-.2,0-.3,0-.4,0s0,0,0,0c0,0,0,0,0,0,0,0,0,0,0,0,0,0,.2-.1,.3-.2,0,0,.2,0,.2,0,0,0,0,0,0,0,0,0,0,0,.1,0,.2,0,.3,.2,.4,.3h0s0,0,0,0Z"/><path class="e" d="M7.1,8.1c-.1,0-.2,0-.3,0h0c0,0,.2,0,.3,0Z"/><path class="e" d="M7.6,7.3h0c0,0-.1,0-.2,0,0,0-.1,0-.2,0s0,0-.1,0c0,0,0,0,0,0,0,0,0,0,0,0,0,0,0,0-.1,0-.1,0-.2,0-.4,0,0,0-.2,0-.2,0h0c0,0,0-.1,.2-.2h0s0,0,0,0c0,0,0,0,0,0,0,0,0,0,0-.1,0,0,0,0,0,0h0s0,0,0,0c0,0,0,0,0,0s0,0,0,0c0,0,0,0,0,0,0,0,0,0,0,0h0s0,0,0,0h0s0,0,0,0c0,0,0,0,0,0h.2s0,0,0,0c0,0,0,0,0,0h0s0,0,0,0h0s0,0,0,0h0s0,0,0,0c0,0,0,0,0,0h0s0,0,0,0c0,0,0,0,0,0,0,0,0,0,0,0,0,0,0,0,0,0,0,0,0,0,0,0,0,0,0,0,0,.1,0,0,0,0,0,0,0,0,0,0,0,0,0,0,0,0,0,0,0,0,.1,0,.2,.2Z"/><path class="e" d="M7.7,7.7c-.1,0-.2,.1-.3,.2-.1,0-.2,0-.4,.1-.1,0-.3,0-.4,0,0,0-.1,0-.2,0-.1,0-.3-.2-.4-.2,0,0,0,0,0,0,0,0,0,0,0,0h0c0,0-.2,0-.2,0,0,0,0,0,.2,0,0,0,.2,0,.3,0s.2,0,.3,0c.1,0,.2,0,.3,0,0,0,.2,0,.2,0,.1,0,.2,0,.3,0,0,0,0,0,0,0,0,0-.1,0-.2,0h0c0,0,.2,0,.2,0Z"/><path class="e" d="M7.9,7.8h0c0,0,0,0,0,0,0,0,0,0,0,0,0,0,0,0,0,0h0s0,0,0,0h0s0,0,0,0c0,0,0,0,0,0,0,0,0,0,0,.1,0,0,0,0,0,0Z"/><path class="e" d="M8.1,6.4h0c0,0-.2,.2-.2,.2,0,0-.1,0-.2,0,0,0-.2,0-.3,0,0,0,0,0,0,0s0,0,0,0c0,0,0,0,0,0,0,0,0,0,0,0,0,0,.1,0,.2,0h0c-.1,0-.2-.2-.2-.3,0,0-.1,0-.2,.2,0,0,0-.1,0-.2,0,0,0,0,.2,0,0,0,.2,0,.3,0,0,0,.2,0,.2,.1,0,0,.1,0,.2,.2,0,0-.1,0-.2-.1,0,0,0,0,0,.1,0,0,0,0,0,0Z"/><path class="e" d="M8.3,6.1s0,0-.1,0c0,0,0,0,0,0-.1,0-.3,0-.4,0s-.2,0-.3,0c0,0,0,0-.1,0,0,0,0,0,0,0,0,0,0,0,0,0,0,0,0,0,0,0h0s0,0,0,0c0,0,0,0,0,0h0c0-.1,.2-.2,.3-.3,0,0,0,0,.1,0s0,0,.1,0c.2,0,.4,.1,.5,.2,0,0,0,0,0,0Z"/><path class="h" d="M4.5,5.2h0c-.1,0-.2,0-.4-.1-.2,0-.5-.1-.7-.1-.2,0-.5,0-.7,0,0,0,0,0-.1,0,.3-.4,.6-.8,1-1.2,.3,.5,.6,.9,1,1.4Z"/><path class="h" d="M5.2,4.2h0c-.4-.2-.9-.5-1.3-.8,.2-.2,.5-.5,.8-.7h0c0,0,0,.1,0,.2,.1,.2,.2,.4,.3,.6,0,.2,.1,.5,.2,.7Z"/><path class="h" d="M6.1,5.1c-.2,0-.4,.2-.5,.3-.6-.6-1.2-1.2-1.8-1.8,0,0,0,0,0,0,.8,.5,1.5,1,2.3,1.6Z"/><path class="h" d="M11.1,2.6s0,0,0,.1h-.1c0,0,.1,0,.2-.1Z"/><path class="h" d="M11.9,6.9c-1.1,.2-2.1,.4-3.2,.6,0,0,0-.1,0-.2,0-.1,0-.2,0-.4t0,0h3Z"/><path class="h" d="M3.9,6.3c-.8,.2-1.7,.3-2.5,.5,.2-.4,.5-.8,.7-1.2,0,0,0,0,0-.1,0,0,.1,0,.2,0,0,0,.1,0,.2,0,0,0,.2,0,.3,0,.4,.1,.8,.3,1.1,.6h0Z"/><path class="h" d="M5.1,6.2c0,0,0,.1,0,.2,0,.1,0,.2,0,.4t0,0H1.9c1.1-.2,2.1-.4,3.2-.6Z"/><path class="h" d="M10.4,10.4c-.9-.6-1.8-1.2-2.7-1.8,0,0,.2-.1,.2-.2,0,0,0,0,0,0,0,0,.1,0,.2-.1l2.2,2.2Z"/><path class="h" d="M6.1,7.6s0,0,0,0h0s0,0,0,0c0,0,0,0,0,0,0,0,0,0,0,0,0,0,0,0,0,0,0,0,0,0,0,0,0,0,0-.1,0-.2,0,0,0,0,.1-.1,0,0,0,0,0,0Z"/><path class="h" d="M6.5,6.4s0,0,0,0c0,0,0,0,0,0h0c-.1,0-.2,.1-.4,.1,0,0,0,0-.1,0,0,0-.2,0-.2-.2h0s0,0,0,0c0,0,0,0,0-.2,0,0-.1,0-.2,0,0,0,0,0,0,0h.2c0-.2,.2-.2,.3-.2s.2,0,.3,0c.1,0,.2,.1,.2,.2,0,0-.1-.1-.2-.2,0,0,0,.1,0,.2h-.1c0,.1,.1,0,.2,0,0,0,0,0,0,0Z"/><path class="h" d="M6.7,6.1s0,0,0,0c0,0,0,0,0,0,0,0,0,0,0,0h0c0,0,0-.1-.1-.1,0,0-.2,0-.3,0-.2,0-.3,0-.4,0s0,0,0,0c0,0,0,0,0,0,0,0,0,0,0,0,0,0,.2-.1,.3-.2,0,0,.2,0,.2,0,0,0,0,0,0,0,0,0,0,0,.1,0,.2,0,.3,.2,.4,.3h0s0,0,0,0Z"/><path class="h" d="M7.1,8.1c-.1,0-.2,0-.3,0h0c0,0,.2,0,.3,0Z"/><path class="h" d="M7.6,7.3h0c0,0-.1,0-.2,0,0,0-.1,0-.2,0s0,0-.1,0c0,0,0,0,0,0,0,0,0,0,0,0,0,0,0,0-.1,0-.1,0-.2,0-.4,0,0,0-.2,0-.2,0h0c0,0,0-.1,.2-.2h0s0,0,0,0c0,0,0,0,0,0,0,0,0,0,0-.1,0,0,0,0,0,0h0s0,0,0,0c0,0,0,0,0,0s0,0,0,0c0,0,0,0,0,0,0,0,0,0,0,0h0s0,0,0,0h0s0,0,0,0c0,0,0,0,0,0h.2s0,0,0,0c0,0,0,0,0,0h0s0,0,0,0h0s0,0,0,0h0s0,0,0,0c0,0,0,0,0,0h0s0,0,0,0c0,0,0,0,0,0,0,0,0,0,0,0,0,0,0,0,0,0,0,0,0,0,0,0,0,0,0,0,0,.1,0,0,0,0,0,0,0,0,0,0,0,0,0,0,0,0,0,0,0,0,.1,0,.2,.2Z"/><path class="h" d="M7.7,7.7c-.1,0-.2,.1-.3,.2-.1,0-.2,0-.4,.1-.1,0-.3,0-.4,0,0,0-.1,0-.2,0-.1,0-.3-.2-.4-.2,0,0,0,0,0,0,0,0,0,0,0,0h0c0,0-.2,0-.2,0,0,0,0,0,.2,0,0,0,.2,0,.3,0s.2,0,.3,0c.1,0,.2,0,.3,0,0,0,.2,0,.2,0,.1,0,.2,0,.3,0,0,0,0,0,0,0,0,0-.1,0-.2,0h0c0,0,.2,0,.2,0Z"/><path class="h" d="M7.9,7.8h0c0,0,0,0,0,0,0,0,0,0,0,0,0,0,0,0,0,0h0s0,0,0,0h0s0,0,0,0c0,0,0,0,0,0,0,0,0,0,0,.1,0,0,0,0,0,0Z"/><path class="h" d="M8.1,6.4h0c0,0-.2,.2-.2,.2,0,0-.1,0-.2,0,0,0-.2,0-.3,0,0,0,0,0,0,0s0,0,0,0c0,0,0,0,0,0,0,0,0,0,0,0,0,0,.1,0,.2,0h0c-.1,0-.2-.2-.2-.3,0,0-.1,0-.2,.2,0,0,0-.1,0-.2,0,0,0,0,.2,0,0,0,.2,0,.3,0,0,0,.2,0,.2,.1,0,0,.1,0,.2,.2,0,0-.1,0-.2-.1,0,0,0,0,0,.1,0,0,0,0,0,0Z"/><path class="h" d="M8.3,6.1s0,0-.1,0c0,0,0,0,0,0-.1,0-.3,0-.4,0s-.2,0-.3,0c0,0,0,0-.1,0,0,0,0,0,0,0,0,0,0,0,0,0,0,0,0,0,0,0h0s0,0,0,0c0,0,0,0,0,0h0c0-.1,.2-.2,.3-.3,0,0,0,0,.1,0s0,0,.1,0c.2,0,.4,.1,.5,.2,0,0,0,0,0,0Z"/><path class="h" d="M22.9,5.6H13.9V2.8h6.5c1,.8,1.9,1.7,2.6,2.8Z"/><path class="h" d="M25,11.1H13.9v-2.8h10.5c.3,.9,.5,1.8,.6,2.8Z"/><path class="h" d="M25,13.9c0,1-.3,1.9-.6,2.8-.3,1-.8,1.9-1.4,2.8-.7,1.1-1.6,2-2.6,2.8-2.1,1.7-4.9,2.8-7.9,2.8s-5.7-1-7.9-2.8c-1-.8-1.8-1.7-2.6-2.8-.6-.8-1-1.8-1.4-2.8-.3-.9-.5-1.8-.6-2.8H25Z"/><path class="h" d="M4.5,5.2h0c-.1,0-.2,0-.4-.1-.2,0-.5-.1-.7-.1-.2,0-.5,0-.7,0,0,0,0,0-.1,0,.3-.4,.6-.8,1-1.2,.3,.5,.6,.9,1,1.4Z"/><path class="h" d="M5.2,4.2h0c-.4-.2-.9-.5-1.3-.8,.2-.2,.5-.5,.8-.7h0c0,0,0,.1,0,.2,.1,.2,.2,.4,.3,.6,0,.2,.1,.5,.2,.7Z"/><path class="h" d="M6.1,5.1c-.2,0-.4,.2-.5,.3-.6-.6-1.2-1.2-1.8-1.8,0,0,0,0,0,0,.8,.5,1.5,1,2.3,1.6Z"/><path class="h" d="M11.1,2.6s0,0,0,.1h-.1c0,0,.1,0,.2-.1Z"/><path class="h" d="M11.9,6.9c-1.1,.2-2.1,.4-3.2,.6,0,0,0-.1,0-.2,0-.1,0-.2,0-.4t0,0h3Z"/><path class="h" d="M3.9,6.3c-.8,.2-1.7,.3-2.5,.5,.2-.4,.5-.8,.7-1.2,0,0,0,0,0-.1,0,0,.1,0,.2,0,0,0,.1,0,.2,0,0,0,.2,0,.3,0,.4,.1,.8,.3,1.1,.6h0Z"/><path class="h" d="M5.1,6.2c0,0,0,.1,0,.2,0,.1,0,.2,0,.4t0,0H1.9c1.1-.2,2.1-.4,3.2-.6Z"/><path class="h" d="M10.4,10.4c-.9-.6-1.8-1.2-2.7-1.8,0,0,.2-.1,.2-.2,0,0,0,0,0,0,0,0,.1,0,.2-.1l2.2,2.2Z"/><path class="h" d="M6.1,7.6s0,0,0,0h0s0,0,0,0c0,0,0,0,0,0,0,0,0,0,0,0,0,0,0,0,0,0,0,0,0,0,0,0,0,0,0-.1,0-.2,0,0,0,0,.1-.1,0,0,0,0,0,0Z"/><path class="h" d="M6.5,6.4s0,0,0,0c0,0,0,0,0,0h0c-.1,0-.2,.1-.4,.1,0,0,0,0-.1,0,0,0-.2,0-.2-.2h0s0,0,0,0c0,0,0,0,0-.2,0,0-.1,0-.2,0,0,0,0,0,0,0h.2c0-.2,.2-.2,.3-.2s.2,0,.3,0c.1,0,.2,.1,.2,.2,0,0-.1-.1-.2-.2,0,0,0,.1,0,.2h-.1c0,.1,.1,0,.2,0,0,0,0,0,0,0Z"/><path class="h" d="M6.7,6.1s0,0,0,0c0,0,0,0,0,0,0,0,0,0,0,0h0c0,0,0-.1-.1-.1,0,0-.2,0-.3,0-.2,0-.3,0-.4,0s0,0,0,0c0,0,0,0,0,0,0,0,0,0,0,0,0,0,.2-.1,.3-.2,0,0,.2,0,.2,0,0,0,0,0,0,0,0,0,0,0,.1,0,.2,0,.3,.2,.4,.3h0s0,0,0,0Z"/><path class="h" d="M7.1,8.1c-.1,0-.2,0-.3,0h0c0,0,.2,0,.3,0Z"/><path class="h" d="M7.6,7.3h0c0,0-.1,0-.2,0,0,0-.1,0-.2,0s0,0-.1,0c0,0,0,0,0,0,0,0,0,0,0,0,0,0,0,0-.1,0-.1,0-.2,0-.4,0,0,0-.2,0-.2,0h0c0,0,0-.1,.2-.2h0s0,0,0,0c0,0,0,0,0,0,0,0,0,0,0-.1,0,0,0,0,0,0h0s0,0,0,0c0,0,0,0,0,0s0,0,0,0c0,0,0,0,0,0,0,0,0,0,0,0h0s0,0,0,0h0s0,0,0,0c0,0,0,0,0,0h.2s0,0,0,0c0,0,0,0,0,0h0s0,0,0,0h0s0,0,0,0h0s0,0,0,0c0,0,0,0,0,0h0s0,0,0,0c0,0,0,0,0,0,0,0,0,0,0,0,0,0,0,0,0,0,0,0,0,0,0,0,0,0,0,0,0,.1,0,0,0,0,0,0,0,0,0,0,0,0,0,0,0,0,0,0,0,0,.1,0,.2,.2Z"/><path class="h" d="M7.7,7.7c-.1,0-.2,.1-.3,.2-.1,0-.2,0-.4,.1-.1,0-.3,0-.4,0,0,0-.1,0-.2,0-.1,0-.3-.2-.4-.2,0,0,0,0,0,0,0,0,0,0,0,0h0c0,0-.2,0-.2,0,0,0,0,0,.2,0,0,0,.2,0,.3,0s.2,0,.3,0c.1,0,.2,0,.3,0,0,0,.2,0,.2,0,.1,0,.2,0,.3,0,0,0,0,0,0,0,0,0-.1,0-.2,0h0c0,0,.2,0,.2,0Z"/><path class="h" d="M7.9,7.8h0c0,0,0,0,0,0,0,0,0,0,0,0,0,0,0,0,0,0h0s0,0,0,0h0s0,0,0,0c0,0,0,0,0,0,0,0,0,0,0,.1,0,0,0,0,0,0Z"/><path class="h" d="M8.1,6.4h0c0,0-.2,.2-.2,.2,0,0-.1,0-.2,0,0,0-.2,0-.3,0,0,0,0,0,0,0s0,0,0,0c0,0,0,0,0,0,0,0,0,0,0,0,0,0,.1,0,.2,0h0c-.1,0-.2-.2-.2-.3,0,0-.1,0-.2,.2,0,0,0-.1,0-.2,0,0,0,0,.2,0,0,0,.2,0,.3,0,0,0,.2,0,.2,.1,0,0,.1,0,.2,.2,0,0-.1,0-.2-.1,0,0,0,0,0,.1,0,0,0,0,0,0Z"/><path class="h" d="M8.3,6.1s0,0-.1,0c0,0,0,0,0,0-.1,0-.3,0-.4,0s-.2,0-.3,0c0,0,0,0-.1,0,0,0,0,0,0,0,0,0,0,0,0,0,0,0,0,0,0,0h0s0,0,0,0c0,0,0,0,0,0h0c0-.1,.2-.2,.3-.3,0,0,0,0,.1,0s0,0,.1,0c.2,0,.4,.1,.5,.2,0,0,0,0,0,0Z"/><path class="h" d="M22.9,5.6H13.9V2.8h6.5c1,.8,1.9,1.7,2.6,2.8Z"/><path class="h" d="M25,11.1H13.9v-2.8h10.5c.3,.9,.5,1.8,.6,2.8Z"/><path class="h" d="M25,13.9c0,1-.3,1.9-.6,2.8-.3,1-.8,1.9-1.4,2.8-.7,1.1-1.6,2-2.6,2.8-2.1,1.7-4.9,2.8-7.9,2.8s-5.7-1-7.9-2.8c-1-.8-1.8-1.7-2.6-2.8-.6-.8-1-1.8-1.4-2.8-.3-.9-.5-1.8-.6-2.8H25Z"/><path class="e" d="M25,11.6v1.9c0,.1,0,.3,0,.4H0c0-.5,0-.9,0-1.4s0-.9,0-1.4c0-1,.3-1.9,.6-2.8,.2-.5,.4-1,.6-1.5,.9,.2,1.8,.3,2.7,.5,0,0,0,0,0,0-.2,0-.3,.2-.5,.2-.3,.2-.5,.4-.8,.6,0,0,0,0,0,0,0,0-.1,.2-.2,.2-.1,.1-.2,.2-.4,.3,0,0-.2,0-.3,0h-.4s0,0,0,0c.2,0,.3,.2,.5,.2,.2,0,.4,0,.6,0,.1,0,.3-.1,.4-.2,.2,0,.3-.2,.5-.3,.3-.1,.5-.2,.8-.2,0,0,0,0,0,0-.6,.8-1.1,1.6-1.7,2.4,.9-.6,1.7-1.2,2.6-1.8t0,0c0,.1,0,.3-.1,.4,0,.2-.1,.5-.1,.8,0,.2,0,.5,0,.7,0,0,0,0,0,0,0,0,0,.2,0,.2,0,.2,0,.3-.2,.4-.1,.1-.2,.2-.3,.3h0c.2,0,.4,0,.6-.2,.2-.1,.4-.3,.5-.6,0,0,0-.1,0-.2s0-.1,0-.2c.1-.4,.3-.8,.6-1.1,0,0,0,0,0,0,0,.5,.2,.9,.2,1.4,0,.5,.2,1,.3,1.6,0-.5,.2-1,.3-1.6,0-.5,.2-1,.3-1.5,0,0,0,0,0,0,0,.2,.2,.3,.2,.5,.2,.3,.4,.5,.6,.7,.1,0,.2,.2,.3,.3,0,0,0,0,0,0,.1,0,.2,.2,.3,.4,0,.1,0,.2,0,.3v.3h0c0-.2,.2-.3,.2-.5,0-.2,0-.4,0-.5,0,0,0,0,0,0,0-.1-.1-.3-.2-.4,0-.2-.2-.3-.2-.5-.1-.3-.2-.5-.2-.8h0c.8,.4,1.6,1,2.5,1.6-.6-.9-1.2-1.7-1.8-2.6h0c.1,0,.3,0,.4,.1,.3,0,.5,.1,.8,.1s.4,0,.6,0c0,0,.2,0,.3,0,.1,0,.3,0,.4,.2,.1,0,.2,.2,.3,.3,0,0,0,0,0,0,0,0,0,0,0,0,0-.2-.1-.3-.2-.5,0,0-.1-.2-.2-.2-.1-.1-.2-.2-.4-.2-.1,0-.3,0-.4-.1-.4,0-.8-.3-1.1-.5h0l3-.6c-1-.2-2-.4-3.1-.6t0,0c.2,0,.3-.2,.5-.2,.2-.1,.4-.2,.6-.4,0,0,.1-.1,.2-.2,0-.1,.2-.2,.3-.3,.1-.2,.3-.3,.5-.3,.2,0,.3,0,.5,0h.1c-.2,0-.3-.2-.5-.2-.2,0-.4,0-.6,0-.2,0-.3,.1-.4,.2-.2,0-.3,.2-.5,.3-.2,.1-.5,.2-.8,.2,0,0-.1,0-.2,0,.5-.8,1.1-1.5,1.6-2.3,0,0,0,0,0-.1,0,0-.1,0-.2,.1-.8,.5-1.6,1.1-2.4,1.6h0c.1-.3,.2-.6,.3-1,0-.2,0-.3,0-.5,0,0,0-.1,0-.2,0,0,0-.2,0-.3,0-.2,0-.4,.1-.5,0-.1,.2-.2,.3-.3,0,0,0,0,.1-.1-.2,0-.3,.1-.5,.2-.3,.1-.5,.3-.5,.6,0,.1,0,.3-.1,.4,0,0,0,0,0,0,0,.3-.2,.6-.5,.9,0,0,0,0-.2,.2,0-.4-.1-.7-.2-1.1,0-.5-.2-1-.3-1.5,1.7-.8,3.6-1.3,5.5-1.3s.9,0,1.4,0c2.4,.3,4.7,1.2,6.5,2.7h-6.5v2.8h9.1c.6,.9,1.1,1.8,1.4,2.8H13.9v2.8h11.1c0,.2,0,.3,0,.4Z"/><path class="e" d="M6.8,1.4c0,.5-.2,.9-.3,1.4,0,.4-.2,.8-.2,1.2,0,0,0,0,0,0,0-.1-.1-.3-.2-.4-.2-.3-.4-.5-.6-.8h0c-.1-.1-.2-.2-.3-.3,0,0,0,0,0,0,.5-.4,1.1-.8,1.7-1.1Z"/><path class="h" d="M4.5,5.2h0c-.1,0-.2,0-.4-.1-.2,0-.5-.1-.7-.1-.2,0-.5,0-.7,0,0,0,0,0-.1,0,.3-.4,.6-.8,1-1.2,.3,.5,.6,.9,1,1.4Z"/><path class="h" d="M5.2,4.2h0c-.4-.2-.9-.5-1.3-.8,.2-.2,.5-.5,.8-.7h0c0,0,0,.1,0,.2,.1,.2,.2,.4,.3,.6,0,.2,.1,.5,.2,.7Z"/><path class="h" d="M6.1,5.1c-.2,0-.4,.2-.5,.3-.6-.6-1.2-1.2-1.8-1.8,0,0,0,0,0,0,.8,.5,1.5,1,2.3,1.6Z"/><path class="j" d="M12,8.6c0,0-.1-.2-.2-.2-.1-.1-.2-.2-.4-.2-.1,0-.3,0-.4-.1-.4,0-.8-.3-1.1-.5h0l3-.6c-1-.2-2-.4-3.1-.6t0,0c.2,0,.3-.2,.5-.2,.2-.1,.4-.2,.6-.4,0,0,.1-.1,.2-.2,0-.1,.2-.2,.3-.3,.1-.2,.3-.3,.5-.3,.2,0,.3,0,.5,0h.1c-.2,0-.3-.2-.5-.2-.2,0-.4,0-.6,0-.2,0-.3,.1-.4,.2-.2,0-.3,.2-.5,.3-.2,.1-.5,.2-.8,.2,0,0-.1,0-.2,0,.5-.8,1.1-1.5,1.6-2.3h-.1c-.8,.5-1.6,1.1-2.4,1.6h0c.1-.3,.2-.6,.3-1,0-.2,0-.3,0-.5,0,0,0-.1,0-.2,0,0,0-.2,0-.3,0-.2,0-.4,.1-.5,0-.1,.2-.2,.3-.3,0,0,0,0,.1-.1-.2,0-.3,.1-.5,.2-.3,.1-.5,.3-.5,.6,0,.1,0,.3-.1,.4,0,0,0,0,0,0,0,.3-.2,.6-.5,.9,0,0,0,0-.2,.2,0-.4-.1-.7-.2-1.1,0-.5-.2-1-.3-1.5,0,0,0,0-.2,0,0,.5-.2,.9-.3,1.4,0,.4-.2,.8-.2,1.2,0,0,0,0,0,0,0-.1-.1-.3-.2-.4-.2-.3-.4-.5-.6-.8h0c-.1-.1-.2-.2-.3-.3,0,0,0,0,0,0,0,0,0,0,0,0,0,0,0,0,0,0,0,0,.2,.1,.3,.2,0,0,0,0,0,0,.3,.2,.5,.5,.6,.8,0,.2,.2,.3,.3,.5,0,0,0,0,0,.1,0,.2,0,.4-.1,.6h0c0,0,0-.2-.1-.3-.2-.5-.4-.9-.7-1.4,0-.1-.2-.3-.3-.4,0,0,0-.1-.1-.2,0,0,0,0,0,0,0,0-.2,.1-.3,.2,0,0,0,.1,0,.2,.1,.2,.2,.4,.3,.6,0,.2,.1,.5,.2,.7h0c-.4-.2-.9-.5-1.3-.8,0,0,0,0,0,0,.8,.5,1.5,1,2.3,1.6-.2,0-.4,.2-.5,.3-.6-.6-1.2-1.2-1.8-1.8,0,0-.2,.2-.2,.2,.3,.5,.6,.9,1,1.4h0c-.1,0-.2,0-.4-.1-.2,0-.5-.1-.7-.1-.2,0-.5,0-.7,0,0,0,0,0-.1,0,0,0,0,0,0,.1,0,0,.1,0,.2,0,.2,0,.3,0,.5,0,.2,0,.3,0,.5,0,.3,0,.7,.2,1,.3,0,0,0,0,0,0,0,0,0,.1,.1,.2,0,.1,.2,.2,.2,.3,0,0,0,0,0,0,0,0,0,0,0,0-.2-.1-.5-.3-.8-.4-.3,0-.5-.2-.8-.2-.2,0-.5,0-.7-.1,0,0-.2,0-.3,0,0,0-.1,.2-.2,.3,0,0,.1,0,.2,0,0,0,.1,0,.2,0,0,0,.2,0,.3,0,.4,.1,.8,.3,1.1,.6h0c-.8,.2-1.7,.3-2.5,.5,0,0,0,0,0,.1,.9,.2,1.8,.3,2.7,.5,0,0,0,0,0,0-.2,0-.3,.2-.5,.2-.3,.2-.5,.4-.8,.6,0,0,0,0,0,0,0,0-.1,.2-.2,.2-.1,.1-.2,.2-.4,.3,0,0-.2,0-.3,0h-.4s0,0,0,0c.2,0,.3,.2,.5,.2,.2,0,.4,0,.6,0,.1,0,.3-.1,.4-.2,.2,0,.3-.2,.5-.3,.3-.1,.5-.2,.8-.2,0,0,0,0,0,0-.6,.8-1.1,1.6-1.7,2.4,.9-.6,1.7-1.2,2.6-1.8t0,0c0,.1,0,.3-.1,.4,0,.2-.1,.5-.1,.8,0,.2,0,.5,0,.7,0,0,0,0,0,0,0,0,0,.2,0,.2,0,.2,0,.3-.2,.4-.1,.1-.2,.2-.3,.3h0c.2,0,.4,0,.6-.2,.2-.1,.4-.3,.5-.6,0,0,0-.1,0-.2s0-.1,0-.2c.1-.4,.3-.8,.6-1.1,0,0,0,0,0,0,0,.5,.2,.9,.2,1.4,0,.5,.2,1,.3,1.6,0-.5,.2-1,.3-1.6,0-.5,.2-1,.3-1.5,0,0,0,0,0,0,0,.2,.2,.3,.2,.5,.2,.3,.4,.5,.6,.7,.1,0,.2,.2,.3,.3,0,0,0,0,0,0,.1,0,.2,.2,.3,.4,0,.1,0,.2,0,.3v.3h0c0-.2,.2-.3,.2-.5,0-.2,0-.4,0-.5,0,0,0,0,0,0,0-.1-.1-.3-.2-.4,0-.2-.2-.3-.2-.5-.1-.3-.2-.5-.2-.8h0c.8,.4,1.6,1,2.5,1.6-.6-.9-1.2-1.7-1.8-2.6h0c.1,0,.3,0,.4,.1,.3,0,.5,.1,.8,.1s.4,0,.6,0c0,0,.2,0,.3,0,.1,0,.3,0,.4,.2,.1,0,.2,.2,.3,.3,0,0,0,0,0,0,0,0,0,0,0,0,0-.2-.1-.3-.2-.5Zm-.1-1.7c-1.1,.2-2.1,.4-3.2,.6,0,0,0-.1,0-.2,0-.1,0-.2,0-.4t0,0h3Zm-2.2-1.1c.1,0,.2-.1,.3-.2,0,0,0,0,0,0,.2,0,.3-.2,.4-.2,.2-.1,.4-.3,.6-.4,.1,0,.3-.2,.5-.2,0,0,0,0,.1,0,0,0,0,0,0,0-.2,0-.3,.2-.4,.3,0,.1-.2,.2-.3,.3,0,0-.2,.2-.3,.3,0,0,0,0-.1,.1,0,0-.2,.2-.3,.2-.2,.1-.4,.2-.6,.3,0,0,0,0-.2,0-.2,0-.4,0-.6,0,0,0,0,0,0,0,0,0,.2,0,.2,0,.2,0,.4-.2,.6-.3Zm.8-2.4c-.5,.8-1,1.5-1.6,2.3,0,.1-.2,.3-.3,.4,0-.2-.2-.3-.3-.4,0,0,0,0,0,0,.7-.7,1.5-1.4,2.2-2.2Zm-2.7,1.6s0,0,0,0c.3-.5,.5-1.1,.6-1.7,0-.2,0-.3,0-.4,0,0,0-.2,0-.3,0-.2,0-.3,.2-.5,0,0,0,0,0,0,0,0,0,0,0,.1,0,.1,0,.3,0,.4v.3c0,0,0,.1,0,.2,0,.2,0,.3,0,.5,0,.3-.2,.7-.3,1,0,0,0,0,0,0-.2,.1-.3,.2-.5,.3h0Zm-.8,0V1.8c0,.3,.1,.6,.2,1,.1,.7,.3,1.5,.4,2.2h-.2c-.1,0-.3,0-.4,0s0,0,0,0h0ZM1.9,6.7c1.1-.2,2.1-.4,3.2-.6,0,0,0,.1,0,.2,0,.1,0,.2,0,.4t0,0H1.9Zm1.5,1.5c0,0-.1,0-.2,.1-.1,0-.3,.2-.4,.3-.2,.1-.3,.2-.5,.3,0,0-.2,0-.2,0h0s0,0,0,0c.2,0,.3-.1,.4-.2,0-.1,.2-.2,.3-.3h0s0,0,0,0c0-.1,.2-.2,.3-.3,.1-.1,.3-.2,.4-.3,.2-.1,.4-.2,.6-.3,0,0,0,0,0,0,.2,0,.4,0,.6,.1t0,0c-.1,0-.2,0-.3,.1-.4,.1-.8,.3-1.2,.6Zm1.9,.1c-.7,.7-1.3,1.3-2,2,.5-.6,.9-1.3,1.4-2,.2-.2,.3-.5,.5-.7,0,.2,.2,.3,.3,.5l-.2,.2Zm.6,.6c-.2,.5-.4,.9-.5,1.4v.7h-.1c0,.2,0,.3-.2,.5,0,0,0,0,0,0,0-.2,0-.3,0-.5,0-.2,0-.3,0-.5,0-.2,0-.3,0-.5,0-.4,.2-.7,.3-1,0,0,0,0,0,0,.2-.1,.3-.2,.5-.4,0,0-.1,.2-.2,.3Zm1,2.8c0-.2,0-.5-.1-.7-.2-1.3-.3-1.9-.5-2.5,.2,0,.4,.1,.6,.1v3.1Zm0-3.2c-.4,0-.7-.1-1-.3-.5-.3-.9-.9-.9-1.6,0-.5,.2-.9,.5-1.2,.3-.4,.8-.6,1.3-.6,.5,0,1,.2,1.3,.6,.3,.3,.5,.8,.5,1.2s-.3,1.2-.9,1.5c-.3,.2-.6,.3-1,.3Zm2,2.4s0,0,0,0h0c0,0,0,.1,0,.2,0,0,0,.1,0,.2,0,0,0,0,0,0,0,0,0,0,0-.1,0,0,0-.1-.1-.2,0,0,0,0-.1,0-.1,0-.2-.2-.4-.3-.2-.2-.4-.4-.5-.7-.1-.2-.2-.4-.3-.6,0,0,0,0,0,0h0c0-.2,0-.3,0-.5v-.2q0,0,0,0c.2,.7,.5,1.3,.9,1.8l.3,.5Zm1.5-.6c-.9-.6-1.8-1.2-2.7-1.8,0,0,.2-.1,.2-.2,0,0,0,0,0,0,0,0,.1,0,.2-.1l2.2,2.2Zm1.2-1.8c-.1,0-.2,0-.4,0-.2,0-.3,0-.5,0s-.3,0-.5,0c-.1,0-.3,0-.4,0-.1,0-.2,0-.4-.1,0,0-.2,0-.2,0,0,0,0,0,0,0-.1-.2-.2-.3-.4-.5,0,0,0,0,0,0,0,0,0,0,0,0,.4,.2,.9,.4,1.3,.5,.2,0,.5,0,.7,.1,0,0,0,0,0,0,.2,0,.3,0,.5,0,.1,0,.2,0,.3,.1,0,0,0,0,0,0,0,0-.1,0-.2,0Z"/><path class="h" d="M11.1,2.6s0,0,0,.1h-.1c0,0,.1,0,.2-.1Z"/><path class="h" d="M11.9,6.9c-1.1,.2-2.1,.4-3.2,.6,0,0,0-.1,0-.2,0-.1,0-.2,0-.4t0,0h3Z"/><path class="h" d="M3.9,6.3c-.8,.2-1.7,.3-2.5,.5,.2-.4,.5-.8,.7-1.2,0,0,0,0,0-.1,0,0,.1,0,.2,0,0,0,.1,0,.2,0,0,0,.2,0,.3,0,.4,.1,.8,.3,1.1,.6h0Z"/><path class="h" d="M5.1,6.2c0,0,0,.1,0,.2,0,.1,0,.2,0,.4t0,0H1.9c1.1-.2,2.1-.4,3.2-.6Z"/><path class="h" d="M10.4,10.4c-.9-.6-1.8-1.2-2.7-1.8,0,0,.2-.1,.2-.2,0,0,0,0,0,0,0,0,.1,0,.2-.1l2.2,2.2Z"/><path class="h" d="M6.1,7.6s0,0,0,0h0s0,0,0,0c0,0,0,0,0,0,0,0,0,0,0,0,0,0,0,0,0,0,0,0,0,0,0,0,0,0,0-.1,0-.2,0,0,0,0,.1-.1,0,0,0,0,0,0Z"/><path class="h" d="M6.5,6.4s0,0,0,0c0,0,0,0,0,0h0c-.1,0-.2,.1-.4,.1,0,0,0,0-.1,0,0,0-.2,0-.2-.2h0s0,0,0,0c0,0,0,0,0-.2,0,0-.1,0-.2,0,0,0,0,0,0,0h.2c0-.2,.2-.2,.3-.2s.2,0,.3,0c.1,0,.2,.1,.2,.2,0,0-.1-.1-.2-.2,0,0,0,.1,0,.2h-.1c0,.1,.1,0,.2,0,0,0,0,0,0,0Z"/><path class="h" d="M6.7,6.1s0,0,0,0c0,0,0,0,0,0,0,0,0,0,0,0h0c0,0,0-.1-.1-.1,0,0-.2,0-.3,0-.2,0-.3,0-.4,0s0,0,0,0c0,0,0,0,0,0,0,0,0,0,0,0,0,0,.2-.1,.3-.2,0,0,.2,0,.2,0,0,0,0,0,0,0,0,0,0,0,.1,0,.2,0,.3,.2,.4,.3h0s0,0,0,0Z"/><path class="h" d="M7.1,8.1c-.1,0-.2,0-.3,0h0c0,0,.2,0,.3,0Z"/><path class="h" d="M7.6,7.3h0c0,0-.1,0-.2,0,0,0-.1,0-.2,0s0,0-.1,0c0,0,0,0,0,0,0,0,0,0,0,0,0,0,0,0-.1,0-.1,0-.2,0-.4,0,0,0-.2,0-.2,0h0c0,0,0-.1,.2-.2h0s0,0,0,0c0,0,0,0,0,0,0,0,0,0,0-.1,0,0,0,0,0,0h0s0,0,0,0c0,0,0,0,0,0s0,0,0,0c0,0,0,0,0,0,0,0,0,0,0,0h0s0,0,0,0h0s0,0,0,0c0,0,0,0,0,0h.2s0,0,0,0c0,0,0,0,0,0h0s0,0,0,0h0s0,0,0,0h0s0,0,0,0c0,0,0,0,0,0h0s0,0,0,0c0,0,0,0,0,0,0,0,0,0,0,0,0,0,0,0,0,0,0,0,0,0,0,0,0,0,0,0,0,.1,0,0,0,0,0,0,0,0,0,0,0,0,0,0,0,0,0,0,0,0,.1,0,.2,.2Z"/><path class="h" d="M7.7,7.7c-.1,0-.2,.1-.3,.2-.1,0-.2,0-.4,.1-.1,0-.3,0-.4,0,0,0-.1,0-.2,0-.1,0-.3-.2-.4-.2,0,0,0,0,0,0,0,0,0,0,0,0h0c0,0-.2,0-.2,0,0,0,0,0,.2,0,0,0,.2,0,.3,0s.2,0,.3,0c.1,0,.2,0,.3,0,0,0,.2,0,.2,0,.1,0,.2,0,.3,0,0,0,0,0,0,0,0,0-.1,0-.2,0h0c0,0,.2,0,.2,0Z"/><path class="h" d="M7.9,7.8h0c0,0,0,0,0,0,0,0,0,0,0,0,0,0,0,0,0,0h0s0,0,0,0h0s0,0,0,0c0,0,0,0,0,0,0,0,0,0,0,.1,0,0,0,0,0,0Z"/><path class="h" d="M8.1,6.4h0c0,0-.2,.2-.2,.2,0,0-.1,0-.2,0,0,0-.2,0-.3,0,0,0,0,0,0,0s0,0,0,0c0,0,0,0,0,0,0,0,0,0,0,0,0,0,.1,0,.2,0h0c-.1,0-.2-.2-.2-.3,0,0-.1,0-.2,.2,0,0,0-.1,0-.2,0,0,0,0,.2,0,0,0,.2,0,.3,0,0,0,.2,0,.2,.1,0,0,.1,0,.2,.2,0,0-.1,0-.2-.1,0,0,0,0,0,.1,0,0,0,0,0,0Z"/><path class="h" d="M8.3,6.1s0,0-.1,0c0,0,0,0,0,0-.1,0-.3,0-.4,0s-.2,0-.3,0c0,0,0,0-.1,0,0,0,0,0,0,0,0,0,0,0,0,0,0,0,0,0,0,0h0s0,0,0,0c0,0,0,0,0,0h0c0-.1,.2-.2,.3-.3,0,0,0,0,.1,0s0,0,.1,0c.2,0,.4,.1,.5,.2,0,0,0,0,0,0Z"/><g><g><path class="j" d="M10.9,2.8h.1s0,0,0-.1c0,0-.1,0-.2,.1Zm-2,4.1s0,0,0,0c0,.1,0,.2,0,.4,0,0,0,.1,0,.2,1.1-.2,2.1-.4,3.2-.6h-3Zm-2.8,.7s0,0-.1,.1c0,0,0,0,0,.2,0,0,0,0,0,0,0,0,0,0,0,0,0,0,0,0,0,0,0,0,0,0,0,0,0,0,0,0,0,0h0s0,0,0,0c0,0,0,0,0,0Zm.3-1.1s0,0-.2,0h.1c0-.2,0-.2,0-.3,0,0,.1,0,.2,.2,0-.1,0-.2-.2-.2,0,0-.2,0-.3,0s-.2,0-.3,0h-.2c0,.1,0,.2,0,.2,0,0,.1,0,.2,0,0,0,0,0,0,.2,0,0,0,0,0,0h0c0,0,.1,.1,.2,.2,0,0,0,0,.1,0,.2,0,.3,0,.4,0h0c0,0,0,0,0,0,0,0,0,0,0,0,0,0,0,0,0,0Zm.3-.4h0c-.1-.1-.2-.2-.4-.3,0,0,0,0-.1,0s0,0,0,0c0,0-.2,0-.2,0,0,0-.2,0-.3,.2,0,0,0,0,0,0,0,0,0,0,0,0,0,0,0,0,0,0,.1,0,.3,0,.4,0s.2,0,.3,0c0,0,0,0,.1,0h0c0,0,0,0,0,0,0,0,0,0,0,0,0,0,0,0,0,0,0,0,0,0,0,0Zm0,2.1h0c.1,0,.2,0,.3,0,0,0-.2,0-.3,0Zm.7-.9s0,0,0,0c0,0,0,0,0,0,0,0,0,0,0,0,0,0,0,0,0-.1,0,0,0,0,0,0,0,0,0,0,0,0,0,0,0,0,0,0,0,0,0,0,0,0,0,0,0,0,0,0h0c0,0,0,0,0,0t0,0h0s0,0,0,0h0c0,0,0,0,0,0h0s0,0,0,0t0,0h-.2s0,0,0,0c0,0,0,0,0,0h0s0,0,0,0h0s0,0,0,0c0,0,0,0,0,0,0,0,0,0,0,0s0,0,0,0c0,0,0,0,0,0h0s0,0,0,0c0,0,0,0,0,.1,0,0,0,0,0,0,0,0,0,0,0,0h0c0,0-.1,0-.2,.1h0c0,0,.2,0,.2,0,.1,0,.2,0,.4,0,0,0,0,0,.1,0s0,0,0,0c0,0,0,0,0,0,0,0,0,0,.1,0,0,0,.2,0,.2,0,0,0,.1,0,.2,0h0c0,0,0-.1-.2-.2Zm0,.5h0c0,0,.2,0,.2,0,0,0,0,0,0,0-.1,0-.2,0-.3,0,0,0-.1,0-.2,0,0,0-.2,0-.3,0,0,0-.2,0-.3,0s-.2,0-.3,0c0,0,0,0-.2,0,0,0,.1,0,.2,0h0s0,0,0,0c0,0,0,0,0,0,.1,0,.3,.2,.4,.2,0,0,.1,0,.2,0,.1,0,.3,0,.4,0,.1,0,.2,0,.4-.1,.1,0,.2-.1,.3-.2,0,0-.2,0-.2,0Zm.4,0s0,0,0-.1c0,0,0,0,0,0,0,0,0,0,0,0h0c0,0,0,0,0,0h0s0,0,0,0c0,0,0,0,0,0,0,0,0,0,0,0h0s0,0,0,0Zm.1-1.3s0,0,0-.1c0,0,.1,0,.2,.1,0,0-.1-.1-.2-.2,0,0-.1,0-.2-.1,0,0-.2,0-.3,0,0,0-.1,0-.2,0,0,0,0,.1,0,.2,0,0,.1-.1,.2-.2,0,.1,0,.2,.2,.3h0c0,0-.1,0-.2,0,0,0,0,0,0,0,0,0,0,0,0,0,0,0,0,0,0,0s0,0,0,0c0,0,.2,0,.3,0,0,0,.1,0,.2,0,0,0,.2,0,.2-.2h0s0,0,0,0Zm.3-.4c-.2-.1-.3-.2-.5-.2,0,0,0,0-.1,0s0,0-.1,0c-.1,0-.2,.2-.3,.2h0s0,0,0,0t0,0h0s0,0,0,0c0,0,0,0,0,0,0,0,0,0,0,0,0,0,0,0,.1,0,0,0,.2,0,.3,0,.1,0,.3,0,.4,0,0,0,0,0,0,0,0,0,0,0,.1,0,0,0,0,0,0,0Zm0,2.2c0,0-.1,0-.2,.1,0,0,0,0,0,0,0,0-.2,.1-.2,.2,.9,.6,1.8,1.2,2.7,1.8l-2.2-2.2ZM1.9,6.7h3s0,0,0,0c0-.1,0-.2,0-.4,0,0,0-.1,0-.2-1.1,.2-2.1,.4-3.2,.6Zm7,.1s0,0,0,0c0,.1,0,.2,0,.4,0,0,0,.1,0,.2,1.1-.2,2.1-.4,3.2-.6h-3Zm-7-.1h3s0,0,0,0c0-.1,0-.2,0-.4,0,0,0-.1,0-.2-1.1,.2-2.1,.4-3.2,.6Zm4.2,.8s0,0-.1,.1c0,0,0,0,0,.2,0,0,0,0,0,0,0,0,0,0,0,0,0,0,0,0,0,0,0,0,0,0,0,0,0,0,0,0,0,0h0s0,0,0,0c0,0,0,0,0,0Zm.3-1.1s0,0-.2,0h.1c0-.2,0-.2,0-.3,0,0,.1,0,.2,.2,0-.1,0-.2-.2-.2,0,0-.2,0-.3,0s-.2,0-.3,0h-.2c0,.1,0,.2,0,.2,0,0,.1,0,.2,0,0,0,0,0,0,.2,0,0,0,0,0,0h0c0,0,.1,.1,.2,.2,0,0,0,0,.1,0,.2,0,.3,0,.4,0h0c0,0,0,0,0,0,0,0,0,0,0,0,0,0,0,0,0,0Zm.3-.4h0c-.1-.1-.2-.2-.4-.3,0,0,0,0-.1,0s0,0,0,0c0,0-.2,0-.2,0,0,0-.2,0-.3,.2,0,0,0,0,0,0,0,0,0,0,0,0,0,0,0,0,0,0,.1,0,.3,0,.4,0s.2,0,.3,0c0,0,0,0,.1,0h0c0,0,0,0,0,0,0,0,0,0,0,0,0,0,0,0,0,0,0,0,0,0,0,0Zm0,2.1h0c.1,0,.2,0,.3,0,0,0-.2,0-.3,0Zm.7-.9s0,0,0,0c0,0,0,0,0,0,0,0,0,0,0,0,0,0,0,0,0-.1,0,0,0,0,0,0,0,0,0,0,0,0,0,0,0,0,0,0,0,0,0,0,0,0,0,0,0,0,0,0h0c0,0,0,0,0,0t0,0h0s0,0,0,0h0c0,0,0,0,0,0h0s0,0,0,0t0,0h-.2s0,0,0,0c0,0,0,0,0,0h0s0,0,0,0h0s0,0,0,0c0,0,0,0,0,0,0,0,0,0,0,0s0,0,0,0c0,0,0,0,0,0h0s0,0,0,0c0,0,0,0,0,.1,0,0,0,0,0,0,0,0,0,0,0,0h0c0,0-.1,0-.2,.1h0c0,0,.2,0,.2,0,.1,0,.2,0,.4,0,0,0,0,0,.1,0s0,0,0,0c0,0,0,0,0,0,0,0,0,0,.1,0,0,0,.2,0,.2,0,0,0,.1,0,.2,0h0c0,0,0-.1-.2-.2Zm0,.5h0c0,0,.2,0,.2,0,0,0,0,0,0,0-.1,0-.2,0-.3,0,0,0-.1,0-.2,0,0,0-.2,0-.3,0,0,0-.2,0-.3,0s-.2,0-.3,0c0,0,0,0-.2,0,0,0,.1,0,.2,0h0s0,0,0,0c0,0,0,0,0,0,.1,0,.3,.2,.4,.2,0,0,.1,0,.2,0,.1,0,.3,0,.4,0,.1,0,.2,0,.4-.1,.1,0,.2-.1,.3-.2,0,0-.2,0-.2,0Zm.4,0s0,0,0-.1c0,0,0,0,0,0,0,0,0,0,0,0h0c0,0,0,0,0,0h0s0,0,0,0c0,0,0,0,0,0,0,0,0,0,0,0h0s0,0,0,0Zm.1-1.3s0,0,0-.1c0,0,.1,0,.2,.1,0,0-.1-.1-.2-.2,0,0-.1,0-.2-.1,0,0-.2,0-.3,0,0,0-.1,0-.2,0,0,0,0,.1,0,.2,0,0,.1-.1,.2-.2,0,.1,0,.2,.2,.3h0c0,0-.1,0-.2,0,0,0,0,0,0,0,0,0,0,0,0,0,0,0,0,0,0,0s0,0,0,0c0,0,.2,0,.3,0,0,0,.1,0,.2,0,0,0,.2,0,.2-.2h0s0,0,0,0Zm.3-.4c-.2-.1-.3-.2-.5-.2,0,0,0,0-.1,0s0,0-.1,0c-.1,0-.2,.2-.3,.2h0s0,0,0,0t0,0h0s0,0,0,0c0,0,0,0,0,0,0,0,0,0,0,0,0,0,0,0,.1,0,0,0,.2,0,.3,0,.1,0,.3,0,.4,0,0,0,0,0,0,0,0,0,0,0,.1,0,0,0,0,0,0,0Zm0,2.2c0,0-.1,0-.2,.1,0,0,0,0,0,0,0,0-.2,.1-.2,.2,.9,.6,1.8,1.2,2.7,1.8l-2.2-2.2Z"/><path class="g" d="M6,7.6s0,0,0,0c0,0,0,0,0,0h0Zm0,0s0,0,0,0c0,0,0,0,0,0,0,0,0,0-.1,.1Zm0,.1s0,0,0,0c0,0,0,0,0,0,0,0,0,0,0,.2,0,0,0,0,0,0Zm.7-1.6s0,0,0,0h0c0,0,0,0,0,0h0Zm-.2,1.1c.1,0,.2,0,.4,0-.1,0-.2,0-.4,0Zm.3,.9h0c.1,0,.2,0,.3,0,0,0-.2,0-.3,0Zm.2-.8s0,0,0,0c0,0,0,0,0,0,0,0,0,0,0,0,0,0,0,0,0,0Zm0-.2h0s0,0,0,0h0Zm0-1s0,0,0,0h0s0,0,0,0c0,0,0,0,0,0Zm0,.8s0,0,0,0c0,0,0,0,0,0,0,0,0,0,0,0,0,0,0,0,0,0,0,0,0,0,0,0Zm0-.9h0s0,0,0,0c0,0,0,0,0,0Zm0,1.1c0,0,0,0-.1,0,0,0,0,0,.1,0,0,0,.2,0,.2,0,0,0-.1,0-.2,0Zm.2,0c0,0,.1,0,.2,0h0c0,0-.1,0-.2,0Zm0-1.3h0c0,0,.2,0,.3,0,0,0-.2,0-.2,0Zm.3,1.5h0s0,0,0,0Zm0,.1h0s0,0,0,0c0,0,0,0,0,0,0,0,0,0,0,0Zm0,0s0,0,0,0c0,0,0,0,0,0h0Z"/><path class="g" d="M8.2,5.6c-.3-.4-.8-.6-1.3-.6-.5,0-1,.2-1.3,.6-.3,.3-.5,.8-.5,1.2,0,.7,.3,1.2,.9,1.6,.3,.2,.6,.3,1,.3s.7,0,1-.3c.5-.3,.9-.9,.9-1.5s-.2-.9-.5-1.2Zm-1.5,1.6s0,0,0,0h.2s0,0,0,0c0,0,0,0,0,0h0s0,0,0,0h0s0,0,0,0h0s0,0,0,0c0,0,0,0,0,0h0s0,0,0,0c0,0,0,0,0,0,0,0,0,0,0,0,0,0,0,0,0,0,0,0,0,0,0,0,0,0,0,0,0,.1,0,0,0,0,0,0,0,0,0,0,0,0,0,0,0,0,0,0,0,0,.1,0,.2,.2h0c0,0-.1,0-.2,0,0,0-.1,0-.2,0s0,0-.1,0c0,0,0,0,0,0,0,0,0,0,0,0,0,0,0,0-.1,0-.1,0-.2,0-.4,0,0,0-.2,0-.2,0h0c0,0,0-.1,.2-.2h0s0,0,0,0c0,0,0,0,0,0,0,0,0,0,0-.1,0,0,0,0,0,0h0s0,0,0,0c0,0,0,0,0,0s0,0,0,0c0,0,0,0,0,0,0,0,0,0,0,0h0s0,0,0,0h0s0,0,0,0Zm1,.5c-.1,0-.2,.1-.3,.2-.1,0-.2,0-.4,.1-.1,0-.3,0-.4,0,0,0-.1,0-.2,0-.1,0-.3-.2-.4-.2,0,0,0,0,0,0,0,0,0,0,0,0h0c0,0-.2,0-.2,0,0,0,0,0,.2,0,0,0,.2,0,.3,0s.2,0,.3,0c.1,0,.2,0,.3,0,0,0,.2,0,.2,0,.1,0,.2,0,.3,0,0,0,0,0,0,0,0,0-.1,0-.2,0h0c0,0,.2,0,.2,0Zm-.7,.5c-.1,0-.2,0-.3,0h0c0,0,.2,0,.3,0Zm-1.5-2.1s0,0,0,0c0,0,.2-.1,.3-.2,0,0,.2,0,.2,0,0,0,0,0,0,0,0,0,0,0,.1,0,.2,0,.3,.2,.4,.3h0s0,0,0,0c0,0,0,0,0,0,0,0,0,0,0,0,0,0,0,0,0,0h0c0,0,0-.1-.1-.1,0,0-.2,0-.3,0-.2,0-.3,0-.4,0s0,0,0,0c0,0,0,0,0,0Zm.2,.3h0s0,0,0,0c0,0,0,0,0-.2,0,0-.1,0-.2,0,0,0,0,0,0,0h.2c0-.2,.2-.2,.3-.2s.2,0,.3,0c.1,0,.2,.1,.2,.2,0,0-.1-.1-.2-.2,0,0,0,.1,0,.2h-.1c0,.1,.1,0,.2,0,0,0,0,0,0,0,0,0,0,0,0,0,0,0,0,0,0,0h0c-.1,0-.2,.1-.4,.1,0,0,0,0-.1,0,0,0-.2,0-.2-.2h0Zm.2,1.4s0,0,0,0c0,0,0,0,0,0,0,0,0-.1,0-.2,0,0,0,0,.1-.1,0,0,0,0,0,0,0,0,0,0,0,0h0s0,0,0,0c0,0,0,0,0,0,0,0,0,0,0,0Zm2,0h0s0,0,0,0c0,0,0,0,0,0,0,0,0,0,0,0h0s0,0,0,0h0s0,0,0,0c0,0,0,0,0,0,0,0,0,0,0,.1,0,0,0,0,0,0h0Zm.1-1.4s0,0,0,0h0c0,0-.2,.2-.2,.2,0,0-.1,0-.2,0,0,0-.2,0-.3,0,0,0,0,0,0,0s0,0,0,0c0,0,0,0,0,0,0,0,0,0,0,0,0,0,.1,0,.2,0h0c-.1,0-.2-.2-.2-.3,0,0-.1,0-.2,.2,0,0,0-.1,0-.2,0,0,0,0,.2,0,0,0,.2,0,.3,0,0,0,.2,0,.2,.1,0,0,.1,0,.2,.2,0,0-.1,0-.2-.1,0,0,0,0,0,.1Zm.2-.3s0,0,0,0c-.1,0-.3,0-.4,0s-.2,0-.3,0c0,0,0,0-.1,0,0,0,0,0,0,0,0,0,0,0,0,0,0,0,0,0,0,0h0s0,0,0,0c0,0,0,0,0,0h0c0-.1,.2-.2,.3-.3,0,0,0,0,.1,0s0,0,.1,0c.2,0,.4,.1,.5,.2,0,0,0,0,0,0,0,0,0,0-.1,0Z"/><path class="g" d="M10.4,10.4c-.9-.6-1.8-1.2-2.7-1.8,0,0,.2-.1,.2-.2,0,0,0,0,0,0,0,0,.1,0,.2-.1l2.2,2.2Z"/><path class="g" d="M6.1,5.1c-.2,0-.4,.2-.5,.3-.6-.6-1.2-1.2-1.8-1.8,0,0,0,0,0,0,.8,.5,1.5,1,2.3,1.6Z"/><path class="g" d="M5.1,6.2c0,0,0,.1,0,.2,0,.1,0,.2,0,.4t0,0H1.9c1.1-.2,2.1-.4,3.2-.6Z"/><path class="g" d="M11.9,6.9c-1.1,.2-2.1,.4-3.2,.6,0,0,0-.1,0-.2,0-.1,0-.2,0-.4t0,0h3Z"/><path class="j" d="M7.5,7.7h0c0,0,.2,0,.2,0,0,0,0,0,0,0-.1,0-.2,0-.3,0,0,0-.1,0-.2,0,0,0-.2,0-.3,0,0,0-.2,0-.3,0s-.2,0-.3,0c0,0,0,0-.2,0,0,0,.1,0,.2,0h0s0,0,0,0c0,0,0,0,0,0,.1,0,.3,.2,.4,.2,0,0,.1,0,.2,0,.1,0,.3,0,.4,0,.1,0,.2,0,.4-.1,.1,0,.2-.1,.3-.2,0,0-.2,0-.2,0Zm0,0h-.1c-.1,0-.2,0-.4,0s-.2,0-.3,0c0,0-.2,0-.2,0h0s0,0,0,0c.4,0,.7,0,1.1,0,0,0,0,0,0,0Z"/><path class="j" d="M8,6.4s0,0,0-.1c0,0,.1,0,.2,.1,0,0-.1-.1-.2-.2,0,0-.1,0-.2-.1,0,0-.2,0-.3,0,0,0-.1,0-.2,0,0,0,0,.1,0,.2,0,0,.1-.1,.2-.2,0,.1,0,.2,.2,.3h0c0,0-.1,0-.2,0,0,0,0,0,0,0,0,0,0,0,0,0,0,0,0,0,0,0s0,0,0,0c0,0,.2,0,.3,0,0,0,.1,0,.2,0,0,0,.2,0,.2-.2h0s0,0,0,0Zm0,0s0,0-.1,0c0,0,0-.2,0-.3,0,0,0,0,0,0,0,0,0,.1,0,.2h0Z"/><path class="j" d="M6.4,6.4s0,0-.2,0h.1c0-.2,0-.2,0-.3,0,0,.1,0,.2,.2,0-.1,0-.2-.2-.2,0,0-.2,0-.3,0s-.2,0-.3,0h-.2c0,.1,0,.2,0,.2,0,0,.1,0,.2,0,0,0,0,0,0,.2,0,0,0,0,0,0h0c0,0,.1,.1,.2,.2,0,0,0,0,.1,0,.2,0,.3,0,.4,0h0c0,0,0,0,0,0,0,0,0,0,0,0,0,0,0,0,0,0Zm-.3,0c0,0,0,0-.1,0,0,0,0,0,0,0,0,0,0,0,0,0h0s0,0,0,0c0,0,0,0,0,0h0s0,0,0,.1c0,0,0,.1,0,.2,0,0,0,0,0,0Z"/><path class="j" d="M8.3,6.1s0,0-.1,0c0,0,0,0,0,0-.1,0-.3,0-.4,0s-.2,0-.3,0c0,0,0,0-.1,0,0,0,0,0,0,0,0,0,0,0,0,0,0,0,0,0,0,0h0s0,0,0,0c0,0,0,0,0,0h0c.1-.1,.2-.2,.3-.2,0,0,0,0,.1,0s0,0,.1,0c.2,0,.4,.1,.5,.2,0,0,0,0,0,0Z"/><path class="j" d="M6.7,6.1s0,0,0,0c0,0,0,0,0,0,0,0,0,0,0,0h0c0,0,0-.1-.1-.1,0,0-.2,0-.3,0-.2,0-.3,0-.4,0s0,0,0,0c0,0,0,0,0,0,0,0,0,0,0,0,0,0,.2-.1,.3-.2,0,0,.2,0,.2,0,0,0,0,0,0,0,0,0,0,0,.1,0,.2,0,.3,.2,.4,.3,0,0,0,0,0,0Z"/><path class="j" d="M7.6,7.3h0c0,0-.1,0-.2,0,0,0-.1,0-.2,0s0,0-.1,0c0,0,0,0,0,0,0,0,0,0,0,0,0,0,0,0-.1,0-.1,0-.2,0-.4,0,0,0-.2,0-.2,0h0c0,0,0-.1,.2-.2h0s0,0,0,0c0,0,0,0,0,0,0,0,0,0,0-.1,0,0,0,0,0,0h0s0,0,0,0,0,0,0,0c0,0,0,0,0,0,0,0,0,0,0,0,0,0,0,0,0,0,0,0,0,0,0,0h0s0,0,0,0c0,0,0,0,0,0h.2s0,0,0,0c0,0,0,0,0,0h0s0,0,0,0h0s0,0,0,0h0s0,0,0,0t0,0s0,0,0,0h0s0,0,0,0c0,0,0,0,0,0,0,0,0,0,0,0,0,0,0,0,0,0,0,0,0,0,0,.1,0,0,0,0,0,0,0,0,0,0,0,0,0,0,0,0,0,0,0,0,.1,0,.2,.1Z"/><path class="j" d="M7.1,8.1c-.1,0-.2,0-.3,0h0c0,0,.2,0,.3,0Z"/><path class="j" d="M7.9,7.7h0s0,0,0,0c0,0,0,0,0,0,0,0,0,0,0,0h0s0,0,0,0h0s0,0,0,0c0,0,0,0,0,0,0,0,0,0,0,0h0Z"/><path class="j" d="M6,7.6s0,0,0,0h0s0,0,0,0c0,0,0,0,0,0h0s0,0,0,0c0,0,0,0,0,0,0,0,0-.1,0-.2,0,0,0,0,.1-.1,0,0,0,0,0,0,0,0,0,0,0,0Z"/><path class="g" d="M6.4,7.7c.4,0,.7,0,1.1,0-.2,0-.4,.1-.5,.1s-.4,0-.6-.1Z"/><path class="g" d="M7.8,6.2s0,0,0,0c0,0,0,.1,0,.2,0,0,0,0,0,0,0,0,0,0-.1,0,0,0,0-.2,0-.3Z"/><path class="g" d="M6,6.5s0,0-.1,0c0,0,0,0,0,0,0,0,0,0,0-.1,0,0,0,0,0,0,0,0,0,0,0,0,0,.1,0,.2,0,.3h0Z"/></g><path class="g" d="M6.3,4.1s0,0,0,.1c0,.2,0,.4-.1,.6h0c0,0,0-.2-.1-.3-.2-.5-.4-.9-.7-1.4,0-.1-.2-.3-.3-.4,0,0,0-.1-.1-.2,0,0,0,0,0,0,0,0,0,0,0,0,0,0,0,0,0,0,0,0,.2,.1,.3,.2,0,0,0,0,0,0,.3,.2,.5,.5,.6,.8,0,.2,.2,.3,.3,.5Z"/><path class="g" d="M7.5,5h-.2c-.1,0-.3,0-.4,0s0,0,0,0h0V1.8c0,.3,.1,.6,.2,1,.1,.7,.3,1.5,.4,2.2Z"/><path class="g" d="M8.7,2.8c0,0,0,.1,0,.2,0,.2,0,.3,0,.5,0,.3-.2,.7-.3,1,0,0,0,0,0,0-.2,.1-.3,.2-.5,.3h0s0,0,0,0c.3-.5,.5-1.1,.6-1.7,0-.2,0-.3,0-.4,0,0,0-.2,0-.3,0-.2,0-.3,.2-.5,0,0,0,0,0,0,0,0,0,0,0,.1,0,.1,0,.3,0,.4,0,0,0,.2,0,.3Z"/><path class="g" d="M10.5,3.3c-.5,.8-1,1.5-1.6,2.3,0,.1-.2,.3-.3,.4,0-.2-.2-.3-.3-.4,0,0,0,0,0,0,.7-.7,1.5-1.4,2.2-2.2Z"/><path class="g" d="M11.6,4.7s0,0,0,0c-.2,0-.3,.2-.4,.3,0,.1-.2,.2-.3,.3,0,0-.2,.2-.3,.3,0,0,0,0-.1,.1,0,0-.2,.2-.3,.2-.2,.1-.4,.2-.6,.3,0,0,0,0-.2,0-.2,0-.4,0-.6,0,0,0,0,0,0,0,0,0,.2,0,.2,0,.2,0,.4-.2,.6-.3,.1,0,.2-.1,.3-.2,0,0,0,0,0,0,.2,0,.3-.2,.4-.2,.2-.1,.4-.3,.6-.4,.1,0,.3-.2,.5-.2,0,0,0,0,.1,0Z"/><path class="g" d="M5,5.9s0,0,0,0c-.2-.1-.5-.3-.8-.4-.3,0-.5-.2-.8-.2-.2,0-.5,0-.7-.1,0,0-.2,0-.3,0,0,0,0,0,0,0,0,0,.1,0,.2,0,.2,0,.3,0,.5,0,.2,0,.3,0,.5,0,.3,0,.7,.2,1,.3,0,0,0,0,0,0,0,0,0,.1,.1,.2,0,.1,.2,.2,.2,.3,0,0,0,0,0,0Z"/><path class="g" d="M4.9,7.5c-.1,0-.2,0-.3,.1-.4,.1-.8,.3-1.2,.6,0,0-.1,0-.2,.1-.1,0-.3,.2-.4,.3-.2,.1-.3,.2-.5,.3,0,0-.2,0-.2,0h0s0,0,0,0c.2,0,.3-.1,.4-.2,0-.1,.2-.2,.3-.3h0s0,0,0,0c0-.1,.2-.2,.3-.3,.1-.1,.3-.2,.4-.3,.2-.1,.4-.2,.6-.3,0,0,0,0,0,0,.2,0,.4,0,.6,.1t0,0Z"/><path class="g" d="M5.5,8.1l-.2,.2c-.7,.7-1.3,1.3-2,2,.5-.6,.9-1.3,1.4-2,.2-.2,.3-.5,.5-.7,0,.2,.2,.3,.3,.5Z"/><path class="g" d="M6,8.7c0,0-.1,.2-.2,.3-.2,.5-.4,.9-.5,1.4v.7h-.1c0,.2,0,.3-.2,.5,0,0,0,0,0,0,0-.2,0-.3,0-.5,0-.2,0-.3,0-.5,0-.2,0-.3,0-.5,0-.4,.2-.7,.3-1,0,0,0,0,0,0,.2-.1,.3-.2,.5-.4Z"/><path class="g" d="M6.9,8.7v3.1c0-.2,0-.5-.1-.7-.2-1.3-.3-1.9-.5-2.5,.2,0,.4,.1,.6,.1Z"/><path class="g" d="M9.1,11.5s0,0,0,0c0,0,0,0,0-.1,0,0,0-.1-.1-.2,0,0,0,0-.1,0-.1,0-.2-.2-.4-.3-.2-.2-.4-.4-.5-.7-.1-.2-.2-.4-.3-.6,0,0,0,0,0,0h0c0-.2,0-.3,0-.5v-.2q0,0,0,0c.2,.7,.5,1.3,.9,1.8,.1,.2,.2,.3,.3,.5,0,0,0,0,0,0h0c0,0,0,.1,0,.2,0,0,0,.1,0,.2Z"/><path class="g" d="M11.8,8.6c0,0-.1,0-.2,0-.1,0-.2,0-.4,0-.2,0-.3,0-.5,0-.2,0-.3,0-.5,0-.1,0-.3,0-.4,0-.1,0-.2,0-.4-.1,0,0-.2,0-.2,0,0,0,0,0,0,0-.1-.2-.2-.3-.4-.5,0,0,0,0,0,0,0,0,0,0,0,0,.4,.2,.9,.4,1.3,.5,.2,0,.5,0,.7,.1,0,0,0,0,0,0,.2,0,.3,0,.5,0,.1,0,.2,0,.3,.1,0,0,0,0,0,0Z"/></g><path class="h" d="M22.9,5.6H13.9V2.8h6.5c1,.8,1.9,1.7,2.6,2.8Z"/><path class="h" d="M25,11.1H13.9v-2.8h10.5c.3,.9,.5,1.8,.6,2.8Z"/><path class="h" d="M25,13.9c0,1-.3,1.9-.6,2.8-.3,1-.8,1.9-1.4,2.8-.7,1.1-1.6,2-2.6,2.8-2.1,1.7-4.9,2.8-7.9,2.8s-5.7-1-7.9-2.8c-1-.8-1.8-1.7-2.6-2.8-.6-.8-1-1.8-1.4-2.8-.3-.9-.5-1.8-.6-2.8H25Z"/></g></g></g></g></svg>