<?xml version="1.0" encoding="UTF-8"?><svg xmlns="http://www.w3.org/2000/svg" viewBox="0 0 25 25"><defs><style>.d{fill:#fff;}.e{opacity:.5;}.f{fill:#01267f;}.g{fill:none;}.h{fill:#e60001;}</style></defs><g id="a"/><g id="b"><g id="c"><g><path class="d" d="M25,12.5c0,.4,0,.7,0,1.1,0,.7-.2,1.3-.3,1.9-.2,.7-.4,1.4-.7,2-.3,.7-.7,1.3-1,1.9-.5,.7-1,1.4-1.7,2-.8,.8-1.6,1.4-2.6,1.9-1.8,1-3.9,1.6-6.2,1.6s-4.3-.6-6.2-1.6c-1-.5-1.8-1.2-2.6-1.9-.6-.6-1.2-1.3-1.7-2-.4-.6-.8-1.3-1-1.9-.3-.6-.5-1.3-.7-2-.2-.6-.3-1.3-.3-1.9H12.9V1.8h6.1c.9,.5,1.7,1.2,2.4,1.9,.6,.6,1.1,1.3,1.6,2,.4,.6,.7,1.3,1,1.9,.3,.6,.5,1.3,.6,2,.1,.6,.2,1.3,.3,1.9,0,.3,0,.6,0,.9Z"/><g><path class="g" d="M.6,8.7s0,0,0,0h0Zm24.1,.9c-.2-.7-.4-1.4-.6-2-.3-.7-.6-1.3-1-1.9-.5-.7-1-1.4-1.6-2-.7-.7-1.5-1.4-2.4-1.9h-6.1V13.6H0c0,.7,.2,1.3,.3,1.9,.2,.7,.4,1.4,.7,2,.3,.7,.7,1.3,1,1.9,.5,.7,1,1.4,1.7,2,.8,.8,1.6,1.4,2.6,1.9,1.8,1,3.9,1.6,6.2,1.6s4.3-.6,6.2-1.6c.9-.5,1.8-1.2,2.6-1.9,.6-.6,1.2-1.3,1.7-2,.4-.6,.8-1.3,1-1.9,.3-.6,.5-1.3,.7-2,.2-.6,.3-1.3,.3-1.9v-2c0-.7-.1-1.3-.3-1.9ZM10.3,2.5h-.5l-.2-.5-.2,.5h-.5l.4,.3-.2,.5,.4-.3,.5,.3v-.5l.3-.3Zm-3-1.4h.4v-.2c0,0-.2,.1-.4,.2Zm-.2,1.4h-.5l-.2-.5-.2,.5h-.5l.4,.3v.5l.3-.3,.4,.3v-.5l.3-.3Zm4.7,4.1h-.5l-.2-.5-.2,.5h-.5l.4,.4-.2,.5,.5-.3,.4,.3v-.5l.3-.3Zm-3.2,0h-.5l-.2-.5-.2,.5h-.5l.4,.4v.5l.3-.3,.4,.3v-.5l.3-.3Zm-3.2,0h-.5l-.2-.5-.2,.5h-.5l.4,.4v.5l.3-.3,.5,.3-.2-.5,.4-.3Zm-3.2,0h-.5v-.4c-.2,.2-.4,.5-.5,.7h0v.5l.3-.3,.4,.3v-.5l.3-.3Zm8,4.1h-.5l-.2-.5-.2,.5h-.5l.4,.3-.2,.5,.4-.3,.5,.3v-.5l.3-.3Zm-3.2,0h-.5l-.2-.5-.2,.5h-.5l.4,.3v.5l.3-.3,.4,.3v-.5l.3-.3Zm-3.1,0h-.5l-.2-.5-.2,.5h-.5l.4,.3v.5l.3-.3,.4,.3v-.5l.3-.3Zm-3.2,0H.3v-.4c-.2,.3-.2,.7-.3,1h0l.4,.2v-.5l.3-.3Z"/><path class="h" d="M7.8,.9v.2h-.5c.2,0,.3-.1,.5-.2Z"/><path class="h" d="M23,5.7H12.9v-2h8.5c.6,.6,1.1,1.3,1.6,2Z"/><path class="h" d="M.6,8.8h0s0,0,0,0h0Z"/><path class="h" d="M24.7,9.7H12.9v-2h11.1c.3,.6,.5,1.3,.6,2Z"/><polygon class="h" points="25 11.6 25 13.6 12.9 13.6 12.9 11.6 25 11.6"/><path class="h" d="M24.6,15.5c-.2,.7-.4,1.4-.7,2H1c-.3-.6-.5-1.3-.7-2H24.6Z"/><path class="h" d="M22.9,19.5c-.5,.7-1,1.4-1.7,2H3.8c-.6-.6-1.2-1.3-1.7-2H22.9Z"/><path class="h" d="M12.5,25c-2.2,0-4.3-.6-6.2-1.6h12.3c-1.8,1-3.9,1.6-6.2,1.6Z"/><g><path class="d" d="M.5,11v.5l-.3-.3H0c0-.3,0-.6,.1-.9v.4H.9l-.4,.3Z"/><polygon class="d" points="3.6 11 3.7 11.5 3.3 11.2 2.9 11.5 3 11 2.6 10.6 3.1 10.6 3.3 10.1 3.5 10.6 4 10.6 3.6 11"/><polygon class="d" points="6.8 11 6.9 11.5 6.5 11.2 6 11.5 6.2 11 5.7 10.6 6.3 10.6 6.5 10.1 6.6 10.6 7.2 10.6 6.8 11"/><polygon class="d" points="9.9 11 10.1 11.5 9.6 11.2 9.2 11.5 9.3 11 8.9 10.6 9.4 10.6 9.6 10.1 9.8 10.6 10.3 10.6 9.9 11"/><path class="d" d="M.6,8.8h0s0,0,0,0h0Z"/><path class="d" d="M2,6.9v.5l-.3-.3-.5,.3v-.5h.1c.1-.2,.2-.5,.4-.7v.3h.6l-.4,.4Z"/><polygon class="d" points="5.1 6.9 5.2 7.4 4.8 7.1 4.4 7.4 4.5 6.9 4.1 6.6 4.6 6.5 4.8 6 5 6.5 5.5 6.6 5.1 6.9"/><polygon class="d" points="8.3 6.9 8.4 7.4 8 7.1 7.5 7.4 7.7 6.9 7.2 6.6 7.8 6.5 8 6 8.1 6.5 8.7 6.6 8.3 6.9"/><polygon class="d" points="11.4 6.9 11.6 7.4 11.1 7.1 10.7 7.4 10.8 6.9 10.4 6.6 10.9 6.5 11.1 6 11.3 6.5 11.8 6.6 11.4 6.9"/><polygon class="d" points="6.8 2.8 6.9 3.3 6.5 3 6 3.3 6.2 2.8 5.7 2.5 6.3 2.4 6.5 1.9 6.6 2.4 7.2 2.5 6.8 2.8"/><path class="d" d="M7.8,.9v.2h-.5c.2,0,.3-.1,.5-.2Z"/><polygon class="d" points="9.9 2.8 10.1 3.3 9.6 3 9.2 3.3 9.3 2.8 8.9 2.5 9.4 2.4 9.6 1.9 9.8 2.4 10.3 2.5 9.9 2.8"/><path class="f" d="M.6,8.7s0,0,0,0h0Zm0,0s0,0,0,0h0ZM7.4,1.1h.4v-.2c0,0-.2,.1-.4,.2Zm0,0h.4v-.2c0,0-.2,.1-.4,.2Zm0,0h.4v-.2c0,0-.2,.1-.4,.2Zm0,0h.4v-.2c0,0-.2,.1-.4,.2Z"/></g></g><path class="d" d="M.5,11v.5l-.3-.3H0c0-.3,0-.6,.1-.9v.4H.9l-.4,.3Z"/><polygon class="d" points="3.6 11 3.7 11.5 3.3 11.2 2.9 11.5 3 11 2.6 10.6 3.1 10.6 3.3 10.1 3.5 10.6 4 10.6 3.6 11"/><polygon class="d" points="6.8 11 6.9 11.5 6.5 11.2 6 11.5 6.2 11 5.7 10.6 6.3 10.6 6.5 10.1 6.6 10.6 7.2 10.6 6.8 11"/><polygon class="d" points="9.9 11 10.1 11.5 9.6 11.2 9.2 11.5 9.3 11 8.9 10.6 9.4 10.6 9.6 10.1 9.8 10.6 10.3 10.6 9.9 11"/><g class="e"><path d="M.6,8.8h0s0,0,0,0h0Z"/></g><polygon class="d" points="8.3 9.7 8.4 10.1 8 9.8 7.5 10.1 7.7 9.7 7.7 9.6 7.2 9.3 7.8 9.3 8 8.8 8.1 9.3 8.7 9.3 8.3 9.6 8.3 9.7"/><polygon class="d" points="11.4 9.7 11.6 10.1 11.1 9.8 10.7 10.1 10.8 9.7 10.8 9.6 10.4 9.3 10.9 9.3 11.1 8.8 11.3 9.3 11.8 9.3 11.4 9.6 11.4 9.7"/><path class="d" d="M2,6.9v.5l-.3-.3-.5,.3v-.5h.1c.1-.2,.2-.5,.4-.7v.3h.6l-.4,.4Z"/><polygon class="d" points="5.1 6.9 5.2 7.4 4.8 7.1 4.4 7.4 4.5 6.9 4.1 6.6 4.6 6.5 4.8 6 5 6.5 5.5 6.6 5.1 6.9"/><polygon class="d" points="8.3 6.9 8.4 7.4 8 7.1 7.5 7.4 7.7 6.9 7.2 6.6 7.8 6.5 8 6 8.1 6.5 8.7 6.6 8.3 6.9"/><polygon class="d" points="11.4 6.9 11.6 7.4 11.1 7.1 10.7 7.4 10.8 6.9 10.4 6.6 10.9 6.5 11.1 6 11.3 6.5 11.8 6.6 11.4 6.9"/><polygon class="d" points="6.8 2.8 6.9 3.3 6.5 3 6 3.3 6.2 2.8 5.7 2.5 6.3 2.4 6.5 1.9 6.6 2.4 7.2 2.5 6.8 2.8"/><path class="d" d="M8.4,1.8h-.2l-.2-.2-.2,.2h-.2v-.4l-.3-.3s0,0,0,0h.4v-.2c.1,0,.2,0,.3,0v.3h.6l-.4,.3v.4Z"/><path class="f" d="M7.8,.9v.2h-.5c.2,0,.3-.1,.5-.2Z"/><polygon class="d" points="9.9 2.8 10.1 3.3 9.6 3 9.2 3.3 9.3 2.8 8.9 2.5 9.4 2.4 9.6 1.9 9.8 2.4 10.3 2.5 9.9 2.8"/><path class="f" d="M12.5,0c-.7,0-1.3,0-1.9,.1-.2,0-.4,0-.6,0-.7,.1-1.3,.3-2,.6v.3h.6l-.4,.3v.4h0l-.2-.2-.2,.2h-.2v-.4l-.3-.3c-.4,.2-.9,.4-1.3,.7-.9,.5-1.7,1.2-2.4,1.9-.6,.6-1.1,1.3-1.6,2,0,.2-.2,.3-.3,.5v.3h.6l-.4,.4v.5l-.3-.3-.5,.3v-.5h.1c-.1,.3-.3,.5-.4,.8-.1,.3-.3,.7-.4,1.1h0c0,.3-.2,.6-.2,.9v1H.9l-.4,.3v.5l-.3-.3H0c0,.2,0,.3,0,.4,0,.3,0,.6,0,.9s0,.4,0,.6c0,.1,0,.3,0,.4H12.9V0c-.1,0-.3,0-.4,0ZM2.1,12.9l-.4-.3-.5,.3v-.5l-.3-.3h.5v-.4h.2v.4h.7l-.4,.4v.5Zm0-3.2h0v.5l-.3-.3-.5,.3v-.5h.1l-.4-.4h.5l.2-.5,.2,.5h.5l-.4,.4Zm1.8,1.9l-.4-.3-.4,.3v-.5l-.3-.3h.5l.2-.5,.2,.5h.5l-.4,.3v.5Zm0-3.2v.5l-.3-.3-.4,.3v-.5l-.3-.3h.5v-.2l.2-.3v.3l.2,.2h.5l-.4,.3Zm0-2.7v.5l-.3-.3-.4,.3v-.5l-.3-.3h.5l.2-.5,.2,.5h.5l-.4,.3Zm1.7,7.3l-.5-.3-.4,.3v-.5l-.3-.3h.5v-.4h.2v.4h.7l-.4,.4,.2,.5Zm-.2-3.2h0v.5l-.3-.3-.4,.3v-.5h.1l-.4-.4h.5l.2-.5,.2,.5h.5l-.4,.4Zm0-2.7l.2,.5-.5-.3-.4,.3v-.5l-.3-.3h.5l.2-.5,.2,.5h.5l-.4,.4Zm0-2.7l.2,.5-.5-.3-.4,.3v-.5l-.3-.3h.5l.2-.5,.2,.4h.5l-.4,.4Zm1.8,7.3l-.4-.3-.4,.3v-.5l-.3-.3h.5l.2-.5,.2,.5h.5l-.4,.3v.5Zm0-3.2v.5l-.3-.3-.4,.3v-.5l-.3-.3h.5v-.2l.2-.3v.3l.2,.2h.5l-.4,.3Zm0-2.7v.5l-.3-.3-.4,.3v-.5l-.3-.3h.5l.2-.5,.2,.5h.5l-.4,.3Zm0-2.7v.5l-.3-.3-.4,.3v-.5l-.3-.3h.5l.2-.5,.2,.5h.5l-.4,.3Zm1.6,10.1l-.4-.3-.4,.3v-.5l-.3-.3h.5v-.4h.2v.4h.7l-.4,.4v.5Zm0-3.2h0v.5l-.3-.3-.4,.3v-.5h.1l-.4-.4h.5l.2-.5,.2,.5h.5l-.4,.4Zm0-2.7v.5l-.3-.3-.4,.3v-.5l-.3-.3h.5l.2-.5,.2,.5h.5l-.4,.4Zm0-2.7v.5l-.3-.3-.4,.3v-.5l-.3-.3h.5l.2-.5,.2,.4h.6l-.4,.4Zm1.8,7.3l-.5-.3-.4,.3,.2-.5-.4-.3h.5l.2-.5,.2,.5h.5l-.4,.3v.5Zm0-3.2v.5l-.3-.3-.4,.3,.2-.5-.4-.3h.5v-.2l.2-.3v.3l.2,.2h.5l-.4,.3Zm0-2.7v.5l-.3-.3-.4,.3v-.3l.2-.2-.4-.3h.5l.2-.5,.2,.5h.5l-.4,.3Zm0-2.7v.5l-.3-.3-.4,.3,.2-.5-.4-.3h.5l.2-.5,.2,.5h.5l-.4,.3Zm1.6,10.1l-.4-.3-.5,.3,.2-.5-.4-.3h.5l.2-.4h0v.4h.7l-.4,.4v.5Zm0-3.2h0v.5l-.3-.3-.5,.3v-.5h.2l-.4-.4h.5l.2-.5,.2,.5h.5l-.4,.4Zm0-2.7v.5l-.3-.3-.5,.3,.2-.5-.4-.3h.5l.2-.5,.2,.5h.5l-.4,.4Zm0-2.7v.5l-.3-.3-.5,.3,.2-.5-.4-.3h.5l.2-.5,.2,.4h.5l-.4,.4Zm0-2.7v.4h0l-.2-.2-.2,.2h-.2v-.4l-.3-.3h.5l.2-.5,.2,.5h.5l-.4,.3Z"/><polygon class="d" points="2 9.7 2.1 10.1 1.7 9.8 1.2 10.1 1.3 9.7 1.3 9.6 .9 9.3 1.5 9.3 1.7 8.8 1.8 9.3 2.4 9.3 2 9.6 2 9.7"/><polygon class="d" points="2 12.3 2.1 12.9 1.7 12.6 1.2 12.9 1.3 12.3 .9 12 1.5 12 1.6 11.6 1.7 11.5 1.7 11.6 1.8 12 2.4 12 2 12.3"/><polygon class="d" points="5.1 12.3 5.2 12.9 4.8 12.6 4.4 12.9 4.5 12.3 4.1 12 4.6 12 4.8 11.6 4.8 11.5 4.8 11.6 5 12 5.5 12 5.1 12.3"/><polygon class="d" points="11.4 12.3 11.6 12.9 11.1 12.6 10.7 12.9 10.8 12.3 10.4 12 10.9 12 11.1 11.6 11.1 11.5 11.2 11.6 11.3 12 11.8 12 11.4 12.3"/><polygon class="d" points="8.3 12.3 8.4 12.9 8 12.6 7.5 12.9 7.7 12.3 7.2 12 7.8 12 7.9 11.6 8 11.5 8 11.6 8.1 12 8.7 12 8.3 12.3"/><polygon class="d" points="9.9 8.2 10.1 8.8 9.6 8.5 9.2 8.8 9.3 8.2 8.9 7.9 9.4 7.9 9.5 7.7 9.6 7.4 9.7 7.7 9.8 7.9 10.3 7.9 9.9 8.2"/><polygon class="d" points="5.1 9.7 5.2 10.1 4.8 9.8 4.4 10.1 4.5 9.7 4.5 9.6 4.1 9.3 4.6 9.3 4.8 8.8 5 9.3 5.5 9.3 5.1 9.6 5.1 9.7"/><polygon class="d" points="6.8 8.2 6.9 8.8 6.5 8.5 6 8.8 6.2 8.2 5.7 7.9 6.3 7.9 6.3 7.7 6.5 7.4 6.6 7.7 6.6 7.9 7.2 7.9 6.8 8.2"/><polygon class="d" points="3.6 8.2 3.7 8.8 3.3 8.5 2.9 8.8 3 8.2 2.6 7.9 3.1 7.9 3.2 7.7 3.3 7.4 3.4 7.7 3.5 7.9 4 7.9 3.6 8.2"/><polygon class="d" points="3.7 5.7 3.7 6 3.3 5.7 2.9 6 2.9 5.7 3 5.5 2.6 5.2 3.1 5.2 3.3 4.7 3.5 5.2 4 5.2 3.6 5.5 3.7 5.7"/><polygon class="d" points="5.1 4.2 5.2 4.7 4.8 4.4 4.4 4.7 4.5 4.2 4.1 3.8 4.6 3.8 4.6 3.8 4.8 3.3 5 3.8 5 3.8 5.5 3.8 5.1 4.2"/><polygon class="d" points="10 5.7 10.1 6 9.6 5.7 9.2 6 9.3 5.7 9.3 5.5 8.9 5.2 9.4 5.2 9.6 4.7 9.8 5.2 10.3 5.2 9.9 5.5 10 5.7"/><polygon class="d" points="6.8 5.7 6.9 6 6.5 5.7 6 6 6.1 5.7 6.2 5.5 5.7 5.2 6.3 5.2 6.5 4.7 6.6 5.2 7.2 5.2 6.8 5.5 6.8 5.7"/><polygon class="d" points="8.3 4.2 8.4 4.7 8 4.4 7.5 4.7 7.7 4.2 7.2 3.8 7.8 3.8 7.8 3.8 8 3.3 8.1 3.8 8.1 3.8 8.7 3.8 8.3 4.2"/><polygon class="d" points="11.4 4.2 11.6 4.7 11.1 4.4 10.7 4.7 10.8 4.2 10.4 3.8 10.9 3.8 11 3.8 11.1 3.3 11.3 3.8 11.3 3.8 11.8 3.8 11.4 4.2"/><polygon class="d" points="11.5 1.8 11.6 1.9 11.4 1.8 11.1 1.7 10.9 1.8 10.7 1.9 10.7 1.8 10.8 1.4 10.4 1.1 10.9 1.1 11.1 .6 11.3 1.1 11.8 1.1 11.4 1.4 11.5 1.8"/><path class="h" d="M19,1.8h-6.1V0c.5,0,1,0,1.5,.1,1.6,.3,3.2,.8,4.6,1.7Z"/></g></g></g></svg>