<?xml version="1.0" encoding="UTF-8"?><svg xmlns="http://www.w3.org/2000/svg" viewBox="0 0 25 25"><defs><style>.d{fill:#50ade1;}.e{fill:#fff;}.f{fill:#993100;}.g{fill:#ffb400;}.h{fill:#bb4f05;}</style></defs><g id="a"/><g id="b"><g id="c"><g><g><path class="e" d="M24.3,16.7H.7s0,0,0,0c-.5-1.3-.7-2.7-.7-4.1s.2-2.9,.7-4.2H24.3c.5,1.3,.7,2.7,.7,4.2s-.2,2.8-.7,4.1h0Z"/><path class="d" d="M24.3,16.7H.7s0,0,0,0c1.7,4.8,6.3,8.3,11.8,8.3s10-3.5,11.8-8.3h0Z"/><path class="d" d="M24.3,8.4H.7C2.4,3.5,7,0,12.5,0s10.1,3.5,11.8,8.4Z"/></g><g><g><path class="f" d="M12.4,10.4s.1-.2,0-.4c0-.2-.1-.3-.1-.5,0-.2,.2-.5,.2-.5,0,0-.2,.4,0,.6,0,.3,.2,.4,.1,.6,0,.2-.1,.3-.1,.5,0,.2,.1,.4,.1,.4h-.3s-.1-.4,0-.7Z"/><path class="g" d="M12.3,11.1c0,0,0-.4,.1-.7,0,0,.1-.2,.1-.4,0,0,0-.2,0-.2,0,0,0-.2,0-.3,0,0,0,0,0-.1,0,0,0,.2,0,.3h0c0,.3,.1,.4,.1,.6,0,0,0,.2,0,.2,0,0,0,.2,0,.3,0,.1,0,.3,0,.3h-.2Z"/></g><g><path class="f" d="M11.9,10.5s0-.2,0-.4c0-.2-.2-.3-.2-.5,0-.2,.1-.5,.1-.5,0,0,0,.4,0,.6,.1,.2,.2,.4,.2,.5,0,.2,0,.3,0,.5,0,.2,.2,.3,.2,.3h-.3c0,0-.2-.3,0-.7Z"/><path class="g" d="M12,11.2c0,0-.1-.4,0-.7,0,0,0-.3,0-.4,0,0,0-.2-.1-.2,0,0,0-.1,0-.3,0,0,0,0,0-.1,0,0,0,.2,0,.3h0c.1,.3,.2,.4,.2,.5,0,0,0,.2,0,.2,0,.1,0,.2,0,.3,0,.1,0,.3,.1,.3h-.2Z"/></g><g><path class="f" d="M11.3,10.8s0-.2-.1-.4c-.1-.2-.2-.2-.3-.4,0-.2,0-.5,0-.5,0,0,0,.4,.3,.6s.3,.3,.4,.4c0,.2,0,.4,.1,.5,0,.2,.3,.3,.3,.3l-.3,.2s-.3-.2-.3-.7Z"/><path class="g" d="M11.6,11.4c0,0-.3-.3-.2-.6,0,0,0-.3-.1-.4,0,0-.1-.1-.2-.2,0,0-.1-.1-.2-.2,0,0,0,0,0-.1,0,0,0,.2,.2,.2h0c.2,.2,.3,.3,.3,.4,0,0,0,.2,0,.2,0,.1,0,.2,0,.3,0,.1,.2,.2,.2,.3h-.2Z"/></g><g><path class="f" d="M10.9,11.2s0-.2-.2-.3c-.2-.1-.3,0-.4-.2-.1-.1-.2-.5-.2-.5,0,0,.2,.4,.4,.4s.4,.1,.5,.2c.1,.1,.2,.3,.3,.4,.2,.1,.4,.2,.4,.2l-.2,.3s-.3-.1-.5-.5Z"/><path class="g" d="M11.4,11.7c0,0-.3-.2-.5-.5,0,0,0-.2-.3-.4,0,0-.2,0-.2-.1,0,0-.2,0-.2-.1,0,0,0,0,0,0,0,0,.1,.1,.2,.2h0c.2,.1,.3,.2,.4,.2,0,0,0,.1,.1,.2,0,0,.1,.2,.2,.3,.1,0,.2,.1,.3,.2l-.2,.2Z"/></g><g><path class="f" d="M10.6,11.6s-.1-.2-.3-.3c-.2,0-.3,0-.5-.2-.2-.1-.3-.4-.3-.4,0,0,.2,.3,.5,.4,.3,0,.4,0,.5,.2,.1,.1,.2,.3,.4,.4,.2,.1,.4,0,.4,0l-.2,.3s-.4,0-.6-.4Z"/><path class="g" d="M11.2,12.1c0,0-.4-.1-.5-.4,0,0-.1-.2-.3-.3,0,0-.2,0-.2,0,0,0-.2,0-.3,0,0,0,0,0,0,0,0,0,.2,0,.3,.1h.1c.2,0,.4,0,.5,.2,0,0,.1,.1,.2,.2,0,0,.1,.2,.2,.2,.1,0,.3,0,.3,.1v.2Z"/></g><g><path class="f" d="M10.4,12.1s-.2-.2-.3-.2c-.2,0-.3,0-.5,0-.2,0-.4-.3-.4-.3,0,0,.3,.3,.6,.3,.3,0,.4,0,.6,0,.2,0,.3,.2,.4,.3,.2,0,.4,0,.4,0v.3c-.1,0-.5,0-.7-.3Z"/><path class="g" d="M11.1,12.4c0,0-.4,0-.6-.3,0,0-.2-.2-.4-.2,0,0-.2,0-.2,0,0,0-.2,0-.3,0,0,0,0,0,0,0,0,0,.2,0,.3,0h.1c.2,0,.4,0,.5,0,0,0,.1,0,.2,.1,0,0,.2,.1,.3,.2,.1,0,.3,0,.4,0v.2Z"/></g><g><path class="f" d="M10.4,12.8s-.2-.1-.4,0c-.2,0-.3,.1-.5,.1-.2,0-.5-.2-.5-.2,0,0,.4,.2,.6,0,.3,0,.4-.2,.6-.1,.2,0,.3,.1,.5,.1,.2,0,.4-.1,.4-.1v.3s-.4,.1-.7,0Z"/><path class="g" d="M11.1,12.8c0,0-.4,0-.7-.1,0,0-.2-.1-.4-.1,0,0-.2,0-.2,0,0,0-.2,0-.3,0,0,0,0,0-.1,0,0,0,.2,0,.3,0h0c.2-.1,.3-.2,.5-.1,0,0,.2,0,.2,0,0,0,.2,0,.3,0,.1,0,.3,0,.3,0v.2Z"/></g><g><path class="f" d="M10.6,13.4s-.2,0-.4,0c-.2,.1-.2,.2-.4,.3-.2,0-.5,0-.5,0,0,0,.4,0,.6-.2s.3-.3,.5-.3c.2,0,.4,0,.5,0,.2,0,.3-.2,.3-.2v.3c.1,0-.2,.2-.6,.2Z"/><path class="g" d="M11.3,13.2c0,0-.3,.2-.7,.1,0,0-.3,0-.4,0,0,0-.1,0-.2,.1,0,0-.1,.1-.2,.1,0,0,0,0-.1,0,0,0,.2,0,.3-.1h0c.2-.2,.3-.3,.4-.3,0,0,.2,0,.2,0,.1,0,.2,0,.3,0,.1,0,.2-.1,.3-.2v.2Z"/></g><g><path class="f" d="M10.9,13.8s-.2,0-.4,.1c-.2,.1-.2,.2-.4,.3-.2,0-.5,0-.5,0,0,0,.4,0,.6-.3,.2-.2,.3-.3,.4-.4,.2,0,.4,0,.5-.1,.2,0,.3-.3,.3-.3l.2,.3s-.2,.3-.7,.3Z"/><path class="g" d="M11.5,13.5c0,0-.3,.3-.6,.2,0,0-.3,0-.4,.1,0,0-.1,.1-.2,.2,0,0-.1,.1-.2,.2,0,0,0,0-.1,0,0,0,.2,0,.2-.2h0c.1-.3,.2-.4,.3-.4,0,0,.2,0,.2,0,.1,0,.2,0,.3,0,.1,0,.2-.2,.3-.2v.2Z"/></g><g><path class="f" d="M11.2,14.1s-.2,0-.4,.2c-.1,.2-.1,.3-.3,.4-.1,.1-.5,.2-.5,.2,0,0,.4-.1,.5-.4,.1-.2,.2-.4,.3-.5,.1-.1,.3-.1,.5-.2,.2-.1,.2-.3,.2-.3l.2,.3s-.2,.3-.6,.4Z"/><path class="g" d="M11.8,13.7c0,0-.2,.3-.6,.4,0,0-.3,0-.4,.2,0,0-.1,.1-.1,.2,0,0,0,.1-.2,.2,0,0,0,0,0,0,0,0,.1-.1,.2-.2h0c.1-.3,.2-.4,.3-.5,0,0,.1,0,.2,0,0,0,.2,0,.3-.1,.1,0,.2-.2,.2-.3l.2,.2Z"/></g><g><path class="f" d="M11.7,14.4s-.2,.1-.3,.3c0,.2,0,.3-.2,.5-.1,.2-.4,.3-.4,.3,0,0,.3-.2,.4-.5,0-.3,0-.4,.2-.5,.1-.1,.3-.2,.4-.4,.1-.2,0-.4,0-.4l.3,.2s0,.4-.4,.6Z"/><path class="g" d="M12.1,13.8c0,0-.1,.4-.4,.5,0,0-.2,.1-.3,.3,0,0,0,.2,0,.2,0,0,0,.2,0,.3,0,0,0,0,0,0,0,0,0-.2,.1-.3h0c0-.3,0-.5,.1-.6,0,0,.1-.1,.2-.2,0,0,.2-.1,.2-.2,0-.1,0-.3,.1-.3h.2Z"/></g><g><path class="f" d="M12.3,14.6s-.2,.2-.2,.4c0,.2,0,.3,0,.5,0,.2-.3,.4-.3,.4,0,0,.2-.3,.2-.6,0-.3,0-.4,0-.6,0-.2,.2-.3,.2-.5,0-.2,0-.4,0-.4h.3c0,0,0,.4-.2,.7Z"/><path class="g" d="M12.4,13.9c0,0,0,.4-.2,.6,0,0-.2,.2-.2,.4,0,0,0,.2,0,.2,0,0,0,.2,0,.3,0,0,0,0,0,.1,0,0,0-.2,0-.3h0c0-.3,0-.5,0-.6,0,0,0-.1,.1-.2,0,0,.1-.2,.1-.3,0-.1,0-.3,0-.4h.2Z"/></g><g><path class="f" d="M12.8,14.6s-.1,.2,0,.4c0,.2,.1,.3,.1,.5,0,.2-.2,.5-.2,.5,0,0,.2-.4,0-.6s-.2-.4-.1-.6c0-.2,.1-.3,.1-.5,0-.2-.1-.4-.1-.4h.3s.1,.4,0,.7Z"/><path class="g" d="M12.8,13.9c0,0,0,.4-.1,.7,0,0-.1,.2-.1,.4,0,0,0,.2,0,.2,0,0,0,.2,0,.3,0,0,0,0,0,.1,0,0,0-.2,0-.3h0c0-.3-.1-.4-.1-.6,0,0,0-.2,0-.2,0,0,0-.2,0-.3,0-.1,0-.3,0-.3h.2Z"/></g><g><path class="f" d="M13.2,14.4s0,.2,0,.4c0,.2,.2,.3,.2,.5,0,.2-.1,.5-.1,.5,0,0,0-.4,0-.6-.1-.2-.2-.4-.2-.5,0-.2,0-.3,0-.5,0-.2-.2-.3-.2-.3h.3c0,0,.2,.3,0,.7Z"/><path class="g" d="M13.1,13.7c0,0,.1,.4,0,.7,0,0,0,.3,0,.4,0,0,0,.2,.1,.2,0,0,0,.1,0,.3,0,0,0,0,0,.1,0,0,0-.2,0-.3h0c-.1-.3-.2-.4-.2-.5,0,0,0-.2,0-.2,0-.1,0-.2,0-.3,0-.1,0-.3-.1-.3h.2Z"/></g><g><path class="f" d="M13.7,14.2s0,.2,.1,.4c.1,.2,.2,.2,.3,.4,0,.2,0,.5,0,.5,0,0,0-.4-.3-.6s-.3-.3-.4-.4c0-.2,0-.4-.1-.5,0-.2-.3-.3-.3-.3l.3-.2s.3,.2,.3,.7Z"/><path class="g" d="M13.4,13.5c0,0,.3,.3,.2,.6,0,0,0,.3,.1,.4,0,0,.1,.1,.2,.2,0,0,.1,.1,.2,.2,0,0,0,0,0,.1,0,0,0-.2-.2-.2h0c-.2-.2-.3-.3-.3-.4,0,0,0-.2,0-.2,0-.1,0-.2,0-.3,0-.1-.2-.2-.2-.3h.2Z"/></g><g><path class="f" d="M14.1,13.8s0,.2,.2,.3c.2,.1,.3,0,.4,.2,.1,.1,.2,.5,.2,.5,0,0-.2-.4-.4-.4s-.4-.1-.5-.2c-.1-.1-.2-.3-.3-.4-.2-.1-.4-.2-.4-.2l.2-.3s.3,.1,.5,.5Z"/><path class="g" d="M13.6,13.3c0,0,.3,.2,.5,.5,0,0,0,.2,.3,.4,0,0,.2,0,.2,.1,0,0,.2,0,.2,.1,0,0,0,0,0,0,0,0-.1-.1-.2-.2h0c-.2-.1-.3-.2-.4-.2,0,0,0-.1-.1-.2,0,0-.1-.2-.2-.3-.1,0-.2-.1-.3-.2l.2-.2Z"/></g><g><path class="f" d="M14.3,13.4s.1,.2,.3,.3c.2,0,.3,0,.5,.2,.2,.1,.3,.4,.3,.4,0,0-.2-.3-.5-.4-.3,0-.4,0-.5-.2-.1-.1-.2-.3-.4-.4-.2-.1-.4,0-.4,0l.2-.3s.4,0,.6,.4Z"/><path class="g" d="M13.8,13c0,0,.4,.1,.5,.4,0,0,.1,.2,.3,.3,0,0,.2,0,.2,0,0,0,.2,0,.3,0,0,0,0,0,0,0,0,0-.2,0-.3-.1h-.1c-.2,0-.4,0-.5-.2,0,0-.1-.1-.2-.2,0,0-.1-.2-.2-.2-.1,0-.3,0-.3-.1v-.2Z"/></g><g><path class="f" d="M14.5,13s.2,.2,.3,.2c.2,0,.3,0,.5,0,.2,0,.4,.3,.4,.3,0,0-.3-.3-.6-.3-.3,0-.4,0-.6,0-.2,0-.3-.2-.4-.3-.2,0-.4,0-.4,0v-.3c.1,0,.5,0,.7,.3Z"/><path class="g" d="M13.9,12.6c0,0,.4,0,.6,.3,0,0,.2,.2,.4,.2,0,0,.2,0,.2,0,0,0,.2,0,.3,0,0,0,0,0,0,0,0,0-.2,0-.3,0h-.1c-.2,0-.4,0-.5,0,0,0-.1,0-.2-.1,0,0-.2-.1-.3-.2-.1,0-.3,0-.4,0v-.2Z"/></g><g><path class="f" d="M14.6,12.4s.2,.1,.4,0c.2,0,.3-.1,.5-.1,.2,0,.5,.2,.5,.2,0,0-.4-.2-.6,0s-.4,.2-.6,.1c-.2,0-.3-.1-.5-.1-.2,0-.4,.1-.4,.1v-.3s.4-.1,.7,0Z"/><path class="g" d="M13.9,12.3c0,0,.4,0,.7,.1,0,0,.2,.1,.4,.1,0,0,.2,0,.2,0,0,0,.2,0,.3,0,0,0,0,0,.1,0,0,0-.2,0-.3,0h0c-.2,.1-.3,.2-.5,.1,0,0-.2,0-.2,0,0,0-.2,0-.3,0-.1,0-.3,0-.3,0v-.2Z"/></g><g><path class="f" d="M14.4,11.8s.2,0,.4,0c.2-.1,.2-.2,.4-.3,.2,0,.5,0,.5,0,0,0-.4,0-.6,.2-.2,.2-.3,.3-.5,.3-.2,0-.4,0-.5,0-.2,0-.3,.2-.3,.2v-.3c-.1,0,.2-.2,.6-.2Z"/><path class="g" d="M13.7,12c0,0,.3-.2,.7-.1,0,0,.3,0,.4,0,0,0,.1,0,.2-.1,0,0,.1-.1,.2-.1,0,0,0,0,.1,0,0,0-.2,0-.3,.1h0c-.2,.2-.3,.3-.4,.3,0,0-.2,0-.2,0-.1,0-.2,0-.3,0-.1,0-.2,.1-.3,.2v-.2Z"/></g><g><path class="f" d="M14.2,11.4s.2,0,.4-.1c.2-.1,.2-.2,.4-.3,.2,0,.5,0,.5,0,0,0-.4,0-.6,.3s-.3,.3-.4,.4c-.2,0-.4,0-.5,.1-.2,0-.3,.3-.3,.3l-.2-.3s.2-.3,.7-.3Z"/><path class="g" d="M13.6,11.7c0,0,.3-.3,.6-.2,0,0,.3,0,.4-.1,0,0,.1-.1,.2-.2,0,0,.1-.1,.2-.2,0,0,0,0,.1,0,0,0-.2,0-.2,.2h0c-.1,.3-.2,.4-.3,.4,0,0-.2,0-.2,0-.1,0-.2,0-.3,0-.1,0-.2,.2-.3,.2v-.2Z"/></g><g><path class="f" d="M13.9,11s.2,0,.4-.2c.1-.2,.1-.3,.3-.4,.1-.1,.5-.2,.5-.2,0,0-.4,.1-.5,.4-.1,.2-.2,.4-.3,.5-.1,.1-.3,.1-.5,.2-.2,.1-.2,.3-.2,.3l-.2-.3s.2-.3,.6-.4Z"/><path class="g" d="M13.3,11.4c0,0,.2-.3,.6-.4,0,0,.3,0,.4-.2,0,0,.1-.1,.1-.2,0,0,0-.1,.2-.2,0,0,0,0,0,0,0,0-.1,.1-.2,.2h0c-.1,.3-.2,.4-.3,.5,0,0-.1,0-.2,0,0,0-.2,0-.3,.1-.1,0-.2,.2-.2,.3l-.2-.2Z"/></g><g><path class="f" d="M13.4,10.6s.2-.1,.3-.3c0-.2,0-.3,.2-.5,.1-.2,.4-.3,.4-.3,0,0-.3,.2-.4,.5,0,.3,0,.4-.2,.5-.1,.1-.3,.2-.4,.4-.1,.2,0,.4,0,.4l-.3-.2s0-.4,.4-.6Z"/><path class="g" d="M13,11.2c0,0,.1-.4,.4-.5,0,0,.2-.1,.3-.3,0,0,0-.2,0-.2,0,0,0-.2,0-.3,0,0,0,0,0,0,0,0,0,.2-.1,.3h0c0,.3,0,.5-.1,.6,0,0-.1,.1-.2,.2,0,0-.2,.1-.2,.2,0,.1,0,.3-.1,.3h-.2Z"/></g><g><path class="f" d="M12.9,10.5s.2-.2,.2-.4c0-.2,0-.3,0-.5,0-.2,.3-.4,.3-.4,0,0-.2,.3-.2,.6,0,.3,0,.4,0,.6,0,.2-.2,.3-.2,.5,0,.2,0,.4,0,.4h-.3c0,0,0-.4,.2-.7Z"/><path class="g" d="M12.7,11.2c0,0,0-.4,.2-.6,0,0,.2-.2,.2-.4,0,0,0-.2,0-.2,0,0,0-.2,0-.3,0,0,0,0,0-.1,0,0,0,.2,0,.3h0c0,.3,0,.5,0,.6,0,0,0,.1-.1,.2,0,0-.1,.2-.1,.3,0,.1,0,.3,0,.4h-.2Z"/></g><g><g><circle class="g" cx="12.5" cy="12.5" r="1.4"/><path class="h" d="M14,12.3h0c0,0,0,0,0-.1,0,0,0,0,0,0v-.2c0,0,0,0,0,0,0,0,0,0,0,0,0,0,0,0,0,0h0c0,0,0-.1-.1-.2,0,0,0,0,0,0,0,0,0,0,0,0,0,0,0,0,0,0,0,0-.1-.1-.2-.1t0,0s0,0,0,0c0,0,0,0,0,0,0,0-.1,0-.2,0,0,0,0,0,0,0,0,0,0,0,0,0,0,0,0,0,0,0,0,0-.1,0-.2,0,0,0,0,0,0,0,0,0,0,0,0,0,0,0,0,0,0,0h0c0,0-.1,0-.2,0,0,0,0,0,0,0,0,0,0,0-.1,0,0,0,0,0,0,0,0,0-.1,0-.2,0,0,0,0,0,0,0,0,0-.1,0-.2,0,0,0,0,0,0,0,0,0-.1,0-.2,.1,0,0,0,0,0,0,0,0,0,0-.1,.1,0,0,0,0,0,0,0,0,0,0-.1,.1,0,0,0,0,0,0,0,0,0,0,0,.1,0,0,0,0,0,0,0,0,0,.1,0,.2,0,0,0,0,0,0,0,0,0,0,0,.1,0,0,0,0,0,0,0,0,0,.1,0,.2,0,0,0,0,0,0,0,0,0,0,0,0s0,0,0,0c0,0,0,0,0,0,0,0,0,.1,0,.2,0,0,0,0,0,0,0,0,0,.1,0,.2,0,0,0,0,0,0,0,0,0,.1,0,.2,0,0,0,0,0,0,0,0,0,0,0,.1,0,0,0,0,0,0,0,0,0,.1,.1,.2h0c0,0,0,0,0,0,0,0,0,0,0,0,0,0,0,0,.2,.1,0,0,0,0,0,0,0,0,0,0,.1,0,0,0,0,0,0,0,0,0,.1,0,.2,0,0,0,0,0,0,0,0,0,0,0,0,0,0,0,0,0,0,0,0,0,.1,0,.2,0h0s0,0,.1,0c0,0,0,0,0,0,0,0,.1,0,.2,0,0,0,0,0,0,0,0,0,0,0,.1,0,0,0,0,0,0,0,0,0,.1,0,.2,0,0,0,0,0,0,0,0,0,0,0,.1,0,0,0,0,0,0,0,0,0,0,0,.2-.1,0,0,0,0,0,0,0,0,0,0,0,0,0,0,0,0,0,0,0,0,0,0,.1-.2,0,0,0,0,0,0,0,0,0,0,0,0,0,0,0,0,0,0v-.2h0c0,0,0,0,0-.1,0,0,0,0,0,0,0,0,0-.1,0-.2,0,0,0,0,0,0,0,0,0,0,0-.1h0c0-.1,0-.2,0-.3Zm-2.7,.2c0-.7,.5-1.2,1.2-1.2s1.2,.5,1.2,1.2-.5,1.2-1.2,1.2-1.2-.5-1.2-1.2Z"/></g><g><path class="f" d="M12.6,13s0,0,0,0h0s0,0,0,0c0,0-.2,.1-.2,.1,0,0,.2-.1,.2-.1s0,0,0,0h0s0,0,0,0,.2,.1,.2,.1c0,0-.2-.1-.2-.1Z"/><path class="f" d="M12.5,13.2c-.1,0-.2,0-.3,0,0,0,.1,.1,.3,.1s.2,0,.3-.1c0,0-.2,0-.3,0Z"/><path class="f" d="M12.5,13.3c0,0,.1,0,.2,0,0,0-.1-.2-.2-.2s-.2,0-.2,.2c0,0,.1,0,.2,0Z"/><path class="f" d="M12.3,13.1s.2,0,.2,0,.2,0,.2,0h-.4Z"/><g><path class="f" d="M12.5,12.9c0,0-.1,0-.1,0,0,0,0,0,.1,0s.1,0,.1,0c0,0,0,0-.1,0Z"/><g><path class="f" d="M11.7,12.3s.2-.1,.3-.1,.3,.1,.3,.1c0,0-.1,0-.3,0-.2,0-.3,0-.3,0Z"/><path class="f" d="M11.7,12.1s.2-.1,.4-.1c.2,0,.3,.1,.4,.2,0,.1,0-.2-.3-.3s-.5,.2-.5,.2Z"/><path class="f" d="M12.1,12.3c0,0,0-.1-.1-.1s-.1,0-.1,.1,0,.1,.1,.1,.1,0,.1-.1Z"/><path class="f" d="M12.3,12.4s-.1,0-.2,0c-.1,0-.2,0-.2,0,0,0,.1,0,.2,0,.1,0,.2-.1,.2-.1Z"/><path class="f" d="M12.3,12.7s0-.1,.1-.2c0,0,0-.1,0-.1,0,0,0,.1,0,.2,0,0-.1,.2-.1,.2Z"/></g><g><path class="f" d="M13.3,12.3s-.2-.1-.3-.1-.3,.1-.3,.1c0,0,.1,0,.3,0,.2,0,.3,0,.3,0Z"/><path class="f" d="M13.3,12.1s-.2-.1-.4-.1c-.2,0-.3,.1-.4,.2,0,.1,0-.2,.3-.3,.3,0,.5,.2,.5,.2Z"/><path class="f" d="M12.8,12.3c0,0,0-.1,.1-.1s.1,0,.1,.1,0,.1-.1,.1-.1,0-.1-.1Z"/><path class="f" d="M12.7,12.4s.1,0,.2,0c.1,0,.2,0,.2,0,0,0-.1,0-.2,0-.1,0-.2-.1-.2-.1Z"/><path class="f" d="M12.7,12.7s0-.1-.1-.2c0,0,0-.1,0-.1,0,0,0,.1,0,.2,0,0,.1,.2,.1,.2Z"/></g><path class="f" d="M12.8,12.7s0,0,0,0c0,0,0,0-.1,0h0s0,0,.1,0c0,0,0-.1,0-.1Z"/><path class="f" d="M12.4,12.8h0s0,0,0,0c0,0,0,0,0,0,0,0,0,0,0,.1,0,0,0,0,.1,0h0Z"/></g></g></g></g></g></g></g></svg>