<?xml version="1.0" encoding="UTF-8"?><svg xmlns="http://www.w3.org/2000/svg" viewBox="0 0 25 25"><defs><style>.d{fill:#fff;}.e{fill:#002b7f;}.f{fill:#e20613;}</style></defs><g id="a"/><g id="b"><g id="c"><g><path class="e" d="M21.6,4H3.4C5.6,1.5,8.9,0,12.5,0s6.9,1.5,9.1,4Z"/><path class="d" d="M24.3,8.3H.7c.6-1.6,1.5-3.1,2.6-4.3H21.6c1.2,1.2,2.1,2.7,2.6,4.3Z"/><path class="f" d="M25,12.6c0,1.5-.3,3-.8,4.3H.8C.3,15.6,0,14.1,0,12.6H0c0-.2,0-.2,0-.3,0-1.4,.3-2.8,.7-4H24.3c.4,1.3,.7,2.6,.7,4v.3Z"/><path class="d" d="M24.2,16.9c-.6,1.6-1.6,3.1-2.8,4.3H3.6c-1.2-1.2-2.2-2.7-2.8-4.3H24.2Z"/><path class="e" d="M21.4,21.3c-2.3,2.3-5.4,3.7-8.9,3.7s-6.6-1.4-8.9-3.7H21.4Z"/></g></g></g></svg>