<?xml version="1.0" encoding="UTF-8"?><svg xmlns="http://www.w3.org/2000/svg" xmlns:xlink="http://www.w3.org/1999/xlink" viewBox="0 0 25 25"><defs><style>.e{fill:#fff;}.f{fill:#f01;}.g{fill:#8a71a8;}.h{fill:#faffff;}.i{fill:#00cab3;}.j{clip-path:url(#d);}.k{fill:none;}.l{fill:#1818b3;}</style><clipPath id="d"><path class="k" d="M16.1,12.5c0,2-1.6,4.4-3.6,4.4h0c-2,0-3.6-2.4-3.6-4.4v-3h7.1v3Z"/></clipPath></defs><g id="a"/><g id="b"><g id="c"><g><path class="l" d="M24.3,16.7c-1.7,4.9-6.3,8.3-11.8,8.3S2.4,21.5,.7,16.7H24.3Z"/><path class="h" d="M25,12.5c0,1.5-.2,2.9-.7,4.2H.7c-.5-1.3-.7-2.7-.7-4.2s.2-2.9,.7-4.2H24.3c.5,1.3,.7,2.7,.7,4.2Z"/><path class="f" d="M24.3,8.3H.7C2.4,3.5,7.1,0,12.5,0s10.1,3.5,11.8,8.3Z"/><path class="k" d="M25,12.5c0,1.5-.2,2.9-.7,4.2-1.7,4.9-6.3,8.3-11.8,8.3S2.4,21.5,.7,16.7c-.5-1.3-.7-2.7-.7-4.2s.2-2.9,.7-4.2C2.4,3.5,7.1,0,12.5,0s10.1,3.5,11.8,8.3c.5,1.3,.7,2.7,.7,4.2Z"/><g><g class="j"><g><g><rect class="f" x="9" y="9.6" width="1.4" height="1.4"/><rect class="f" x="11.8" y="9.6" width="1.4" height="1.4"/><rect class="f" x="14.7" y="9.6" width="1.4" height="1.4"/><rect class="e" x="10.4" y="9.6" width="1.4" height="1.4"/><rect class="e" x="13.2" y="9.6" width="1.4" height="1.4"/></g><g><rect class="e" x="9" y="11" width="1.4" height="1.4"/><rect class="e" x="11.8" y="11" width="1.4" height="1.4"/><rect class="e" x="14.7" y="11" width="1.4" height="1.4"/><rect class="f" x="10.4" y="11" width="1.4" height="1.4"/><rect class="f" x="13.2" y="11" width="1.4" height="1.4"/></g><g><rect class="f" x="9" y="12.4" width="1.4" height="1.4"/><rect class="f" x="11.8" y="12.4" width="1.4" height="1.4"/><rect class="f" x="14.7" y="12.4" width="1.4" height="1.4"/><rect class="e" x="10.4" y="12.4" width="1.4" height="1.4"/><rect class="e" x="13.2" y="12.4" width="1.4" height="1.4"/></g><g><rect class="f" x="9" y="15.3" width="1.4" height="2.9"/><rect class="f" x="11.8" y="15.3" width="1.4" height="2.9"/><rect class="f" x="14.7" y="15.3" width="1.4" height="2.9"/><rect class="e" x="10.4" y="15.3" width="1.4" height="2.9"/><rect class="e" x="13.2" y="15.3" width="1.4" height="2.9"/></g><g><rect class="e" x="9" y="13.9" width="1.4" height="1.4"/><rect class="e" x="11.8" y="13.9" width="1.4" height="1.4"/><rect class="e" x="14.7" y="13.9" width="1.4" height="1.4"/><rect class="f" x="10.4" y="13.9" width="1.4" height="1.4"/><rect class="f" x="13.2" y="13.9" width="1.4" height="1.4"/></g></g></g><g><rect class="i" x="8.5" y="7.8" width="2" height="1.8"/><rect class="g" x="10.5" y="7.8" width="2" height="1.8"/><rect class="i" x="12.5" y="7.8" width="2" height="1.8"/><rect class="g" x="14.5" y="7.8" width="2" height="1.8"/></g></g><path class="k" d="M25,12.5c0,1.5-.2,2.9-.7,4.2-1.7,4.9-6.3,8.3-11.8,8.3S2.4,21.5,.7,16.7c-.5-1.3-.7-2.7-.7-4.2s.2-2.9,.7-4.2C2.4,3.5,7.1,0,12.5,0s10.1,3.5,11.8,8.3c.5,1.3,.7,2.7,.7,4.2Z"/></g></g></g></svg>