<?xml version="1.0" encoding="UTF-8"?><svg xmlns="http://www.w3.org/2000/svg" viewBox="0 0 25 25"><defs><style>.d{fill:#f01;}.e{fill:#faffff;}.f{fill:none;}.g{fill:#1818b3;}</style></defs><g id="a"/><g id="b"><g id="c"><g><path class="g" d="M8.3,.7V24.3C3.5,22.6,0,17.9,0,12.5S3.5,2.4,8.3,.7Z"/><path class="e" d="M16.7,.7V24.3c-1.3,.5-2.7,.7-4.2,.7s-2.9-.3-4.2-.7V.7c1.3-.5,2.7-.7,4.2-.7s2.9,.2,4.2,.7Z"/><path class="d" d="M25,12.5c0,5.4-3.5,10.1-8.3,11.8V.7c4.9,1.7,8.3,6.3,8.3,11.8Z"/><path class="f" d="M25,12.5c0,5.4-3.5,10.1-8.3,11.8-1.3,.5-2.7,.7-4.2,.7s-2.9-.3-4.2-.7C3.5,22.6,0,17.9,0,12.5S3.5,2.4,8.3,.7c1.3-.5,2.7-.7,4.2-.7s2.9,.2,4.2,.7c4.9,1.7,8.3,6.3,8.3,11.8Z"/><path class="f" d="M25,12.5c0,5.4-3.5,10.1-8.3,11.8-1.3,.5-2.7,.7-4.2,.7s-2.9-.3-4.2-.7C3.5,22.6,0,17.9,0,12.5S3.5,2.4,8.3,.7c1.3-.5,2.7-.7,4.2-.7s2.9,.2,4.2,.7c4.9,1.7,8.3,6.3,8.3,11.8Z"/></g></g></g></svg>