<?xml version="1.0" encoding="UTF-8"?><svg xmlns="http://www.w3.org/2000/svg" viewBox="0 0 25 25"><defs><style>.d{fill:#fff;}.e{fill:#f01;}</style></defs><g id="a"/><g id="b"><g id="c"><g><path class="d" d="M25,12.5c0,.9,0,1.8-.3,2.7-1.1,4.9-5.1,8.8-10.1,9.6-.7,.1-1.4,.2-2.1,.2s-1.4,0-2.1-.2C5.4,24,1.4,20.1,.3,15.2c-.2-.9-.3-1.8-.3-2.7s0-1.2,.1-1.8C.9,5.3,5.1,1.1,10.4,.2c.7-.1,1.4-.2,2.1-.2s1.4,0,2.1,.2c5.3,.9,9.5,5.2,10.2,10.5,0,.6,.1,1.2,.1,1.8Z"/><path class="e" d="M25,12.5c0-.6,0-1.2-.1-1.8H14.6V.2c-.7-.1-1.4-.2-2.1-.2s-1.4,0-2.1,.2V10.7H.1c0,.6-.1,1.2-.1,1.8,0,.9,0,1.8,.3,2.7H10.4v9.6c.7,.1,1.4,.2,2.1,.2s1.4,0,2.1-.2V15.2h10.1c.2-.9,.3-1.8,.3-2.7Z"/></g></g></g></svg>