<?xml version="1.0" encoding="UTF-8"?><svg xmlns="http://www.w3.org/2000/svg" viewBox="0 0 25 25"><defs><style>.d{fill:#f01;}.e{fill:#009300;}.f{fill:none;}</style></defs><g id="a"/><g id="b"><g id="c"><g><path class="d" d="M25,12.5c0,6.9-5.6,12.5-12.5,12.5S0,19.4,0,12.5,5.6,0,12.5,0s12.5,5.6,12.5,12.5Z"/><path class="f" d="M25,12.5c0,6.9-5.6,12.5-12.5,12.5S0,19.4,0,12.5,5.6,0,12.5,0s12.5,5.6,12.5,12.5Z"/><path class="f" d="M25,12.5c0,6.9-5.6,12.5-12.5,12.5S0,19.4,0,12.5,5.6,0,12.5,0s12.5,5.6,12.5,12.5Z"/><path class="e" d="M20.9,10.5h-6.4l-2-6.1-2,6.1H4.1l5.2,3.8-2,6.1,5.2-3.8,5.2,3.8-2-6.1,5.2-3.8Zm-2.8,.9l-2.7,2-.6-2h3.3Zm-5.6-4.1l1,3.2h-2.1l1-3.2Zm-5.6,4.1h3.3l-.6,2-2.7-2Zm2.1,6.6l1-3.2,1.7,1.2-2.7,2Zm1.3-4.1l.8-2.5h2.6l.8,2.5-2.1,1.6-2.2-1.6Zm5.6,4.1l-2.7-2,1.7-1.2,1,3.2Z"/><path class="f" d="M25,12.5c0,6.9-5.6,12.5-12.5,12.5S0,19.4,0,12.5,5.6,0,12.5,0s12.5,5.6,12.5,12.5Z"/></g></g></g></svg>