<?xml version="1.0" encoding="UTF-8"?><svg xmlns="http://www.w3.org/2000/svg" viewBox="0 0 25 25"><defs><style>.d{fill:#fff;}.e{fill:#f01;}.f{fill:#ce3f00;}.g{fill:#ffb000;}.h{fill:#b12b00;}.i{fill:#008900;}.j{fill:#008200;}.k{fill:none;}</style></defs><g id="a"/><g id="b"><g id="c"><g><path class="e" d="M25,12.5c0,5.4-3.5,10.1-8.3,11.8V.7c4.9,1.7,8.3,6.3,8.3,11.8Z"/><path class="j" d="M8.3,.7V24.3C3.5,22.6,0,17.9,0,12.5S3.5,2.4,8.3,.7Z"/><path class="d" d="M16.7,.7V24.3c-1.3,.5-2.7,.7-4.2,.7s-2.9-.2-4.2-.7V.7c1.3-.5,2.7-.7,4.2-.7s2.9,.2,4.2,.7Z"/><path class="k" d="M25,12.5c0,5.4-3.5,10.1-8.3,11.8-1.3,.5-2.7,.7-4.2,.7s-2.9-.2-4.2-.7C3.5,22.6,0,17.9,0,12.5S3.5,2.4,8.3,.7c1.3-.5,2.7-.7,4.2-.7s2.9,.2,4.2,.7c4.9,1.7,8.3,6.3,8.3,11.8Z"/><path class="k" d="M25,12.5c0,5.4-3.5,10.1-8.3,11.8-1.3,.5-2.7,.7-4.2,.7s-2.9-.2-4.2-.7C3.5,22.6,0,17.9,0,12.5S3.5,2.4,8.3,.7c1.3-.5,2.7-.7,4.2-.7s2.9,.2,4.2,.7c4.9,1.7,8.3,6.3,8.3,11.8Z"/><g><g><path class="i" d="M10,12.8h0s0,0,0,0c0,0,0,0,0,0h0s0,0,0,0c0,0,0,0,0,0h0Z"/><path class="i" d="M10.3,13.1h0s0,0,0,0c0,0,0,0,0,0h0s0,0,0,0c0,0,0,0,0,0h0Z"/><path class="i" d="M10.6,13.3h0s0,0,0,.1c0,0,0,0-.1,0h0s0,0,0-.1c0,0,0,0,.1,0h0Z"/><path class="i" d="M10.9,13.4h0c0,0,0,0,0,.1,0,0,0,0-.1,0h0c0,0,0-.1,0-.2,0,0,0,0,.1,0h0Z"/><path class="i" d="M11.2,13.5h0c0,0,.1,0,0,.1,0,0,0,.1-.1,0h0c0,0,0,0,0-.2,0,0,0,0,.1,0h0Z"/><path class="i" d="M11.5,13.6h0c0,0,.1,0,.1,.2,0,0,0,.1-.2,.1h0c0,0-.1,0-.1-.2,0,0,0-.1,.2-.1h0Z"/><path class="i" d="M11.8,13.6h0c0,0,.1,0,.1,.2,0,0,0,.1-.2,.1h0c0,0-.1,0-.1-.2,0,0,0-.1,.2-.1h0Z"/><path class="i" d="M12.2,13.7h0c0,0,.1,0,.1,.2,0,0,0,.1-.2,.1h0c0,0-.1,0-.1-.2,0,0,0-.1,.2-.1h0Z"/><path class="i" d="M12.5,13.7h0c0,0,.1,0,.1,.1,0,0,0,.1-.1,.1h0c0,0-.1,0-.1-.1s0-.1,.1-.1h0Z"/><path class="i" d="M12.9,13.7h0c0,0,.1,0,.1,.1,0,0,0,.1-.1,.1h0c0,0-.1,0-.2-.1,0,0,0-.1,.1-.2h0Z"/><path class="i" d="M13.2,13.7h0c0,0,.1,0,.1,.1,0,0,0,.1-.1,.1h0c0,0-.1,0-.1-.1,0,0,0-.1,.1-.1h0Z"/><path class="i" d="M13.6,13.6h0c0,0,.1,0,.1,.1,0,0,0,.1-.1,.1h0c0,0-.1,0-.1-.1s0-.1,.1-.1h0Z"/><path class="i" d="M13.9,13.6h0c0,0,.1,0,.1,0,0,0,0,.1,0,.1h0c0,0-.1,0-.1,0,0,0,0-.1,0-.1h0Z"/><path class="i" d="M14.3,13.6h0s0,0,.1,0c0,0,0,0,0,0h0s0,0-.1,0c0,0,0,0,0-.1h0Z"/><path class="i" d="M14.6,13.5h0s0,0,0,0c0,0,0,0,0,0h0s0,0,0,0,0,0,0,0h0Z"/><path class="i" d="M14.9,13.4h0s0,0,0,0c0,0,0,0,0,0h0s0,0,0,0c0,0,0,0,0,0h0Z"/></g><path class="i" d="M12.6,15.3h0c0,0-.1,0-.1,.2s0,.2,.2,.2,.2,0,.2-.2,0-.2-.2-.2Zm-.4,0c0,0-.2,0-.2,.1,0,0,0,.2,.2,.2,0,0,.2,0,.2-.2s0-.2-.1-.2Zm.7,0c0,0-.1,0-.1,.2s0,.1,.2,.1h0c0,0,.1,0,.1-.2,0,0,0-.1-.2-.1Zm-1.1,0c0,0-.2,0-.2,.1,0,0,0,.2,.1,.2h0c0,0,.1,0,.1-.1,0,0,0-.2-.1-.2Zm1.4,0c0,0-.1,0-.1,.2,0,0,0,.1,.2,.1h0c0,0,.1,0,.1-.2,0,0,0-.1-.2-.1Zm-1.7,0c0,0-.2,0-.2,.1,0,0,0,.2,.1,.2,0,0,0,0,0,0,0,0,.1,0,.1-.1h0c0,0,0-.2-.1-.2Zm2.1,0s0,0,0,0c0,0-.1,0-.1,.2,0,0,0,.1,.2,.1h0c0,0,.1-.1,.1-.2,0,0,0-.1-.2-.1Zm-2.4,0c0,0-.2,0-.2,0,0,0,0,0,0,0,0,0,0,.1,.1,.1,0,0,0,0,0,0,0,0,.1,0,.1-.1,0,0,0,0,0,0,0,0,0-.1-.1-.1Zm2.8,0s0,0,0,0c0,0-.1,.1,0,.2s0,.1,.1,.1,0,0,0,0c0,0,.1-.1,0-.2,0,0,0-.1-.1-.1Zm-3.1,0c0,0-.2,0-.2,0,0,0,0,0,0,0,0,0,0,.1,0,.1,0,0,0,0,0,0,0,0,.1,0,.1,0,0,0,0,0,0,0,0,0,0-.1,0-.1Zm3.6,0c0,0,0,0-.1,0s0,0,0,0c0,0-.1,.1,0,.2,0,0,0,0,.1,0s0,0,0,0c0,0,0-.1,0-.2Zm-3.9-.2c0,0-.2,0-.2,0,0,0,0,.2,0,.2h0s0,0,0,0c0,0,.1,0,.1,0,0,0,0-.2,0-.2Zm4.2,0c0,0-.1,0-.2,0,0,0,0,.1,0,.2,0,0,0,0,.1,0s0,0,0,0c0,0,0-.1,0-.2Zm-4.5-.2c0,0-.2,0-.2,0,0,0,0,.2,0,.2h0s0,0,0,0c0,0,0,0,.1,0,0,0,0-.2,0-.2Zm4.7,0s0,0-.1,0,0,0,0,0c0,0,0,.1,0,.2,0,0,0,0,.1,0s0,0,0,0c0,0,0-.2,0-.2Zm-5-.2c0,0-.2,0-.2,0,0,0,0,.2,0,.2h0s0,0,0,0c0,0,0,0,.1,0,0,0,0-.2,0-.2Zm5.3,0c0,0-.2,0-.2,0,0,0,0,.2,0,.2,0,0,0,0,0,0s0,0,.1,0c0,0,0-.2,0-.2Zm-5.5-.2h0c0,0-.1,0-.2,0,0,0,0,.2,0,.2h0s0,0,.1,0,0,0,0,0c0,0,0-.2,0-.2Zm5.7-.1s0,0,0,0c0,0,0,0-.1,0,0,0,0,.2,0,.2,0,0,0,0,0,0s0,0,.1,0c0,0,0-.2,0-.2Zm-5.9-.2h0c0,0-.1-.1-.2,0,0,0,0,.1,0,.2,0,0,0,0,.1,0s0,0,0,0c0,0,0-.1,0-.2Zm6.1-.2c0,0-.2,0-.2,0h0c0,0,0,.2,0,.2,0,0,0,0,0,0,0,0,0,0,.1,0,0,0,0-.2,0-.2Zm-6.2-.2c0,0-.1-.1-.2,0,0,0-.1,.1,0,.2h0c0,0,0,0,.1,0s0,0,0,0c0,0,.1-.1,0-.2Zm6.4-.2c0,0-.2,0-.2,0h0c0,0,0,.2,0,.2,0,0,0,0,0,0,0,0,.1,0,.1,0,0,0,0-.2,0-.2Zm-6.5-.1c0,0-.1-.1-.2,0,0,0-.1,0-.1,.1s0,0,0,0c0,0,0,0,.2,0h0c0,0,.1,0,.1-.2s0,0,0,0Zm6.6-.2s0,0,0,0c0,0-.1,0-.1,.1,0,0,0,.2,0,.2h0c0,0,.1,0,.2-.1,0,0,0-.2-.1-.2Zm-6.9-.2c0,0-.1,0-.1,.2,0,0,0,.1,.1,.1s0,0,0,0c0,0,.1,0,.1-.2h0c0-.1,0-.1-.2-.1Zm7-.1s0,0,0,0c0,0-.1,0-.1,.1,0,0,0,.2,.1,.2h0c0,0,.1,0,.1-.1,0,0,0-.2-.1-.2Zm-7-.2c0,0-.1,0-.1,.2,0,0,0,.1,.1,.1h0c0,0,.1,0,.1-.2h0c0-.1,0-.2-.2-.1Zm7.1-.1c0,0-.1,0-.2,.1,0,0,0,.2,.1,.2h0c0,0,.1,0,.2-.1h0c0,0,0-.2-.1-.2Zm-7.1-.2c0,0-.2,0-.2,.2s0,.2,.2,.2,.2,0,.2-.2,0-.2-.2-.2Z"/><g><path class="g" d="M13.1,13.1v.3s-.2,0-.4,0c-.2,0,0,.2,.2,.2,0,0-.2,0-.1,.1,0,0,.2,0,.3,0,.2-.1,.2,0,.4,0,.1,0,.5,0,.3-.2-.2,0-.4-.1-.4-.1s0-.3,0-.3h-.2Z"/><path class="g" d="M12,12.7h-.3c0,0,0-.3,0-.3,0,0-.2,.2-.2,.2,0,0,0-.1-.1-.1-.1,0-.2,0,0,.2,.1,.1,.3,.1,.3,.1h.5Z"/><path class="i" d="M10.8,10c0,0,0,.1-.1,.2,0,0,0,0,0,0,0,0,0,0,0,0,0,0,0,.1,0,.2,0,0,0,0,0,0,0,0,0,0,0,0,0,0,0,0,0,0h.1s0,0,0,0h0s0,0,.1,0c0,0,0,0,0,0,0,0,0,0,0,0,0,0,0,0,0,.1s0,0,0,0c0,0,0,0,0,.1,0,0,0,0,0,0h0c0,0,0,0,0,.1,0,0,0,.1-.1,.2h0c0,.1,0,.1,0,.1,0,0,0,0,0,0h0s0,0,0,0c0,0,0,0,0,0,0,0,.1,0,.2,0,0,0,0,0,.1,0,0,0,0,0,.1,0,0,0,0,0,.1,0,0,0,0,0,0,0,0,0,0,0,0,.1,0,0,0,0,0,.1,0,0,0,0,0,.1,0,0,0,.1,0,.1,0,0,0,0,0,.1,0,0,0,0,0,0,0,0-.1,0-.2,.1-.1,0-.3,0-.4,0,0,0-.2,0-.2,0,0,0-.2,0-.2-.1,0,0,0,0,0,0,0,0,0,0,0-.1,0,0,0-.2,0-.2,0-.2,0-.3,0-.4,0,0,0-.1,0-.2,0,0,0-.1,0-.2,0,0,0,0-.2,0,0,0-.1,0-.2,0h0s0,0,0,0c0,0,0,0,0,0,0,0,.1-.1,.2-.1,0,0,.2,0,.2,0,0,0,0,0,0,.1,0,0,0,0,0,.1,0,0,0,.1,0,.2,0,.1,0,.3,0,.4,0,.1,0,.3,.2,.3,0,0,.2,0,.4,0,.1,0,.3,0,.4,0,0,0,.1,0,.2,0,0,0,0,0,.1-.1,0,0,0,0,0-.1,0,0,0,0,0,0,0,0,0,0,0,0,0,0,0,0-.1-.1,0,0,0,0,0,0,0,0,0,0,0,0,0,0-.1,0-.2,0,0,0,0,0-.1,0,0,0,0,0-.1-.1,0,0,0-.1,0-.2s0-.1,0-.2c0,0,0,0,0-.1,0,0,0,0,0,0,0,0,0-.1,.1-.2,0,0,0,0,0,0h0s0,0,0,0c0,0,0,0,0,0h0s0,0,0,0h0s0,0,0,0c0,0,0,0-.1,0,0,0-.2,0-.3,0,0,0,0,0-.1,0,0,0,0,0,0-.1,0,0,0-.2,0-.3,0,0,0,0,0-.1,0,0,0,0,0,0,0,0,0-.1,.2-.2,0,0,0,0,0,0,0,0,0,0,0,0Z"/><path class="g" d="M11.6,12.3s-.1-.1-.4,0c-.2,.2-.2,.2,0,.3,0,0,.2,0,.3,0,.1,0,.1-.4,.1-.4Z"/><path class="g" d="M11.2,10.3s-.4,0-.3,.4c0,.3,.3,.2,.3,.2,0,0-.2-.3,0-.3,.3,0,.3,.2,.6,0l-.6-.2Z"/><g><polygon class="h" points="12.1 12.4 11.8 12.4 12 12.7 11.7 12.9 11.9 13 11.8 13.1 12.6 13 12.1 12.4"/><path class="f" d="M11,10.4s-.3-.2,.4-.5c.6-.3,1.1,.3,1.1,.3,0,0,.2-.2-.2-.3-.4-.1-.3-.3,0-.4,.3,0,3.8,0,2.7,3.8,0,0-.6-1.6-1.7-1.3,0,0,0,.2,0,.4,0,0,1.5,.8,1.4,1,0,.1-1.1,.3-1.2,.1-.1-.1-.2-.2-.2-.2v.2h-.4s-1.5-1-1.5-1.8,.4-.9,.4-.9c0,0,0-.2-.8-.2Z"/></g></g></g><path class="k" d="M25,12.5c0,5.4-3.5,10.1-8.3,11.8-1.3,.5-2.7,.7-4.2,.7s-2.9-.2-4.2-.7C3.5,22.6,0,17.9,0,12.5S3.5,2.4,8.3,.7c1.3-.5,2.7-.7,4.2-.7s2.9,.2,4.2,.7c4.9,1.7,8.3,6.3,8.3,11.8Z"/></g></g></g></svg>