<?xml version="1.0" encoding="UTF-8"?><svg xmlns="http://www.w3.org/2000/svg" viewBox="0 0 25 25"><defs><style>.d{fill:#fff;}.e{fill:#f01;}.f{fill:none;}</style></defs><g id="a"/><g id="b"><g id="c"><g><path class="e" d="M25,12.3v.2c0,6.9-5.6,12.5-12.5,12.5S0,19.4,0,12.5v-.2H25Z"/><path class="d" d="M25,12.2H0C.1,5.5,5.7,0,12.5,0s12.4,5.5,12.5,12.2Z"/><path class="f" d="M25,12.2h0v.3c0,6.9-5.6,12.5-12.5,12.5S0,19.4,0,12.5v-.2H0C.1,5.5,5.7,0,12.5,0s12.4,5.5,12.5,12.2Z"/><path class="f" d="M25,12.2h0v.3c0,6.9-5.6,12.5-12.5,12.5S0,19.4,0,12.5v-.2H0C.1,5.5,5.7,0,12.5,0s12.4,5.5,12.5,12.2Z"/><path class="f" d="M25,12.2h0v.3c0,6.9-5.6,12.5-12.5,12.5S0,19.4,0,12.5v-.2H0C.1,5.5,5.7,0,12.5,0s12.4,5.5,12.5,12.2Z"/></g></g></g></svg>