<?xml version="1.0" encoding="UTF-8"?><svg xmlns="http://www.w3.org/2000/svg" viewBox="0 0 25 25"><defs><style>.d{fill:#fff;}.e{fill:#fff8ff;}.f{fill:#f01;}.g{fill:#fffaff;}.h{fill:#ffd400;}.i{fill:none;}.j{fill:#1818b3;}.k{fill:#9e0010;}</style></defs><g id="a"/><g id="b"><g id="c"><g><path class="f" d="M24.3,8.3H.7C2.4,3.5,7.1,0,12.5,0s10.1,3.5,11.8,8.3Z"/><path class="d" d="M24.3,16.7c-1.7,4.9-6.3,8.3-11.8,8.3S2.4,21.5,.7,16.7H24.3Z"/><path class="j" d="M25,12.5c0,1.5-.2,2.9-.7,4.2H.7c-.5-1.3-.7-2.7-.7-4.2s.2-2.9,.7-4.2H24.3c.5,1.3,.7,2.7,.7,4.2Z"/><g><g><path class="f" d="M12.7,7.6h-4v6.6c0,2.2,1.8,4,4,4h0V7.6Z"/><path class="f" d="M12.7,7.6h4v6.6c0,2.2-1.8,4-4,4h0V7.6Z"/></g><g><g><g><path class="h" d="M10.8,13.7l-.9,1.2s-.5-.2-.6,0c0,.1,0,.3,.4,.3,0,0-.5,0-.5,.2s.1,.3,.4,.2c0,0-.2,.2,0,.3,.3,0,.2-.5,.3-.6,.2,0,.5,0,.6-.2,0-.2-.3-.2-.3-.2l1-.8-.4-.4Z"/><path class="g" d="M12.7,9.8s-.8-2.3-1.8-1.4c0,0,1.6,1,.7,1.9-.9,1-2-1-1.4-1.7s-.1-.8-.5-.2c-.4,.6-.9,1.7-.6,3.8s0,2.2,0,2.2c0,0,.2,.3,.3,0,0,0,0,.3-.1,.4,0,0,.2,0,.5-.4s1.2-1.8,1.2-1.8l.4,.4s-.6,.7-.9,.8h.4v.3h.2v.3h0c0-.1,0,0,0,.2,0,0,.2-.9,.9-.9,0,0,0,1.7-1,3.3l1.6,.7v-7.9Z"/><path class="h" d="M11,8.4s-.4,0-.4,.3c0,.3,.2,.3,.2,.3,0,0,0-.4,.5-.1,0,0-.2-.3-.4-.4Z"/></g><g><path class="k" d="M11.1,10.7h1.6v4.1h0c-.9,0-1.6-.7-1.6-1.6v-2.5Z"/><g><rect class="e" x="11.6" y="11.8" width=".5" height="1.6" transform="translate(24.5 .8) rotate(90)"/><g><path class="e" d="M11.9,11.1s-.4-.2-.5,0c-.1,.2,.1,.4,.3,.3s.1-.3,0-.3c0,0,0,0,.2,0,0,.1,0,.3,0,.3,0,0,.1,.1,0,.3,0,.1-.2,0-.2,0,.1,0,.2-.2,0-.3s-.4,0-.3,.3c.1,.2,.5,0,.5,0h.3v-.4h0v-.5h-.3Z"/><path class="e" d="M11.4,13.2c-.1,.2,.1,.4,.3,.3s.1-.3,0-.3c0,0,0,0,.2,0,0,.1,0,.3,0,.3,0,0,.1,.1,0,.3,0,.1-.2,0-.2,0,.1,0,.2-.2,0-.3-.1,0-.4,0-.3,.3,.1,.2,.5,0,.5,0h.3v-.4h0v-.5h-.3s-.4-.2-.5,0Z"/></g></g></g></g><g><g><path class="h" d="M14.5,13.7l.9,1.2s.5-.2,.6,0c0,.1,0,.3-.4,.3,0,0,.5,0,.5,.2s-.1,.3-.4,.2c0,0,.2,.2,0,.3-.3,0-.2-.5-.3-.6-.2,0-.5,0-.6-.2,0-.2,.3-.2,.3-.2l-1-.8,.4-.4Z"/><path class="g" d="M12.7,9.8s.8-2.3,1.8-1.4c0,0-1.6,1-.7,1.9,.9,1,2-1,1.4-1.7s.1-.8,.5-.2c.4,.6,.9,1.7,.6,3.8s0,2.2,0,2.2c0,0-.2,.3-.3,0,0,0,0,.3,.1,.4,0,0-.2,0-.5-.4s-1.2-1.8-1.2-1.8l-.4,.4s.6,.7,.9,.8h-.4v.3h-.2v.3h0c0-.1,0,0,0,.2,0,0-.2-.9-.9-.9,0,0,0,1.7,1,3.3l-1.6,.7v-7.9Z"/><path class="h" d="M14.3,8.4s.4,0,.4,.3c0,.3-.2,.3-.2,.3,0,0,0-.4-.5-.1,0,0,.2-.3,.4-.4Z"/></g><g><path class="k" d="M14.3,10.7h-1.6v4.1h0c.9,0,1.6-.7,1.6-1.6v-2.5Z"/><g><g><polygon class="e" points="12.7 10.7 12.4 10.7 12.4 14.8 12.7 14.8 12.9 14.8 12.9 10.7 12.7 10.7"/><rect class="e" x="13.2" y="11.8" width=".5" height="1.6" transform="translate(26.1 -.8) rotate(90)"/></g><g><path class="e" d="M13.4,11.1s.4-.2,.5,0c.1,.2-.1,.4-.3,.3-.1,0-.1-.3,0-.3,0,0,0,0-.2,0,0,.1,0,.3,0,.3,0,0-.1,.1,0,.3,0,.1,.2,0,.2,0-.1,0-.2-.2,0-.3,.1,0,.4,0,.3,.3-.1,.2-.5,0-.5,0h-.3v-.4h0v-.5h.3Z"/><path class="e" d="M13.9,13.2c.1,.2-.1,.4-.3,.3-.1,0-.1-.3,0-.3,0,0,0,0-.2,0,0,.1,0,.3,0,.3,0,0-.1,.1,0,.3,0,.1,.2,0,.2,0-.1,0-.2-.2,0-.3,.1,0,.4,0,.3,.3-.1,.2-.5,0-.5,0h-.3v-.4h0v-.5h.3s.4-.2,.5,0Z"/></g></g></g></g></g></g><path class="i" d="M25,12.5c0,1.5-.2,2.9-.7,4.2-1.7,4.9-6.3,8.3-11.8,8.3S2.4,21.5,.7,16.7c-.5-1.3-.7-2.7-.7-4.2s.2-2.9,.7-4.2C2.4,3.5,7.1,0,12.5,0s10.1,3.5,11.8,8.3c.5,1.3,.7,2.7,.7,4.2Z"/><path class="i" d="M25,12.5c0,1.5-.2,2.9-.7,4.2-1.7,4.9-6.3,8.3-11.8,8.3S2.4,21.5,.7,16.7c-.5-1.3-.7-2.7-.7-4.2s.2-2.9,.7-4.2C2.4,3.5,7.1,0,12.5,0s10.1,3.5,11.8,8.3c.5,1.3,.7,2.7,.7,4.2Z"/><path class="i" d="M25,12.5c0,1.5-.2,2.9-.7,4.2-1.7,4.9-6.3,8.3-11.8,8.3S2.4,21.5,.7,16.7c-.5-1.3-.7-2.7-.7-4.2s.2-2.9,.7-4.2C2.4,3.5,7.1,0,12.5,0s10.1,3.5,11.8,8.3c.5,1.3,.7,2.7,.7,4.2Z"/></g></g></g></svg>