<?xml version="1.0" encoding="UTF-8"?><svg xmlns="http://www.w3.org/2000/svg" viewBox="0 0 25 25"><defs><style>.d{fill:#fff;}.e{fill:#0a0;}.f{fill:none;}</style></defs><g id="a"/><g id="b"><g id="c"><g><path class="e" d="M25,12.5c0,6.9-5.6,12.5-12.5,12.5S0,19.4,0,12.5,5.6,0,12.5,0s12.5,5.6,12.5,12.5Z"/><path class="f" d="M25,12.5c0,6.9-5.6,12.5-12.5,12.5S0,19.4,0,12.5,5.6,0,12.5,0s12.5,5.6,12.5,12.5Z"/><g><path class="d" d="M18.3,11.5c-.1,.2-.2,.4-.3,.5-.1,.2-.2,.4-.4,.6-.1,.2-.2,.2-.4,.1-.3-.2-.5-.4-.5-.8,0-.3,0-.6,.1-.9h0c0,.2,0,.4,0,.7h0c0-.4,0-.8-.1-1.2-.1-.9-.2-1.8-.4-2.7,0-.2,0-.3-.1-.5,0-.3,0-.6,.2-.8,.1-.2,.4-.2,.5,0,.1,.3,.3,.6,.4,.9,0,.1,0,.3-.1,.4,0,0,0,.1,0,.2,0,.5,.1,1,.2,1.4,0,.6,.2,1.2,.2,1.8,0,.4,0,.8-.5,1,.1,.1,.2,.1,.3,0,.1-.2,.2-.4,.3-.6,0-.2,.2-.3,.3-.5,.1-.2,.3-.2,.4,0,.1,.1,.2,.2,.3,.3,.2,.1,.3,0,.4-.2,0,0,0-.2,0-.3,0-.8,0-1.6-.1-2.4,0-.1,0-.2-.1-.3-.2-.4-.5-.7-.8-1.1-.1-.2,0-.4,0-.7,.2,.1,.3,.3,.5,.4,.1,.1,.3,.2,.2,.4,0,0,0,.1,.2,.3q0-.9,.2-1.1c.2,.3,.3,.6,.3,.9,0,0,0,.2,0,.4,0,.5,.2,.7,.5,1,0-.3,0-.6-.1-.9,0-.4,0-.7,0-1.1,0,0,0,0,0,0,0-.1,.2-.2,.2-.3,0,0,.2,.2,.2,.3,0,.2,.1,.4,.2,.6,0,0,0,0,0,.1-.2,.4,0,.8,0,1.1,0,0,0,.1,0,.2,0,.6,.2,1.1,.6,1.5,.2,.3,.5,.7,.4,1.1,0,0,0,0,0,0,0,0,0,0,0,0-.2-.4-.5-.7-.7-1.1,0,.4,0,.8-.2,1.1,0,0,0-.1,0-.2,0-.3,0-.6,0-.9,0-.5-.3-.9-.7-1.3,0,.6,0,1,0,1.5,0,.3,0,.5,0,.8,0,.3-.2,.5-.5,.6-.3,0-.6,0-.8-.3,0,0,0-.1-.2-.2Z"/><path class="d" d="M14.2,10.8c0,0-.2,0-.4,0,0,0,0,0-.1,0h-1.7c.2-.1,.5-.3,.7-.3,.2,0,.4-.1,.6-.2,.4-.2,.5-.6,.2-1-.2-.2-.5-.3-.8-.2-.2,.1-.4,.5-.3,.7,0,.2,0,.2-.1,.3-.3,0-.5,.2-.8,.3-.3,0-.4,.3-.4,.6,0,.1,0,.2,.1,.2,.2,0,.4,0,.6,0,.2,0,.3,0,.5,.1,0,0,0,0,0,0-.4,.2-.6,.4-.5,.8-.5-.1-.7-.4-.8-.8,0-.5-.2-.9-.3-1.4-.1-.4-.3-.7-.5-1.1-.2,.3-.3,.5-.2,.8,.2,.4,.3,.9,.4,1.3,0,0,0,.2,0,.2-.3,.5-.6,1-1.2,1.2-.3,.1-.5,0-.5-.3,.2-.2,.5-.4,.7-.6,.5-.4,.5-.9,.3-1.5,0,0,0-.2,0-.2,.1-.2,0-.4-.2-.5,0,0-.2-.2-.3-.1-.1,0-.2,.4-.1,.5,.1,.2,.2,.4,.3,.6,0,.1,0,.3,0,.4-.1,.3-.4,.5-.7,.7,0-.2,0-.3,0-.5,0,0,0,0,0,0,0,.2-.2,.4-.3,.6,0,.1-.2,.3-.3,.3-.4,.3-.8,.5-1.3,.7,0,0-.1,0-.2,.1,0,0,0,0,0,0,.6,0,1.1-.3,1.6-.5,0,0,0,0,0,.1,.1,.4,.3,.5,.7,.5,.4,0,.7-.2,1-.5,.2-.2,.4-.5,.6-.7,.3,.7,.9,1,1.6,1.1,.1,0,.2,0,.3,0,0,0,.1-.2,.1-.3,0,0,0-.1-.1-.1-.1,0-.3-.1-.4-.2-.2-.1-.1-.3,0-.4,.2,0,.3-.2,.5-.2,.4-.1,.8-.2,1.2-.3,.2,0,.4-.4,.3-.5Zm-1-1.1c-.1,0-.2,0-.4,0,0,0,0-.1,0-.3,.2,0,.2,.1,.4,.2Z"/><path class="d" d="M19.5,18.1c0-.2-.2-.2-.4-.2-.1,0-.2,0-.3,0h-1.4c0,0,0-.2,0-.3,0-.1-.1-.2-.2-.3,0,0-.1,.1-.2,.2,0,0,0,.1,0,.2,0,.2,0,.2-.2,.2h-.1c-3.7,0-7.4,0-11.1,0h-.3c.2,.3,.5,.5,.8,.5,.5,0,.9,.1,1.3,.1,.8,0,1.6,0,2.4,0,2.1,0,4.2,0,6.4,0h.9q0,.5,.2,.6c.2-.2,.5-.2,.9,0,.3-.2,.6-.2,.9,0,0,0,.3,0,.4,0,.1-.2,.1-.5,0-.8Zm-.8,.5c-.2,0-.3,0-.5,0,0,0,0,0-.1,0-.2,0-.4,0-.5,0,0,0,0,0-.1-.2,0,0,0,0,0,0h1.4c0,.2,0,.2-.2,.2Z"/><path class="d" d="M8.7,9.3c-.2,0-.2,.1-.2,.3,0,0,0,.2,0,.3,0,0,0,0-.1,0,0-.2-.1-.4-.2-.6,0,.1-.1,.3-.2,.4,0,0-.2,.2-.3,.3,0-.1-.1-.2-.2-.3,0,0,0,0,0,0,0,0-.1,0-.2,0,0,0,0,0-.2,0,0-.6,0-1.2-.1-1.8,0,0,0,0,0,0,0,0,.1-.2,.1-.3,0-.3-.2-.7-.3-1,0,0,0,0,0,0,0,.1-.2,.3-.2,.4,0,.2,0,.4,0,.6,0,.7,.1,1.3,.2,2,0,.2,0,.3-.2,.3-.2-.2-.3-.6-.7-.5-.3,.1-.5,.7-.3,1,.2,.3,.5,.1,.9,0,0,.1,0,.3-.1,.3-.2,.2-.5,.4-.8,.6-.3,.2-.8,0-.8-.5,0-.2,0-.4,0-.6,0,0,0,0,0,0,0,0,0,.1,0,.2,0,.3,0,.6,0,.8,0,.5,.5,.8,1,.6,.2,0,.3-.1,.5-.2,.5-.3,.8-.7,.8-1.3,0,0,0-.1,0-.2,0,.3,0,.5,0,.7,0,.4-.2,.6-.4,.8-.4,.3-.8,.4-1.2,.5-.4,0-.7-.2-.8-.6,0-.2,0-.4,0-.6v-.6c0,0,0,0,0,0,0,0,0,.1,0,.2-.1,.4-.1,.8,0,1.3,.1,.6,.5,.8,1.1,.7,.4,0,.8-.2,1.1-.3,.5-.2,.8-.6,.9-1.1,0-.3,0-.6,0-.9,0-.2,0-.3,0-.5,.3,.3,.6,.2,.9,0,0,0,0,0,.1,0,.2,.1,.5,0,.6-.1,0-.2,.1-.5,0-.7Zm-2.9,.8c0,0,0-.1,0-.2h0c0,0,.2,0,.3,.2-.1,0-.2,0-.3,0Z"/><path class="d" d="M4.9,11c0-.6-.1-1.1-.2-1.7-.9-.2-.7-.9-.7-1.5,0,.3-.1,.5-.2,.8,0,.1,0,.3-.1,.4-.1,.2-.4,.2-.5,0-.2-.5-.3-1-.1-1.6,0,0,0,0,0,0,.1,.5,0,1,.3,1.3,.2-.1,.2-.3,.2-.5,0-.3,.1-.5,.2-.8,0,0,.1-.2,.2-.2,0,0,.2,0,.2,0,0,0,.1,.1,.1,.2,0,.2,0,.3,0,.5,0,.3,0,.5,.2,.7,0,0,.1,0,.2,.1h0c0-.6-.2-1.2-.2-1.7,0-.1,0-.2,0-.4,.3,.2,.4,.5,.3,.8,0,0,0,.2,0,.3,0,.2,0,.5,0,.7s0,0,0,.1c.1-.2,.2-.3,.2-.5,0-.2,0-.5-.1-.8,0,0,0-.2,0-.3,.3,.2,.3,.4,.3,.6,0,.3,0,.6,.1,.8,0,.2,.2,.2,.3,.2,.2,0,.2-.1,.1-.3,0-.3-.1-.5-.2-.8,0-.3,0-.4,.2-.6,0,.1,.2,.2,.3,.3,0,0,0,.1,0,.2-.2,.2,0,.5,0,.7,0,.1,0,.3,0,.4,0,.2-.2,.5-.5,.6-.2,0-.5-.2-.6-.3,0,0,0,0,0,0-.3,.2-.3,.5-.3,.8,0,.3,0,.6,0,1,0,.2,0,.3-.1,.5h0Z"/><path class="d" d="M11.7,8.5c-.1,.1-.2,.2-.4,.3-.4,.3-.9,.2-1-.3,0-.2,0-.5,0-.7,0,.2-.1,.3-.2,.5,0,.2-.2,.3-.3,.5,0,0-.2,0-.2,0-.4-.3-.5-.7-.5-1.2,0-.2,0-.4,.2-.6,0,.5-.1,1,.3,1.4,0,0,.1-.2,.2-.2,.2-.4,.4-.7,.5-1.1,0,0,.2-.1,.3-.2,0,0,0,.2,0,.3,0,.3,0,.6,0,.9,0,.2,0,.4,.2,.5,.2,0,.5-.1,.6-.4,.1-.3,0-.6,0-1,0-.3-.1-.5,0-.7,0,0,0,0,0-.1,.2,.3,.2,.6,.3,.9,0,.3,0,.6,.1,.8,0,.1,.1,.2,.2,.3,0,0,.1,0,.2,0,0,0,.1-.1,.1-.2,0-.4,0-.7-.2-1.1-.1-.2,0-.4,.1-.6,0,0,.2,0,.2,0,.1,.1,.2,.3,.3,.5,0,.2,0,.2-.2,.2,0,.2,0,.4,0,.6,0,.2,0,.3,0,.5,0,.3-.3,.5-.5,.6-.2,0-.3-.1-.5-.2,0,0,0,0-.1,0Z"/><path class="d" d="M16,11.5c-.4-.7-.8-1.4-1.2-2.2h0c0,.4,0,.7,0,1,0,.5,0,1.1,0,1.6,0,.1,0,.2-.2,.3,0,0,0,0,0-.1,.1-.6,0-1.3,0-1.9,0-.5-.1-1-.2-1.6,0,0,0-.2,0-.2-.3-.4-.7-.9-1-1.3,0,0,0-.1,0-.2,0-.2,0-.3,0-.5,.3,0,.8,.4,.9,.8,0,0-.1,0-.2,0,.1,.1,.2,.3,.3,.4h0c0-.2,0-.5,0-.7,0,0,0-.1,0-.2,0-.1,.1-.2,.2-.3,0,0,.2,.1,.2,.2,0,0,.1,.2,.1,.3,0,.2,.2,.4,0,.7-.1,.3,0,.6,.1,.9,.3,.5,.6,1.1,.9,1.6,.1,.3,.2,.5,.3,.8,0,.1,0,.2,0,.3h0Z"/><path class="d" d="M20.3,12.8c0,0,.1-.1,.2-.2,0,0,.1-.1,.2-.1,.8-.5,1.1-1.2,.9-2.2-.1-.9-.2-1.9-.3-2.8,0-.2,0-.4,0-.6,0-.2,0-.4,.3-.6,.1,.3,.3,.6,.4,.9,0,0,0,0,0,0-.3,.4,0,.8,0,1.2,0,.9,.2,1.8,.1,2.7,0,.7-.4,1.3-1.1,1.5-.2,0-.4,0-.6,.1h0Z"/><path class="d" d="M16.2,6.5c0,.3,.2,.6,.2,.9,0,0,0,.1,0,.1-.2,0-.1,.3-.1,.4,0,.6,.1,1.1,.1,1.7,0,.7,.1,1.5,0,2.2-.1,.5-.4,.8-.8,1.1-.3,.2-.6,.2-1,0,.1,0,.2-.1,.3-.1,.4-.2,.7-.5,1-.8,.1-.2,.2-.4,.2-.6,0-.9,0-1.8-.2-2.8,0-.5-.1-1-.2-1.5,0-.3,0-.4,.4-.6Z"/><path class="d" d="M7.5,8.2c.3-.3,.7-.6,1-.9-.2-.3-.2-.5,0-.8,.2-.1,.4,0,.4,.1,0,.3,0,.6-.2,.7-.3,.2-.5,.5-.8,.7-.1,0-.3,0-.4,.1h0Z"/><path class="d" d="M3.5,12.7c-.3,0-.3-.3-.3-.5,0-.4,.1-.7,.3-1.1,.2,.4-.2,.9,0,1.3l.2-.2c.1,.2,0,.3-.2,.6Z"/><path class="d" d="M18.3,9.1c0-.1-.1-.2-.2-.3,0,0-.2-.1-.3-.2,0,0,0,0,0,0,0-.1,0-.2,0-.4,0,0,.2,.2,.2,.2,0,0,0,.1,.1,.2,0-.3,0-.6,.3-.7v.3c-.2,0-.1,.2-.1,.4,0,.1,0,.3,0,.4h-.1Z"/><path class="d" d="M4.5,9.6c0,.2,0,.3-.2,.3-.4,.2-.8,.4-1.1,.5,0-.3,.9-.8,1.3-.8Z"/><path class="d" d="M13.5,12.1v.5c.2,0,.4-.2,.6-.2,0,.2-.4,.5-.6,.5-.3,0-.2-.2-.2-.4h-.2l.5-.3Z"/><path class="d" d="M19.6,12.2c0,.2-.1,.3,0,.4-.1,.2-.4,.3-.6,.2,0-.1,.2-.3,0-.4,0,0,0-.1,.1-.1,0,0,.2,0,.3,0Z"/><path class="d" d="M20.9,8.1c0,0,0-.1,0-.2,0-.2,0-.4-.2-.6,0-.2,0-.3,.1-.4,.2,.3,.3,.8,.1,1.2Z"/><path class="d" d="M18,10.2c0-.2,.6-.8,1-.9,0,.2,0,.3-.1,.4-.3,.2-.6,.3-.9,.5Z"/><path class="d" d="M11.4,9.3v.3c.2-.1,.2-.2,.2-.3,0,.1,.1,.2,.2,.3v-.4c.2,.1,.2,.2,.2,.3,0,0-.1,.2-.2,.2-.1,0-.2,0-.2,0-.1,0-.2,0-.2-.1,0-.1,0-.2,0-.3h0Z"/><path class="d" d="M15.1,6.5c.4,.2,.4,.7,.1,1,0,0,0-.1,0-.2,0-.1,0-.3-.1-.4-.1-.2,0-.3,0-.4Z"/><path class="d" d="M8.3,8.6c.2,0,.3,0,.4-.1,0,.1,0,.2-.1,.3,0,0-.2,.1-.3,0,0,0-.2-.2-.2-.2,0-.2,0-.4,.3-.6,0,.2,0,.4-.2,.6Z"/><path class="d" d="M5.5,6.7l.2-.2c0,0,.2,.1,.3,.2,0,.2,0,.3-.2,.2,0,0,0,0-.1,0-.3,0-.4-.1-.2-.4,0,0,0,0,0,.1,0,0,0,0,0,.2Z"/><path class="d" d="M18.9,10.7c0-.2-.2-.3-.3-.5,0,0,0-.1,0-.2,0,0,.1,0,.2,0,.3,.1,.3,.5,0,.7Z"/><path class="d" d="M15.1,8.3v-.3c0,0,0,.1,.1,.1,0,0,0-.1,.1-.2h.3c0,0,0,.2,0,.3,0,0-.1,.1-.2,.1-.1,0-.2,0-.4,0Z"/><path class="d" d="M11.1,7.6c0-.3-.2-.6-.2-.9,0,0,0-.1,0-.1,0,0,0,0,.1,0,.2,.2,.2,.7,0,.9Z"/><path class="d" d="M7.9,11.4c0,0,0-.2,0-.3,0,0,0-.2,0-.2-.2,0-.1-.2,0-.3,.1,0,.3,0,.3,.1,0,.2,0,.4-.2,.6Z"/><path class="d" d="M3.7,7.1c0-.1,0-.2,0-.4h-.2c0,0,0-.1,0-.1,0,0,.1-.1,.2-.1,0,0,0,0,.1,0,0,.2,0,.4-.2,.6Z"/></g><path class="f" d="M25,12.5c0,6.9-5.6,12.5-12.5,12.5S0,19.4,0,12.5,5.6,0,12.5,0s12.5,5.6,12.5,12.5Z"/></g></g></g></svg>