<?xml version="1.0" encoding="UTF-8"?><svg xmlns="http://www.w3.org/2000/svg" viewBox="0 0 25 25"><defs><style>.d{fill:#fff;}.e{fill:#00a01d;}.f{fill:#001488;}.g{fill:none;}.h{fill:#ffcb00;}</style></defs><g id="a"/><g id="b"><g id="c"><g><g><path class="e" d="M25,12.5c0,6.9-5.6,12.5-12.5,12.5S0,19.4,0,12.5,5.6,0,12.5,0s12.5,5.6,12.5,12.5Z"/><g><polygon class="h" points="12.5 19.5 1.6 12.7 12.5 6 23.4 12.7 12.5 19.5"/><path class="f" d="M16.7,12.7c0,2.3-1.9,4.2-4.2,4.2s-4.2-1.9-4.2-4.2,1.9-4.2,4.2-4.2,4.2,1.9,4.2,4.2Z"/><path class="d" d="M8.8,10.6s5.9-.3,7.7,3l-.2,.7s-2.7-3.2-7.9-2.8l.4-1Z"/></g></g><path class="g" d="M25,12.5c0,6.9-5.6,12.5-12.5,12.5S0,19.4,0,12.5,5.6,0,12.5,0s12.5,5.6,12.5,12.5Z"/><path class="g" d="M25,12.5c0,6.9-5.6,12.5-12.5,12.5S0,19.4,0,12.5,5.6,0,12.5,0s12.5,5.6,12.5,12.5Z"/></g></g></g></svg>