<?xml version="1.0" encoding="UTF-8"?><svg xmlns="http://www.w3.org/2000/svg" viewBox="0 0 25 25"><defs><style>.d{fill:#fff;}.e{fill:#002d7e;}.f{fill:#020202;}.g{fill:#1b1b1b;}.h{fill:#ff002a;}.i{fill:none;}</style></defs><g id="a"/><g id="b"><g id="c"><g><path class="d" d="M25,12.5c0,6.9-5.6,12.5-12.5,12.5S0,19.4,0,12.5,5.6,0,12.5,0s12.5,5.6,12.5,12.5Z"/><g><g><path class="f" d="M17,13.4s0,0,0,.1c0,0,0,0,0-.1Z"/><path class="f" d="M17,13.5s0,0,0,.1c0,0,0,0,0-.1Z"/><path class="e" d="M17,13.4c.2-1.2-.5-2.4-1.7-2.7-1.2-.3-2.5,.4-2.8,1.7-.3,1.2-1.6,2-2.8,1.7-1.2-.3-2-1.5-1.7-2.7-.5,2.4,1,4.9,3.4,5.5,2.4,.6,4.9-.8,5.6-3.3,0,0,0,0,0-.1,0,0,0,0,0-.1Z"/><path class="f" d="M8,11.3s0,0,0-.1c0,0,0,0,0,.1Z"/><path class="f" d="M8,11.4s0,0,0-.1c0,0,0,0,0,.1Z"/><path class="h" d="M13.6,7.9c-2.4-.6-4.9,.8-5.6,3.3,0,0,0,0,0,.1,0,0,0,0,0,.1-.2,1.2,.5,2.4,1.7,2.7,1.2,.3,2.5-.4,2.8-1.7,.3-1.2,1.6-2,2.8-1.7,1.2,.3,2,1.5,1.7,2.7,.5-2.4-1-4.9-3.4-5.5Z"/></g><rect class="g" x="2.1" y="6.6" width="4.7" height=".8" transform="translate(-3.8 6.8) rotate(-56.2)"/><rect class="g" x="3.1" y="7.2" width="4.7" height=".8" transform="translate(-3.9 7.9) rotate(-56.2)"/><rect class="g" x="4.1" y="7.9" width="4.7" height=".8" transform="translate(-4 9) rotate(-56.2)"/><rect class="g" x="18.8" y="5.5" width="2.1" height=".8" transform="translate(26 25.7) rotate(-123.8)"/><rect class="g" x="20.2" y="7.6" width="2.1" height=".8" transform="translate(26.5 30.2) rotate(-123.8)"/><rect class="g" x="17.3" y="7.2" width="4.7" height=".8" transform="translate(24.2 28.2) rotate(-123.8)"/><rect class="g" x="16.8" y="6.9" width="2.2" height=".8" transform="translate(21.8 26.2) rotate(-123.8)"/><rect class="g" x="2.1" y="17.4" width="4.7" height=".8" transform="translate(16.7 4.2) rotate(56.2)"/><rect class="g" x="5" y="17.7" width="2.1" height=".8" transform="translate(17.8 3) rotate(56.2)"/><rect class="g" x="4.1" y="16" width="4.7" height=".8" transform="translate(16.5 2) rotate(56.2)"/><rect class="g" x="20.2" y="16.3" width="2.1" height=".8" transform="translate(47 8.3) rotate(123.8)"/><rect class="g" x="19.2" y="15.6" width="2.1" height=".8" transform="translate(44.9 8.1) rotate(123.8)"/><rect class="g" x="18.2" y="15" width="2.1" height=".8" transform="translate(42.8 7.9) rotate(123.8)"/><rect class="g" x="18.2" y="8.9" width="2.1" height=".8" transform="translate(22.3 30.6) rotate(-123.8)"/><rect class="g" x="18.8" y="18.4" width="2.2" height=".8" transform="translate(46.6 12.7) rotate(123.8)"/><rect class="g" x="17.8" y="17.7" width="2.2" height=".8" transform="translate(44.5 12.5) rotate(123.8)"/><rect class="g" x="16.8" y="17.1" width="2.2" height=".8" transform="translate(42.4 12.3) rotate(123.8)"/><rect class="g" x="3.6" y="15.7" width="2.2" height=".8" transform="translate(15.4 3.2) rotate(56.2)"/></g><path class="i" d="M25,12.5c0,6.9-5.6,12.5-12.5,12.5S0,19.4,0,12.5,5.6,0,12.5,0s12.5,5.6,12.5,12.5Z"/><path class="i" d="M25,12.5c0,6.9-5.6,12.5-12.5,12.5S0,19.4,0,12.5,5.6,0,12.5,0s12.5,5.6,12.5,12.5Z"/><path class="i" d="M25,12.5c0,6.9-5.6,12.5-12.5,12.5S0,19.4,0,12.5,5.6,0,12.5,0s12.5,5.6,12.5,12.5Z"/></g></g></g></svg>