<?xml version="1.0" encoding="UTF-8"?><svg xmlns="http://www.w3.org/2000/svg" viewBox="0 0 25 25"><defs><style>.d{fill:#fff;}.e{fill:#f01;}.f{fill:none;}</style></defs><g id="a"/><g id="b"><g id="c"><g><path class="e" d="M25,12.5c0,.2,0,.4,0,.6-.3,6.6-5.8,11.9-12.5,11.9h-1.2c-.9-.1-1.7-.3-2.5-.5C3.9,22.9,.3,18.5,0,13.1v-2.4C.9,5.9,4.3,1.9,8.9,.5c.8-.2,1.6-.4,2.5-.5h1.2c6.3,0,11.5,4.6,12.3,10.6,0,.6,.1,1.2,.1,1.8Z"/><path class="d" d="M25,12.5c0,.2,0,.4,0,.6H11.4v11.8c-.9,0-1.7-.2-2.5-.5V13.1H0v-2.4H8.9V.5c.8-.2,1.6-.4,2.5-.5V10.7h13.5c0,.6,.1,1.2,.1,1.8Z"/><path class="f" d="M25,12.5c0,.2,0,.4,0,.6-.3,6.6-5.8,11.9-12.5,11.9s-.8,0-1.2,0c-.9,0-1.7-.2-2.5-.5C3.9,22.9,.3,18.5,0,13.1c0-.2,0-.4,0-.6,0-.6,0-1.2,.1-1.8C.9,5.9,4.3,1.9,8.9,.5c.8-.2,1.6-.4,2.5-.5,.4,0,.8,0,1.2,0,6.3,0,11.5,4.7,12.3,10.7,0,.6,.1,1.2,.1,1.8Z"/><path class="f" d="M25,12.5c0,.2,0,.4,0,.6-.3,6.6-5.8,11.9-12.5,11.9s-.8,0-1.2,0c-.9,0-1.7-.2-2.5-.5C3.9,22.9,.3,18.5,0,13.1c0-.2,0-.4,0-.6,0-.6,0-1.2,.1-1.8C.9,5.9,4.3,1.9,8.9,.5c.8-.2,1.6-.4,2.5-.5,.4,0,.8,0,1.2,0,6.3,0,11.5,4.7,12.3,10.7,0,.6,.1,1.2,.1,1.8Z"/><path class="f" d="M25,12.5c0,.2,0,.4,0,.6-.3,6.6-5.8,11.9-12.5,11.9s-.8,0-1.2,0c-.9,0-1.7-.2-2.5-.5C3.9,22.9,.3,18.5,0,13.1c0-.2,0-.4,0-.6,0-1.9-.2,.2,.1-1.8C.9,5.9,4.3,1.9,8.9,.5c.8-.2,1.6-.4,2.5-.5,.4,0,.8,0,1.2,0,6.3,0,11.5,4.7,12.3,10.7,0,.6,.1,1.2,.1,1.8Z"/></g></g></g></svg>