<?xml version="1.0" encoding="UTF-8"?><svg xmlns="http://www.w3.org/2000/svg" viewBox="0 0 25 25"><defs><style>.d{fill:#0076b1;}.e{fill:#fff;}.f{fill:#d28d05;}.g{fill:#003d8a;}.h{fill:#717171;}.i{fill:#916923;}.j{fill:#d79006;}.k{fill:#f6c900;}.l{fill:#993100;}.m{fill:#704410;}.n{fill:#e59955;}.o{fill:#004da5;}.p{fill:#ff1414;}.q{fill:#00c3e0;}.r{fill:#003596;}.s{opacity:.3;}.t{fill:#c78153;}.u{fill:#ffd100;}.v{fill:#b11a1d;}.w{fill:#fd0;}.x{fill:#ffb400;}.y{fill:#46241d;}.a`{fill:none;}.aa{fill:#ff161f;}.ab{fill:#7a6360;}.ac{fill:#14be36;}.ad{fill:#cc7600;}.ae{fill:#dcddde;}.af{fill:#b75400;}.ag{fill:#447277;}.ah{fill:#5e5e5e;}.ai{fill:#aebac0;}.aj{fill:#e7e9e9;}</style></defs><g id="a"/><g id="b"><g id="c"><g><path class="p" d="M23.3,18.8c-2.2,3.7-6.2,6.2-10.8,6.2S3.8,22.5,1.7,18.8H23.3Z"/><path class="u" d="M25,12.5H0C0,5.6,5.6,0,12.5,0s12.5,5.6,12.5,12.5Z"/><path class="r" d="M25,12.5c0,2.3-.6,4.4-1.7,6.2H1.7c-1.1-1.8-1.7-4-1.7-6.2H25Z"/><g><polygon class="ah" points="13 11.9 12.9 11.9 8.3 16.3 8.3 16.3 8.1 16.6 8.5 16.4 8.4 16.4 13 11.9"/><polygon class="ah" points="16.8 16.6 16.7 16.3 16.6 16.4 11.6 11.4 11.6 11.5 16.6 16.4 16.5 16.5 16.8 16.6"/><polygon class="ah" points="15.8 17.6 15.7 17.3 15.6 17.3 10.7 12.5 10.6 12.5 15.5 17.4 15.5 17.4 15.8 17.6"/><polygon class="ah" points="9.1 17.6 9.2 17.3 9.3 17.3 14.2 12.5 14.3 12.5 9.4 17.4 9.4 17.4 9.1 17.6"/><g><g><g><path class="ah" d="M9.2,9v-.3l-.6-.3,.3,.6h.3v.2h-.4c0,0,0,.2,.2,.3,.1,.1,.4,0,.4,0v-.3l.2,.2-.2-.3,.2-.3-.4,.2Z"/><polygon class="ah" points="9.3 9.3 11.1 11 11.3 11 9.3 9.2 9.3 9.3"/></g><g><path class="o" d="M9.3,9.3c0,0,0-.1,.1-.1s.1,0,.1,.1,0,.1-.1,.1-.1,0-.1-.1Z"/><rect class="o" x="9.3" y="9.3" width=".1" height="1.5" transform="translate(18.8 20) rotate(180)"/></g><g><path class="aa" d="M9.4,9.4c0,0,0-.1,.1-.1s.1,0,.1,.1,0,.1-.1,.1-.1,0-.1-.1Z"/><rect class="aa" x="9.4" y="9.4" width=".1" height="1.1" transform="translate(19 19.9) rotate(180)"/></g></g><g><g><path class="w" d="M9.7,9.7s0,2.2,0,3.1c0,.8,.5,1.3,1.2,1.2,.7-.1,.8-.4,.8-.4l.7-.4-1.5-2.4-1.2-1.2Z"/><path class="h" d="M12.5,13.2h0l-.6,.3h0l.7-.3h0Zm0,0h0l-.6,.3h0l.7-.3h0Zm0,0h0v-.2h0v-.2h0v-.2h-.2v-.3l-.6-.8h0l-.4-.6h0v-.2h0l-.3-.3-.4-.4-.5-.5h0c0,.3,0,1.1,0,1.8h0c0,.5,0,.8,0,1,0,0,0,.2,0,.2,0,.2,0,.4,.1,.5v.2c.1,0,.2,.1,.2,.2,0,0,0,0,0,0s0,0,0,0h0s0,0,0,0c0,0,0,0,.1,.1,.2,0,.3,.2,.5,.2h0s0,0,0,0c0,0,0,0,0,0,0,0,0,0,.1,0,.1,0,.3,0,.4,0h0s0,0,0,0c0,0,0,0,0,0h0c.1,0,.2-.1,.2-.2,0,0,0,0,0,0h0l.7-.3h0Zm-2.7-.5c0,0,0-.1,0-.2,0-.2,0-.5,0-.9h0c0-.9,0-1.6,0-1.9h0l.5,.4h0l.2,.2,.2,.2h0l.2,.2h0v.2q0,0,.1,0l.4,.6h0l.5,.7v.2h.2v.2h.1v.3h.2v.2h0l-.6,.4h0c0,.1-.1,.2-.2,.2t0,0s0,0,0,0c0,0,0,0,0,0h0s0,0,0,0h0c0,0-.2,0-.4,.1,0,0,0,0,0,0h0c0,0,0,0-.2,0h0c-.2,0-.3,0-.5-.2t0,0c0,0,0,0-.1-.1h0s0,0,0,0,0,0,0,0c-.2-.2-.2-.5-.3-.8Zm2.7,.5h0l-.6,.3h0l.6-.3h0Zm0-.2h0v-.2h0v.2h0c0,0,0,0,0,0h0Zm0,.1h0Z"/></g><g><path class="o" d="M10.2,10.1c0,.4,0,1.5,0,2,0,.7,.5,1.2,1.1,1.2,.2,0,.7-.2,1-.4l-1.4-2.2-.7-.7Z"/><path class="h" d="M12.3,13h0c0,0-.1,0-.2,0h0s0,0-.1,0c0,0,0,0,0,0h0s0,0,0,0c-.1,0-.3,.1-.4,.1,0,0,0,0-.1,0,0,0-.1,0-.2,0s0,0-.1,0h0c0,0,0,0,0,0,0,0,0,0,0,0h0s0,0,0,0h0s0,0,0,0c0,0,0,0,.1,0,.1,0,.3,0,.4-.2,0,0,0,0,0,0,0,0,0,0,0,0,0,0,0,0,0,0,0,0,0,0,0,0h0s0,0,.1,0h0Zm0,0h0Zm0,0h0c0,0-.1,0-.2,0h0s0,0-.1,0c0,0,0,0,0,0h0s0,0,0,0c-.1,0-.3,.1-.4,.1,0,0,0,0-.1,0,0,0-.1,0-.2,0s0,0-.1,0h0c0,0,0,0,0,0,0,0,0,0,0,0h0s0,0,0,0h0s0,0,0,0c0,0,0,0,.1,0,.1,0,.3,0,.4-.2,0,0,0,0,0,0,0,0,0,0,0,0,0,0,0,0,0,0,0,0,0,0,0,0h0s0,0,.1,0h0Zm0,0h0Zm0,0h0v-.2h0v-.2h-.2v-.3h-.1l-.5-.8s0,0,0,0l-.4-.6h0v-.2h0l-.7-.7h0c0,.5,0,1.3,0,1.9h0v.2c0,.1,0,.2,0,.3,0,.1,0,.2,.1,.3,0,0,0,0,0,0,0,0,0,0,0,0,0,0,0,.1,.1,.2,0,0,.1,.1,.2,.2,0,0,0,0,0,0,.1,0,.2,.1,.3,.2h0s0,0,0,0h0s0,0,0,0c0,0,0,0,0,0h0s0,0,0,0h0s0,0,0,0c0,0,0,0,.1,0,.1,0,.3,0,.4-.2,0,0,0,0,0,0,0,0,0,0,0,0,0,0,0,0,0,0,0,0,0,0,0,0h0s0,0,.1,0c0,0,0,0,0,0h0Zm-.2,0s0,0-.1,0c0,0,0,0,0,0h0s0,0,0,0c-.1,0-.3,.1-.4,.1,0,0,0,0-.1,0,0,0-.1,0-.2,0s0,0-.1,0h0c-.1,0-.2,0-.3-.2h0c-.1-.1-.2-.3-.3-.4h0s0,0,0,0t0,0h0c0,0,0-.1,0-.2,0-.1,0-.2,0-.3h0c0,0,0,0,0,0,0,0,0,0,0,0,0-.5,0-1.4,0-1.8h0l.4,.3h0l.2,.2h0v.2q0,0,.1,0l.4,.6h0l.5,.7h0v.2h.2v.2h.1v.3h.1c0,0-.1,0-.2,.1h0Zm.2-.1h0Zm0,0h0c0,0-.1,0-.2,0h0s0,0-.1,0c0,0,0,0,0,0h0s0,0,0,0c-.1,0-.3,.1-.4,.1,0,0,0,0-.1,0,0,0-.1,0-.2,0s0,0-.1,0h0c0,0,0,0,0,0,0,0,0,0,0,0h0s0,0,0,0h0s0,0,0,0c0,0,0,0,.1,0,.1,0,.3,0,.4-.2,0,0,0,0,0,0,0,0,0,0,0,0,0,0,0,0,0,0,0,0,0,0,0,0h0s0,0,.1,0h0Zm0,0h0v-.2h0v.2s0,0-.1,0h0s0,0-.1,0c0,0,0,0,0,0h0s0,0,0,0c-.1,0-.3,.1-.4,.1,0,0,0,0-.1,0,0,0-.1,0-.2,0s0,0-.1,0h0c0,0,0,0,0,0,0,0,0,0,0,0h0s0,0,0,0h0s0,0,0,0c0,0,0,0,.1,0,.1,0,.3,0,.4-.2,0,0,0,0,0,0,0,0,0,0,0,0,0,0,0,0,0,0,0,0,0,0,0,0h0s0,0,.1,0c0,0,0,0,0,0h0Z"/></g><g><path class="aa" d="M11,10.8l-.3-.3c0,.2,0,.9,0,1.4,0,.6,.5,1.1,.8,1.2,.1,0,.4,0,.7,0,0,0,.1,0,.2-.1l-1.4-2.2Z"/><path class="h" d="M10.9,12.6s0,0,0,0,0,0,0,0c0-.1-.1-.2-.1-.3h0c0,0,0,0,0,0,0,0,0,0,0,0s0,0,0,0c0,0,0,.2,.1,.2,0,0,0,0,0,0,0,0,0,0,0,0h0s0,0,0,0h0Zm1.5,.4h0v-.2h0v-.2h-.2v-.3h-.1l-.5-.8h0l-.4-.6h0v-.2h0l-.3-.3h0c0,.2,0,.5,0,.9h0c0,.2,0,.4,0,.6,0,.1,0,.2,0,.3h0s0,0,0,0c0,0,0,0,0,0s0,0,0,0c0,0,0,.2,.1,.2,0,0,0,0,0,0,0,0,0,0,0,0h0s0,0,0,0h0s0,0,0,0h0s0,0,0,0c0,0,0,0,0,0,0,.1,.2,.2,.2,.3,0,0,.1,0,.2,.1,0,0,0,0,.1,0,0,0,0,0,0,0,0,0,0,0,.1,0h0c0,0,.2,0,.3,0h.2s0,0,.1,0h0s0,0,0,0c0,0,0,0,0,0h0Zm-.1,0h0s0,0,0,0h-.3c0,0-.2,0-.2,0,0,0,0,0-.1,0,0,0,0,0,0,0,0,0-.2,0-.2-.1-.1,0-.2-.2-.3-.3h0s0,0,0,0,0,0,0,0c0-.1-.1-.2-.1-.3h0s0,0,0,0c0,0,0,0,0,0h0c0,0,0-.1,0-.2,0-.2,0-.4,0-.6h0c0-.3,0-.6,0-.7l.2,.2h0v.2q0,0,.1,0l.4,.6h0l.5,.7h0v.2h.2v.2h.1v.3h.2c0,.1,0,.1,0,.1h0Zm.1,0h0v-.2h0v.2h0c0,0,0,0,0,.1h0s0,0,0,0h0s0,0,0,0h0s0,0,0,0h0s0,0,0,0Z"/></g></g></g><g><g><g><path class="ah" d="M15.8,9v-.3l.6-.3-.3,.6h-.3v.2h.4c0,0,0,.2-.2,.3-.1,.1-.4,0-.4,0v-.3l-.2,.2,.2-.3-.2-.3,.4,.2Z"/><polygon class="ah" points="15.6 9.3 13.8 11 13.7 11 15.7 9.2 15.6 9.3"/></g><g><path class="o" d="M15.6,9.3c0,0,0-.1-.1-.1s-.1,0-.1,.1,0,.1,.1,.1,.1,0,.1-.1Z"/><rect class="o" x="15.5" y="9.3" width=".1" height="1.5"/></g><g><path class="aa" d="M15.5,9.4c0,0,0-.1-.1-.1s-.1,0-.1,.1,0,.1,.1,.1,.1,0,.1-.1Z"/><rect class="aa" x="15.4" y="9.4" width=".1" height="1.1"/></g></g><g><g><path class="w" d="M15.2,9.7s0,2.2,0,3.1c0,.8-.5,1.3-1.2,1.2-.7-.1-.8-.4-.8-.4l-.7-.4,1.5-2.4,1.2-1.2Z"/><path class="h" d="M14.3,10.5h0Zm-.2,.2h0l.2-.2h0l-.2,.2Zm-.9,2.8h0l-.4-.2s0,0,0,0h0s0,0,0,0l.4,.2h0Zm-.3-1h0Zm1.4-2h0Zm-.2,.2h0l.2-.2h0l-.2,.2h0Zm-1.3,2.6l.4,.2h0l-.4-.2s0,0,0,0Zm0-.7h0v-.2h0v.2h0Zm2.4-3h0l-.5,.4-.4,.4-.3,.2h-.1v.2h0l-.7,1.2h0l-.2,.3h0v.2h-.1v.2h-.2v.2h-.1v.2h0l.3,.2,.4,.2h0s0,0,0,0c0,0,.1,.1,.3,.2h0s0,0,0,0c0,0,0,0,0,0,0,0,.1,0,.2,0h0s0,0,0,0h0s0,0,0,0c0,0,0,0,0,0,0,0,0,0,.1,0h0c.2,0,.4,0,.5-.2,0,0,.1,0,.1-.1,0,0,0,0,0,0h0s0,0,0,0h0c.2-.2,.3-.5,.3-.9,0,0,0-.1,0-.2,0-.2,0-.6,0-.9h0c0-.9,0-1.7,0-1.9Zm-1,4.2h0s0,0-.2,0c0,0,0,0,0,0h0c-.2,0-.3,0-.4-.1h0s0,0,0,0h0c-.2,0-.3-.2-.3-.2h0l-.4-.2s0,0,0,0h-.2v-.2h.1v-.3h.2v-.2h.1v-.2h0l.2-.3h0l.7-1.1h0v-.2h.2l.2-.3h0v-.2h.1l.2-.2h0l.5-.5h0c0,.3,0,1.1,0,1.8h0c0,.4,0,.8,0,1,0,0,0,.2,0,.2,0,.4-.1,.6-.3,.8,0,0,0,0,0,0,0,0,0,0,0,0h0c0,0-.1,.1-.2,.2,0,0,0,0,0,0-.1,0-.2,0-.4,0Zm-1.3-1.4h0v.2h0v-.2h0Zm-.2,.8s0,0,0,0l.4,.2h0l-.4-.2Zm1.3-2.6h0l.2-.2h0l-.2,.2Zm.2-.2h0Zm-1.1,3h0l-.4-.2s0,0,0,0h-.2v-.2h.1v-.3h.2v-.2h0v.2h-.2v.2h-.1v.2h0l.3,.2s0,0,0,0l.4,.2h0Zm.9-2.8h0l.2-.2h0l-.2,.2Zm.2-.2h0Z"/></g><g><path class="o" d="M14.7,10.1c0,.4,0,1.5,0,2,0,.7-.5,1.2-1.1,1.2-.2,0-.7-.2-1-.4l1.4-2.2,.7-.7Z"/><path class="h" d="M13.6,13.4h0s0,0-.2,0h0c0,0,0,0,.1,0h0s0,0,0,0h0c0,0,0,0-.1,0Zm-.7-.9h0Zm0,.6c0,0-.2,0-.3-.1h0c0,0,.1,.1,.2,.1h0s0,0,0,0h0s0,0,0,0Zm-.1-.4h0Zm-.2,.3h0Zm1.2,.4c0,0,0,0-.1,0h0s0,0-.2,0h0s0,0,0,0c-.1,0-.2,0-.4-.1,0,0,0,0,0,0h0s0,0,0,0c0,0-.2,0-.3-.1h0c0,0,.1,.1,.2,.1,0,0,0,0,0,0,0,0,0,0,0,0,.2,0,.3,.1,.4,.2,0,0,0,0,0,0h0s0,0,0,0c0,0,0,0,.1,0h0s0,0,0,0h0Zm-.8-1h0Zm0,0h0Zm-.2,.3h0v-.2h0v.2h0Zm-.1,.1h0Zm2.1-2.8h0l-.7,.5h0v.2h0l-.7,1.2h0l-.2,.3h0v.2h-.1v.2h-.2v.2h0s0,0,0,0c0,0,.1,0,.2,.1,0,0,0,0,0,0,0,0,0,0,0,0,.2,0,.3,.1,.4,.2,0,0,0,0,0,0h0s0,0,0,0c0,0,0,0,.1,0h0s0,0,0,0h0c.1,0,.2,0,.4-.2h0c0,0,.1-.1,.2-.2,0,0,.1-.1,.2-.2h0s0,0,0,0h0c0,0,0-.2,.1-.3,0-.1,0-.2,0-.3h0c0-.1,0-.1,0-.1h0c0-.6,0-1.5,0-1.9Zm0,1.9h0c0,.1,0,.2,0,.2,0,0,0,.1,0,.2,0,0,0,.1,0,.2t0,0c0,0,0,.1-.1,.2,0,0,0,0,0,.1,0,0,0,0-.1,.1,0,0,0,0,0,0h0s0,0-.1,.1h0c0,0-.1,0-.2,0h0c0,0,0,0-.1,0h0s0,0-.2,0h0s0,0,0,0c-.1,0-.2,0-.4-.1,0,0,0,0,0,0h0s0,0,0,0c0,0-.2,0-.3-.1h0v-.2h.2v-.2h.1v-.2h0l.2-.3h0l.7-1.1h0v-.2h.2l.2-.3h0l.4-.4h0c0,.5,0,1.3,0,1.8h0Zm-2.1,1h0Zm.3-.5h0v.2h0v-.2h0Zm0,0h0Zm0,0h0Zm.8,.9c0,0,0,0-.1,0h0s0,0-.2,0h0s0,0,0,0c-.1,0-.2,0-.4-.1,0,0,0,0,0,0h0s0,0,0,0c0,0-.2,0-.3-.1h0c0,0,.1,.1,.2,.1,0,0,0,0,0,0,0,0,0,0,0,0,.2,0,.3,.1,.4,.2,0,0,0,0,0,0h0s0,0,0,0c0,0,0,0,.1,0h0s0,0,0,0h0Zm-.9-.9h0v.2h-.1v.3h0v-.3h.1v-.2h0Zm0,0h0Z"/></g><g><path class="aa" d="M14,10.8l.3-.3c0,.2,0,.9,0,1.4,0,.6-.5,1.1-.8,1.2-.1,0-.4,0-.7,0,0,0-.1,0-.2-.1l1.4-2.2Z"/><path class="h" d="M14.2,12.1c0,.1,0,.2-.1,.3,0,0,0,0,0,0,0,0,0,.1-.1,.2h0s0,0,0,0t0,0c0,0-.1,.1-.2,.2h0c0,0-.2,.1-.2,.2,0,0,0,0,0,0,0,0,0,0-.1,0,0,0-.2,0-.3,0h0s0,0,0,0h0s0,0,0,0c.1,0,.2,0,.3,0,0,0,0,0,.1,0,0,0,0,0,0,0,0,0,0,0,0,0h0c0,0,0,0,.1-.1,0,0,.2-.2,.3-.3h0s0,0,0,0c0,0,0,0,0,0,0,0,0,0,0,0h0s0,0,0,0c0,0,0,0,0,0,0,0,0,0,0,0,0,0,0-.2,0-.2h0s0,0,0,0Zm-1.3,.4h0Zm-.2,.3h0Zm1.5-.7c0,.1,0,.2-.1,.3,0,0,0,0,0,0,0,0,0,.1-.1,.2h0s0,0,0,0c0,0,0,0,0,0,0,0,0,0,0,0s0,0,0,0c0,0,0,0,0,0,0,0,0,0,0,0,0,0,0-.2,0-.2h0s0,0,0,0Zm-.2-1.3h0Zm-1.2,1.8h0Zm-.1,.3h0Zm1.6-2.3h0l-.3,.2h-.1v.2h0l-.7,1.2h0l-.2,.3h0v.2h-.1v.2h-.2v.2h0c0,0,0,0,0,0,0,0,.1,0,.2,.1h.2c.1,0,.2,0,.3,0,0,0,0,0,.1,0,0,0,0,0,0,0,0,0,0,0,0,0,0,0,.1,0,.2-.1,0,0,.2-.2,.3-.3h0s0,0,0,0h0s0,0,0,0c0,0,0,0,0,0h0c0-.1,0-.2,0-.3t0,0h0c0-.1,0-.2,0-.3,0-.2,0-.4,0-.6h0c0-.3,0-.7,0-.8Zm-.3,2.1h0s0,0,0,0t0,0c0,0-.1,.1-.2,.2h0c0,0-.2,.1-.2,.2,0,0,0,0,0,0,0,0,0,0-.1,0,0,0-.2,0-.3,0h-.1c0,0-.1,0-.2,0h0v-.2h.2v-.2h.1v-.2h0l.2-.3h0l.7-1.1h0v-.2h.2l.2-.3c0,.1,0,.4,0,.6h0c0,.3,0,.5,0,.7,0,0,0,0,0,.1h0s0,0,0,0h0s0,0,0,0h0s0,0,0,0c0,.1,0,.2-.1,.3,0,0,0,0,0,0,0,0,0,.1-.1,.2Zm-1.3,.2h0Zm.2-.3h0v.2h0v-.2h0Zm1.2-1.7h0Zm.2,1.3c0,.1,0,.2-.1,.3,0,0,0,0,0,0,0,0,0,.1-.1,.2h0s0,0,0,0c0,0,0,0,0,0,0,0,0,0,0,0h0s0,0,0,0c0,0,0,0,0,0,0,0,0,0,0,0,0,0,0-.2,0-.2h0s0,0,0,0Zm-1.3,.4h0v.2h-.1v.3h0v-.3h.1v-.2h0Z"/></g></g></g><g><g><path class="ah" d="M16.4,10.3v-.3l.6-.3-.3,.6h-.3v.2h.4c0,0,0,.2-.2,.3-.1,.1-.4,0-.4,0v-.3l-.2,.2,.2-.3-.2-.3,.4,.2Z"/><polygon class="ah" points="16.3 10.6 14.4 12.3 14.3 12.3 16.3 10.5 16.3 10.6"/></g><g><path class="o" d="M16.3,10.6c0,0,0-.1-.1-.1s-.1,0-.1,.1,0,.1,.1,.1,.1,0,.1-.1Z"/><rect class="o" x="16.1" y="10.6" width=".1" height="1.5"/></g><g><circle class="aa" cx="16" cy="10.7" r=".1"/><rect class="aa" x="16" y="10.7" width=".1" height="1.1"/></g></g><g><g><path class="ah" d="M8.5,10.3v-.3l-.6-.3,.3,.6h.3v.2h-.4c0,0,0,.2,.2,.3,.1,.1,.4,0,.4,0v-.3l.2,.2-.2-.3,.2-.3-.4,.2Z"/><polygon class="ah" points="8.6 10.6 10.5 12.3 10.6 12.3 8.6 10.4 8.6 10.6"/></g><g><path class="o" d="M8.7,10.5c0,0,0-.1,.1-.1s.1,0,.1,.1,0,.1-.1,.1-.1,0-.1-.1Z"/><rect class="o" x="8.7" y="10.5" width=".1" height="1.5" transform="translate(17.5 22.6) rotate(180)"/></g><g><path class="aa" d="M8.7,10.7c0,0,0-.1,.1-.1s.1,0,.1,.1,0,.1-.1,.1-.1,0-.1-.1Z"/><rect class="aa" x="8.7" y="10.7" width=".1" height="1.1" transform="translate(17.6 22.4) rotate(180)"/></g></g><g><g><g><polygon class="k" points="11.7 16.7 11.6 17.3 11.9 17.2 12.1 16.7 11.7 16.7"/><polygon class="h" points="11.6 17.4 11.7 16.7 11.7 16.7 11.6 17.3 11.9 17.1 12.1 16.7 12.1 16.7 12 17.2 11.6 17.4"/></g><g><path class="aa" d="M12.4,16v1.6s-.2,.1-.4,.1,0,0,0-.1c0,0,.2-1.7,.2-1.7h.2Z"/><path class="h" d="M12.1,17.8c0,0,0,0-.1,0,0,0,0,0,0,0h0c0-.1,.2-1.6,.2-1.7h0s-.2,1.6-.2,1.7h0c0,0,0,0,0,0,0,0,0,0,0,0,.1,0,.3-.1,.3-.1v-1.6h0v1.6h0s-.2,.1-.4,.1Z"/></g><g><path class="g" d="M12.2,17.3c0,.1-.2,.4-.2,.4v-.6l.2,.2Z"/><path class="h" d="M12.2,17.3h0v-.2h0v.2h0v.2h0c0,0,0,0,0,0,0,0,.2-.2,.2-.3h0Zm0,0h0c0,.1,0,.2-.1,.3,0,0,0,0,0,0v-.2h0v-.2h.1Z"/></g><g><path class="o" d="M12.3,16v1.3c-.1,0-.6,0-.7,0s.3-.4,.3-.5c0-.1,0-.4,0-.4l.2-.5h.1Z"/><path class="h" d="M11.7,17.4s0,0,0,0c0,0,0-.1,.1-.3,0,0,.1-.2,.1-.3,0-.1,0-.3,0-.3h0l.2-.5h0l-.2,.5s0,.2,0,.3c0,0,0,.2-.1,.3,0,0-.1,.2-.1,.3,0,0,.3,0,.5,0v-1.3h.1v1.3h-.1c-.1,0-.3,0-.5,0Z"/></g><g><path class="w" d="M12.1,16l-.2,.8s-.6,.2-.8,0c-.1,0,.5-1.1,.5-1.1l.5,.2Z"/><path class="h" d="M12.1,15.9h0v.2h0v.5h-.1l.2-.5h0Zm0-.1h0v.2h0v.5h-.1l.2-.5h0Zm0-.1h-.3v-.2h-.2v.2h-.1c0,.1,0,.1,0,.1,0,0,0,.1-.1,.2,0,0,0,0,0,.1-.2,.4-.2,.5-.2,.5,0,0,0,0,.2,0,.1,0,.3,0,.4,0h0s0,0,0,0c0,0,.1,0,.2,0h0l.2-.7h0Zm-.7,.2c0,0,0-.2,.1-.2,0,0,0,0,0,0,0,0,0,0,0-.1h0c0,0,0-.1,0-.1h.4v.2h0v.2h0v.4h-.2v.2h0s-.1,0-.2,0c0,0,0,0,0,0h0c-.2,0-.5,0-.5,0,0,0,0,0,.2-.5Zm.7-.4h0v.2h0v.5h-.1l.2-.5h0Zm0-.1h0v.2h0v.5h-.1l.2-.5h0Z"/></g></g><g><g><polygon class="k" points="13.2 16.7 13.3 17.3 12.9 17.2 12.8 16.7 13.2 16.7"/><polygon class="h" points="13.3 17.4 12.9 17.2 12.8 16.7 12.8 16.7 12.9 17.1 13.2 17.3 13.2 16.7 13.2 16.7 13.3 17.4"/></g><g><path class="aa" d="M12.4,16v1.6s.2,.1,.4,.1,0,0,0-.1c0,0-.2-1.7-.2-1.7h-.2Z"/><path class="h" d="M12.8,17.8c-.1,0-.4-.1-.4-.1h0v-1.6h0v1.6s.2,.1,.3,.1,0,0,0,0c0,0,0,0,0,0h0c0-.1-.2-1.7-.2-1.7h0c0,0,.2,1.6,.2,1.7h0c0,0,0,.1,0,.1,0,0,0,0-.1,0Z"/></g><g><path class="g" d="M12.7,17.3c0,.1,.2,.4,.2,.4v-.6l-.2,.2Z"/><path class="h" d="M12.9,17.3h0v-.3h0v.2h-.1c0,.2,.2,.3,.2,.4,0,0,0,0,0,0h0v-.3Zm-.2,0h.1v.3s0,0,0,0c0,0-.1-.2-.1-.3h0Z"/></g><g><path class="o" d="M12.6,16v1.3c.1,0,.6,0,.7,0s-.3-.4-.3-.5c0-.1,0-.4,0-.4l-.2-.5h-.1Z"/><path class="h" d="M13.2,17.4c-.1,0-.4,0-.5,0h0v-1.3h0v1.3c.3,0,.6,0,.6,0,0,0,0-.2-.1-.3,0-.1-.1-.2-.1-.3,0-.1,0-.3,0-.3l-.2-.4h0l.2,.4h0s0,.2,0,.4c0,0,0,.2,.1,.3,.1,.2,.2,.3,.1,.3,0,0,0,0,0,0Z"/></g><g><path class="w" d="M12.7,16l.2,.8s.6,.2,.8,0c.1,0-.5-1.1-.5-1.1l-.5,.2Z"/><path class="h" d="M13.2,15.8h-.4v.2h0v.2h0v-.2h.4Zm-.4,.2h0Zm.4-.4h-.4v.2h0v.2h0v-.2h.4Zm-.4,.2h0Zm.8,.1c0,0,0-.1-.1-.2h0c0,0,0-.1,0-.1,0,0,0,0,0,0,0,0,0,0,0,0,0,0,0,0,0,0h-.3v.2h-.2l.2,.8h0c0,.1,0,.1,0,.1,0,0,0,0,.2,0,0,0,0,0,0,0t0,0c.1,0,.3,0,.4,0s.1,0,.2,0c0,0,0-.1-.2-.6Zm.2,.6c0,0-.3,0-.5,0h0s0,0,0,0c0,0-.1,0-.2,0h0v-.6h-.2v-.2h.3v-.2h.2s0,0,0,0c0,0,0,0,0,0,0,0,0,0,0,.1,0,0,0,.1,.1,.2,.3,.5,.2,.5,.2,.5Zm-.5-1h-.4v.2h0v.2h0v-.2h.4Zm-.4,.2h0Zm.4-.4h-.4v.2h0v.2h0v-.2h.4Zm-.4,.2h0Z"/></g></g></g><g><g><path class="w" d="M9,10.9s-.1,2.8,0,3.9,.7,1.7,1.5,1.5,1-.4,1-.4l.9-.4-1.9-3-1.6-1.5Z"/><path class="h" d="M12.3,15.2h0l-.2-.3s0,0,0,0t0,0h0v-.2h0l-.3-.5h0l-.2-.3h0c0,0,0,0,0,0,0,0,0,0,0,0h0v-.2h-.2v-.2h0v.2h0v.2h.2l.2,.3h0l.3,.6h0c0,.1,0,.1,0,.1h0s0,0,0,0l.2,.3h0c0,0,0,0,0,0h0Zm-.2,.3h-.1l-.2,.2h-.3v.2h.3l.3-.2h0Zm-1.2-2.6l.2,.4h0l-.2-.4Zm-.2-.3h0Zm1.6,2.4h0l-.2-.3s0,0,0,0t0,0h0v-.2h0l-.3-.5h0l-.2-.3h0c0,0,0,0,0,0,0,0,0,0,0,0h0v-.2h-.2v-.2h0v.2h0v.2h.2l.2,.3h0l.3,.6h0c0,.1,0,.1,0,.1h0s0,0,0,0l.2,.3h0Zm-.5,.6h-.3v.2h.3v-.2h0Zm-.7-2.3h0l-.2-.4,.2,.4Zm-.4-.6l.2,.3h0l-.2-.3h0Zm0,0h0Zm0,0h0Zm1.7,2.7h0v-.2h0l-.2-.3h0v-.2h0l-.3-.5h0l-.2-.3h0c0,0,0,0,0,0,0,0,0,0,0,0h0v-.2h-.2v-.2h0l-.2-.4h0l-.2-.2h0c0-.1,0-.1,0-.2h0v-.2h-.2v-.2h-.2v-.2h-.1l-.3-.3h0v-.2l-.8-.6h0c0,.1,0,.9,0,1.7,0,.8,0,1.7,0,2.2,0,.3,.1,.5,.2,.8,0,0,0,0,0,.1,.1,.2,.2,.3,.4,.5,.2,.1,.4,.2,.6,.2s0,0,.1,0h0s0,0,.1,0c0,0,0,0,0,0h0c.3,0,.5-.1,.7-.2,0,0,0,0,0,0,0,0,0,0,0,0,0,0,0,0,0,0,0,0,0,0,0,0h.2v-.2h.2l.3-.2h.1l.2-.2h0Zm-2.7,.8c0,0-.1,0-.2-.1,0,0,0,0-.1-.1,0,0,0,0,0-.1,0,0,0-.1-.1-.2,0,0,0,0,0-.1,0-.2-.2-.5-.2-.7,0-.5,0-1.4,0-2.2,0-.8,0-1.4,0-1.6h0l.6,.5h.1v.2h0l.3,.3h0v.2h.2v.2h.2v.2h.2v.2h0l.2,.3h0l.2,.4h0v.2h0v.2h.2l.2,.3h0l.3,.6h0c0,.1,0,.1,0,.1h0s0,0,0,0l.2,.3h0v.2h-.1v.2h-.2l-.2,.2h-.3v.2s0,0,0,0c0,0,0,0,0,0,0,0,0,0,0,0h0s0,0-.1,0c-.1,0-.3,.1-.6,.2h0s0,0-.1,0c0,0,0,0,0,0h0c-.2,0-.3,0-.5,0,0,0-.1,0-.2,0Zm1-3.5h0Zm0,0h0l.2,.3h0l-.2-.3Zm0,0h0Zm.2,.3l.2,.4h0l-.2-.4Zm1.2,2.5h-.1l-.2,.2h-.3v.2h.3l.3-.2h0Zm.2-.4h0l-.2-.3s0,0,0,0t0,0h0v-.2h0l-.3-.5h0l-.2-.3h0c0,0,0,0,0,0,0,0,0,0,0,0h0v-.2h-.2v-.2h0v.2h0v.2h.2l.2,.3h0l.3,.6h0c0,.1,0,.1,0,.1h0s0,0,0,0l.2,.3h0Zm.1,.2h0v-.2h0l-.2-.3h0v-.2h0l-.3-.5h0l-.2-.3h0c0,0,0,0,0,0,0,0,0,0,0,0h0v-.2h-.2v-.2h0l-.2-.4h0l.2,.4h0v.2h0v.2h.2l.2,.3h0l.3,.6h0c0,.1,0,.1,0,.1h0s0,0,0,0l.2,.3h0v.2h-.1v.2h-.2l-.2,.2h-.3v.2h.3l.3-.2h.1l.2-.2h0Z"/></g><g><path class="o" d="M9.6,11.4c0,.6,0,1.9,0,2.6,0,.9,.6,1.5,1.3,1.6,.3,0,.8-.2,1.3-.5l-1.8-2.8-.9-.8Z"/><path class="h" d="M12.1,14.8s0,0,0,0t0,0h0v-.2h0l-.3-.5h0l-.2-.3h0c0,0,0,0,0,0,0,0,0,0,0,0h0v-.2h-.2v-.2h0l-.2-.4h0l.2,.4h0v.2h0v.2h.2l.2,.3h0l.3,.6h0c0,.1,0,.1,0,.1l.2,.3s0,0,0,0h0s0,0,0,0c0,0,0,0,0,0,0,0,0,0,0,0,0,0,0,0,0,0,0,0,0,0,0,0h0s0,0,0,0h0s0,0,0,0h0s0,0,0,0t0,0s0,0,.1,0c0,0,0,0,0,0,0,0,0,0,0,0,0,0,0,0,0,0,0,0,0,0,0,0h0l-.2-.3Zm-1.4-2.2h0Zm1.4,2.2s0,0,0,0t0,0h0v-.2h0l-.3-.5h0l-.2-.3h0c0,0,0,0,0,0,0,0,0,0,0,0h0v-.2h-.2v-.2h0l-.2-.4-.2-.3h0l.2,.3,.2,.4h0v.2h0v.2h.2l.2,.3h0l.3,.6h0c0,.1,0,.1,0,.1l.2,.3s0,0,0,0h0s0,0,0,0c0,0,0,0,0,0,0,0,0,0,0,0,0,0,0,0,0,0,0,0,0,0,0,0h0s0,0,0,0h0s0,0,0,0h0s0,0,0,0t0,0s0,0,.1,0c0,0,0,0,0,0,0,0,0,0,0,0,0,0,0,0,0,0,0,0,0,0,0,0h0l-.2-.3Zm-1.4-2.2h0Zm1.4,2.2s0,0,0,0h0v-.2h0l-.3-.5h0l-.2-.3h0c0,0,0,0,0,0,0,0,0,0,0,0h0v-.2h-.2v-.2h0l-.2-.4-.2-.2h0c0-.1,0-.1,0-.2h0v-.2h-.2v-.3h-.2l-.5-.5h0v-.2h-.1c0,.3,0,.7,0,1.1,0,.5,0,1.1,0,1.5,0,.3,.1,.6,.2,.8,0,0,0,0,0,.1,0,0,0,.1,.1,.2,0,0,0,0,0,0,0,0,.2,.2,.3,.2,0,0,.1,0,.2,0,0,0,0,0,0,0h0c0,0,.2,0,.3,0,0,0,0,0,0,0s0,0,0,0c0,0,0,0,0,0,0,0,0,0,0,0,0,0,0,0,0,0s0,0,0,0c0,0,0,0,.1,0,0,0,0,0,0,0h.2c0,0,0,0,0,0,0,0,0,0,0,0,0,0,0,0,.1,0h0s0,0,0,0c0,0,0,0,0,0t0,0s0,0,.1,0c0,0,0,0,0,0,0,0,0,0,0,0,0,0,0,0,0,0,0,0,0,0,0,0h0l-.2-.3Zm-2.2,0s0,0,0,0c-.1-.2-.2-.5-.2-.8,0-.4,0-1,0-1.5,0-.4,0-.8,0-1h.1l.3,.4h0v.2h.2v.2h.2v.2h.2v.2h0l.2,.3,.2,.4h0v.2h0v.2h.2l.2,.3h0l.3,.6h0c0,.1,0,.1,0,.1l.2,.3s0,0,0,0h0s0,0,0,0c0,0,0,0,0,0,0,0,0,0,0,0,0,0,0,0,0,0,0,0,0,0,0,0h0s0,0,0,0c0,0,0,0,0,0,0,0,0,0-.1,0h0s0,0,0,0c0,0-.1,0-.2,0,0,0,0,0-.1,0h0c0,0,0,0-.1,0,0,0,0,0,0,0h0c0,0-.1,0-.2,0-.4,0-.8-.3-1-.6Zm2.2,0s0,0,0,0t0,0h0v-.2h0l-.3-.5h0l-.2-.3h0c0,0,0,0,0,0,0,0,0,0,0,0h0v-.2h-.2v-.2h0l-.2-.4-.2-.3h0l.2,.3,.2,.4h0v.2h0v.2h.2l.2,.3h0l.3,.6h0c0,.1,0,.1,0,.1l.2,.3s0,0,0,0h0s0,0,0,0c0,0,0,0,0,0,0,0,0,0,0,0,0,0,0,0,0,0,0,0,0,0,0,0h0s0,0,0,0h0s0,0,0,0h0s0,0,0,0t0,0s0,0,.1,0c0,0,0,0,0,0,0,0,0,0,0,0,0,0,0,0,0,0,0,0,0,0,0,0h0l-.2-.3Zm-1.4-2.2h0Zm0,0h0Zm1.4,2.2s0,0,0,0h0v-.2h0l-.3-.5h0l-.2-.3h0c0,0,0,0,0,0,0,0,0,0,0,0h0v-.2h-.2v-.2h0l-.2-.4h0l.2,.4h0v.2h0v.2h.2l.2,.3h0l.3,.6h0c0,.1,0,.1,0,.1l.2,.3s0,0,0,0h0s0,0,0,0c0,0,0,0,0,0,0,0,0,0,0,0,0,0,0,0,0,0,0,0,0,0,0,0h0s0,0,0,0h0s0,0,0,0h0s0,0,0,0t0,0s0,0,.1,0c0,0,0,0,0,0,0,0,0,0,0,0,0,0,0,0,0,0,0,0,0,0,0,0h0l-.2-.3Z"/></g><g><path class="aa" d="M10.5,12.4l-.4-.4c0,.3,0,1.1,0,1.8,0,.7,.6,1.4,1.1,1.5,.2,0,.5,0,.9,0,0,0,.2,0,.3-.1l-1.8-2.8Z"/><path class="h" d="M12.3,15.2h0l-.2-.3s0,0,0,0t0,0h0v-.2h0l-.3-.5h0l-.2-.3h0c0,0,0,0,0,0,0,0,0,0,0,0h0v-.2h-.2v-.2h0v.2h0v.2h.2l.2,.3h0l.3,.6h.1l.2,.4h0c0,0,0,.1,0,.1h0s0,0,.1,0h0s0,0,0,0Zm-.4,.1h0c0,0-.2,0-.2,0h0c0,0,.1,0,.2,0h0s0,0,0,0h0Zm-1-2.3l.2,.4h0l-.2-.4Zm-.2-.3h0Zm1.6,2.5h0s0,0,0,0h0s0,0,.1,0h0Zm0,0h0l-.2-.3s0,0,0,0t0,0h0v-.2h0l-.3-.5h0l-.2-.3h0c0,0,0,0,0,0,0,0,0,0,0,0h0v-.2h-.2v-.2h0v.2h0v.2h.2l.2,.3h0l.3,.6h.1l.2,.4h0Zm-.4,.2h0c0,0-.2,0-.2,0h0c0,0,.1,0,.2,0h0s0,0,0,0h0Zm-.8-2h0l-.2-.4,.2,.4Zm-.4-.6l.2,.3h0l-.2-.3h0Zm0,0h0Zm0,0h0Zm1.6,2.5h0l-.2-.3s0,0,0,0t0,0h0v-.2h0l-.3-.5h0l-.2-.3h0c0,0,0,0,0,0,0,0,0,0,0,0h0v-.2h-.2v-.2h0l-.2-.4h0l-.2-.2h0c0-.1,0-.1,0-.2h0v-.2h-.2v-.2h-.2v-.2h-.1c0,.1,0,.4,0,.6,0,.3,0,.7,0,1.1,0,0,0,0,0,0,0,0,0,0,0,0,0,0,0,0,0,0,0,0,0,0,0,0h0c0,.3,0,.6,.2,.8,0,0,0,0,0,.1,.2,.4,.5,.7,.8,.8,0,0,0,0,.1,0h0s0,0,0,0h0s0,0,0,0h.2s0,0,.1,0h.3s0,0,0,0h.1c0,0,0-.1,.1-.1,0,0,0,0,0,0h0Zm-2-.7s0,0,0-.1c-.1-.2-.2-.4-.2-.7h0c0-.4,0-.9,0-1.2,0-.2,0-.4,0-.5h.2v.2h.2v.2h.2v.2h.1l.2,.4h0l.2,.4h0v.2h0v.2h.2l.2,.3h0l.3,.6h.1l.2,.4h0c0,0,0,.1,0,.1,0,0,0,0-.1,0h-.2c0,0-.2,0-.2,0h0s0,0,0,0h0s0,0,0,0h0c0,0,0,0-.1,0-.2,0-.5-.3-.7-.6,0,0,0,0,0-.1Zm.3-1.8h0Zm0,0h0l.2,.3h0l-.2-.3Zm0,0h0Zm.2,.3l.2,.4h0l-.2-.4Zm1,2.3h0c0,0-.2,0-.2,0h0c0,0,.1,0,.2,0h0s0,0,0,0h0Zm.4-.1h0l-.2-.3s0,0,0,0t0,0h0v-.2h0l-.3-.5h0l-.2-.3h0c0,0,0,0,0,0,0,0,0,0,0,0h0v-.2h-.2v-.2h0v.2h0v.2h.2l.2,.3h0l.3,.6h.1l.2,.4h0c0,0,0,.1,0,.1h0s0,0,.1,0h0Zm-.4,0h0c0,0-.2,0-.2,0h0c0,0,.1,0,.2,0h0s0,0,0,0h0Zm.4-.1h0l-.2-.3s0,0,0,0t0,0h0v-.2h0l-.3-.5h0l-.2-.3h0c0,0,0,0,0,0,0,0,0,0,0,0h0v-.2h-.2v-.2h0l-.2-.4h0l.2,.4h0v.2h0v.2h.2l.2,.3h0l.3,.6h.1l.2,.4h0c0,0,0,.1,0,.1h0s0,0,.1,0h0s0,0,0,0h0Z"/></g></g><g><g><path class="w" d="M16,10.9s.1,2.8,0,3.9-.7,1.7-1.5,1.5-1-.4-1-.4l-.9-.4,1.9-3,1.6-1.5Z"/><path class="h" d="M15.3,11.5h0Zm0,0h0l-.3,.3h-.1v.2h-.2v.2h.1v-.2h.2v-.2l.4-.3h0Zm-1,1h0l-.2,.4h0l-.2,.4h0v.2l-.2,.2h0l-.5,.9h0v.2h0l-.2,.3h0l.2-.2s0,0,0,0h0l.6-1h0v-.2h.2v-.2h.1l.2-.4h0l.2-.3h0s0,0,0,0h0Zm1.1-1.2h0Zm-.1,0h0l-.3,.3h-.1v.2h-.2v.2h.1v-.2h.2v-.2l.4-.3h0Zm-1,1h0l-.2,.4h0l-.2,.4h0v.2l-.2,.2h0l-.5,.9h0v.2h0l-.2,.3h0l.2-.2s0,0,0,0h0l.6-1h0v-.2h.2v-.2h.1l.2-.4h0l.2-.3h0s0,0,0,0h0Zm-1.6,2.5h0Zm3.4-2.6c0-.8,0-1.4,0-1.6h0l-.6,.5h-.2v.2h0l-.3,.3h0l-.2,.2h0v.2h-.3v.3h-.1s0,0,0,0h0l-.2,.4h0l-.2,.4h0v.2l-.2,.2h0l-.5,.9h0v.2h0l-.2,.3h0v.2h0v.2h.2l.3,.2h.3v.2q0,0,0,0s0,0,0,0c0,0,0,0,0,0,0,0,0,0,.1,0,.1,0,.3,.1,.6,.2h0s0,0,0,0c0,0,0,0,0,0,0,0,.1,0,.2,0,.2,0,.5,0,.7-.2,.2-.1,.3-.3,.4-.5,0,0,0,0,0-.1,0-.2,.2-.5,.2-.8,0-.5,0-1.4,0-2.2Zm-1.5,3.7h0c0,0,0,0-.1,0h0c-.2,0-.4-.1-.5-.2,0,0-.1,0-.1,0,0,0,0,0,0,0,0,0,0,0,0,0,0,0,0,0,0,0,0,0,0,0,0,0,0,0,0,0,0,0h-.2v-.2h-.3v-.2h-.4v-.2h.1v-.2h0l.2-.3s0,0,0,0h0l.6-1h0v-.2h.2v-.2h.1l.2-.4h0l.2-.3h0s0,0,0,0h0v-.2h.1v-.2h.2v-.2h.2v-.2l.4-.3h.2v-.2h0l.2-.2,.3-.3h0c0,.2,0,.8,0,1.6,0,.8,0,1.7,0,2.2,0,.3,0,.6-.2,.8,0,0,0,0,0,0,0,0,0,.2-.1,.2,0,0,0,0,0,0,0,0,0,.1-.2,.2,0,0-.2,.1-.3,.2-.2,0-.4,0-.6,0Zm-.2-3.6h0l-.2,.4h0l-.2,.4h0v.2l-.2,.2h0l-.5,.9h0v.2h0l-.2,.3h0l.2-.2s0,0,0,0h0l.6-1h0v-.2h.2v-.2h.1l.2-.4h0l.2-.3h0s0,0,0,0h0Zm1-1.1h0l-.3,.3h-.1v.2h-.2v.2h.1v-.2h.2v-.2l.4-.3h0Zm0-.1h0Zm-1.1,1.1h0l-.2,.4h0l-.2,.4h0v.2l-.2,.2h0l-.5,.9h0v.2h0l-.2,.3h0c0,0,0,0,0,0h0l.2-.3s0,0,0,0h0l.6-1h0v-.2h.2v-.2h.1l.2-.4h0l.2-.3h0s0,0,0,0h0Zm1-1.1h0l-.3,.3h-.1v.2h-.2v.2h.1v-.2h.2v-.2l.4-.3h0Zm0-.1h0Z"/></g><g><path class="o" d="M15.4,11.4c0,.6,0,1.9,0,2.6,0,.9-.6,1.5-1.3,1.6-.3,0-.8-.2-1.3-.5l1.8-2.8,.9-.8Z"/><path class="h" d="M14.3,12.6h0Zm0,0h0l-.2,.4h0l-.2,.4h0v.2l-.2,.2h0l-.5,.9h0v.2h0l-.2,.3h0s0,0,0,0h0s0,0,0,0c0,0,0,0,.1,0,0,0,0,0,.1,0h0s0,0,0,0c0,0,0,0,0,0,0,0,0,0,0,0,0,0,0,0,0,0h0s0,0,0,0l.2-.3h0l.6-1h0v-.2h.2v-.2h.1l.2-.4,.2-.3h0s0,0,0,0c0,0,0,0,0,0h0Zm0,0h0l-.2,.4h0l-.2,.4h0v.2l-.2,.2h0l-.5,.9h0v.2h0l-.2,.3h0s0,0,0,0h0s0,0,0,0c0,0,0,0,.1,0,0,0,0,0,.1,0h0s0,0,0,0h0s0,0,0,0c0,0,0,0,0,0,0,0,0,0,0,0,0,0,0,0,0,0h0s0,0,0,0l.2-.3h0l.6-1h0v-.2h.2v-.2h.1l.2-.4,.2-.3h0s0,0,0,0c0,0,0,0,0,0h0Zm1.1-.1c0-.4,0-.8,0-1h-.2l-.5,.6h0v.2h-.3v.3h-.1s0,0,0,0h0l-.2,.4h0l-.2,.4h0v.2l-.2,.2h0l-.5,.9h0v.2h0l-.2,.3h0s0,0,0,0h0s0,0,0,0c0,0,0,0,.1,0,0,0,0,0,.1,0,0,0,0,0,0,0,0,0,0,0,0,0,0,0,0,0,0,0,0,0,0,0,.1,0,0,0,0,0,0,0,0,0,0,0,0,0,0,0,.1,0,.2,0h0c0,0,0,0,.1,0,0,0,0,0,0,0h0c0,0,.1,0,.1,0t0,0s0,0,0,0,0,0,0,0c0,0,.1,0,.2,0,0,0,0,0,0,0s0,0,0,0,0,0,0,0c0,0,.1,0,.2,0,.1,0,.2-.1,.3-.2,0,0,0,0,0,0,0,0,0-.1,.1-.2h0c.1-.3,.2-.6,.2-.9,0-.4,0-1,0-1.5Zm-1.4,3c0,0-.1,0-.2,0h0s0,0,0,0c0,0,0,0-.1,0h0s0,0,0,0c0,0-.1,0-.2,0,0,0,0,0,0,0s0,0,0,0c0,0,0,0,0,0,0,0,0,0,0,0h0s0,0,0,0c0,0,0,0,0,0,0,0,0,0,0,0,0,0,0,0,0,0h0s0,0,0,0l.2-.3h0l.6-1h0v-.2h.2v-.2h.1l.2-.4,.2-.3h0s0,0,0,0c0,0,0,0,0,0h0v-.3h.2v-.2h.2v-.2h.1l.3-.3h.1c0,.1,0,.5,0,.9,0,.5,0,1.1,0,1.5,0,.3-.1,.6-.2,.8h0c-.2,.5-.6,.7-1,.7Zm.2-2.9h0l-.2,.4h0l-.2,.4h0v.2l-.2,.2h0l-.5,.9h0v.2h0l-.2,.3h0s0,0,0,0h0s0,0,0,0c0,0,0,0,.1,0,0,0,0,0,.1,0h0s0,0,0,0c0,0,0,0,0,0,0,0,0,0,0,0,0,0,0,0,0,0h0s0,0,0,0l.2-.3h0l.6-1h0v-.2h.2v-.2h.1l.2-.4,.2-.3h0s0,0,0,0c0,0,0,0,0,0h0Zm0,0h0Zm0,0h0Zm0,0h0l-.2,.4h0l-.2,.4h0v.2l-.2,.2h0l-.5,.9h0v.2h0l-.2,.3h0s0,0,0,0h0s0,0,0,0c0,0,0,0,.1,0,0,0,0,0,.1,0h0s0,0,0,0c0,0,0,0,0,0,0,0,0,0,0,0,0,0,0,0,0,0h0s0,0,0,0l.2-.3h0l.6-1h0v-.2h.2v-.2h.1l.2-.4,.2-.3h0s0,0,0,0c0,0,0,0,0,0h0Z"/></g><g><path class="aa" d="M14.4,12.4l.4-.4c0,.3,0,1.1,0,1.8,0,.7-.6,1.4-1.1,1.5-.2,0-.5,0-.9,0,0,0-.2,0-.3-.1l1.8-2.8Z"/><path class="h" d="M14.3,12.6h0l-.2,.4h0l-.2,.4h0v.2l-.2,.2h0l-.5,.9h0v.2h0l-.2,.3h0l.2-.2h0l.6-1h0v-.2h.2v-.2h.1l.2-.4h0l.2-.3h0s0,0,0,0h0Zm-1.2,2.6h0s0,0,.1,0h0c0,0-.1,0-.2,0Zm1.1-2.7h0l-.2,.4h0l-.2,.4h0v.2l-.2,.2h0l-.5,.9h0v.2h0l-.2,.3h0l.2-.2h0l.6-1h0v-.2h.2v-.2h.1l.2-.4h0l.2-.3h0s0,0,0,0h0Zm-1.2,2.6s0,0,0,0h0s0,0,.1,0h0c0,0-.1,0-.2,0h0Zm-.4-.1h0Zm2.2-1.6c0-.3,0-.7,0-1.1,0-.2,0-.5,0-.5h-.2v.3h-.3v.3h-.1s0,0,0,0h0l-.2,.4h0l-.2,.4h0v.2l-.2,.2h0l-.5,.9h0v.2h0l-.2,.3h0c0,.1,0,.1,0,.1s0,0,0,0c0,0,.1,0,.1,0,0,0,0,0,0,0,0,0,0,0,0,0h.3s0,0,0,0h.2s0,0,0,0c0,0,0,0,0,0s0,0,0,0c0,0,0,0,0,0,.3,0,.6-.4,.8-.8,0,0,0,0,0-.1,.1-.2,.2-.5,.2-.7h0c0-.1,0-.1,0-.1,0,0,0,0,0,0h0Zm-.3-1.3h.1v-.2h.2s0,.2,0,.4c0,.3,0,.8,0,1.1h0c0,.3,0,.5-.2,.8,0,0,0,0,0,0-.2,.4-.5,.7-.8,.8,0,0,0,0-.1,0,0,0,0,0,0,0,0,0,0,0-.1,0s0,0,0,0c0,0,0,0-.1,0h-.1c0,0-.1,0-.2,0h-.2s0,0-.1,0c0,0,0,0-.1,0h0l.2-.3h0l.6-1h0v-.2h.2v-.2h.1l.2-.4h0l.2-.3h0s0,0,0,0h0v-.2h.1v-.2h0Zm-1.9,2.9h0Zm.4,.1h0s0,0,.1,0h0c0,0-.1,0-.2,0Zm1.2-2.7h0l-.2,.4h0l-.2,.4h0v.2l-.2,.2h0l-.5,.9h0v.2h0l-.2,.3h0l.2-.2h0l.6-1h0v-.2h.2v-.2h.1l.2-.4h0l.2-.3h0s0,0,0,0h0Zm-1.2,2.6h0s0,0,.1,0h0c0,0-.1,0-.2,0Zm1.2-2.7h0l-.2,.4h0l-.2,.4h0v.2l-.2,.2h0l-.5,.9h0v.2h0l-.2,.3h0c0,0,0,0,0,0h0l.2-.3h0l.6-1h0v-.2h.2v-.2h.1l.2-.4h0l.2-.3h0s0,0,0,0h0Z"/></g></g><g><g><g><ellipse class="ai" cx="12.5" cy="12.5" rx="2.1" ry="2.7"/><path class="i" d="M14.4,11.4s0,0,0-.1c0,0,0,.2,0,.3,0,0,0-.1,0-.2Zm0,.3s0,0,0,0,0,0,0,0c0,0,0,0,0,0,0,0,0,.2,0,.3,0,0,0,0,0-.1Zm0,.2s0,0,0,0c0,0,0,0,0,.1,0,0,0,0,0,0Zm-.2-.7s0,0,0,0c0-.2-.1-.3-.2-.4h0c0,.1,.2,.3,.2,.4,0,0,0,0,0,0h0s0,0,0,0c0,0,0,0,0,0h0s0,0,0,0Zm-.7-1c-.1-.1-.2-.2-.4-.3h0c0,0-.2,0-.2,0h0s0,0,0,0c0,0,0,0,0,0h0s0,0,0,0h0c0,0-.1,0-.2,0h0c0,0-.1,0-.2,0,0,0,0,0-.1,0h0s0,0,0,0h0c-.1,0-.2,0-.3,.1h0s0,0,0,0c0,0-.1,0-.2,.1,0,0,0,0-.1,0h0c-.2,.2-.3,.3-.4,.5h0c0,.1,0,.2-.1,.3,0,0,0,.2-.1,.2,0,0,0,0,0,0,0,0,0,0,0,0,0,0,0,0,0,.1,0,.2,0,.3-.1,.5,0,0,0,.1,0,.2,0,0,0,0,0,0h0c0,.1,0,.2,0,.3h0c0,0,0,.2,0,.2h0c0,0,0,0,0,0h0c0,.1,0,.2,0,.2,0,0,0,0,0,.1,0,0,0,0,0,.1,0,0,0,.2,0,.2,0,0,0,.2,0,.2,0,0,0,.1,0,.2,0,0,0,0,0,0s0,0,0,0h0c-.1-.3-.2-.5-.3-.8,0,0,0-.2,0-.3h0c0,0,0,0,0-.1h0c0,0,0-.2,0-.2h0c0,0,0-.1,0-.2h0c0-.4,0-.7,.2-.9,0,0,0,0,0,0,0,0,0,0,0,0,0-.2,.2-.3,.2-.5h0s0,0,0,0h0s0,0,0,0c.1-.2,.2-.3,.4-.5,.1-.1,.2-.2,.4-.2h0c.1,0,.2-.1,.3-.1,0,0,0,0,0,0h0s0,0,0,0c0,0,.2,0,.3,0h0c0,0,.2,0,.3,0,0,0,0,0,0,0h0c0,0,.1,0,.2,0h0c0,0,.1,0,.2,.1h0c.2,0,.3,.2,.4,.3,0,0,0,0,0,0Zm.4,.5h0s0,0,0,0h0c0-.2,0-.2-.1-.3,0,0,0,0-.1-.1,.1,.1,.2,.3,.4,.4,0,0,0,0,0,0h0Zm-1-.8h0Zm0,0s0,0,0,0c0,0,0,0,0,0h0c0,0,.1,0,.2,0h0Zm-.3,0c0,0-.1,0-.2,0h0c0,0,.2,0,.3,0h0s0,0,0,0Zm-.4,0s0,0-.1,0h0s0,0,0,0h0s0,0,0,0c-.1,0-.2,0-.3,.1h0c.1,0,.2,0,.3-.1,0,0,0,0,0,0h0s0,0,0,0c0,0,.2,0,.3,0h0s0,0,0,0c0,0-.1,0-.2,0Zm-1.5,4.2h0s0,0,0,0c0,0,0,0,0,0,0,0,0,.1,0,.2,0,0,0,.1,.1,.2,0,0,0,.1,.1,.2,0,0,.1,.1,.2,.2-.2-.2-.4-.4-.5-.7Zm1.9,1.1s0,0,0,0h0s0,0-.2,0-.1,0-.2,0h0s0,0,0,0,0,0,0,0h0s0,0,0,0t0,0s0,0,0,0h0s0,0,.1,0,0,0,.1,0h0s0,0,0,0c0,0,0,0,0,0h0Zm-.6,0s0,0,0,0c0,0,0,0,0,0h0Zm-.3-.1s0,0-.1,0h0s0,0,0,0c0,0,0,0,0,0,0,0,0,0,.1,0,0,0,.1,0,.2,0,0,0-.1,0-.2,0Zm1.4,0s0,0,0,0h0s0,0,0,0c0,0,0,0,0,0,0,0,0,0,0,0Zm.2-.1s0,0,0,0c0,0,0,0,0,0,0,0,.1,0,.2,0h0s0,0,0,0Zm-.3,.2s0,0,0,0h0s0,0,0,0h0Zm-.3,0s0,0,0,0h0c0,0,.2,0,.3,0,0,0-.2,0-.3,0Zm1.4-1.2h0Zm0,0s0,0,0,0c0,0,0,0,0,0,0,0,0,0,0,0,0,0,0,0,0,0Zm0,0s0,0,0,0c0,0,0,0,0,0h0Zm0,0h0s0,0,0,0h0Zm.3-1.7h0c0,0,0,0,0-.1h0c0,.2,0,.2,0,.3h0c0,0,0,.2,0,.2h0c0,0,0,0,0,0h0c0,.1,0,.2,0,.3,0,0,0,0,0-.1,0,0,0-.1,0-.2h0c0-.1,0-.2,0-.3h0c0,0,0-.2,0-.2Zm-.1,1.1h0s0,0,0,0c0,0,0,0,0,0Zm-4-1.1h0Zm2-2.5c0,0-.1,0-.2,0,0,0,0,0-.1,0h0s0,0,0,0c0,0,.2,0,.3,0h0s0,0,0,0Zm.3,0h0c0,0-.1,0-.2,0h0c0,0,.2,0,.3,0h0Zm.3,0h0s0,0,0,0c0,0,0,0,0,0h0c0,0,.1,0,.2,0h0Zm0,0h0Z"/></g><g><ellipse class="ac" cx="12.5" cy="12.5" rx="1.8" ry="2.4"/><path class="i" d="M10.7,13c0,0,0-.1,0-.2h0c0-.1,0-.1,0-.1h0s0,0,0,0h0c0,.2,0,.3,0,.3h0Zm0-.3h0Zm0,0h0s0,0,0,0h0Zm0,0h0s0,0,0,0h0Zm0,0h0s0,0,0,0h0Zm0,0h0Zm0,0h0Zm0-.5h0Zm.1-.6h0c0,0,0,0,0,0Zm0,0c0,0,0,.1,0,.2,0,0,0-.2,0-.2t0,0s0,0,0,0Zm-.1,.6h0s0,0,0,0Zm0,0s0,0,0,0c0,0,0,0,0,0h0Zm0,0c0,0,0,.2,0,.2h0c0,0,0-.1,0-.2t0,0Zm0,0h0Zm0,1.1s0,0,0,0c0,0,0,0,0,.1,0,0,0,0,0,.1,0,0,0-.2,0-.2Zm0,0h0Zm0,0s0,0,0,0c0,0,0,0,0,0t0,0h0Zm.4-2.3s0,0,0,0c0,0,0,0,0,0s0,0,0,0c0,0,0,0,0,0Zm.2,3.4s0,0,0,0c0,0,0,0,0,0h0s0,0,0,0c0,0,0,0,0,0h0s0,0,0,0c0,0,0,0,0,0h0s0,0,0,0Zm2.6-3.3h0Zm0,0s0,0,0-.1c0,0,0,0-.1-.1,0,0,.1,.2,.2,.3,0,0,0,0,0,0h0s0,0,0,0Zm-.5-.5s0,0-.1,0c0,0,0,0-.1,0,0,0,0,0,0,0h0c-.1,0-.2,0-.3-.1-.1,0-.2,0-.3,0s-.2,0-.3,0c0,0-.2,0-.3,.1h0s0,0,0,0c0,0-.2,0-.2,.1,0,0,0,0,0,0,0,0,0,0-.1,.1,0,0,0,0-.1,.1,.2-.2,.3-.3,.5-.4,.2,0,.4-.2,.6-.2s.4,0,.6,.2h0c.2,0,.4,.2,.5,.4h0c0-.1-.2-.2-.2-.2Zm.9,1.8s0,0,0,0h0s0,0,0,0h0c0,0,0,0,0,0,0-.1,0-.2,0-.4,0,0,0,0,0,0,0,0,0,0,0,0,0,0,0,.1,0,.2,0,.1,0,.3,0,.4,0,0,0,0,0,0h0q0,0,0,0c0,0,0,.2,0,.2h0q0,0,0,0h0c0,0,0,0,0,0h0s0,0,0,0h0c0,.1,0,.2,0,.3,0,0,0,.1,0,.2h0s0,0,0,0h0s0,0,0,0c0,0,0,0,0,0,0,0,0-.1,0-.2h0c0-.1,0-.2,0-.3h0s0,0,0,0h0c0-.1,0-.1,0-.1h0c0-.1,0-.2,0-.3Zm0,1h0s0,0,0,0c0,0,0,.1,0,.2,0,0,0,0,0-.1,0,0,0,0,0,0,0,0,0,0,0,0,0,0,0,0,0,0,0,0,0,0,0,0h0Zm-.3,.8h0c0,0,0,0,0,0t0,0h0Zm.1-.2h0s0,0,0,0c0,0,0-.2,0-.2,0,0,0,.2,0,.2Zm0,0s0,0,0,0c0,0,0,0,0,0h0s0,0,0,0h0s0,0,0,0h0s0,0,0,0t0,0s0,0,0,0h0s0,0,0,0c0,0,0,0,0,0h0Zm-.2,.3h0s0,0,0,0c0,0,0,0,0,0,0,0,0,0,0,0,0,0,0,0,0,0Zm0,0h0s0,0,0,0c0,0,0,0,0,0h0Zm0,0h0s0,0,0,0h0Zm-.9,.7h0c0,0-.1,0-.2,0h0s0,0,.1,0h0Zm.8-.6s0,0,0,0c0,0,0,0,0,0h0s0,0,0,0c0,0,0,0,0,0-.1,.1-.3,.2-.5,.3,0,0,0,0,0,0,0,0,0,0,0,0h0s0,0,0,0h0s0,0,0,0h0s0,0,0,0c0,0,0,0,.1,0,0,0,0,0,0,0,0,0,.2,0,.2-.1,0,0,0,0,0,0h0s0,0,0,0c0,0,0,0,0,0,0,0,0,0,0,0h0s0,0,0,0,0,0,0,0c0,0,0,0,0,0,0,0,0,0,0,0h0Zm0,0h0Zm0,0h0s0,0,0,0Zm0,0h0s0,0,0,0h0Zm-1.1,.6s0,0,0,0,0,0,0,0c0,0,0,0,0,0Zm-.5,0h0s0,0,0,0h0s0,0,0,0c0,0,0,0,0,0,0,0,0,0,0,0s0,0,0,0h0c0,0-.1,0-.2-.1h-.2c0-.1,0-.1,0-.2t0,0s0,0,0,0h0c0,0,0,.1,0,.1,0,0,0,0,0,0,0,0,0,0,0,0,0,0,0,0,0,0h0s0,0,0,0h0s0,0,0,0c0,0,0,0,0,0,0,0,0,0,0,0s0,0,0,0c0,0,0,0,0,0h0s0,0,0,0c0,0,0,0,0,0t0,0h0s0,0,0,0h0s0,0,0,0h0s0,0,0,0h0s0,0,0,0h0c.1,0,.2,0,.3,0s0,0,0,0c0,0,0,0,0,0h0c-.1,0-.2,0-.4,0Z"/></g><path class="q" d="M12.5,10.1c-1,0-1.8,1.1-1.8,2.4s0,0,0,0c.5,.2,1.2,.3,1.9,.3s1.2,0,1.7-.2c0,0,0,0,0-.1,0-1.3-.8-2.4-1.8-2.4Z"/><g><path class="q" d="M12.5,10.1c-1,0-1.8,1.1-1.8,2.4s0,0,0,0c.5,.2,1.2,.3,1.9,.3s1.2,0,1.7-.2c0,0,0,0,0-.1,0-1.3-.8-2.4-1.8-2.4Z"/><path class="i" d="M11.1,10.9s0,0,0,0c0,0,0,0,0,0s0,0,0,0c0,0,0,0,0,0Zm-.3,1.7s0,0,0,0h0s0,0,0,0c0,0,0,0,0,0h0Zm1.1,.2c-.3,0-.7,0-1-.2h0s0,0,0,0h0s0,0,0,0h0s0,0,0,0c0,0,.1,0,.2,0h0c.1,0,.2,0,.3,0h0c0,0,.1,0,.2,0h0s0,0,0,0c0,0,.1,0,.2,0,0,0,0,0,.1,0h0c0,0,0,0-.1,0Zm-1.2-.7h0Zm.1-.6h0c0,0,0,0,0,0Zm0,0c0,0,0,.1,0,.2,0,0,0-.2,0-.2t0,0s0,0,0,0Zm-.1,.6h0s0,0,0,0Zm0,0s0,0,0,0c0,0,0,0,0,0h0Zm0,0h0Zm0,.4h0c0-.2,0-.2,0-.3t0,0c0,0,0,.2,0,.2h0q0,0,0,0Zm3.2-1.6h0Zm0,0s0,0,0-.1c0,0,0,0-.1-.1,0,0,.1,.2,.2,.3,0,0,0,0,0,0h0s0,0,0,0Zm-.5-.5s0,0-.1,0c0,0,0,0-.1,0,0,0,0,0,0,0h0c-.1,0-.2,0-.3-.1-.1,0-.2,0-.3,0s-.2,0-.3,0c0,0-.2,0-.3,.1h0s0,0,0,0c0,0-.2,0-.2,.1,0,0,0,0,0,0,0,0,0,0-.1,.1,0,0,0,0-.1,.1,.2-.2,.3-.3,.5-.4,.2,0,.4-.2,.6-.2s.4,0,.6,.2h0c.2,0,.4,.2,.5,.4h0c0-.1-.2-.2-.2-.2Zm.7,2.3h0s0,0,0,0c0,0,0,0,0,0h0Zm.1,0h0s0,0,0,0h0Zm0-.5s0,0,0,0h0s0,0,0,0h0c0,0,0,0,0,0,0-.1,0-.2,0-.4,0,0,0,0,0,0,0,0,0,0,0,0,0,0,0,.1,0,.2,0,.1,0,.3,0,.4,0,0,0,0,0,0h0q0,0,0,0c0,0,0,.2,0,.2h0c0,.1,0,.1,0,.2h0c0,0,0,0,0-.1h0c0-.1,0-.2,0-.3Zm0,.5s0,0,0,0h0Zm-.1,0s0,0,0,0c0,0,0,0,0,0h0Zm.2,0h0s0,0,0,0h0Zm-.1,0h0s0,0,0,0h0s0,0,0,0h0Zm-.2,0c-.3,0-.5,0-.8,.1h-.1c0,0-.1,0-.2,0h-.2c-.1,0-.2,0-.3,0h0s0,0-.1,0c0,0,0,0,.1,0h0c0,0,.2,0,.3,0h.1c0,0,.1,0,.2,0h.1c.3,0,.6,0,.9-.1h0s0,0,0,0Zm.3,0h0s0,0,0,0Zm0,0h0s0,0,0,0h0Zm-.1,0h0s0,0,0,0h0s0,0,0,0h0Zm-.2,0c-.3,0-.5,0-.8,.1h-.1c0,0-.1,0-.2,0h-.2c-.1,0-.2,0-.3,0h0c0,0,.2,0,.3,0h.1c0,0,.1,0,.2,0h.1c.3,0,.6,0,.9-.1h0s0,0,0,0Zm.4,0h0Z"/></g><g><path class="e" d="M13.9,12.5c0,0-.2,0-.2,0,0,0-.3-.2-.5-.3-.2,0-.3-.1-.3-.2,0,0,0-.1-.2-.2-.1,0-.4,0-.4-.1,0,0-.2-.3-.4-.2-.1,0-.4,.3-.5,.4s-.4,.2-.6,.3c0,.1,0,.3,0,.4s0,0,0,0h.6s2.7,0,2.6-.1Z"/><path class="i" d="M10.7,12.5h0Zm.8-.9h0Zm.3-.2s0,0,0,0c0,0,0,0,0,0,0,0,0,0,0,0,0,0,0,0,0,0Zm-.2,0s0,0,0,0c0,0,0,0,0,0,0,0,0,0,0,0,0,0,0,0,0,0,0,0,0,0,0,0Zm.4,1.1h0s0,0-.1,0h.2s0,0,0,0h0Zm.5-.8h-.1s0,0,0,0c0,0,0,0-.1,0,0,0,0,0,.1,0,0,0,.1,0,.2,0,0,0,0,0,0,0,0,0,0,0,0,0,0,0,0,0-.1,0Zm.5,.8h0s0,0,0,0h-.2s0,0,0,0h0c-.1,0-.2,0-.3,0s0,0,0,0h0c0,0,.2,0,.3,0h.1c0,0,0,0,.1,0h0c0,0,.1,0,.2,0s.1,0,.2,0,0,0,0,0c0,0-.1,0-.2,0Zm0-.4h0s0,0,0,0c0,0,0,0,0,0h0s0,0,.1,0c0,0-.1,0-.1,0Zm-.2-.1s0,0,0,0h0s0,0,0,0Zm.9,.5s0,0-.2,0,0,0,0,0h.2Zm-1.8,0h0s0,0-.1,0h.2s0,0,0,0h0Zm.8,0h-.2s0,0,0,0h0c-.1,0-.2,0-.3,0s0,0,0,0h0c0,0,.2,0,.3,0h.1c0,0,0,0,.1,0h0Z"/></g><g><g><path class="d" d="M13.8,14.1h0Z"/><path class="i" d="M13.8,14.1h0Z"/></g><g><path class="d" d="M13.4,14.6h0Z"/><polygon class="i" points="13.4 14.6 13.4 14.6 13.4 14.6 13.4 14.5 13.4 14.6 13.4 14.6 13.4 14.6"/></g><g><path class="d" d="M13.8,14h0Z"/><polygon class="i" points="13.8 14 13.8 14 13.8 14 13.8 14 13.8 14 13.8 14 13.8 14"/></g><g><path class="d" d="M13.7,14.2h0Z"/><polygon class="i" points="13.7 14.2 13.7 14.2 13.7 14.2 13.7 14.2 13.7 14.2 13.7 14.2 13.7 14.2"/></g><g><polygon class="d" points="13.9 13.9 13.9 13.9 13.9 13.9 13.9 13.9"/><polygon class="i" points="13.9 13.9 13.9 13.9 13.9 13.9 13.9 13.9 13.9 13.9"/></g><g><path class="d" d="M12.3,13.5c0-.1,.7,0,.3-.3-.1,0-1.1-.4-1.1-.4h-.2c0,0,1,.4,.8,.4-.2,0-.9,.3-.7,.4,0,0,.3,0,.5,.1,.4,0-.6,.4-.6,.4,.3,.4,.8,.6,1.2,.6s.6,0,.8-.3c0,0,0,0,0,0h0c.1,0,.2-.2,.3-.3h0s0,0,0,0h0s0,0,0,0h0s0,0,0-.1h0c-.5-.2-1.7-.3-1.6-.4Z"/><path class="i" d="M11.3,14.2h0Zm0,0h0s0,0,0,0Zm0,0h0s0,0,0,0Zm0-.6h0s0,0,0,0h0Zm.1,.8s0,0,0,0t0,0s0,0,0,0h0c0,0,0,.1,0,.1,0,0,0,0,0,0Zm.1-.3h0s0,0,0,0c0,0,0,0,0,0h0Zm0,0h0Zm0,.5s0,0,0,0c0,0,0,0,0,0h0Zm.1,0s0,0,0,0c0,0,0,0,0,0h0s0,0,0,0Zm.3-.7s0,0,0,0h0s0,0,0,0h0Zm.1,.9h0s0,0,0,0Zm.1-1.7h0s0,0,0,0Zm0,.4s0,0,0,0h0Zm0,.1h0s0,0,0,0h0Zm0,0s0,0,0,0c0,0,0,0,0,0h0Zm0-.2s0,0-.1,0c0,0,0,0,.1,0s0,0,0,0c0,0,0,0,0,0Zm.9,.4h0Zm0,0h0Zm.2,.4h0Zm0,0h0s0,0,0,0Zm0,0s0,0,0,0c0,0,0,0,0,0,0,0,0,0,0,0,0,0,0,0,0,0,0,0,0,0,0,0h0Zm-.1,.1s0,0,0,0c0,0,0,0,0,0,0,0,0,0,0,0,0,0,0,0,0,0h0s0,0,0,0h0Zm.2-.2h0s0,0,0,0h0Zm0,0h0Zm0-.1h0s0,0,0,0h0Zm0,0h0s0,0,0,0c0,0,0,0,0,0Zm-1.9-.8h0Zm.4,.3s0,0,0,0h0Zm0,.1h0s0,0,0,0h0Zm0,0s0,0,0,0c0,0,0,0,0,0h0Zm0-.2s0,0-.1,0c0,0,0,0,.1,0s0,0,0,0c0,0,0,0,0,0Zm.9,.4h0Zm0,0h0Z"/></g></g><g><path class="ag" d="M14.3,12.5c0,0-.2,0-.3,0-.1,0-.5,0-.6,0-.1,0-.6,0-.7,0,0,0-.7,0-.7-.1,0,0-.6,0-.7,0s-.4-.1-.6-.1h0c0,.1,0,.2,0,.3,0,.2,0,.3,0,.5h3.5c0-.2,0-.3,0-.5Z"/><path class="i" d="M11,12.2c0,0-.1,0-.2,0,0,0,0,0,.2,0,0,0,0,0,.2,0,0,0,0,0-.2,0Zm1.9,.2h0s0,0,0,0c0,0,0,0,0,0,0,0,0,0,0,0h0Zm0,0h0Zm.4,0h0s0,0,0,0c0,0,0,0,0,0Z"/></g></g><g><g><path class="l" d="M12.5,10.6s0,0,0,0c0,0,0,0,0,0,0,0,0,0,0,0,0,0,0,0,0,0,0,0,0,0,0,0,0,0,0,0,0,0,0,0,0,0,0,0h0s0,0,0,0Z"/><g><path class="x" d="M12.4,10.7s0,0,0,0c0,0,0,0,0,0,0,0,0,0,0,0,0,0,0,0,0,0h0s0,0,0,0h0s0,0,0,0c0,0,0,0,0,0,0,0,0,0,0,0,0,0,0,0,0,0h0Z"/><path class="h" d="M12.5,10.6s0,0,0,0h0s0,0,0,0h0s0,0,0,0h0s0,0,0,0h0s0,0,0,0h0s0,0,0,0h0s0,0,0,0c0,0,0,0,0,0h0s0,0,0,0c0,0,0,0,0,0,0,0,0,0,0,0Zm0,0s0,0,0,0h0s0,0,0,0c0,0,0,0,0,0h0s0,0,0,0Z"/></g></g><g><path class="l" d="M12.4,10.6s0,0,0,0c0,0,0,0,0,0,0,0,0,0,0,0,0,0,0,0,0,0,0,0,0,0,0,0,0,0,0,0,0,0,0,0,0,0,0,0h0s0,0,0,0Z"/><g><path class="x" d="M12.4,10.7s0,0,0,0c0,0,0,0,0,0,0,0,0,0,0,0,0,0,0,0,0,0,0,0,0,0,0,0,0,0,0,0,0,0h0s0,0,0,0c0,0,0,0,0,0,0,0,0,0,0,0,0,0,0,0,0,0h0Z"/><path class="h" d="M12.4,10.7h0s0,0,0,0c0,0,0,0,0,0h0s0,0,0,0c0,0,0,0,0,0h0s0,0,0,0h0s0,0,0,0c0,0,0,0,0,0h0s0,0,0,0c0,0,0,0,0,0,0,0,0,0,0,0h0Zm0,0h0s0,0,0,0h0s0,0,0,0Zm0,0h0s0,0,0,0c0,0,0,0,0,0h0Z"/></g></g><g><path class="l" d="M12.3,10.7s0,0,0,0c0,0,0,0,0,0,0,0,0,0,0,0,0,0,0,0,0,0,0,0,0,0,0,0,0,0,0,0,0,0,0,0,0,0,0,0h0s0,0,0,0Z"/><g><path class="x" d="M12.3,10.8s0,0,0,0c0,0,0,0,0,0,0,0,0,0,0,0,0,0,0,0,0,0h0s0,0,0,0h0s0,0,0,0c0,0,0,0,0,0,0,0,0,0,0,0,0,0,0,0,0,0h0Z"/><path class="h" d="M12.4,10.7s0,0,0,0c0,0,0,0,0,0,0,0,0,0,0,0,0,0,0,0,0,0h0s0,0,0,0t0,0h0s0,0,0,0c0,0,0,0,0,0,0,0,0,0,0,0s0,0,0,0h0c0,0,0,0,0,.1,0,0,0,0,0,0h0s0,0,0,0c0,0,0,0,0,0h0Z"/></g></g><g><path class="l" d="M12.2,10.7s0,0,0,0c0,0,0,0,0,0,0,0,0,0,0,0,0,0,0,0,0,0,0,0,0,0,0,0,0,0,0,0,0,0,0,0,0,0,0,0h0s0,0,0,0Z"/><g><path class="x" d="M12.3,10.8s0,0,0,0c0,0,0,0,0,0,0,0,0,0,0,0,0,0,0,0,0,0h0s0,0,0,0h0s0,0,0,0c0,0,0,0,0,0,0,0,0,0,0,0,0,0,0,0,0,0h0Z"/><path class="h" d="M12.1,10.6h0Zm.2,.2s0,0,0,0c0,0,0,0,0,0t0,0h0s0,0,0,0c0,0,0,0,0,0h0s0,0,0,0h0s0,0,0,0h0s0,0,0,0h0s0,0,0,0h0s0,0,0,0c0,0,0,0,0,0,0,0,0,0,0,0h0s0,0,0,0c0,0,0,0,0,0h0s0,0,0,0Z"/></g></g><g><path class="l" d="M12.2,10.8s0,0,0,0c0,0,0,0,0,0,0,0,0,0,0,0,0,0,0,0,0,0,0,0,0,0,0,0,0,0,0,0,0,0,0,0,0,0,0,0h0s0,0,0,0Z"/><g><path class="x" d="M12.3,10.8s0,0,0,0c0,0,0,0,0,0,0,0,0,0,0,0,0,0,0,0,0,0h0s0,0,0,0h0s0,0,0,0c0,0,0,0,0,0,0,0,0,0,0,0,0,0,0,0,0,0h0Z"/><path class="h" d="M12.2,10.7s0,0,0,0,0,0,0,0h0s0,0,0,0h0s0,0,0,0c0,0,0,0,0,0s0,0,0,0c0,0,0,0,0,0h0Zm0,0s0,0,0,0h0Zm0,0h0Zm.1,0s0,0,0,0h0s0,0,0,0,0,0,0,0c0,0,0,0,0,0h0Zm0,0h0s0,0,0,0h0s0,0,0,0Z"/></g></g><g><path class="l" d="M12.2,10.9s0,0,0,0c0,0,0,0,0,0,0,0,0,0,0,0,0,0,0,0,0,0,0,0,0,0,0,0,0,0,0,0,0,0,0,0,0,0,0,0h0s0,0,0,0Z"/><g><path class="x" d="M12.3,10.9s0,0,0,0c0,0,0,0,0,0,0,0,0,0,0,0,0,0,0,0,0,0h0s0,0,0,0h0s0,0,0,0c0,0,0,0,0,0,0,0,0,0,0,0,0,0,0,0,0,0h0Z"/><path class="h" d="M12.3,10.9s0,0,0,0c0,0,0,0,0,0,0,0,0,0,0,0h0s0,0,0,0h0s0,0,0,0h0s0,0,0,0c0,0,0,0,0,0h0s0,0,0,0c0,0,0,0,0,0,0,0,0,0,0,0,0,0,0,0,0,0h0s0,0,0,0h0s0,0,0,0c0,0,0,0,0,0h0Zm-.1,0h0Z"/></g></g><g><path class="l" d="M12.2,10.9s0,0,0,0c0,0,0,0,0,0,0,0,0,0,0,0,0,0,0,0,0,0s0,0,0,0c0,0,0,0,0,0,0,0,0,0,0,0h0s0,0-.1,0Z"/><g><path class="x" d="M12.3,11s0,0,0,0c0,0,0,0,0,0,0,0,0,0,0,0,0,0,0,0,0,0h0s0,0,0,0h0s0,0,0,0c0,0,0,0,0,0,0,0,0,0,0,0,0,0,0,0,0,0h0Z"/><path class="h" d="M12.3,10.9s0,0,0,0h0s0,0,0,0c0,0,0,0,0,0t0,0h0s0,0,0,0h0s0,0,0,0h0s0,0,0,0c0,0,0,0,0,0h0s0,0,0,0,0,0,0,0c0,0,0,0,0,0h0Zm0,0s0,0,0,0c0,0,0,0,0,0h0Z"/></g></g><g><path class="l" d="M12.2,11s0,0,0,0c0,0,0,0,0,0,0,0,0,0,0,0,0,0,0,0,0,0,0,0,0,0,0,0,0,0,0,0,0,0,0,0,0,0,0,0h0s0,0-.1,0Z"/><g><path class="x" d="M12.3,11s0,0,0,0c0,0,0,0,0,0,0,0,0,0,0,0,0,0,0,0,0,0h0s0,0,0,0h0s0,0,0,0c0,0,0,0,0,0,0,0,0,0,0,0,0,0,0,0,0,0h0Z"/><path class="h" d="M12.3,11h0Zm0,0s0,0,0,0c0,0,0,0,0,0h0s0,0,0,0h0s0,0,0,0c0,0,0,0,0,0h0s0,0,0,0t0,0h0s0,0,0,0h0s0,0,0,0c0,0,0,0,0,0h0s0,0,0,0c0,0,0,0,0,0h0Z"/></g></g><g><path class="l" d="M12.2,11.1s0,0,0,0c0,0,0,0,0,0,0,0,0,0,0,0,0,0,0,0,0,0,0,0,0,0,0,0,0,0,0,0,0,0,0,0,0,0,0,0h0s0,0,0,0Z"/><g><path class="x" d="M12.3,11s0,0,0,0c0,0,0,0,0,0,0,0,0,0,0,0,0,0,0,0,0,0h0s0,0,0,0h0s0,0,0,0c0,0,0,0,0,0,0,0,0,0,0,0,0,0,0,0,0,0h0Z"/><path class="h" d="M12.3,11h0Zm0,0h0Zm0,0h0s0,0,0,0,0,0,0,0h0s0,0,0,0h0Zm-.1,0s0,0,0,0h0s0,0,0,0t0,0h0c0,0,0,0,0,0,0,0,0,0,0,0,0,0,0,0,0,0h0Zm0,0h0s0,0,0,0h0Z"/></g></g><g><path class="l" d="M12.3,11.1s0,0,0,0c0,0,0,0,0,0,0,0,0,0,0,0,0,0,0,0,0,0s0,0,0,0c0,0,0,0,0,0,0,0,0,0,0,0h0s0,0,0,0Z"/><g><path class="x" d="M12.4,11.1s0,0,0,0c0,0,0,0,0,0,0,0,0,0,0,0,0,0,0,0,0,0h0s0,0,0,0h0s0,0,0,0c0,0,0,0,0,0,0,0,0,0,0,0,0,0,0,0,0,0h0Z"/><path class="h" d="M12.3,11.1h0Zm0,0h0s0,0,0,0c0,0,0,0,0,0,0,0,0,0,0,0,0,0,0,0,0,0h0s0,0,0,0h0s0,0,0,0h0s0,0,0,0c0,0,0,0,0,0s0,0,0,0h0s0,0,0,0c0,0,0,0,0,0h0s0,0,0,0c0,0,0,0,0,0,0,0,0,0,0,0h0Z"/></g></g><g><path class="l" d="M12.4,11.2s0,0,0,0c0,0,0,0,0,0,0,0,0,0,0,0,0,0,0,0,0,0,0,0,0,0,0,0,0,0,0,0,0,0,0,0,0,0,0,0h0s0,0,0,.1Z"/><g><path class="x" d="M12.4,11.1s0,0,0,0c0,0,0,0,0,0,0,0,0,0,0,0,0,0,0,0,0,0h0s0,0,0,0h0s0,0,0,0c0,0,0,0,0,0,0,0,0,0,0,0,0,0,0,0,0,0h0Z"/><path class="h" d="M12.2,11.3h0Zm.2-.2s0,0,0,0h0s0,0,0,0h0s0,0,0,0t0,0h0Zm0,0h0s0,0,0,0t0,0s0,0,0,0h0s0,0,0,0c0,0,0,0,0,0,0,0,0,0,0,0,0,0,0,0,0,0h0s0,0,0,0h0s0,0,0,0c0,0,0,0,0,0,0,0,0,0,0,0,0,0,0,0,0,0,0,0,0,0,0,0h0Zm0,0h0Z"/></g></g><g><path class="l" d="M12.4,11.2s0,0,0,0c0,0,0,0,0,0,0,0,0,0,0,0,0,0,0,0,0,0s0,0,0,0c0,0,0,0,0,0,0,0,0,0,0,0h0s0,0,0,.1Z"/><g><path class="x" d="M12.5,11.1s0,0,0,0c0,0,0,0,0,0,0,0,0,0,0,0,0,0,0,0,0,0h0s0,0,0,0h0s0,0,0,0c0,0,0,0,0,0,0,0,0,0,0,0,0,0,0,0,0,0h0Z"/><path class="h" d="M12.4,11.1h0s0,0,0,0h0s0,0,0,0h0s0,0,0,0c0,0,0,0,0,0h0s0,0,0,0h0q0,0,0,0h0s0,0,0,0,0,0,0,0h0c0,0,0,0,0-.1h0Zm0,.1h0s0,0,0,0Z"/></g></g><g><path class="l" d="M12.5,11.2s0,0,0,0c0,0,0,0,0,0,0,0,0,0,0,0,0,0,0,0,0,0,0,0,0,0,0,0,0,0,0,0,0,0,0,0,0,0,0,0h0s0,0,0,0Z"/><g><path class="x" d="M12.5,11.1s0,0,0,0c0,0,0,0,0,0,0,0,0,0,0,0,0,0,0,0,0,0h0s0,0,0,0h0s0,0,0,0c0,0,0,0,0,0,0,0,0,0,0,0,0,0,0,0,0,0h0Z"/><path class="h" d="M12.5,11.1h0s0,0,0,0,0,0,0,0c0,0,0,0,0,0s0,0,0,0h0s0,0,0,0c0,0,0,0,0,0,0,0,0,0,0,0s0,0,0,0c0,0,0,0,0,0,0,0,0,0,0,0,0,0,0,0,0,0h0s0,0,0,0c0,0,0,0,0,0t0,0s0,0,0,0h0Z"/></g></g><g><path class="l" d="M12.6,11.2s0,0,0,0c0,0,0,0,0,0,0,0,0,0,0,0,0,0,0,0,0,0,0,0,0,0,0,0,0,0,0,0,0,0,0,0,0,0,0,0h0s0,0,0,0Z"/><g><path class="x" d="M12.6,11.1s0,0,0,0c0,0,0,0,0,0,0,0,0,0,0,0,0,0,0,0,0,0,0,0,0,0,0,0,0,0,0,0,0,0h0s0,0,0,0c0,0,0,0,0,0,0,0,0,0,0,0,0,0,0,0,0,0h0Z"/><path class="h" d="M12.6,11.3s0,0,0,0h0s0,0,0,0h0c0-.1,0-.2,0-.2h0s0,0,0,0h0s0,0,0,0h0s0,0,0,0h0q0,0,0,.1h0s0,0,0,0h0s0,0,0,0Zm0-.2h0s0,0,0,0Z"/></g></g><g><path class="l" d="M12.6,11.1s0,0,0,0c0,0,0,0,0,0,0,0,0,0,0,0,0,0,0,0,0,0,0,0,0,0,0,0,0,0,0,0,0,0,0,0,0,0,0,0h0s0,0,0,0Z"/><g><path class="x" d="M12.6,11s0,0,0,0c0,0,0,0,0,0,0,0,0,0,0,0,0,0,0,0,0,0h0s0,0,0,0h0s0,0,0,0c0,0,0,0,0,0,0,0,0,0,0,0,0,0,0,0,0,0h0Z"/><path class="h" d="M12.7,11.2s0,0,0,0c0,0,0,0,0,0,0,0,0,0,0,0,0,0,0,0,0,0,0,0,0,0,0,0,0,0,0,0,0,0h0s0,0,0,0,0,0,0,0c0,0,0,0,0,0h0Zm0,0s0,0,0,0h0s0,0,0,0h0Zm0-.1h0s0,0,0,0t0,0s0,0,0,0h0Z"/></g></g><g><path class="l" d="M12.7,11.1s0,0,0,0c0,0,0,0,0,0,0,0,0,0,0,0,0,0,0,0,0,0s0,0,0,0c0,0,0,0,0,0,0,0,0,0,0,0h0s0,0,0,0Z"/><g><path class="x" d="M12.6,11s0,0,0,0c0,0,0,0,0,0,0,0,0,0,0,0,0,0,0,0,0,0h0s0,0,0,0h0s0,0,0,0c0,0,0,0,0,0,0,0,0,0,0,0,0,0,0,0,0,0h0Z"/><path class="h" d="M12.7,11h0Zm0,0s0,0,0,0h0s0,0,0,0h0Zm0,0h0Zm0,0h0Zm0,0s0,0,0,0,0,0,0,0h0Zm0,0h0Zm0,0h0s0,0,0,0c0,0,0,0,0,0,0,0,0,0,0,0h0s0,0,0,0Zm.1,0s0,0,0,0h0s0,0,0,0c0,0,0,0,0,0,0,0,0,0,0,0h0s0,0,0,0h0s0,0,0,0c0,0,0,0,0,0h0Zm-.2-.1h0Z"/></g></g><g><path class="l" d="M12.7,11s0,0,0,0c0,0,0,0,0,0,0,0,0,0,0,0,0,0,0,0,0,0,0,0,0,0,0,0,0,0,0,0,0,0,0,0,0,0,0,0h0s0,0,0,0Z"/><g><path class="x" d="M12.7,11s0,0,0,0c0,0,0,0,0,0,0,0,0,0,0,0,0,0,0,0,0,0h0s0,0,0,0h0s0,0,0,0c0,0,0,0,0,0,0,0,0,0,0,0,0,0,0,0,0,0h0Z"/><path class="h" d="M12.9,11.1h0s0,0,0,0c0,0,0,0,0,0s0,0,0,0c0,0,0,0,0,0,0,0,0,0,0,0h0s0,0,0,0h0s0,0,0,0c0,0,0,0,0,0t0,0h0s0,0,0,0h0s0,0,0,0h0Zm-.2-.2s0,0,0,0h0Zm0,0h0s0,0,0,0Zm0,0h0Z"/></g></g><g><path class="l" d="M12.8,11s0,0,0,0c0,0,0,0,0,0,0,0,0,0,0,0,0,0,0,0,0,0s0,0,0,0c0,0,0,0,0,0,0,0,0,0,0,0h0s0,0,0,0Z"/><g><path class="x" d="M12.7,10.9s0,0,0,0c0,0,0,0,0,0,0,0,0,0,0,0,0,0,0,0,0,0h0s0,0,0,0h0s0,0,0,0c0,0,0,0,0,0,0,0,0,0,0,0,0,0,0,0,0,0h0Z"/><path class="h" d="M12.9,11h0s0,0,0,0h0s0,0,0,0c0,0,0,0,0,0,0,0,0,0,0,0,0,0,0,0,0,0h0s0,0,0,0h0s0,0,0,0c0,0,0,0,0,0,0,0,0,0,0,0h0s0,0,0,0c0,0,0,0,0,0h0s0,0,0,0h0s0,0,0,0h0s0,0,0,0h0s0,0,0,0h0Z"/></g></g><g><path class="l" d="M12.8,10.9s0,0,0,0c0,0,0,0,0,0,0,0,0,0,0,0,0,0,0,0,0,0,0,0,0,0,0,0,0,0,0,0,0,0,0,0,0,0,0,0h0s0,0,.1,0Z"/><g><path class="x" d="M12.7,10.9s0,0,0,0c0,0,0,0,0,0,0,0,0,0,0,0,0,0,0,0,0,0h0s0,0,0,0h0s0,0,0,0c0,0,0,0,0,0,0,0,0,0,0,0,0,0,0,0,0,0h0Z"/><path class="h" d="M12.9,10.9h0s0,0,0,0h0s0,0,0,0c0,0,0,0,0,0,0,0,0,0,0,0h0s0,0,0,0,0,0,0,0c0,0,0,0,0,0t0,0s0,0,0,0h0Zm-.2,0s0,0,0,0c0,0,0,0,0,0h0Z"/></g></g><g><path class="l" d="M12.8,10.8s0,0,0,0c0,0,0,0,0,0,0,0,0,0,0,0,0,0,0,0,0,0,0,0,0,0,0,0,0,0,0,0,0,0,0,0,0,0,0,0h0s0,0,.1,0Z"/><g><path class="x" d="M12.7,10.8s0,0,0,0c0,0,0,0,0,0,0,0,0,0,0,0,0,0,0,0,0,0h0s0,0,0,0h0s0,0,0,0c0,0,0,0,0,0,0,0,0,0,0,0s0,0,0,0h0Z"/><path class="h" d="M12.9,10.8h0s0,0,0,0c0,0,0,0,0,0,0,0,0,0,0,0,0,0,0,0,0,0h0s0,0,0,0h.1s0,0,0,0h0s0,0,0,0h0s0,0,0,0h0Zm-.2,0h0s0,0,0,0c0,0,0,0,0,0Zm0,0s0,0,0,0h0s0,0,0,0h0Z"/></g></g><g><path class="l" d="M12.7,10.7s0,0,0,0c0,0,0,0,0,0,0,0,0,0,0,0,0,0,0,0,0,0,0,0,0,0,0,0,0,0,0,0,0,0,0,0,0,0,0,0h0s0,0,0,0Z"/><g><path class="x" d="M12.6,10.8s0,0,0,0c0,0,0,0,0,0,0,0,0,0,0,0,0,0,0,0,0,0h0s0,0,0,0h0s0,0,0,0c0,0,0,0,0,0,0,0,0,0,0,0,0,0,0,0,0,0h0Z"/><path class="h" d="M12.8,10.7h0c0,0,0,0,0,0,0,0,0,0,0,0h0s0,0,0,0h0s0,0,0,0,0,0,0,0c0,0,0,0,0,0h0s0,0,0,0h0s0,0,0,0c0,0,0,0,0,0h0Zm-.2,0h0Z"/></g></g><g><path class="l" d="M12.7,10.7s0,0,0,0c0,0,0,0,0,0,0,0,0,0,0,0,0,0,0,0,0,0,0,0,0,0,0,0,0,0,0,0,0,0,0,0,0,0,0,0h0s0,0,0,0Z"/><g><path class="x" d="M12.6,10.8s0,0,0,0c0,0,0,0,0,0,0,0,0,0,0,0,0,0,0,0,0,0h0s0,0,0,0h0s0,0,0,0c0,0,0,0,0,0,0,0,0,0,0,0,0,0,0,0,0,0h0Z"/><path class="h" d="M12.8,10.6h0s0,0,0,0c0,0,0,0,0,0h0s0,0,0,0h0s0,0,0,0h0s0,0,0,0c0,0,0,0,0,0h0s0,0,0,0c0,0,0,0,0,0h0s0,0,0,0h0s0,0,0,0h0s0,0,0,0c0,0,0,0,0,0,0,0,0,0,0,0,0,0,0,0,0,0,0,0,0,0,0,0h0s0,0,0,0h0Z"/></g></g><g><path class="l" d="M12.6,10.6s0,0,0,0c0,0,0,0,0,0,0,0,0,0,0,0,0,0,0,0,0,0,0,0,0,0,0,0,0,0,0,0,0,0,0,0,0,0,0,0h0s0,0,0-.1Z"/><g><path class="x" d="M12.5,10.7s0,0,0,0c0,0,0,0,0,0,0,0,0,0,0,0,0,0,0,0,0,0h0s0,0,0,0h0s0,0,0,0c0,0,0,0,0,0,0,0,0,0,0,0,0,0,0,0,0,0h0Z"/><path class="h" d="M12.5,10.7h0s0,0,0,0h0Zm.1-.2s0,0,0,0h0c0,0,0,0,0,0h0q0,0,0,0s0,0,0,0c0,0,0,0,0,0h0s0,0,0,0h0s0,0,0,0c0,0,0,0,0,0h0s0,0,0,0h0s0,0,0,0h0s0,0,0,0h0Z"/></g></g><g><path class="l" d="M12.5,10.6s0,0,0,0c0,0,0,0,0,0,0,0,0,0,0,0,0,0,0,0,0,0s0,0,0,0c0,0,0,0,0,0,0,0,0,0,0,0h0s0,0,0-.1Z"/><g><path class="x" d="M12.5,10.7s0,0,0,0c0,0,0,0,0,0,0,0,0,0,0,0,0,0,0,0,0,0h0s0,0,0,0h0s0,0,0,0c0,0,0,0,0,0,0,0,0,0,0,0,0,0,0,0,0,0h0Z"/><path class="h" d="M12.6,10.5h0s0,0,0,0h0s0,0,0,0c0,0,0,0,0,0h0s0,0,0,0c0,0,0,0,0,0h0s0,0,0,0h0s0,0,0,0c0,0,0,0,0,0h0c0-.1,0-.1,0-.2Z"/></g></g><g><g><path class="x" d="M12.7,10.9c0-.1,0-.2-.2-.2s-.2,0-.2,.2,0,.2,.2,.2,.2,0,.2-.2Z"/><path class="h" d="M12.3,11h0s0,0,0,0h0Zm0,0h0Zm0,0h0Zm0,0h0Zm0,0h0s0,0,0,0h0s0,0,0,0Zm0,0h0Zm0-.4h0Zm0,.4h0Zm0-.4h0Zm0,.4s0,0,0,0t0,0h0Zm0,0s0,0,0,0h0Zm0,0h0Zm0,0s0,0,0,0h0s0,0,0,0c0,0,0,0,0,0h0Zm0-.2h0Zm0,0h0Zm-.2,.2h0Zm0-.4h0Zm0,.4h0Zm.2,0s0,0,0,0h0s0,0,0,0h0Zm0-.2h0Zm0,0h0Z"/></g><g><path class="l" d="M12.5,11s0,0,0,0h0s0,0,0,0c0,0,0,0,0,0,0,0,0,0,0,0s0,0,0,0h0s0,0,0,0,0,0,0,0c0,0,0,0,0,0Z"/><path class="l" d="M12.5,11s0,0,0,0c0,0,0,0,0,0s0,0,0,0c0,0,0,0,0,0Z"/><path class="l" d="M12.5,11s0,0,0,0c0,0,0,0,0,0s0,0,0,0c0,0,0,0,0,0Z"/><path class="l" d="M12.4,11s0,0,0,0h0Z"/><g><path class="l" d="M12.5,11s0,0,0,0c0,0,0,0,0,0s0,0,0,0c0,0,0,0,0,0Z"/><g><path class="l" d="M12.4,10.9s0,0,0,0,0,0,0,0c0,0,0,0,0,0,0,0,0,0,0,0Z"/><path class="l" d="M12.4,10.9s0,0,0,0c0,0,0,0,0,0,0,0,0,0,0,0,0,0,0,0,0,0Z"/><path class="l" d="M12.4,10.9s0,0,0,0,0,0,0,0,0,0,0,0,0,0,0,0Z"/><path class="l" d="M12.4,10.9s0,0,0,0c0,0,0,0,0,0,0,0,0,0,0,0,0,0,0,0,0,0Z"/><path class="l" d="M12.4,10.9s0,0,0,0c0,0,0,0,0,0,0,0,0,0,0,0,0,0,0,0,0,0Z"/></g><g><path class="l" d="M12.6,10.9s0,0,0,0,0,0,0,0c0,0,0,0,0,0,0,0,0,0,0,0Z"/><path class="l" d="M12.6,10.9s0,0,0,0c0,0,0,0,0,0,0,0,0,0,0,0,0,0,0,0,0,0Z"/><path class="l" d="M12.5,10.9s0,0,0,0,0,0,0,0,0,0,0,0,0,0,0,0Z"/><path class="l" d="M12.5,10.9s0,0,0,0c0,0,0,0,0,0,0,0,0,0,0,0,0,0,0,0,0,0Z"/><path class="l" d="M12.5,10.9s0,0,0,0c0,0,0,0,0,0,0,0,0,0,0,0,0,0,0,0,0,0Z"/></g><path class="l" d="M12.5,10.9s0,0,0,0c0,0,0,0,0,0h0s0,0,0,0c0,0,0,0,0,0Z"/><path class="l" d="M12.5,11h0s0,0,0,0c0,0,0,0,0,0,0,0,0,0,0,0,0,0,0,0,0,0h0Z"/></g></g></g></g><path class="y" d="M8.4,8.2c0,0,.6-.1,.6,0s-.1,0,0,0c0,0,.5,0,.5,0s0,.1,0,.1c0,0,.4-.1,.4,0,0,0,0,.1,0,.1,0,0,.4,0,.4,0,0,0,0,.1,0,.1,0,0,.3,0,.3,0s-.1,.1,0,.1,.4-.1,.4,0c0,0-.2,.1-.1,.1,0,0,.3,0,.4,0s-.2,.2-.1,.2c0,0,.3,0,.3,0,0,0-.1,.1,0,.1s.2,0,.2,0,0,.2,0,.2,.2-.1,.2-.1c0,0,0,.2,0,.2s.1-.2,.2-.2c0,0,0,.2,0,.2s.2-.1,.2-.1c0,0,0,.2,0,.2s-.2,.4-.3,.6c0,.2-.2,.6-.2,.6l.9-.5s.3-.6,.4-.6c0,0,0,.2,.2,.2s.2-.5,.3-.5,.1,.1,.1,.1c0,0,0-.2,0-.2s.1,.2,.2,.2c0,0,0-.2,0-.2s.2,.2,.2,.1c0,0,0-.2,0-.2s.2,.1,.2,.1,0-.2,0-.2,.2,.1,.2,.1,0-.2,0-.2,.2,.1,.2,.1,0-.2,0-.2,.3,.1,.3,.1,0-.1,0-.2c0,0,.3,.1,.3,.1,0,0,0-.1,0-.1,0,0,.3,.1,.3,.1,0,0,0-.2,0-.2s.3,.2,.4,.1,0-.1,0-.1,.3,.1,.3,0c0,0-.1-.1,0-.2,0,0,.4,.1,.4,.1s-.2-.2-.2-.2c0,0,.3,.1,.3,.1s-.1-.2-.1-.2,1,.5,1,.5c0,0-1.1-.6-1.7-.9-.6-.2-1.7-.5-2-.4-.2,0-.1,.2-.2,.4-.1,.2-.4,.2-.5,.2-.3,0-.5,0-.7,0-.2,0-.3,0-.3-.1,0,0,0-.3-.1-.4-.2-.1-.7-.1-1-.1-.2,0-.9,.3-1.3,.4-.4,.2-.9,.5-.9,.5Z"/><path class="aj" d="M12,8.1s0-.2,.2-.2,.4,0,.4,.2c0,.2,0,.4,0,.4s-.1,0-.2,0c0,0,0,0-.1,0s0,.1-.2,.1c0,0-.2-.3-.1-.5Z"/><path class="v" d="M11.5,8.3s-.1-.1,0-.2c0,0,.2-.1,.3,0l-.3,.2Z"/><path class="ab" d="M11.4,8.6s0-.2,0-.2c0,0,0,0,0,0,0,0,.1,.1,0,.1,0,0,0,0-.1,0,0,0,0,0,0,0Z"/><path class="n" d="M11.5,8.3s0-.1,.2-.1c.1,0,.3,0,.4,0s.2-.1,.3,0c0,0,0,.2-.1,.3-.2,0-.4,0-.5,0h-.2v-.2Z"/><path class="ae" d="M15.4,7.6c-.6-.2-1.7-.5-2-.4-.2,0-.1,.2-.2,.4-.1,.2-.4,.2-.5,.2-.3,0-.5,0-.7,0-.2,0-.3,0-.3-.1,0,0,0-.3-.1-.4-.2-.1-.7-.1-1-.1-.2,0-.9,.3-1.3,.4-.2,.1-.5,.3-.7,.4,.6-.2,1.4-.7,2-.7,.3,0,.6,0,.8,.1,.1,.2,.2,.4,.5,.5,.3,0,.3,0,.5,0,.2,0,.5,.1,.7,0,.3-.1,.3-.4,.6-.4,.3,0,.8,0,1.3,.1,.5,.1,1,.4,1.3,.5,.2,0,.5,.2,.7,.4h0s-1.1-.6-1.7-.8Z"/><path class="v" d="M11.7,8.3s0,0,0,0,0,0,0,0,0,0,0,0,0,0,0,0Z"/><g><path class="j" d="M12.5,9.7c-.3,0-.6,0-.8,.2,0,0,.2,.2,.2,.4,.2,0,.4-.1,.6-.1s.4,0,.6,.1c0-.1,.2-.3,.2-.4-.2-.1-.5-.2-.8-.2Z"/><path class="i" d="M11.8,10.2s0,0,0,0h0s0,0,0,0Zm1.2,0s0,0,0,0c0,0,0,0-.1,0,0,0,0,0,0,0,0,0,0,0,0,0h0s0,0,0,0h0Zm-.6,0c-.2,0-.4,0-.6,.1,0,0,0,0,0,0,0,0,0,0,0,0h0s0,0,.1,0c.1,0,.2,0,.3,0,0,0,0,0,.1,0s0,0,.1,0c0,0,0,0-.1,0Zm.6,0h0s0,0,0,0c0,0,0,0,0,0Zm.1-.2s0,0,0,0c0,0,0,0,0,0h0s0,0,0,0c0,0,0,0,0,0h0Zm-.1-.2s0,0,0,0h0s0,0,0,0h0s0,0,0,0h0c0,0,.2,0,.3,.1,0,0,0,0,0,0,0,0,0,0,0,0h0c0,0-.1,0-.2,0Zm-.2,0h0s0,0,0,0h0Zm-.1,0s0,0-.1,0c0,0,0,0,.1,0h0s0,0,0,0Zm-.2,0h0s0,0-.1,0h0s0,0-.1,0,0,0,0,0h0s0,0,.1,0h0s0,0,.1,0h0s0,0,0,0Zm-.5,0h-.1s0,0-.1,0h0s0,0,.1,0h0s0,0,.1,0,0,0,0,0c0,0,0,0,0,0,0,0,0,0,0,0,0,0,0,0,0,0,0,0,0,0,0,0Zm-.3,0s0,0,0,0h-.2c0,.1,0,.1,0,.2h0s0,0,0,0c0,0,0,0,0,0,0,0,0,0,.1,.1,0,0,0-.1,0-.1h0s0,0,0,0h0s0,0,0,0c0,0,.1,0,.2,0h0s0,0,0,0h0Zm0,0h0Zm0,0s0,0,0,0h0s0,0,.1,0h0s0,0-.1,0Z"/></g><g><path class="t" d="M12.2,9.3s0,.3,0,.3-.3,0-.3,.1c0,0,0,.2,0,.2,0,0,.2-.1,.2-.1s0,.1,0,.2,0,0,0,0c0,0,0-.2,.1-.3s.2,0,.2,0,0,0,0,0c0,0,0-.1,0-.2h0s0-.3,0-.3-.1-.1,0,0Z"/><path class="i" d="M11.8,9.9h0s0,0,0,0Zm.1,0h0s0,0,0,0c0,0,0,0,0,0Zm0-.1s0,0,0,0c0,0,0,0,0,0,0,0,0,0,0,0,0,0,0,0,0,0Zm.1,.3h0Zm.2-.7s0,0,0,0c0,0,0,.2,0,.2,0,0,0-.2,0-.3Zm-.4,.5h0s0,0,0,0c0,0,0,0,0,0Zm.5,0h0Z"/></g><g><path class="t" d="M12.7,9.3v.3s-.2,0-.2,0,0,.2,0,.2c0,0,.2-.1,.2-.1,0,0,0,.1,0,.2,0,0,0,.1,0,.1,0,0,0,0,0-.2,0,0,0-.1,0-.1,0,0,0,0,.1,0,0,0,0,.1,0,.1,0,0,0-.2,0-.3,0,0-.1,0-.1-.1,0,0,0-.2,0-.2h0Z"/><path class="i" d="M12.4,9.8h0Zm0,0h0s0,0,0,0h0Zm0,0h0Zm0,0h0s0,0,0,0c0,0,0,0,0,0Zm.2-.1s0,0,0,0h0s0,0,0,0v0Zm0,.3s0,0,0,0h0Zm0-.7h0Zm.1,.6h0s0,0,0,0c0,0,0,0,0,0h0Zm0-.1s0,0,0,0h0s0,0,0,0Zm0,0h0Zm.1,0s0,0,0,0h0Zm0-.1h0s0,0,0,0c0,0,0,0,0,0Zm0,.1h0s0,0,0,0h0q0,0,0,0Zm0,0h0s0,0,0,0Zm-.6,0h0Zm0,0h0s0,0,0,0h0Zm0,0h0s0,0,0,0c0,0,0,0,0,0Zm.2-.1s0,0,0,0h0s0,0,0,0h0Zm.2,.1s0,0,0,0h0s0,0,0,0Zm0,0h0Zm.1,0s0,0,0,0h0Z"/></g></g><g><rect class="ad" x="11.1" y="15.2" width="2.7" height=".9" rx=".5" ry=".5"/><path class="af" d="M11.2,16.1h2.5c0,0,.1,0,.1-.1h-2.7c0,0,0,.1,.1,.1Z"/><g class="s"><rect class="m" x="11.1" y="15.3" width="2.7" height="0"/><rect class="m" x="11.1" y="15.5" width="2.7" height="0"/><rect class="m" x="11.1" y="15.7" width="2.7" height="0"/><rect class="m" x="11.1" y="15.9" width="2.7" height="0"/></g><path class="f" d="M11.9,15.3s0,0,0,0h0v.2h0v-.2h0Zm.1,0v.3h.1v-.3s0,0-.1,0Zm-.1,0s0,0,0,0h0v.2h0v-.2h0Zm.1,0v.2h.1v-.3s0,0-.1,0Zm-.2,.6h0v-.2h-.1v-.2h0v-.2h0v-.2h0v.2h0v.2h0v.2h.1v.2h0v.2h0v-.2Zm-.1-.3h0v-.2h0c0,0,0,0,0,0h0v.2h0Zm.2-.2v.3h.1v-.3s0,0-.1,0Zm-.1,0s0,0,0,0h0v.2h0v-.2h0Zm.1,0v.4h.1v-.5s0,0-.1,0Zm-.1-.1h0v.2h0v.2h0v-.2h0v-.2h0Zm0,.7h0v-.2h0v.2Zm0,0h0v-.2h0v.2Zm-.1-.2h0v.2h0v.2h0v-.2h.1v-.2h0Zm.2,.2h0v-.2h0v.2Zm0,0h0Zm.2-.6v.3h.1v-.3s0,0-.1,0Zm-.1,0s0,0,0,0h0v.2h0v-.2h0Zm.1,0v.2h.1v-.3s0,0-.1,0Zm-.2,0h0v.2h0v-.2h0s0,0,0,0Zm0,.4h0v-.2h0v-.2h0v.2h0v.2h.1Zm.1-.4s0,0,0,0h0v.2h0v-.2h0Zm.1,0v.3h.1v-.3s0,0-.1,0Zm-.4,.4h0Zm.4-.4v.2h.1v-.3s0,0-.1,0Zm-.2,0h0v.2h0v-.2h0s0,0,0,0Zm-.1,.3h0v-.2h0v-.2h0v.2h0v.2h0Zm-.1,0h0Zm-.4,.4h.1v-.9h-.1v.9Zm.4-.4h0Zm.4-.4v.2h.1v-.3s0,0-.1,0Zm-.2,0h0v.2h0v-.2h0s0,0,0,0Zm0,.4h0v-.2h0v-.2h0v.2h0v.2h.1Zm.1-.4s0,0,0,0h0v.2h0v-.2h0Zm.1,0v.3h.1v-.3s0,0-.1,0Zm-.4,.4h0Zm.4-.4v.3h.1v-.3s0,0-.1,0Zm-.1,0s0,0,0,0h0v.2h0v-.2h0Zm.1,0v.2h.1v-.3s0,0-.1,0Zm-.2,0h0v.2h0v-.2h0s0,0,0,0Zm0,.4h0v-.2h0v-.2h0v.2h0v.2h.1Zm.1-.4s0,0,0,0h0v.2h0v-.2h0Zm.1,0v.3h.1v-.3s0,0-.1,0Zm-.1,0s0,0,0,0h0v.2h0v-.2h0Zm.1,0v.4h.1v-.5s0,0-.1,0Zm0-.1v.9h.1v-.9h-.1Zm-.3,.5h0Zm1.3,.1h0Zm0,0h0Zm-.4-.7v.9h.1v-.9h-.1Zm.4,.7h0Zm0,0h0Zm.3-.7h0v.2h0v.2h.1v-.2h.1v-.2h0Zm-.7,0h0v.2h.1v-.2s0,0-.1,0Zm.5,.4h0v-.2h0c0-.1,0-.1-.1-.1h0v.3h.1v.2h0Zm.1-.4h0v.2h0v-.2h0Zm-.1,.3h0v-.2h0c0-.1,0-.1-.1-.1h0v.3h.1v.2h0Zm.1-.4h0v.2h0v-.2h0Zm.2-.1v.9h.1v-.9h-.1Zm-.2,.1h0v.2h0v-.2h0Zm-.2,.2h0v-.2h0c0,0,0,0-.1,0h0v.3h.1v.2h0v-.2Zm.1-.2h0v.2h0v-.2h0Zm-.1,.3h0v-.2h0c0-.1,0-.1-.1-.1h0v.3h.1v.2h0Zm0,0h0v.2h0v.2h0v-.2h0v-.2h0Zm-.4-.6h0v.5h.1v-.5s0,0-.1,0Zm.4,.5h0Zm-.4-.5v.5h.1v-.5h-.1Zm.4,.5h0Zm.2,.2h0v-.2h0v-.2h-.1v-.2h0v-.2h0v.2h0v.2h0v.2h0v.2h.1Zm-.3-.2h0Zm-.4-.5v.5h.1v-.5h-.1Zm.4,.5h0Zm-.4-.5h0v.5h.1v-.5s0,0-.1,0Z"/></g><g><polyline class="a`" points="12.4 14.2 12.5 14.1 12.8 14.1 12.8 14.2"/><path class="w" d="M11.9,14.2s.1,.2,.2,.2,.9,0,.9,0h0l-1.1-.2Z"/><path class="o" d="M13,14.3c-.1,0-.8,0-1,0,0,0,0,0,.1,0,0,0,.9,0,.9,0h0Z"/><path class="aa" d="M13,14.3h-.9s0,0,0,0c0,0,.9,0,.9,0Z"/></g></g></g></g></g></svg>