<?xml version="1.0" encoding="UTF-8"?><svg xmlns="http://www.w3.org/2000/svg" viewBox="0 0 25 25"><defs><style>.ad{fill:#fff;}.ae{fill:#89081f;}.af{fill:#7a0921;}.ag{fill:#02ae29;}.ah{fill:#ee0a33;}</style></defs><g id="a"/><g id="b"><g id="c"><g><g id="d"><path class="ag" d="M25,12.5c0,6.9-5.6,12.5-12.5,12.5S0,19.4,0,12.5H3.3c0,0,0-.1,0-.2,0-.2,0-.4,0-.5,0,0,0-.1,0-.2,0-.1-.1-.2-.2-.2,0,0,0,0,0,0,0,0,0,0,0,0,0,0,0,0,0,0,0,0,0-.2,0-.2-.1,0-.1-.2-.1-.3,0,0,0,0,0-.1,0-.1-.1-.2-.2-.2,0,0,0,0-.1,0h0c.1-.1,.3-.1,.4,0,0,0,0,0,0,0,0,0,0,0,.1,0,0,0,0,0,0,0,0,0,0,0,0,0,.2,0,.2,.2,.3,.3,0,0,0,.2,.1,.2,0-.1,0-.3,0-.4,0-.1,0-.2,0-.3,0,0,0,0,0,0h0c0-.2,0-.3-.3-.4h0c.1,0,.3,0,.4,0,0,0,.2,.2,.2,.3,0,0,0,0,.1,0,0,0,0,0,0,0h0s0,0,0,0c0,0,0,0,0,0,0,0,0,0,0,.1s0,0,0,.1c0,0,0,.2,0,.2,0,0,0,0,.1,0,0,0,0,0,.1,0,0,0,0,0,0,0h0c0-.1,.1-.2,0-.4h0c.1,0,.2,.2,.2,.3,0,.1,0,.2,0,.3,0,0,0,0,0,.1,0,.1,0,.2-.1,.3,0,0,0,0,0,0-.1,.1-.3,.2-.3,.4,.1,.2,.2,.5,.3,.8h1.7c0-.1,.1-.2,.2-.3,0-.1,0-.3,0-.4,0-.1,.1-.3,.3-.4,0,0,0-.2,0-.3,0,0,0,0,0,0,0,0,0,0,0,0,0,0,0,0,0,0h0c0-.1,0-.1,0-.1,0-.2,0-.3,.1-.5,0,0,.1-.1,.2-.1,0,0,0-.2,0-.3,0-.1,.1-.2,.2-.3,0,0,0,0,0,0,0,0,0,0,0,0,0,0,0,0,0-.1-.4,.1-.6,.4-.8,.6h0c0-.1,0-.2,0-.3,0,0,0,.2-.1,.3,0,.1-.1,.2-.1,.4h0c-.2-.2-.2-.4-.2-.6,0,0,0-.1,0-.2,0,0-.1-.2,0-.3-.1,0-.3,0-.4,0-.4,0-.9,0-1.4,0,0,.1,.2,.2,.2,.4h0c-.2,0-.6-.3-.9-.6-.3-.3-.6-.7-.6-.9h0c.4,.2,1.4,.6,1.7,.6h0s0,0,0,0c0,0-.2,.2-.3,.2,.5,0,1,0,1.5,0h.4s0,0,0,0c0,0-.1,0-.2,0-.1,0-.2-.2-.2-.4-.4,0-.9,0-1.5,0h0c.2-.3,.7-.5,1-.6,.1,0,.3,0,.4,0,.2,0,.4,0,.6,0s.1,0,.2,0c.3-.5,.7-.5,1-.4h0c.2,0,.5,0,.8,0,0-.2,.4-.4,.7-.5,.3,0,.5-.2,.6-.4h0c.1,0,0,.3,0,.6,.1,0,.3-.1,.4-.2h0s0,0,0,0c0,0,0,0,0,0h0c0,.2,0,.5-.1,.7,0,0,.2,0,.3,0h0c-.3,.2-.7,.5-.8,.5,0,0,0,0,0,0s0,0,.1,.1h0c0,.2,0,.3,.2,.4h0c.2,0,.5,.2,.6,.5h0c-.2,0-.4,0-.5,0,0,0,0,0,0,0,0,.2,0,.2,.2,.2,0,0,0,0,0,0,.1,0,.2,0,.3,.2,0,.1,.1,.3,.1,.4h0c-.2,0-.4-.2-.5-.2s-.2,0-.2,.2c0,.1,0,.2,0,.2,0,0,0,0,.2,0,0,0,.2,0,.3,.2,.1,.1,.2,.3,.2,.5h0c-.2-.1-.5-.2-.7-.2,0,0,0,0,0,0h0s0,0,0,.2c0,.2,0,.2,.2,.3,.2,0,.4,.2,.5,.5h0c-.2,0-.4,0-.5,0,0,0,0,0,0,0,0,0,0,.2,0,.5,.4-.1,.8-.2,1.2-.2,.1,0,.2,0,.3,0,0,0,0,0,.1,0,.3-.2,.3-.5,.3-1,0-.1,0-.3,0-.5s.1-.5,.3-.7c.2-.2,.5-.5,.9-.8,.8-.5,1.9-1.2,3.3-1.9,.1,0,.3-.1,.4-.2h0c0,.2-.2,.4-.2,.6,0,.4,0,.7,0,.8,0,0,.2,.1,.4,.1,.1,0,.3,0,.5-.1,.5-.2,1.8-.7,2.8-1.1h0c-.5,.3-.8,.6-1.1,.9-.3,.3-.4,.6-.4,.8,0,0,0,0,0,0,0,.2,.2,.4,.6,.5h0c-.9,.3-1.5,.9-1.7,1.5,0,0,0,0,0,0,0,.1,0,.2,0,.3,0,0,0,0,0,0s0,0,0,0c0,0,0,.1,0,.2,0,.2,.1,.3,.3,.5h0s0,0-.2,0c-.2,0-.5,0-.8,.1-.3,.1-.6,.3-.7,.6,.6,0,1.7,0,2.4,.3,.5,.1,1.2,0,1.6-.2,.2-.1,.3-.2,.3-.4-.3,.1-.5,.2-.8,.2s-.6,0-.8-.2c-.1,0-.2-.2-.3-.3,0-.1-.1-.3-.1-.4s0-.3,.1-.4c0-.1,.2-.2,.3-.3,.2-.2,.5-.3,.8-.3s.8,0,1.2,.3c0-.1,.1-.4,.2-.6-.3,0-.8,0-1.1,0h0c0,0,.1-.1,.2-.2,.6-.6,1.7-1.6,2.1-2.1h0c-.2,.7,0,2.4,.3,2.9h0c-.3-.1-.7-.4-.9-.6-.1,.4-.3,.8-.3,1,.1,.2,.2,.4,.2,.7s0,.6-.3,.8h3.7Z"/></g><g id="e"><path class="ad" d="M4.9,10.5c0,.1,0,.2,0,.3,0,0,0,0,0,.1,0,.1,0,.2-.1,.3,0,0,0,0,0,0-.1,.1-.3,.2-.3,.4,.1,.2,.2,.5,.3,.8h-1.3c0,0,0-.1,0-.2,0-.2,0-.4,0-.5,0,0,0-.1,0-.2,0-.1-.1-.2-.2-.2,0,0,0,0,0,0,0,0,0,0,0,0,0,0,0,0,0,0,0,0,0-.2,0-.2-.1,0-.1-.2-.1-.3,0,0,0,0,0-.1,0-.1-.1-.2-.2-.2,0,0,0,0-.1,0h0c.1-.1,.3-.1,.4,0,0,0,0,0,0,0,0,0,0,0,.1,0,0,0,0,0,0,0,0,0,0,0,0,0,.2,0,.2,.2,.3,.3,0,0,0,.2,.1,.2,0-.1,0-.3,0-.4,0-.1,0-.2,0-.3,0,0,0,0,0,0h0c0-.2,0-.3-.3-.4h0c.1,0,.3,0,.4,0,0,0,.2,.2,.2,.3,0,0,0,0,.1,0,0,0,0,0,0,0h0s0,0,0,0c0,0,0,0,0,0,0,0,0,0,0,.1s0,0,0,.1c0,0,0,.2,0,.2,0,0,0,0,.1,0,0,0,0,0,.1,0,0,0,0,0,0,0h0c0-.1,.1-.2,0-.4h0c.1,0,.2,.2,.2,.3Z"/><path class="ad" d="M22.6,10.6h0c-.3-.1-.7-.4-.9-.7-.1,.4-.3,.8-.3,1,.1,.2,.2,.4,.2,.7s0,.6-.3,.8H6.2c0-.1,.1-.2,.2-.3,0-.1,0-.3,0-.4,0-.1,.1-.3,.3-.4,0,0,0-.2,0-.3,0,0,0,0,0,0,0,0,0,0,0,0,0,0,0,0,0,0h0c0-.1,0-.1,0-.1,0-.2,0-.3,.1-.5,0,0,.1-.1,.2-.1,0,0,0-.2,0-.3,0-.1,.1-.2,.2-.3,0,0,0,0,0,0,0,0,0,0,0,0,0,0,0,0,0-.1-.4,.1-.6,.4-.8,.6h0c0-.1,0-.2,0-.3,0,0,0,.2-.1,.3,0,.1-.1,.2-.1,.4h0c-.2-.2-.2-.4-.2-.6,0,0,0-.1,0-.2,0,0-.1-.2,0-.3-.1,0-.3,0-.4,0-.4,0-.9,0-1.4,0,0,.1,.2,.2,.2,.4h0c-.2,0-.6-.3-.9-.6-.3-.3-.6-.7-.6-.9h0c.4,.2,1.4,.6,1.7,.6h0s0,0,0,0c0,0-.2,.2-.3,.2,.5,0,1,0,1.5,0h.4s0,0,0,0c0,0-.1,0-.2,0-.1,0-.2-.2-.2-.4-.4,0-.9,0-1.5,0h0c.2-.3,.7-.5,1-.6,.1,0,.3,0,.4,0,.2,0,.4,0,.6,0s.1,0,.2,0c.3-.5,.7-.5,1-.4h0c.2,0,.5,0,.8,0,0-.2,.4-.4,.7-.5,.3,0,.5-.2,.6-.4h0c.1,0,0,.3,0,.6,.1,0,.3-.1,.4-.2h0s0,0,0,0c0,0,0,0,0,0h0c0,.2,0,.5-.1,.7,0,0,.2,0,.3,0h0c-.3,.2-.7,.5-.8,.5,0,0,0,0,0,0s0,0,.1,.1h0c0,.2,0,.3,.2,.4h0c.2,0,.5,.2,.6,.5h0c-.2,0-.4,0-.5,0,0,0,0,0,0,0,0,.2,0,.2,.2,.2,0,0,0,0,0,0,.1,0,.2,0,.3,.2,0,.1,.1,.3,.1,.4h0c-.2,0-.4-.2-.5-.2s-.2,0-.2,.2c0,.1,0,.2,0,.2,0,0,0,0,.2,0,0,0,.2,0,.3,.2,.1,.1,.2,.3,.2,.5h0c-.2-.1-.5-.2-.7-.2,0,0,0,0,0,0h0s0,0,0,.2c0,.2,0,.2,.2,.3,.2,0,.4,.2,.5,.5h0c-.2,0-.4,0-.5,0,0,0,0,0,0,0,0,0,0,.2,0,.5,.4-.1,.8-.2,1.2-.2,.1,0,.2,0,.3,0,0,0,0,0,.1,0,.3-.2,.3-.5,.3-1,0-.1,0-.3,0-.5s.1-.5,.3-.7c.2-.2,.5-.5,.9-.8,.8-.5,1.9-1.2,3.3-1.9,.1,0,.3-.1,.4-.2h0c0,.2-.2,.4-.2,.6,0,.4,0,.7,0,.8,0,0,.2,.1,.4,.1,.1,0,.3,0,.5-.1,.5-.2,1.8-.7,2.8-1.1h0c-.5,.3-.8,.6-1.1,.9-.3,.3-.4,.6-.4,.8,0,0,0,0,0,0,0,.2,.2,.4,.6,.5h0c-.9,.3-1.5,.9-1.7,1.5,0,0,0,0,0,0,0,.1,0,.2,0,.3,0,0,0,0,0,0s0,0,0,0c0,0,0,.1,0,.2,0,.2,.1,.3,.3,.5h0s0,0-.2,0c-.2,0-.5,0-.8,.1-.3,.1-.6,.3-.7,.6,.6,0,1.7,0,2.4,.3,.5,.1,1.2,0,1.6-.2,.2-.1,.3-.2,.3-.4-.3,.1-.5,.2-.8,.2s-.6,0-.8-.2c-.1,0-.2-.2-.3-.3,0-.1-.1-.3-.1-.4s0-.3,.1-.4c0-.1,.2-.2,.3-.3,.2-.2,.5-.3,.8-.3s.8,0,1.2,.3c0-.1,.1-.4,.2-.6-.3,0-.8,0-1.1,0h0c0,0,.1-.1,.2-.2,.6-.6,1.7-1.6,2.1-2.1h0c-.2,.7,0,2.4,.3,2.9h0Z"/></g><g id="f"><path class="ah" d="M7.6,8.5c-.8,.1-2.9,.3-3.7,.2l.2,.4c1.3-.1,2.6,.3,3.8-.1l-.3-.4Z"/><path class="ae" d="M7.8,8.9s0,0,0,0c0,0,0,0,0,0h0Zm-.2-.5h0s0,0,0,0c-.3,0-.7,0-1.2,.1h0s0,0,0,0c0,0,0,0,0,0h0c.5,0,.9-.1,1.2-.1h0s0,0,0,0Zm-.5,.6s0,0,0,0h0s0,0,0,0Zm-.3,0h0s0,0,0,0h0Zm-.2,0h-.3s0,0,0,0t0,0h-.2s0,0,0,0c0,0,0,0,0,0h.2s0,0,0,0c0,0,0,0,0,0h0s0,0,0,0h.1s0,0,0,0h.1s0,0,0,0h0Zm1.2-.2s0,0,0,0c0,0,0,0,0,0h0Zm-.2-.5h0s0,0,0,0c-.3,0-.7,0-1.2,.1h0s0,0,0,0h0s0,0,0,0h0c.5,0,.9-.1,1.2-.1h0s0,0,0,0Zm-.5,.6s0,0,0,0h0s0,0,0,0Zm-.3,0h0s0,0,0,0h0Zm-.2,0h-.3s0,0,0,0t0,0h-.2s0,0,0,0h0s0,0,0,0c0,0,0,0,0,0h.2s0,0,0,0c0,0,0,0,0,0h0s0,0,0,0h.1s0,0,0,0h.1s0,0,0,0h0Zm1.2-.2s0,0,0,0c0,0,0,0,0,0h0Zm-.3-.5s0,0,0,0c-.3,0-.7,0-1.2,.1h0s0,0,0,0h0s0,0,0,0h0c.5,0,.9-.1,1.2-.1h0s0,0,0,0h0Zm-.5,.6h0s0,0,0,0c0,0,0,0,0,0Zm-.2,0s0,0,0,0h0Zm-.2,0h-.3s0,0,0,0t0,0h-.2s0,0,0,0h0s0,0,0,0c0,0,0,0,0,0h.2s0,0,0,0c0,0,0,0,0,0h0s0,0,0,0h.1s0,0,0,0h.1s0,0,0,0h0Zm1-.6h0s0,0,0,0h0c-.3,0-.7,0-1.2,.1h0s0,0,0,0h-.5c-.5,0-1,0-1.5,0h0c-.1,0-.2,0-.3,0h0l.2,.4h0s0,0,.1,0t0,0h0c.5,0,.9,0,1.4,0,.1,0,.3,0,.4,0,0,0,0,0,0,0,0,0,0,0,0,0,0,0,0,0,0,0h.2s0,0,0,0c0,0,0,0,0,0h0s0,0,0,0h.3c0,0,.1,0,.2,0h0c0,0,.2,0,.3,0,0,0,.1,0,.2,0h0s0,0,0,0c.2,0,.3,0,.4-.1h0s0,0,0,0h0l-.3-.5Zm-.2,.6s0,0,0,0c0,0,0,0,0,0h0c0,0-.2,0-.3,0,0,0,0,0,0,0,0,0,0,0,0,0,0,0-.1,0-.2,0h0s0,0,0,0c0,0,0,0,0,0h-.3s0,0,0,0t0,0h-.2s0,0,0,0c-.1,0-.3,0-.4,0-.3,0-.7,0-1,0s-.2,0-.4,0,0,0,0,0t0,0h-.1l-.2-.3c0,0,.2,0,.2,0,0,0,0,0,0,0,0,0,0,0,0,0h0c.5,0,1.1,0,1.5,0h.5s0,0,0,0h0c.5,0,.9-.1,1.2-.1h0s0,0,0,0h0l.2,.4s0,0,0,0h0s0,0,0,0c-.1,0-.2,0-.3,0h0Zm-.8,0h-.3s0,0,0,0t0,0h-.2s0,0,0,0h0s0,0,0,0c0,0,0,0,0,0h.2s0,0,0,0c0,0,0,0,0,0h0s0,0,0,0h.1s0,0,0,0h.1s0,0,0,0h0Zm.2,0h0s0,0,0,0h0Zm.3,0s0,0,0,0h0s0,0,0,0Zm.5-.6h0s0,0,0,0c-.3,0-.7,0-1.2,.1h0s0,0,0,0h0s0,0,0,0h0c.5,0,.9-.1,1.2-.1h0s0,0,0,0Zm.2,.4s0,0,0,0c0,0,0,0,0,0h0Zm-1.2,.2h-.3s0,0,0,0t0,0h-.2s0,0,0,0h0s0,0,0,0c0,0,0,0,0,0h.2s0,0,0,0c0,0,0,0,0,0h0s0,0,0,0h.1s0,0,0,0h.1s0,0,0,0h0Zm.2,0h0s0,0,0,0h0Zm.3,0s0,0,0,0h0s0,0,0,0Zm.5-.6h0s0,0,0,0c-.3,0-.7,0-1.2,.1h0s0,0,0,0h0s0,0,0,0h0c.5,0,.9-.1,1.2-.1h0s0,0,0,0Zm.2,.4s0,0,0,0c0,0,0,0,0,0h0Z"/></g><g id="g"><path class="ah" d="M4.5,9.4c-.5-.2-1.4-1-1.5-1.6,.4,.3,1.4,.6,1.7,.6-.1,0-.4,.3-.6,.3,.1,.2,.3,.4,.4,.6Z"/><path class="ae" d="M4.7,8.5c-.3,0-1.3-.3-1.7-.6h0c0,.3,.3,.6,.6,1,.3,.3,.7,.6,.9,.6h0c0-.1-.1-.3-.2-.4,0,0,0,0,0,0,0,0,0,0,0,0,0,0-.1-.2-.2-.2,0,0,.1,0,.2,0,0,0,0,0,0,0t0,0c.1,0,.3-.1,.3-.2,0,0,0,0,0,0h0Zm-.4,.2s0,0,0,0,0,0,0,0c0,0,0,0-.1,0h0c0,.1,0,.2,.2,.3,0,0,0,0,0,0s0,0,0,0c0,0,0,0,0,0,0,.1,.1,.2,.2,.3-.2,0-.5-.3-.8-.6-.3-.3-.5-.6-.6-.9,.2,.1,.5,.3,.8,.4,.3,.1,.6,.2,.8,.2,0,0-.2,.2-.4,.2t0,0Z"/></g><g id="h"><path class="ah" d="M6.1,9.2h0c.1,.2,.9,.1,1.3-.1v-.2h-.3v.2l-.3-.2v.2l-.2-.2v.2l-.3-.2v.2c-.1,0-.2-.2-.2-.3,0,0-.1,.1-.2,.2Z"/><path class="ae" d="M7.1,9.1h0Zm-.2,0h0Zm-.2,0h0Zm-.3,0h0s0,0,0,0h0s0,0,0,0c0,0,0,0,0,0h0c0,0,0,0,0,0Zm.7,0h0Zm-.3,0h0Zm-.2,0h0Zm-.3,0h0s0,0,0,0h0s0,0,0,0c0,0,0,0,0,0h0c0,0,0,0,0,0h0Zm1-.3h-.7v.2h-.3c0,0,0,0,0,0t0,0s0,0,0,0t0,0s0-.1,0-.2h0c0,0-.1,0-.1,.2t0,0h0s0,0,0,0h0c0,0,.2,.1,.4,.1s.1,0,.2,0c.3,0,.5-.1,.7-.2,0,0,0,0,0,0h0Zm0,0s0,0,0,0c-.2,0-.4,.1-.6,.1-.1,0-.2,0-.3,0,0,0-.1,0-.2,0,0,0,0,0,0,0t0,0s0,0,0,0c0,0,0,0,0,0,0,0,0,0,0-.1,0,0,0,0,0,.1,0,0,0,0,0,0,0,0,0,0,0,0,0,0,0,0,0,0,0,0,0,0,0,0,0,0,0,0,0,0,0,0,0,0,0,0h0v-.2h.2v.2h0v-.2h.1v.2h0v-.2h.2v.2h0v-.2h.3c0,0,0,0,0,0,0,0,0,0,0,0,0,0,0,0,0,0h0Zm-.9,0h0s0,0,0,0h0s0,0,0,0c0,0,0,0,0,0h0c0,0,0,0,0,0Zm.3,0h0Zm.2,0h0Zm.2,0h0Zm-.7,0h0s0,0,0,0c0,0,0,0,0,0h0c0,0,0,0,0,0Zm.3,0h0Zm.2,0h0Zm.2,0h0Zm-.8,0h0s0,0,0,0,0,0,0,0t0,0Z"/><g id="i"><path class="ah" d="M6.2,8.5c0,0,0,.2,.2,.3,0,0,0-.2,0-.3h.3v-.2h.2c-.2-.1-.5,.2-.6,.2Z"/><path class="ae" d="M6.6,8.2h0c0,0,0,0,0,0h0s0,0,0,0h0Zm-.1,.1h0c0,0,0,0,0,0h0s0,0,0,0t0,0h0s0,0,0,0h0Zm-.1,0h0s0,0,0,0h0s0,0,0,0c0,0,0,0,0,0h0s0,0,0,0h0s0,0,0,0c0,0,0,0,0,0h0s0,0,0,0h0c0,0,0,0,0,0h0Zm.3-.2h0q0,0,0,0h0s0,0,0,0h0s0,0,0,0h0Zm-.2,.1h0s0,0,0,0t0,0h0Zm-.1,0h0s0,0,0,0h0s0,0,0,0c0,0,0,0,0,0h0s0,0,0,0h0s0,0,0,0h0c0,0,0,0,0,0h0s0,0,0,0h0Zm.3-.2h0q0,0,0,0h0s0,0,0,0h0s0,0,0,0h0Zm-.2,0h0s0,0,0,0t0,0h0Zm-.1,0h0s0,0,0,0h0s0,0,0,0c0,0,0,0,0,0h0s0,0,0,0h0s0,0,0,0h0c0,0,0,0,0,0h0s0,0,0,0h0Zm.4-.4c-.2,0-.5,.3-.6,.4h0s0,0,0,0h0s0,0,0,0c0,0,0,0,0,0t0,0s0,0,0,0c0,0,0,0,.1,0h0s0,0,0-.1h0c0,0,0-.1,0-.1h.3v-.2h.2v-.2h0Zm0,.2h-.3v.2h-.1s0,0,0,0h0s0,0,0,0c0,0,0,0,0,0h0s0,0,0,0c0,0,0,0,0,0,0,0,0,0,0,0,0,0,0,0,0,0,0,0,0,0,0,0,0,0,0,0,0,0h0s0,0,0,0c0,0,.3-.3,.6-.4v.2Zm-.4,.2h0s0,0,0,0h0s0,0,0,0c0,0,0,0,0,0h0s0,0,0,0h0s0,0,0,0h0c0,0,0,0,0,0h0s0,0,0,0h0Zm.1-.1h0s0,0,0,0t0,0h0Zm.2-.1h0q0,0,0,0h0s0,0,0,0h0s0,0,0,0h0Zm-.3,.2h0s0,0,0,0h0s0,0,0,0c0,0,0,0,0,0h0s0,0,0,0h0s0,0,0,0h0c0,0,0,0,0,0h0s0,0,0,0h0Zm.1-.1h0s0,0,0,0t0,0h0Zm.2-.1h0q0,0,0,0h0s0,0,0,0h0s0,0,0,0h0Z"/></g></g><g id="j"><path class="ah" d="M21.3,10.9c0-.1-.3-.3-.4-.4,0-.2,.2-.4,.3-.7-.3,0-.8,0-1.1,0,.6-.6,1.9-1.7,2.3-2.3-.1,.7,0,2.4,.3,2.9-.3-.1-.7-.4-.9-.7-.1,.4-.3,.9-.4,1h0Z"/><path class="ae" d="M22.6,10.6c-.3-.6-.4-2.2-.3-2.9h0c-.4,.5-1.4,1.5-2.1,2.1,0,0-.1,.1-.2,.2h0c.3,0,.8,0,1.1,0-.1,.3-.2,.5-.2,.6,0,0,0,0,0,0h0s0,0,0,0c0,0,.1,0,.2,.2,0,0,0,0,0,0,0,0,0,0,0,.1h0c0-.2,.2-.6,.3-1,.2,.3,.5,.5,.9,.6h0Zm-.9-.7h0s0,0,0,0c-.1,.4-.3,.8-.3,1,0,0,0,0,0,0,0,0,0,0,0,0,0,0,0,0-.1-.1t0,0c0,0-.2-.1-.2-.2,0-.1,.2-.4,.3-.6,0,0,0,0,0,0h0c-.3,0-.8,0-1.1,0h.1c.6-.7,1.6-1.7,2-2.2,0,.4,0,.9,0,1.5,0,.6,.2,1.1,.3,1.4-.3-.1-.6-.4-.8-.6Z"/></g><g id="k"><path class="ah" d="M21.4,11s0,0,0,0c0,0,0,0,0-.1,0,0,0,0-.1-.1,0,0-.2-.1-.2-.2,0,0,0,0,0,0-.4-.2-.8-.3-1.2-.3-.5,0-1.2,.4-1.2,1s0,.1,0,.2h0c0,0,0,.1,0,.2,0,0,0,0,0,0,0,0,0,0,0,0,0,0,0,0,0,0h0c0,.1,.2,.2,.3,.2,.2,0,.4,.1,.6,.1s.6,0,.9-.2c0,.4-.6,.6-1.2,.7-.1,0-.2,0-.4,0-.1,0-.3,0-.4,0-.7-.2-1.9-.3-2.5-.3,.2-.4,.7-.7,1.2-.7,.1,0,.2,0,.4,0,0,0,0,0,0,0,0,0,.1,0,.2,0,0,0,0,0,0,0,0-.1-.2-.2-.2-.3-.1-.3-.1-.6,0-.9,0,0,0-.2,.2-.2,.3-.4,.8-.8,1.4-1,0,0,0,0,0,0,0,0,0,0,0,0-.1,0-.3-.1-.3-.2,0,0,0,0,0,0,0,0,0-.1-.1-.2-.2-.5,.5-1.1,1.4-1.7-1,.4-2.3,.9-2.8,1.1h0c0,0-.2,0-.3,0h0c-.3,0-.5,0-.7-.1,0,0,0,0,0,0,0-.1,0-.4,0-.7,0-.2,0-.3,.2-.5-3,1.6-4.9,2.7-4.9,3.6s0,.8,0,1.1c0,.1,0,.2-.2,.3,0,0,0,0,0,0,0,0-.1,0-.2,.1,0,0,0,0,0,0,0,0,0,0,0,0h0s0,0,0,0c0,0-.1,0-.2,0-.4,0-.8,.1-1.2,.2,0,0,0,0,0,0-.2-.4-.1-.6,0-.6,0,0,.4,0,.5,0,0-.3-.3-.4-.5-.5-.1,0-.2,0-.2-.1,0,0,0,0,0,0,0,0,0,0,0,0,0-.2,0-.2,.1-.2,.2,0,.5,.1,.7,.2,0-.5-.3-.6-.5-.6-.1,0-.2,0-.2-.3,0-.2,0-.2,.2-.2s.4,0,.6,.2c0-.2,0-.3-.2-.4,0-.1-.2-.2-.3-.2-.2,0-.2,0-.2-.2,0-.2,.3-.1,.6,0-.2-.3-.5-.4-.6-.5-.1,0-.2-.2-.2-.4-.2,0-.1-.2,0-.2,0,0,.5-.3,.8-.5-.1,0-.2,0-.3,0,0,0,0,0,0,0,0-.2,.1-.5,.1-.6,0,.2-.3,.2-.6,.3,0-.2,.2-.5,0-.6,0,.4-1.1,.4-1.3,.9,0,0,0,0,0,0h0c-.3,0-.6,0-.8,0-.4,0-.8-.1-1.1,.4,0,0-.1,0-.2,0h0c-.2,0-.3,0-.5,0-.5,0-1.1,.3-1.4,.7,.6-.1,1.1-.1,1.5,0h0c0,.2,0,.4,.3,.4h0s0,0,0,0c0,0,0,0,0,0,0,0,0,0,0,0,0,0,0,0,0,0h0s0,0,0,0h0s0,0,0,0c0,0,0,0,0,0,0,0,0,0,0,0t0,0s0,0,0,0c0,0,0,0,0,0,0,0,0,0,0,0h0s0,0,0,0h0s0,0,0,0h0s0,0,0,0t0,0s0,0,0,0c.2-.1,.5-.1,.8,.3,0,0,0,0,0,0,0,0,0,0,0,0,0,.1,.2,.2,.2,.4h0c-.1,0-.3,0-.5,0t0,0h0s0,0,0,0,0,0,0,0c0,0,0,0,0,0h0s0,0,0,0,0,0,0,0c0,0,0,0,0,0h0s0,0-.1,0h0s0,0,0,0c0,0,0,0,0,0h0s0,0,0,0c0,0,0,0,0,0t0,0h0s0,0,0,0h0s0,0,0,0c0,0,0,0,0,0h0s0,0,0,0c0,0,0,0-.1,0,0,0,0,0,0,0h0c0,0-.1,0-.2,0h0s0,0,0,0h0s0,0,0,0h0s0,0,0,0h0s0,0,0,0h0s0,0,0,0h0c0,.2,.2,.4,.2,.5,0,.2,0,.4,.2,.6,0-.4,.2-.5,.2-.8,0,.1,0,.2,.1,.4,0,0,0-.1,0-.2h0q0,0,0,0h0c0,0,.1-.2,.2-.2,0,0,.2-.1,.3-.1,0,0,.1,0,.2,0h0c0,0,0,0,0,.1,0,0,0,0,0,0,0,0,0,0,0,0h0c-.3,.1-.3,.4-.2,.7t0,0s0,0,0,0c0,0-.1,.2-.2,.3h0c0,0,0,.2,0,.2,0,0,0,0,0,0h-.2c0,.2,0,.2,0,.2,0,0,0,0,0,0,0,0,0,0,0,0,0,.1,0,.2,0,.3t0,0c-.3,.2-.3,.6-.2,.8h0c0,0-.2,.2-.2,.3,0,.1,0,.3,0,.4,0,0,0,0,0,.1,0,0,0,.2,.2,.3t0,0c0,.1-.1,.2-.1,.4h0c0,0-.2,0-.3,0h0c0-.2-.3-.2-.5-.2h0c0-.2-.3-.3-.5-.3h0c0-.2-.1-.4-.4-.5h0c0,0,0-.2,0-.2,0-.3-.1-.6-.3-.8,0,0,0,0,0,0h0c0-.2,.2-.3,.4-.4,0,0,0,0,0,0,0,0,.1-.2,0-.3,0,0,0,0,0,0h0c0,0,0-.1,0-.1,0,0,0,0,0,0t0,0h0s0,0,0,0c0,0,0,0-.1,0,0,0-.1,.1-.2,.2,0,0,0-.2,0-.3,0,0,0,0,0-.1s0,0,0-.1c0,0,0,0,0,0t0,0h0c0,0,0-.1-.1-.1t0,0s0,0,0,0c0,0,0,0,0,0,0,0-.1,0-.2,0h0s0,0,0,0c0,0-.1,.2,0,.3,0,.1-.1,.3,0,.4h0c-.2,0-.2-.5-.4-.5,0,0,0,0,0,0h0s0,0,0,0c0,0-.1,0-.2,0,0,0,0,0,0,0h0c0,.1,0,.3,0,.4,0,.1,0,.2,0,.3,0,0,0,0,0,0,0,0,0,0,0,0,0,0,0,0,.1,0,0,0,0,0,0,0,0,0,0,.2,0,.3,0,.1-.1,.4,0,.5,0,0,0,.1,0,.2,0,0,0,.1-.1,.2-.1,0-.1,.4-.3,.5-.2,0-.2,.2-.1,.4,0,0,0,0,0,0h0c0,0,0,.1,.1,.1,0,0,0,0,0,0h0s0,0,0,0c0,0,.1,0,.2,0,0,0,0-.1,0-.2,0-.2,.3-.4,.3-.7,0,0,0,.1,0,.2,0,.2,.1,.4,.2,.5,0,0,0,.1,.1,.2,0,.1,.2,.3,.3,.4h0c.2,.2,.4,.4,.6,.6,0,0,0,0,.1,.1,0,0,.1,.1,.2,.2,0,0,0,0,0,.1,0,0,0,.1,.1,.2,0,0,0,.1,.1,.2,0,0,0,0,0,0h0c0,0,0,.2,0,.3,0,0,0,.1,0,.2,0,0,0,0,0,.1,0,.1,0,.2,0,.4,.2-.2,.5-.8,.5-1,.1,0,.3,0,.4,0,0,0,0,0,0,0,0,0,.1,0,.2,0h0c0,0,.1,0,.2,0,0,0,0,0,0,0,0,0,.1,0,.2,0h0s0,0,0,.1h0s0,0,0,0h0s0,0,0,0h0c-.1,0-.3,.3-.2,.5h0c-.2,0-.2,.3-.3,.6,0,0,0,0,0,0,0,0,0,0,0,0,0,.1-.1,.2-.3,.3-.1,0-.2,.2-.3,.2,0,0,0,0,0,0-.5,.2-1.1-.2-1.2-.2,0,0-.2,0-.2,0h0s0,0,0,0h0c0,0-.1,0-.2,.2h0s0,0,0,0c0,0,0,.2,0,.3h0s0,0,0,0c0,0,0,0,0,0,0,0,0,0,0,0h0s0,0,0,0c0,0,0,.2,0,.2,0,0,0,0,0,0s0,0,0,0c0,0,0,0,0,.1h0s0,0,0,0h0c0,0,0,0,0,0h0c0,0,0,.1,0,.2s0,0,0,0c0,0,0,0,0,0,0,0,.1,0,.2,0,.2,0,.7,0,.8-.2,0,0,0,0,0,0h0s0,0,0,0c.3-.1,.7,0,.8,0,.1-.1,.5-.2,.6,0,.1,.2,.4,0,.5,.2,.1,.1,.4,0,.5,0h0s0,0,0,0c0,0,0,0,0-.2,0,0,0,0,0,0h0s0,0,0,0h0s0,0,0,0c0,0-.2-.1-.3,0-.1,0-.4,0-.6-.1,.2-1,1.6-1.8,1.7-2.2-.1,.6,.4,.8,.3,1.2,.3-.3,.3-.5,.3-.8h0c.2,0,.4-.2,.5-.4h0c.4,.1,.9,0,1.1-.4h0c.3,0,.5,0,.7,0,0,0,0,0,0,0-.1,.2,0,.8,.5,.8h0c0,0,0,0,0,.1,0,0,0,0,0,0,.2,.2,.5,.3,.8,.2h0c0,0,.1,.1,.2,.1h0c0,0,.2,0,.2,0,0,0,0,0,0,0-.3,0-.3,.2-.3,.4h0c-.2,0-.4,.1-.4,.2h0c0,0-.2,0-.4,0,0,0,0,0,0,0,0,0,0,0,0,0,0,0-.1,0-.2,0h0c-.2,0-.3,0-.5,0,0,0-.2-.1-.2-.2-.2-.3-.5-.5-.7-.4,0,0,0,0,0,0,0,0,0,0,0,0,0,0,0,0,0,0,0,0,0,0,0,0,0,0,0,.1,0,.2h0c0,.1,0,.2,.2,.3,.4,0,.6,.2,.7,.4h0c-.4,.2-.9-.4-1.2-.2,0,0,0,0,0,0h0c0,.1-.1,.2,0,.3h0c0,0,0,0,0,0h0c0,0,0,.1,.2,.2,0,0,.1,0,.2,0,0,0,0,0,0,0h0c0,0,0,0,0,.1,0,0,0,0,0,0,0,0,0,0,0,0,0,0,0,0,0,0h0s0,0,0,0c0,0,0,0,0,0,0,0,0,0,0,0h0c.1,0,.2,0,.3,0,.5-.4,.7,0,.9-.2,0,0,.2-.2,.4,0,.1,.1,.3,.1,.3,0,0,0,.1-.1,.3-.1s0,0,0,0c0,0,0,0,0,0,0,0,.1,0,.2,.1,.2,.2,.6,.4,.7,.2,0,0,0,0,0,0t0,0s0,0,0,0c0,0,0-.2,0-.2h0s0,0,0,0c0,0,0,0,0,0,0,0,0,0,0,0,0,0-.2,0-.2,0-.1,0-.4,0-.6,0,1.1-.3,1.8-.9,2.3-1.6,.1,.2,.6,.1,.8,.3,0-.1,0-.2,0-.3,0,0,0,0,0,0,0,0,0,0,0,0h0c0,0,0,0-.1-.1,0,0,0,0,0,0,0,0,0,0-.1,0,0,0,0,0-.1,0-.3,0-.7-.1-1-.3-.3-.2-.2-.4-.1-.6h0c.1-.2,.3-.4,.5-.5h0s0,0,0,0c0,0,0,0,.1,0t0,0s0,0,.1,0c0,0,0,0,0,0,.1,.2,.5,.4,.8,.3,0,0,0,0,0,0,0,0,.1,.1,.2,.1,.2,0,.5,0,.6,0h0s0,0,0,0c0,0,0,0,.1,0,.2,0,.5,0,.6,0h0c.1,0,.3,.1,.4,0,0,0,0,0,.1,0h0s0,0,0,0c0,0,0,0,0,0,0,0,0,0,0,0h0c0,.1,0,.1,.1,.2,0,0,0,0,0,0h0s0,0,0,0h0s0,0,0,0c0,0,0,0,0,0,0,0,0,0,0,0,0,.1,0,.3,.2,.4h0c0,.1-.1,.3,0,.5h0c0,0-.1,.2-.2,.2h0c0,0,0,.1,0,.2,0,0,0,0,0,0-.3,.4-.7,.9-1.5,0-.2-.2-.3-.2-.5-.2,0,0,0,0,0,0,0,0,0,0,0,0,0,0,0,0,0,0,0,0,0,.1,0,.2h0c0,0,0,0,0,0,0,.2,.2,.2,.3,.3s0,0,0,0c-.3,0-.5,0-.5,.1h0c0,0,0,.1,0,.2,0,0,0,0,0,0,0,0,0,0,0,0s0,0,0,0h0c.2,.2,.6,0,.8,.1-.2,0-.4,.1-.4,.2t0,0s0,0,0,0c0,0,0,.1,0,.2,0,0,0,0,0,0h0s0,0,0,0c0,0,0,0,.1,0,.1,0,.3,0,.4-.2,.2-.2,.7-.2,.9-.1,.1,.1,.5,0,.7,0,.2-.2,.7,0,.8,.1,0,0,.1,0,.2,.1h0c0,0,.1,0,.1,0,0,0,0,0,0,0h0s0,0,0,0h0s0,0,0-.2,0,0,0,0c0,0,0,0,0,0t0,0h0c-.1-.2-.6,0-.7-.5,0-.5,.7-1.9,0-2.7,.2,.2,.8,.5,1.1,.5-.3-.6-1-1-1.8-1.3,0,0-.1,0-.2,0-.1,0-.2-.1-.3-.2h-.1c.4-.1,.8-.2,1.2-.3,.1,0,.3,0,.4-.1,.5-.2,1-.5,1.3-.9,0,0,0,0,0,0,0,0,0-.2,.1-.2,0-.2,.1-.3,.1-.5,0-.3,0-.5-.2-.7Zm-1.7,.5c-.3,0-.5,0-.5-.2s.3-.3,.5-.3,.4,0,.5,.2c0,0,0,0,0,0-.3,.2-.5,.2-.7,.2Z"/><path class="ae" d="M9.8,11.9h0Zm-1.9-3s0,0,0,0h0s0,0,0,0Zm-.3-.4s0,0,0,0c-.2-.2-.3-.3-.5-.4-.1,0-.2,0-.3,0,0,0,0,0,0,0,0,0,0,0,0,0,0,0,0,0,0,0h0s0,0,0,0c0,0,0,0,0,0,0,0,0,0,0,0h0s0,0,0,0t0,0s0,0,0,0h0s0,0,0,0c0,0,0,0,0,0h0s0,0,0,0h0c0,0,0,0,0,0t0,0s0,0,0,0c0,0,0,0,0,0h0s0,0,0,0c0,0,0,0,0,0,0,0,0,0,0,0h0s0,0,0,0h0s0,0,0,0h0s0,0,0,0c0,0,0,0,0,0t0,0s0,0,0,0c0,0,0,0,0,0h0c0,0,.2,0,.3,0,.1,0,.2,0,.3,.2,0,0,0,0,.1,.1,0,0,0,0,0,0h0s0,0,0,0t0,0h0Zm0,.7h0Zm-1,0h0s0,0,0,0h-.1s0,0,0,0h0c0,0,.1,0,.2,0h0Zm-.2,0h0s0,0,0,0c0,0,0,0-.1,0h0s0,0,0,0t0,0h0s0,0,0,0c0,0,0,0,0,0,0,0,0,0,.2,0s0,0,0,0t0,0Zm3.4,2.8h0Zm-1.9-3s0,0,0,0h0s0,0,0,0Zm-.3-.4s0,0,0,0c-.2-.2-.3-.3-.5-.4-.1,0-.2,0-.3,0,0,0,0,0,0,0,0,0,0,0,0,0,0,0,0,0,0,0h0s0,0,0,0c0,0,0,0,0,0,0,0,0,0,0,0h0s0,0,0,0t0,0s0,0,0,0h0s0,0,0,0c0,0,0,0,0,0h0s0,0,0,0h0c0,0,0,0,0,0t0,0s0,0,0,0c0,0,0,0,0,0h0s0,0,0,0c0,0,0,0,0,0,0,0,0,0,0,0h0s0,0,0,0h0s0,0,0,0h0s0,0,0,0c0,0,0,0,0,0t0,0s0,0,0,0c0,0,0,0,0,0h0c0,0,.2,0,.3,0,.1,0,.2,0,.3,.2,0,0,0,0,.1,.1,0,0,0,0,0,0h0s0,0,0,0t0,0h0Zm-1,.6h0s0,0,0,0h-.1s0,0,0,0h0c0,0,.1,0,.2,0h0Zm-.2,0h0s0,0,0,0c0,0,0,0-.1,0h0s0,0,0,0t0,0h0s0,0,0,0c0,0,0,0,0,0,0,0,0,0,.2,0s0,0,0,0t0,0Zm3.4,2.8h0Zm-1.9-3h0s0,0,0,0c0,0,0,0,0,0Zm-.3-.4c-.2-.2-.3-.3-.5-.4-.1,0-.2,0-.3,0,0,0,0,0,0,0,0,0,0,0,0,0,0,0,0,0,0,0h0s0,0,0,0c0,0,0,0,0,0,0,0,0,0,0,0h0s0,0,0,0t0,0s0,0,0,0h0s0,0,0,0c0,0,0,0,0,0h0s0,0,0,0h0c0,0,0,0,0,0t0,0s0,0,0,0c0,0,0,0,0,0h0s0,0,0,0c0,0,0,0,0,0,0,0,0,0,0,0h0s0,0,0,0h0s0,0,0,0h0s0,0,0,0c0,0,0,0,0,0t0,0s0,0,0,0c0,0,0,0,0,0h0c0,0,.2,0,.3,0,.1,0,.2,0,.3,.2,0,0,0,0,.1,.1,0,0,0,0,0,0h0s0,0,0,0t0,0h0s0,0,0,0Zm-1,.6s0,0,0,0h-.1s0,0,0,0h0c0,0,.1,0,.2,0h0Zm-.3,0s0,0,0,0c0,0,0,0-.1,0h0s0,0,0,0t0,0h0s0,0,0,0c0,0,0,0,0,0,0,0,0,0,.2,0s0,0,0,0t0,0h0Zm15,1.7s0,0,0,0c0,0,0,0,0,0,0,0,0,0,0,0,0,0,0,0,0,0,0,0,0,0,0,0,0,0,0,0,0-.1t0,0c0,0-.2-.1-.2-.2,0,0,0,0,0,0,0,0,0,0,0,0-.4-.2-.9-.3-1.2-.3s-.6,.1-.8,.3c-.1,0-.2,.2-.3,.3,0,.1-.1,.3-.1,.4s0,.3,.1,.4c0,0,.1,.2,.3,.3,.2,.1,.5,.2,.8,.2s.6,0,.8-.2c0,.1-.1,.3-.3,.4-.4,.2-1.1,.3-1.6,.2-.7-.2-1.8-.3-2.4-.3,.2-.2,.4-.4,.7-.6,.3-.1,.5-.1,.8-.1,0,0,.1,0,.2,0h0c-.1-.2-.2-.3-.3-.5,0,0,0-.1,0-.2,0,0,0,0,0,0,0,0,0,0,0,0,0,0,0-.2,0-.3,0,0,0,0,0,0,.2-.6,.8-1.2,1.7-1.5h0c-.3-.2-.5-.3-.6-.5,0,0,0,0,0,0,0-.2,0-.5,.4-.8,.2-.3,.6-.6,1.1-.9h0c-1,.4-2.3,.9-2.8,1.1-.2,0-.3,0-.5,.1-.2,0-.3,0-.4-.1-.1-.1-.2-.4,0-.8,0-.2,0-.3,.2-.5h0c-.1,0-.3,.1-.4,.2-1.4,.8-2.5,1.4-3.3,1.9-.4,.3-.7,.5-.9,.8-.2,.2-.3,.5-.3,.7s0,.3,0,.5c0,.5,0,.8-.3,1,0,0,0,0-.1,0,0,0-.2,0-.3,0-.4,0-.8,.1-1.2,.2-.2-.3-.1-.5,0-.5,0,0,0,0,0,0,0,0,.3,0,.5,0h0c0-.3-.3-.5-.5-.5-.2,0-.2-.1-.2-.3,0-.1,0-.2,0-.2h0s0,0,0,0c.1,0,.5,0,.7,.2h0c0-.2,0-.4-.2-.5-.1-.1-.2-.2-.3-.2,0,0-.1,0-.2,0,0,0,0-.1,0-.2,0-.2,0-.2,.2-.2s.4,0,.5,.2h0c0-.2,0-.3-.1-.4,0-.1-.2-.2-.3-.2,0,0,0,0,0,0-.1,0-.2,0-.2-.2,0,0,0,0,0,0,0,0,.3,0,.5,0h0c-.2-.3-.5-.4-.6-.5h0c-.1,0-.1-.2-.2-.3h0c0-.1-.1-.2-.1-.2s0,0,0,0c0,0,.5-.3,.8-.5h0c0,0-.2,0-.3,0,0-.2,.2-.5,.1-.7h0s0,0,0,0c0,0,0,0,0,0h0c-.1,0-.3,.1-.4,.2,0-.2,.1-.5,0-.6h0c0,.2-.3,.3-.6,.4-.3,.1-.6,.3-.7,.5-.3,0-.6,0-.8,0h0c-.4,0-.7-.1-1,.4,0,0-.1,0-.2,0-.2,0-.4,0-.6,0-.2,0-.3,0-.4,0-.3,0-.7,.3-1,.6h0c.6,0,1.1,0,1.5,0,0,.1,0,.3,.2,.4,0,0,0,0,.2,0h0s0,0,0,0c0,0,0,0,0,0h0s0,0,0,0t0,0s0,0,0,0c0,0,0,0,0,0h0s0,0,0,0c0,0,0,0,0,0,0,0,0,0,0,0h0s0,0,0,0h0s0,0,0,0h0s0,0,0,0c0,0,0,0,0,0t0,0s0,0,0,0c0,0,0,0,0,0h0c0,0,.2,0,.3,0,.1,0,.2,0,.3,.2,0,0,0,0,.1,.1,0,0,0,0,0,0h0c0,.1,.2,.2,.2,.4-.1,0-.3,0-.4,0h0s0,0,0,0c0,0,0,0-.1,0,0,0,0,0,0,0,0,0,0,0,0,0h0s0,0,0,0h0s0,0-.1,0h0s0,0,0,0c0,0,0,0,0,0h0s0,0,0,0,0,0,0,0,0,0,0,0,0,0,0,0c0,0,0,0,0,0,0,0,0,0,0,0h0s0,0,0,0c0,0,0,0,0,0h0s0,0,0,0c0,0,0,0,0,0h0s0,0,0,0h0s0,0-.1,0h0s0,0,0,0h0s0,0,0,0h0s0,0,0,0h0s0,0,0,0h0c0,.2,0,.3,0,.3,0,0,0,.1,0,.2,0,.2,0,.4,.2,.6h0c0-.2,0-.3,.1-.4,0,0,0-.2,.1-.3,0,0,0,.2,0,.3h0c.2-.3,.3-.5,.8-.6,0,0,0,0,0,.1,0,0,0,0,0,0,0,0,0,0,0,0-.1,0-.2,.2-.2,.3,0,.1,0,.3,0,.3,0,0-.1,0-.2,.1,0,.1-.1,.3-.1,.5,0,0,0,0,0,0h0c0,0,0,.1,0,.2,0,0,0,0,0,0,0,0,0,0,0,0,0,.1,0,.2,0,.3-.2,.1-.2,.3-.3,.4,0,.1,0,.3,0,.4,0,0-.2,.2-.2,.3,0,0,0,0,0,.1,0,.2,0,.5,.2,.7,0,0-.1,.2-.1,.4,0,0-.2,0-.3,0,0,0-.1-.1-.2-.1,0,0-.2,0-.3,0,0-.2-.3-.3-.5-.3,0,0,0-.2-.1-.2,0,0-.2-.2-.3-.3,0,0,0-.1,0-.2,0-.3-.1-.6-.3-.8,0-.2,.1-.3,.3-.4,0,0,0,0,0,0,0,0,.1-.2,.1-.3,0,0,0,0,0-.1,0,0,0,0,0,0t0,0s0,0,0,0c0,0,0,0,0-.1,0,0,0,0,0,0t0,0h0s0,0,0,0c0,0,0,0-.1,0,0,0,0,0-.1,0,0,0,0-.1,0-.2,0,0,0,0,0-.1s0,0,0-.1c0,0,0,0,0,0t0,0h0s0,0,0,0c0,0,0,0-.1,0,0,0,0,0,0,0h0s0,0,0,0c0,0-.1,0-.2,0h0s0,0,0,0c0,0,0,.2,0,.3,0,.1-.1,.3,0,.4,0,0,0-.1-.1-.2,0-.1-.1-.3-.3-.3h0s0,0,0,0c0,0-.1,0-.2,0,0,0,0,0,0,0,0,0,0,0,0,0,0,0,0,0,0,.1,0,.1,0,.2,.1,.3,0,0,0,.2,0,.2,0,0,0,0,0,0,0,0,0,0,0,0,0,0,0,0,0,0,0,0,.2,.1,.2,.2,0,0,0,.1,0,.2,0,.1-.1,.4,0,.5,0,0,0,.1,0,.2,0,0,0,.1-.1,.1,0,0-.1,.1-.1,.2,0,.1,0,.2-.2,.3,0,0-.2,0-.2,.2,0,0,0,.1,0,.2h0s0,0,0,0c0,0,0,0,0,0,0,0,0,0,.1,.1,0,0,0,0,0,0h0s0,0,0,0c0,0,0,0,.1,0,0,0,0,0,0,0,0,0,0-.1,0-.2,0,0,0-.2,.1-.3,0,0,.1-.2,.1-.3,0,.3,.2,.5,.4,.8,.2,.3,.4,.5,.6,.7,.5,.5,1.1,1.1,1.2,2.1h0c.2-.2,.5-.7,.5-1,.3,0,.5,0,.8-.1h0c0,0,.1,0,.2,0,0,0,0,0,0,.1h0s0,0,0,0h0c0,0,0,.1,0,.1,0,0-.1,.1-.2,.2,0,.1,0,.2,0,.3-.2,0-.2,.1-.2,.3,0,0,0,.2,0,.3,0,0,0,0,0,0,0,0,0,0,0,0,0,.1-.1,.2-.3,.4,0,0-.1,0-.2,.1-.1,0-.2,.1-.4,.1h0s0,0,0,0c0,0,0,0-.1,0-.3,0-.6-.2-.8-.3,0,0,0,0,0,0,0,0-.2,0-.2,0h0s0,0,0,0h0s0,0,0,0c0,0-.1,0-.1,.2,0,0,0,0,0,0,0,0,0,0,0,0,0,0,0,.2,0,.3,0,0,0,0,0,0t0,0h0s0,0,0,0c0,0,0,0,0,0,0,0,0,0,0,.1,0,0,0,0,0,0,0,0,0,0,0,0h0c0,0,0,.1,0,.2,0,0,0,0,0,0h0s0,0,0,0c0,0,0,0,0,0,0,0,0,0,.1,.1,0,0,0,0,0,0h0s0,0,0,0h0c0,0,.1,0,.2,.1,0,0,0,0,.2,0,0,0,.2,0,.3,0,.2,0,.3-.1,.4-.2,.2-.2,.4-.2,.6-.1,.1,0,.2,0,.3,0,0,0,.2-.1,.4-.1,0,0,.1,0,.2,.1,0,.1,.2,.1,.3,.1s.1,0,.2,0c0,0,.1,0,.2,0,.1,0,.3,0,.3-.2h0s0,0,0,0c0,0,0,0,0,0,0,0,0-.1,0-.2,0,0,0,0,0,0,0,0,0,0,0,0,0-.1-.2-.2-.4-.1-.1,0-.3,0-.5-.1,.1-.6,.7-1.1,1.1-1.5,.2-.2,.5-.4,.5-.6,0,.3,.1,.4,.2,.6,0,.1,.2,.2,.1,.4h0c.1-.1,.2-.3,.3-.4,0-.1,0-.2,0-.3,.2,0,.4-.2,.5-.4,.2,0,.4,0,.6,0,.2,0,.4-.2,.5-.4,.2,0,.4,0,.6,0,0,.1,0,.3,0,.5,0,.2,.3,.3,.5,.3,0,0,0,0,0,0,0,0,0,0,0,0,0,0,0,.1,.1,.2,.2,.1,.4,.1,.6,0,0,.1,.2,.2,.4,.2,0,0-.2,0-.2,.1,0,0,0,.1,0,.2,0,0-.2,0-.2,0,0,0-.1,.1-.1,.2,0,0-.2,0-.4,0,0,0,0,0,0,0,0,0,0,0,0,0,0,0-.1,0-.2,0-.3,0-.5,0-.8-.2,0-.1-.2-.2-.3-.3-.1,0-.2-.1-.3,0,0,0,0,0,0,0,0,0,0,0,0,0h0s0,0,0,0h0s0,0,0,0c0,0,0,.1,0,.2h0c0,0,0,.1,0,.1,0,0,0,.1,.2,.1,.4,0,.6,.2,.7,.4-.2,0-.4,0-.7-.1-.2,0-.4-.2-.6,0h0s0,0,0,0h0c-.1,.1-.1,.2-.1,.3,0,0,0,0,0,0h0s0,0,0,0c0,0,.1,.1,.2,.2,0,0,0,0,.1,0h0s0,0,0,0t0,0h0s0,0,0,0h0s0,0,0,0c0,0,0,0,0,0,0,0,0,0,0,0,0,0,0,0,0,0h0s0,0,0,0h0s0,0,0,0c0,0,0,0,0,0s0,0,0,0h0c.1,0,.2,0,.3,0,.3-.2,.5-.2,.6-.2,0,0,.2,0,.2,0,0,0,.1-.1,.2-.1s0,0,.1,0c0,0,.1,0,.2,0s.1,0,.2,0c0,0,.3-.2,.6,0,.2,.1,.4,.3,.6,.3,0,0,.1,0,.2-.1h0s0,0,0,0c0,0,0,0,0,0,0,0,0-.2,0-.2,0,0,0,0,0,0h0s0,0,0,0h0s0,0,0,0h0s0,0,0,0c0,0-.2,0-.2,0-.1,0-.4,0-.5,0,.5-.1,.9-.3,1.3-.6,.3-.3,.7-.6,.9-1,0,0,.2,.1,.4,.2,.2,0,.3,0,.4,.2h0c0-.1,0-.2,0-.3,0,0,0,0,0,0,0,0,0,0,0,0h0c0,0,0,0-.1-.1,0,0,0,0,0,0,0,0,0,0-.1,0,0,0,0,0-.1,0,0,0-.2,0-.3,0-.2,0-.5-.1-.7-.2-.1-.1-.2-.2-.2-.4s0-.2,0-.3t0,0h0c.1-.2,.3-.4,.5-.5,0,0,.1,0,.2,0h0c0,0,.1,0,.2,0,0,0,.2,.2,.3,.3,.2,0,.3,0,.5,0,0,0,.2,.1,.4,.2,.2,0,.4,0,.5,0h0s0,0,0,0c0,0,0,0,.1,0,.2,0,.5,0,.6,0,.1,.1,.3,.2,.5,0,0,0,0,0,0,0,0,0,0,0,0,0s0,0,0,0c0,0,0,0,0,0h0c0,.1,0,.1,.1,.2,0,0,0,0,0,0,0,0,0,0,0,0h0s0,0,0,0c0,0,0,0,0,0,0,0,0,0,0,0,0,0,0,0,0,0,0,.1,0,.3,.1,.3,0,.1-.1,.3,0,.5-.1,.1-.3,.3-.2,.5-.1,.2-.3,.5-.6,.5-.1,0-.2,0-.4,0-.1,0-.3-.2-.5-.4-.2-.2-.4-.2-.5-.2,0,0,0,0,0,0,0,0,0,0,0,0h0s0,0,0,0h0c0,0,0,.1,0,.2,0,0,0,0,0,0h0s0,0,0,0c0,.1,.1,.2,.2,.2,0,0,0,0,.1,0-.3,0-.4,0-.5,.1t0,0s0,0,0,0h0s0,0,0,0c0,0,0,.1,0,.2,0,0,0,0,0,0h0s0,0,0,0c0,0,0,0,.1,0,0,0,.2,0,.3,0,.1,0,.2,0,.3,0-.2,0-.3,0-.3,.2s0,0,0,0h0c0,0,0,.1,0,.2,0,0,0,0,0,0t0,0s0,0,0,0h0s0,0,0,0h0c.1,0,.3,0,.4-.2,.2-.2,.7-.2,.9-.1s.1,0,.2,0c.1,0,.3,0,.5-.2,.2-.2,.7,0,.8,.1,0,0,.1,0,.2,.1h0c0,0,.1,0,.1,0,0,0,0,0,0,0,0,0,0,0,.1,0,0,0,0,0,0,0,0,0,0,0,0,0,0,0,0,0,0-.2s0,0,0,0c0,0,0,0,0,0h0s0,0,0,0c0,0-.1,0-.2,0-.2,0-.4,0-.4-.3,0-.1,0-.4,.1-.7,0-.3,.2-.7,.2-1,0-.3,0-.6-.2-.8,.1,0,.2,.2,.4,.2,.2,0,.4,.2,.6,.2h0c-.1-.3-.4-.5-.7-.8-.3-.2-.7-.4-1.1-.5-.2,0-.4-.2-.6-.4,.3,0,.6,0,1-.1,.4,0,.7-.2,1-.4,.4-.2,.6-.4,.8-.7,0,0,0,0,0-.1,.2-.3,.3-.5,.3-.8s0-.5-.2-.7Zm0,1.5s0,0,0,0c-.2,.3-.6,.6-.9,.7-.1,0-.3,.1-.4,.2-.1,0-.3,0-.4,.1-.5,.1-.9,.2-1.2,.2h0s0,0,0,0c0,0,.1,0,.2,0,.1,.1,.2,.2,.3,.2,0,0,.1,0,.2,0,.7,.3,1.5,.6,1.8,1.2-.3,0-.8-.2-1-.5h0c.5,.5,.2,1.3,0,2,0,.3-.2,.6-.1,.7,0,.1,0,.2,.2,.3,0,0,.2,0,.3,0,.1,0,.2,0,.2,.1h0s0,0,0,0c0,0,0,0,0,0,0,0,0,0,0,0,0,0,0,.1,0,.2,0,0,0,0,0,0h0s0,0,0,0h0s0,0,0,0c0,0,0,0,0,0-.1,0-.3,0-.4-.1,0,0-.2-.2-.4-.2-.2,0-.4,0-.5,0-.2,.1-.5,.2-.6,0-.1-.2-.7,0-.9,.1,0,0-.2,.1-.3,.1h0s0,0,0,0h0s0,0,0,0,0,0,0,0h0c0,0,0-.1,0-.2h0s0,0,0,0h0s0,0,0,0c0,0,.2-.1,.3-.2h0c0-.1-.2,0-.4,0-.1,0-.3,0-.3,0h0s0,0,0,0,0,0,0,0c0,0,0,0,0,0,0,0,0,0,0,0,0,0,0-.1,0-.2,0,0,0,0,0,0h0c0,0,.2-.1,.5,0h0s0,0,0,0h0s0,0,0,0c0,0,0,0-.1,0,0,0-.2,0-.2-.2h0s0,0,0,0c0,0,0,0,0,0,0,0,0-.1,.1-.2h0s0,0,0,0c0,0,0,0,0,0h0s0,0,0,0c.1,0,.3,0,.4,.2,.3,.4,.6,.5,.8,.5h0c.3,0,.5-.3,.7-.5,0,0,0,0,0,0h0c0-.1,0-.2,0-.2h0c0,0,0-.1,.1-.1,0,0,0,0,0,0h0c0,0,0,0,0-.1,0,0,0,0,0,0,0-.1,0-.2,0-.3h0s0,0,0,0c0,0-.1-.2-.1-.3,0-.1,0-.2,0-.2h0c0,0-.1,0-.2-.1s-.1-.2-.1-.2h0s0,0,0,0c0,0,0,0-.1,0-.1,0-.3,0-.4,0t0,0h0c0,0-.2,0-.4,0-.2,0-.3,0-.4-.1h0c-.1,0-.3,0-.5,0,0,0-.1,0-.2,0-.1,0-.2,0-.2-.1h0c-.1,0-.3,0-.4,0-.1,0-.3-.2-.3-.2,0,0,0,0,0,0h0s0,0-.1,0c0,0,0,0,0,0,0,0,0,0,0,0,0,0,0,0,0,0,0,0,0,0,0,0h0s0,0,0,0h0c-.1,0-.4,.3-.5,.5,0,0,0,0,0,0t0,0c0,0,0,.2,0,.2,0,.2,0,.3,.2,.4,.2,.2,.4,.2,.7,.2,.4,0,.9,.2,.9,.8-.1,0-.3-.1-.4-.1-.2,0-.3,0-.4-.2h0c-.6,.8-1.4,1.4-2.3,1.6h0c.2,.1,.5,.2,.6,.1,0,0,.1,0,.2,0h0s0,0,0,0h0s0,0,0,0c0,0,0,0,0,0,0,0,0,.2,0,.2t0,0h0s0,0,0,0c0,0,0,0-.1,0-.2,0-.4-.1-.6-.2,0,0-.1,0-.2-.1,0,0,0,0,0,0,0,0,0,0,0,0,0,0,0,0,0,0-.1,0-.2,0-.2,0,0,0-.2,.1-.3,0,0,0-.1,0-.2,0-.1,0-.2,0-.2,.1,0,0,0,0-.2,0-.2,0-.4,0-.7,.2,0,0-.2,0-.3,0h0s0,0,0,0h0s0,0,0,0h0c0,0,0-.1,0-.2t0,0h0s0,0,0,0h0c-.1,0-.3,0-.3-.2h0s0,0,0,0c0,0,0,0,0,0h0s0,0,0,0h0c0,0,0-.2,.1-.3t0,0h0c.1-.1,.3,0,.5,0,.2,0,.5,.2,.7,.1,0,0,0,0,0,0h0c-.1-.2-.3-.4-.8-.4,0,0-.1,0-.2-.1,0,0,0,0,0,0h0s0,0,0,0c0,0,0-.1,0-.2,0,0,0,0,0,0t0,0s0,0,0,0h0s0,0,0,0c0,0,0,0,0,0,.2,0,.4,.1,.6,.4,0,0,.2,.2,.3,.2,0,0,0,0,.1,0,.1,0,.2,0,.4,0h0s0,0,0,0h0c.2-.1,.5-.1,.6,0,0,0,0,0,0,0h0c0-.2,.2-.3,.4-.3h0c0-.2,0-.4,.3-.4,0,0,0,0,0,0h0c0,0-.2,0-.3,0h0c0,0-.1,0-.2-.1h0c-.2,0-.4,0-.6-.1-.1,0-.2-.2-.2-.3t0,0h0c-.2,0-.4-.1-.5-.3,0-.2,0-.4,0-.5,0,0,0,0,0,0h0c-.2,.1-.4,.2-.7,0h0c-.2,.3-.7,.5-1.1,.4h0s0,0,0,0h0s0,0,0,0c-.1,.2-.3,.3-.5,.3t0,0h0c0,.2,0,.4-.3,.7,0-.2,0-.3-.2-.4-.1-.2-.2-.3-.2-.7h0s0,0,0,0c0,.2-.3,.4-.6,.7-.4,.4-1,.9-1.1,1.5h0c.2,.1,.5,.2,.6,.1,.2,0,.2,0,.3,0s0,0,0,0h0s0,0,0,0c0,0,0,0,0,0,0,0,0,.1,0,.2,0,0,0,0,0,0h0c0,0-.2,.1-.3,.1,0,0-.2,0-.2,0,0,0-.1,0-.2,0s-.2,0-.3-.1c0,0-.1-.1-.2-.1-.1,0-.3,0-.4,.1,0,0-.2,0-.3,0,0,0-.2,0-.3,0,0,0-.1,0-.1,0,0,0,0,0,0,0h0s0,0,0,0c-.1,.1-.5,.3-.8,.2,0,0-.1,0-.2,0h0s0,0,0,0c0,0,0,0,0-.1,0,0,0,0,0,0h0s0,0,0,0h0s0,0,0,0c0,0,0,0,0,0h0s0,0,0,0c0,0,0,0,0,0,0,0,0,0,0,0s0,0,0,0c0,0,0,0,0,0,0,0,0-.1,0-.2,0,0,0,0,0,0h0s0,0,0,0c0,0,0,0,0,0h0s0,0,0,0c0,0,0-.2,0-.2h0s0,0,0,0c0,0,0-.1,.1-.2,0,0,0,0,0,0h0s0,0,0,0c0,0,0,0,0,0,0,0,0,0,.1,0,0,0,0,0,0,0,.1,0,.4,.2,.7,.3,.2,0,.3,0,.5,0h0c0,0,.2,0,.3-.1,0,0,.1,0,.2-.1,.1-.1,.2-.2,.3-.3h0c0,0,0,0,0-.1h0c0-.1,0-.2,0-.3,0-.2,0-.2,.2-.3h0s0,0,0,0c0,0,0-.2,0-.3,0-.1,.1-.2,.2-.2h0s0,0,0,0c0,0,0-.2,0-.3h0c0,0-.2,0-.2,0h0s0,0,0,0c0,0-.1,0-.2,0,0,0-.2,0-.2,0,0,0,0,0,0,0s0,0,0,0c0,0-.2,0-.3,0h0c0,.1,0,.3-.2,.5,0,.2-.2,.3-.3,.5,0-.1,0-.2,0-.3,0,0,0,0,0-.1,0,0,0,0,0,0,0,0,0,0,0-.1,0,0,0-.2,0-.3h0s0,0,0,0c0,0,0-.1-.1-.2,0,0,0-.1-.1-.2h0c0-.2-.1-.3-.2-.3,0,0,0-.1-.1-.1,0-.1-.2-.2-.3-.3,0,0-.2-.2-.3-.3-.1-.1-.3-.3-.4-.4,0,0,0-.1-.1-.2,0-.1-.2-.3-.2-.5,0,0,0-.1,0-.2h0c0,.1,0,.2-.2,.4,0,.1-.1,.2-.1,.3,0,.1,0,.2-.1,.2,0,0,0,0,0,0s0,0,0,0h0s0,0,0,0c0,0-.1,0-.1-.1h0c0-.1,0-.2,0-.2,0,0,0-.2,.1-.2,.1,0,.2-.2,.2-.3,0,0,0-.2,.1-.2,0,0,.1,0,.1-.2h0c0,0,0-.1,0-.2,0-.2,0-.4,0-.5,0,0,0-.1,0-.2,0,0,0,0,0,0,0,0,0,0,0,0,0,0,0,0-.1,0,0,0-.1-.1-.2-.2,0,0,0-.2,0-.2h0c0,0-.1-.2-.1-.3,0,0,0,0,0,0,0,0,0,0,0,0t0,0s0,0,0,0c0,0,0,0,0,0,0,0,0,0,.2-.1,0,0,0,0,0,0h0s0,0,0,0c.1,0,.2,.2,.2,.3,0,.1,0,.2,.2,.2h0s0,0,0,0h0c0,0,0-.3,0-.4h0c0-.1,0-.2,0-.3,0,0,0,0,0,0h0s0,0,0,0c0,0,.1,0,.2,0s0,0,0,0t0,0h0s0,0,0,0c.1,.2,0,.5,0,.7h0c0,0,.2-.2,.3-.2t0,0h0s0,0,0,0c0,0,0,0,0,.1h0s0,0,0,0c0,0,0,0,0,0,0,0,0,.2,0,.2,0,0,0,0,0,0,0,0,0,0,0,0,0,0-.2,.1-.2,.2,0,0,0,.1,0,.2h0s0,0,0,0c.2,.2,.2,.5,.3,.8,0,0,0,.1,0,.2h0s0,0,0,0c.2,.2,.3,.3,.3,.5h0c.1,0,.4,.1,.5,.3h0c.2,0,.4,0,.5,.2,0,0,0,0,0,0h0c0,0,.2,0,.3,0h0c0-.1,0-.3,.1-.4,0,0,0,0,0,0h0c0,0-.1-.2-.2-.3,0,0,0-.1,0-.1,0,0,0-.2,0-.2,0,0,0,0,0-.2,0,0,0-.2,.2-.2h0s0,0,0,0c0-.1,0-.3,0-.4,0-.1,0-.3,.2-.4,0,0,0,0,0,0h0c0-.2,0-.5,.3-.7h0c0,0,0-.2,0-.2h0c0,0,0-.1,0-.2,0,0,0-.1,0-.1h0s0,0,0,0h0c0-.2,0-.5,.2-.7,0,0,0,0,0,0h0c0,0,0-.2,0-.2h0c0,0-.1,0-.2,0-.1,0-.2,0-.3,.1,0,0,0,0-.1,0,0,0,0,0,0,0h0s0,0,0,0h0c0,.1,0,.2,0,.2,0-.1,0-.2-.1-.3h0c0,.1,0,.2,0,.3,0,.1-.1,.2-.1,.4-.1-.2-.2-.4-.2-.6,0,0,0-.1,0-.2,0,0-.1-.2,0-.3,0,0,0,0,0,0h0s0,0,0,0c0,0,0,0,0,0,0,0,0,0,.2,0s0,0,0,0h0c0,0,.1,0,.2,0h0s0,0,0,0h0s0,0,0,0c0,0,0,0,0,0h0s0,0,0,0,0,0,0,0,0,0,0,0c0,0,0,0,.1,0,0,0,0,0,0,0h.1s0,0,0,0c0,0,0,0,0,0h0s0,0,0,0h0s0,0,0,0h0s0,0,0,0h0s0,0,0,0c.1,0,.3,0,.4,0,0,0,0,0,0,0h0s0,0,0,0c0,0,0,0,0,0,0-.2-.2-.3-.2-.4h0s0,0,0,0c-.2-.2-.3-.3-.5-.4-.1,0-.2,0-.3,0,0,0,0,0,0,0,0,0,0,0,0,0,0,0,0,0,0,0h0s0,0,0,0c0,0,0,0,0,0,0,0,0,0,0,0h0s0,0,0,0t0,0s0,0,0,0h0s0,0,0,0c0,0,0,0,0,0h0s0,0,0,0h0s0,0,0,0c0,0,0,0,0,0h0s0,0-.1,0c-.1,0-.2-.2-.2-.3h0c-.4-.1-.9-.1-1.5,0,.4-.4,1.2-.7,1.9-.7h0c0,0,.1,0,.2,0h0c.3-.5,.7-.5,1-.4,0,0,0,0,0,0,.2,0,.5,0,.8,0h0s0,0,0,0c.1-.2,.4-.3,.7-.5,.3-.1,.5-.2,.6-.4,0,0,0,.3,0,.5h0c0,0,0,0,0,0,.2,0,.5-.2,.6-.3,0,0,0,.2,0,.3,0,.1,0,.2,0,.3,0,0,0,0,0,0h0c0,0,.2,0,.2,0-.3,.2-.7,.4-.7,.5,0,0,0,0,0,.1,0,0,0,0,0,.1,0,0,0,0,0,0-.2,0-.5,.1-.7,0h0s0,0,0,0h0c0,0,0,0,.2,0,0,0,0,0,0,0h0c.2,0,.4,0,.5,0,0,0,0,0,.1,0,0,0,0,0,0,0,0,.2,0,.3,.2,.3h0c.1,0,.4,.2,.6,.4-.2,0-.4,0-.5,0,0,0,0,0,0,.1,0,.2,0,.2,.2,.2,0,0,0,0,0,0,0,0,.2,0,.3,.2,0,0,.1,.2,.1,.4-.2-.1-.4-.2-.5-.2s-.2,0-.2,.2c0,.1,0,.2,0,.3s.1,0,.2,0c0,0,.4,0,.4,.6-.2-.1-.5-.2-.7-.2,0,0,0,0,0,0,0,0,0,0,0,.2,0,0,0,0,0,0,0,0,0,0,0,0,0,0,0,.1,.2,.2,.1,0,.4,.1,.4,.4-.2,0-.4,0-.5,0,0,0,0,0,0,0,0,.1,0,.3,0,.5h0c.4-.1,.8-.2,1.2-.2,0,0,.1,0,.2,0,0,0,0,0,0,0h0s0,0,0,0c0,0,0,0,0,0,0,0,0,0,.1,0,0,0,0,0,0,0,0,0,0,0,.1,0h0s0,0,0-.2c0,0,0,0,0-.1,0-.2,0-.4,0-.7,0-.1,0-.3,0-.5,0-.9,1.8-1.9,4.5-3.4,.1,0,.2-.1,.4-.2-.2,.5-.3,.9-.2,1.2,0,0,0,0,0,0,0,0,0,0,0,0,0,0,.2,.1,.4,.1s.1,0,.1,0c0,0,0,0,0,0,0,0,.2,0,.2,0,0,0,.1,0,.2,0h0c.5-.2,1.7-.7,2.6-1-.4,.3-.7,.5-.9,.8-.3,.3-.4,.6-.4,.8,0,0,0,0,0,0,0,0,0,0,0,0,0,0,0,0,0,0,0,0,0,0,0,.1,0,0,0,0,0,0,0,0,.2,.1,.3,.2h0s0,0,0,0c0,0,0,0,0,0,0,0,0,0,0,0-.4,.1-.7,.3-1,.6-.1,.1-.2,.2-.3,.4,0,0-.1,.2-.2,.2,0,0,0,.2,0,.3,0,.2,0,.4,0,.6,0,0,0,0,0,.1,0,.1,0,.2,.2,.3,0,0,0,0,0,0h0c0,0-.2,0-.2,0h0c0,0-.2,0-.2,0-.1,0-.3,0-.4,.1-.3,.1-.6,.4-.8,.6,0,0,0,0,0,0h0c.6,0,1.7,0,2.4,.3,0,0,.1,0,.2,0,.2,0,.4,0,.6,0,0,0,0,0,0,0,.3,0,.5-.1,.7-.2,.2-.1,.3-.3,.3-.4,0,0,0,0,0,0,0-.1,0-.3,0-.4,0,0,0,0,0,0h0c0-.1-.2-.2-.3-.2-.1,0-.3,0-.3,0-.2,0-.5,0-.5,.3s.3,.3,.5,.3h0c.2,0,.4,0,.6-.2,0,.1,.1,.3,.1,.4s0,0,0,0c-.3,.1-.5,.2-.8,.2s-.5,0-.6-.1c0,0-.2,0-.2-.1,0,0,0,0-.1-.1,0,0,0,0,0,0,0,0,0,0,0,0,0,0,0,0,0,0,0,0,0,0,0-.1h0c0,0,0-.1,0-.2,0-.6,.7-1,1.2-1s.5,0,.8,.1c0,0,0,0,0,0,0,0,.2,0,.3,.1h0s0,0,0,0c0,0,.1,0,.2,.2,0,0,0,0,0,0,0,0,0,0,0,.1,0,0,0,0,0,0,0,.2,.1,.4,.1,.7s0,.4,0,.5c0,0,0,.2-.1,.2Zm-2-1.1s0,0,0,0c0-.1,.2-.2,.5-.2s.2,0,.3,0c0,0,.2,0,.2,.1,0,0,0,0,0,0-.2,.2-.5,.2-.6,.2h0c0,0-.1,0-.2,0,0,0,0,0,0,0,0,0,0,0-.1,0,0,0,0,0,0,0,0,0,0,0,0-.1Zm-12.9-2.1h0s0,0,0,0c0,0,0,0-.1,0h0s0,0,0,0t0,0h0s0,0,0,0c0,0,0,0,0,0,0,0,0,0,.2,0s0,0,0,0t0,0Zm.2,0h0s0,0,0,0h-.1s0,0,0,0h0c0,0,.1,0,.2,0h0Zm1-.7s0,0,0,0c-.2-.2-.3-.3-.5-.4-.1,0-.2,0-.3,0,0,0,0,0,0,0,0,0,0,0,0,0,0,0,0,0,0,0h0s0,0,0,0c0,0,0,0,0,0,0,0,0,0,0,0h0s0,0,0,0t0,0s0,0,0,0h0s0,0,0,0c0,0,0,0,0,0h0s0,0,0,0h0c0,0,0,0,0,0t0,0s0,0,0,0c0,0,0,0,0,0h0s0,0,0,0c0,0,0,0,0,0,0,0,0,0,0,0h0s0,0,0,0h0s0,0,0,0h0s0,0,0,0c0,0,0,0,0,0t0,0s0,0,0,0c0,0,0,0,0,0h0c0,0,.2,0,.3,0,.1,0,.2,0,.3,.2,0,0,0,0,.1,.1,0,0,0,0,0,0h0s0,0,0,0t0,0h0Zm.3,.4s0,0,0,0h0s0,0,0,0Zm1.9,3h0Zm-3.4-2.8h0s0,0,0,0c0,0,0,0-.1,0h0s0,0,0,0t0,0h0s0,0,0,0c0,0,0,0,0,0,0,0,0,0,.2,0s0,0,0,0t0,0Zm.2,0h0s0,0,0,0h-.1s0,0,0,0h0c0,0,.1,0,.2,0h0Zm1-.7s0,0,0,0c-.2-.2-.3-.3-.5-.4-.1,0-.2,0-.3,0,0,0,0,0,0,0,0,0,0,0,0,0,0,0,0,0,0,0h0s0,0,0,0c0,0,0,0,0,0,0,0,0,0,0,0h0s0,0,0,0t0,0s0,0,0,0h0s0,0,0,0c0,0,0,0,0,0h0s0,0,0,0h0c0,0,0,0,0,0t0,0s0,0,0,0c0,0,0,0,0,0h0s0,0,0,0c0,0,0,0,0,0,0,0,0,0,0,0h0s0,0,0,0h0s0,0,0,0h0s0,0,0,0c0,0,0,0,0,0t0,0s0,0,0,0c0,0,0,0,0,0h0c0,0,.2,0,.3,0,.1,0,.2,0,.3,.2,0,0,0,0,.1,.1,0,0,0,0,0,0h0s0,0,0,0t0,0h0Zm.3,.4s0,0,0,0h0s0,0,0,0Zm1.9,3h0Z"/></g><g id="l"><g id="m"><path class="ah" d="M3.2,10.4c0,.2-.2,.3-.3,.1,0,0,0,0,0,0s0,0,0,0t0,0c0-.1-.1-.2-.2-.2,0,0,0,0-.1,0,.2-.1,.4,0,.5,0,0,0,0,0,.1,0,0,0,0,0,0,0,0,0,0,0,0,0t0,0s0,0,0,0c0,0,0,0,0,0Z"/><path class="ae" d="M3.2,10.4s0,0,0,0,0,0,0,0c0,0,0,0,0,0,0,0,0,0,0,0,0,0,0,0,0,0,0,0,0,0,0,0,0,0,0,0,0,0t0,0s0,0,0,0c0,0,0,0,0,.1,0,0-.1,0-.2,0,0,0,0,0,0,0s0,0,0,0c0,0,0,0,0,0,0,0,0,0,0,0,0-.1-.1-.2-.3-.2,0,0,.2,0,.3,0,0,0,0,0,0,0,0,0,0,0,.1,0,0,0,0,0,0,0,0,0,0,0,0,0-.1,0-.3,0-.4,0h0s0,0,.1,0c.1,0,.2,.1,.2,.2,0,0,0,0,0,0h0s0,0,0,0c0,0,0,0,0,0,0,0,0,0,0,0,0,0,.1,0,.1,0,0,0,0,0,0-.1,0,0,0,0,0,0Z"/></g><g id="n"><path class="ah" d="M3.5,9.7c.3,0,.6,.1,.6,.4,0,.2-.3,.2-.3,0,0-.2,0-.4-.3-.4Z"/><path class="ae" d="M4,9.8c-.1,0-.3-.1-.4,0h0c.2,0,.3,.2,.3,.4h0s0,0,0,0c0,0,0,0,0,0s0,0,0,0,0,0,0,0c0,0,0,0,0-.1h0c0-.1,0-.3-.2-.3Zm0,0c0,0,0,.1,0,.2h0c0,0,0,.1,0,.1,0,0-.1,0-.2,0,0,0,0,0,0,0h0c0-.1,0-.2,0-.3,0,0-.1-.1-.2-.2,.1,0,.2,0,.3,0,0,0,0,0,0,0Z"/></g><g id="o"><path class="ah" d="M4.6,10.2c.3,.1,.3,.5,.1,.6-.1,.1-.4,0-.2-.2,.2-.1,.2-.3,.1-.5Z"/><path class="ae" d="M4.6,10.1h0c0,.2,0,.3,0,.4t0,0h0s0,0,0,0,0,0,0,0c0,0,0,0,0,0,0,0,0,0,.1,.1,0,0,0,0,0,0,0,0,0,0,.1,0h0s0,0,0,0c0,0,0,0,0,0,0,0,0-.2,0-.3,0-.1-.1-.3-.2-.3Zm.1,.6s0,0,0,0c0,0,0,0,0,0,0,0-.1,0-.2,0,0,0,0,0,0,0,0,0,0,0,0,0,0,0,0,0,0,0h0s0,0,0,0c0,0,0,0,0-.1h0s0,0,0-.1c0,0,0,0,0,0,0,0,0,0,0,0,0,0,.2,.2,.2,.3,0,0,0,.2,0,.3h0Z"/></g><g id="p"><path class="ah" d="M2.4,13.8c.2,.2,.6,0,.7-.2,0-.2-.2-.3-.3-.1,0,.2-.2,.3-.4,.3Z"/><path class="ae" d="M3.1,13.4s-.1,0-.2,0c0,0,0,0,0,0h0s0,0,0,0h0c0,.2-.2,.2-.4,.2h0c0,0,0,0,.1,0h0s0,0,0,0c0,0,0,0,0,0,0,0,0,0,.1,0,.1,0,.2,0,.2-.2,0,0,0,0,0,0,0,0,0,0,0,0,0,0,0,0,0,0,0,0,0-.1,0-.2Zm0,.2h0c0,0-.1,.1-.2,.2-.1,0-.2,0-.3,0,.1,0,.3,0,.3-.2,0,0,0,0,0,0t0,0h0s0,0,0,0c0,0,0,0,0,0,0,0,0,0,.1,0,0,0,0,0,0,.1,0,0,0,0,0,0h0Z"/></g><g id="q"><path class="ah" d="M4.1,17.4c.1-.3,.5-.4,.7-.2,.1,.1,0,.4-.1,.2-.1-.1-.3-.2-.5,0Z"/><path class="ae" d="M4.8,17.2s0,0,0,0c0,0,0,0,0,0h0s0,0,0,0h0c-.1,0-.2,0-.4,0-.1,0-.2,.1-.3,.3h0c.2,0,.3,0,.4,0,0,0,0,0,0,0,0,0,0,0,0,0,0,0,0,0,0,0,0,0,0,0,0,0h0s0,0,.1-.1c0,0,0,0,0,0Zm0,.1h0s0,0,0,0c0,0,0,0,0,0s0,0,0,0c0,0,0,0,0,0h0s0,0,0,0c0,0,0,0-.1,0s-.1,0-.2,0c0,0,0,0,0-.1,0,0,0,0,0,0,0,0,0,0,0,0,0,0,0,0,.1,0,0,0,0,0,0,0,0,0,0,0,0,0,0,0,0,0,0,0h0s0,0,0,0c0,0,0,0,0,.1s0,0,0,0Z"/></g><g id="r"><path class="ah" d="M3.8,18.1c0-.3,.4-.5,.7-.4,.2,0,0,.4,0,.3-.2-.1-.5,0-.6,0Z"/><path class="ae" d="M4.5,17.7s0,0,0,0h0c-.1,0-.3,0-.5,0-.1,0-.2,.2-.2,.3h0c.1-.1,.4-.2,.6,0h0s0,0,0,0c0,0,0,0,0,0,0,0,0,0,0,0,0,0,0,0,0-.2,0,0,0,0,0-.1Zm0,.3s0,0,0,0c0,0,0,0,0,0,0,0-.2,0-.3,0,0,0-.2,0-.3,.1,0,0,0-.2,.2-.2,0,0,.2,0,.3,0s.1,0,.1,0h0s0,0,0,0c0,0,0,0,0,.1,0,0,0,.1,0,.1,0,0,0,0,0,0Z"/></g><g id="s"><path class="ah" d="M4.2,18.8c-.1-.3,.1-.5,.4-.5,.2,0,.2,.3,0,.3-.2,0-.4,0-.4,.3Z"/><path class="ae" d="M4.7,18.3h0s0,0,0,0c0,0,0,0,0,0,0,0,0,0,0,0,0,0,0,0,0,0h0s0,0,0,0c0,0,0,0,0,0,0,0,0,0-.1,0,0,0,0,0,0,0,0,.1,0,.2,0,.4h0c0-.2,.2-.3,.4-.3h0s0,0,0,0c0,0,0-.1,0-.2,0,0,0,0,0,0Zm-.2,0h0s0,0,0,0c0,0,0,0,0,0,0,0,.1,0,.1,0,0,0,0,0,0,.1,0,0,0,0,0,0h0s0,0,0,0h0c-.2,0-.3,0-.4,.2,0-.1,0-.2,0-.3,0,0,.1-.1,.2-.2Z"/></g><g id="t"><path class="ah" d="M8.6,18.5c0-.3-.2-.5-.5-.5-.2,0-.1,.3,0,.3,.2,0,.4,0,.5,.2Z"/><path class="ae" d="M8.5,18.2c0,0-.2-.1-.3-.1s0,0,0,0h0s0,0,0,0c0,0,0,0,0,0,0,0,0,0,0,0h0s0,0,0,0c0,0,0,.1,0,.2,0,0,0,0,0,0h0s0,0,0,0h0s0,0,0,0h0c.2,0,.3,0,.4,.2h0c0-.1,0-.3-.1-.4Zm0,.2c0,0-.1,0-.2,0s0,0,0,0h0s0,0,0,0c0,0,0,0,0,0,0,0,0,0,0,0,0,0,0,0,0-.1,0,0,0,0,0,0,0,0,0,0,0,0h0c0,0,.2,0,.3,.1,0,0,.1,.2,.1,.3,0,0,0,0,0,0,0,0,0,0,0,0Z"/></g><g id="u"><path class="ah" d="M10.3,18.6c0-.3,.2-.5,.5-.5,.2,0,.2,.3,0,.3-.2,0-.4,0-.5,.2Z"/><path class="ae" d="M10.9,18.2s0,0,0,0h0s0,0,0,0c0,0,0,0,0,0,0,0,0,0,0,0,0,0-.1,0-.2,0t0,0h0c0,0,0,0-.1,0-.1,.1-.1,.2-.1,.4h0c0-.1,.2-.2,.3-.2s0,0,0,0h0s0,0,0,0h0s0,0,0,0c0,0,0-.1,0-.2Zm0,0s0,.1,0,.1c0,0,0,0,0,0,0,0,0,0-.1,0h0c-.1,0-.2,0-.3,.2h0c0,0,0-.1,0-.2,0,0,0,0,0,0,0,0,0,0,0,0h0s0,0,0,0c0,0,0,0,0,0h0s0,0,0,0h0s0,0,.1,0h0s0,0,.1,0Z"/></g><g id="v"><path class="ah" d="M14.5,18.6c0-.3-.3-.5-.5-.4-.2,0-.1,.3,0,.3,.2,0,.4,0,.5,.2Z"/><path class="ae" d="M14.4,18.2c0,0-.2-.1-.3-.1h0s0,0,0,0h0c0,0-.1,0-.1,.1,0,0,0,.1,0,.2,0,0,0,0,0,0s0,0,0,0c0,0,0,0,0,0h0c.2,0,.3,0,.4,.2h0c0-.1,0-.3-.2-.4Zm-.2,.2s0,0,0,0c0,0,0,0,0,0s0,0,0,0c0,0,0,0,0,0,0,0,0,0,0,0,0,0,0,0,0-.1,0,0,0,0,0-.1,0,0,0,0,0,0,0,0,0,0,0,0h0c0,0,.2,0,.3,0,0,0,.1,.2,.1,.3,0,0-.2-.1-.3-.1Z"/></g><g id="w"><path class="ah" d="M9.8,18c0-.3,.3-.5,.5-.5,.2,0,.1,.3,0,.3-.2,0-.4,0-.5,.2Z"/><path class="ae" d="M10.5,17.6s0,0,0,0h0s0,0,0,0h0c-.1,0-.3,0-.4,.1-.1,0-.2,.2-.1,.4h0c0-.1,.2-.2,.4-.2,0,0,0,0,0,0h0s0,0,0,0c0,0,0,0,.1,0,0,0,0-.1,0-.2Zm-.5,.2s0,0,0,0c0,0,0,0,0,0,0-.1,0-.2,.1-.3,0,0,.2-.1,.3-.1h0s0,0,0,0h0c0,0,0,0,0,0,0,0,0,.1,0,.2,0,0,0,0,0,0,0,0,0,0,0,0h0s0,0,0,0c0,0,0,0-.1,0,0,0,0,0,0,0Z"/></g><g id="x"><path class="ah" d="M10.2,17.2c0-.3,.4-.5,.6-.4,.2,0,0,.4,0,.3-.2-.1-.4,0-.5,0Z"/><path class="ae" d="M10.8,16.8s0,0,0,0h0s0,0,0,0h0c-.1,0-.2,0-.3,0-.1,0-.2,.2-.2,.3h0c.1-.1,.2-.1,.4-.1h0s0,0,0,0c0,0,0,0,0,0,0,0,0,0,.1,0,0,0,0-.1,0-.2,0,0,0-.1,0-.1Zm-.6,.3c0,0,0-.2,.2-.3,0,0,.2,0,.2,0s0,0,0,0h0s0,0,0,0c0,0,0,0,0,0,0,0,0,0,0,0,0,0,0,.1,0,.2,0,0,0,0,0,0,0,0,0,0,0,0t0,0s0,0,0,0h0c-.1,0-.3,0-.4,0Z"/></g><g id="y"><path class="ah" d="M16.6,18.8c0-.3,.2-.5,.5-.5,.2,0,.2,.3,0,.3-.2,0-.4,0-.5,.2Z"/><path class="ae" d="M17.1,18.3c0,0-.1,0-.2,0,0,0,0,0,0,0,0,0,0,0,0,0h0c0,0-.1,0-.1,0-.1,.1-.1,.2-.1,.4h0c0-.2,.2-.2,.3-.2h0s0,0,0,0h0s0,0,0,0h0s0,0,0,0c0,0,0,0,0-.1h0s0,0,0,0c0,0,0-.1-.1-.1Zm.1,.1s0,.1,0,.1,0,0,0,0,0,0,0,0c0,0,0,0,0,0,0,0,0,0,0,0h0c-.1,0-.2,0-.3,.2,0,0,0,0,0-.1h0c0,0,0-.1,0-.2,0,0,0,0,.1,0h0s0,0,0,0h0s0,0,.1,0h0s0,0,0,0c0,0,0,0,0,0Z"/></g><g id="a`"><path class="ah" d="M20.8,18.6c0-.3-.2-.5-.5-.5-.2,0-.2,.3,0,.3,.2,0,.4,0,.5,.2Z"/><path class="ae" d="M20.8,18.4s0,0,0-.1c0,0-.1,0-.2,0,0,0,0,0-.1,0h0c0,0-.1,0-.1,.1,0,0,0,.1,0,.2s0,0,0,0h0s0,0,0,0c.2,0,.3,0,.4,.2h0c0,0,0-.2,0-.3Zm-.4,0s0,0,0,0c0,0,0,0,0,0,0,0,0,0,0,0,0,0,0,0,0,0,0,0,0,0,0-.1,0,0,0,0,0,0s0,0,0,0h0c.1,0,.2,0,.3,.1,0,0,.1,.2,0,.3,0-.1-.2-.2-.3-.2s0,0,0,0c0,0,0,0,0,0h0Z"/></g><g id="aa"><path class="ah" d="M16.1,18.1c0-.3,.2-.5,.5-.5,.2,0,.2,.3,0,.3-.2,0-.4,0-.5,.2Z"/><path class="ae" d="M16.7,17.8s0,0,0,0h0s0,0,0,0c0,0,0,0,0,0h0s0,0,0,0h0s0,0,0,0h0s0,0,0,0c0,0-.1,0-.2,0-.1,.1-.2,.2-.1,.4h0c0-.2,.2-.2,.4-.2h0s0,0,0,0h0s0,0,0,0c0,0,0-.1,0-.2Zm-.3,0s0,0,0,0h0s0,0,0,0t0,0s0,0,0,0c0,0,0,0,0,0,0,0,0,.1,0,.1,0,0,0,0,0,0,0,0,0,0,0,0,0,0,0,0,0,0,0,0,0,0,0,0-.1,0-.3,0-.4,.2,0-.1,0-.2,.1-.3,0,0,.1,0,.2,0Z"/></g><g id="ab"><path class="ah" d="M16.3,17.3c0-.3,.3-.5,.6-.4,.2,0,0,.3,0,.3-.2,0-.4,0-.5,.1Z"/><path class="ae" d="M16.8,16.9h0s0,0,0,0h0c-.1,0-.2,0-.3,0-.1,0-.2,.2-.2,.3h0c.1-.1,.2-.2,.4-.1h0s0,0,0,0c0,0,0,0,0,0,0,0,0,0,0,0,0,0,0,0,0,0,0,0,0,0,0-.1,0,0,0-.1,0-.1Zm0,.3s0,0,0,0c0,0,0,0-.1,0,0,0,0,0,0,0h0c0,0-.1,0-.2,0,0,0,0,0,0,0,0,0,0,0-.1,0,0,0,0-.2,.2-.2,0,0,0,0,.1,0,0,0,.1,0,.2,0t0,0h0s0,0,0,0c0,0,0,0,0,0,0,0,0,0,0,0h0s0,0,0,0c0,0,0,.1,0,.1Z"/></g></g><g><path class="ae" d="M11.1,11.7c0,0,.2,0,.2,0,0,0,0,0,0,0,.2,0,.3-.2,.4-.3,.2-.2,.3-.4,.4-.7,0-.1,.1-.3,.2-.4h0c0-.1,.1-.2,.2-.3,0,0,0,0,0,0h0c.2-.3,.4-.4,.7-.5,0,0,0,0,.1,0,.2,0,1-.4,1.8-.7,.9-.3,1.8-.7,2.2-.8h0c-.4,0-1.3,.4-2.2,.7-.8,.3-1.6,.6-1.8,.7h-.1c-.2,0-.4,.2-.5,.3,.2-.3,.5-.6,.9-.9,.6-.5,1.4-1,2.3-1.6h0c-1,.6-1.7,1.1-2.4,1.5-.3,.3-.6,.5-.8,.7,0,0-.2,.2-.2,.3,0,0,0,0,0,0,0,0,0,0,0,0,0,0,0,0,0,0,0,0,0,.1,0,.2,0,0,0,0,0,0,0,0,0,0,0,0h0c0,.2-.1,.3-.2,.4-.2,.4-.3,.7-.6,.9h0s0,0,0,0c0,0,0,0,0,0,0,0,0,0,0,0,0,0,0,0-.1,0,0,0-.2,0-.3,0h0s.1,0,.2,0Z"/><path class="ae" d="M8.1,13.4h0c.5-.5,1.4-1.1,2.2-1.1-.2,.3-.3,.5-.4,.8h0c.1-.3,.3-.6,.4-.8h0c-.4,0-.9,.1-1.3,.4-.4,.2-.7,.5-1,.7Z"/><path class="ae" d="M9.4,7.1h0s.1,0,.2,0c-.2,0-.4,.2-.5,.2-.1,0-.1,.1-.1,.2,0,0,.1,.1,.4,.1h0c-.3,0-.3-.1-.3-.2,0,0,0,0,.1-.1,.1,0,.4-.2,.6-.2h0s0,0,0,0c0,0,0,0-.1,0h0c.2,0,.4-.2,.5-.3h0c0,0-.3,.2-.5,.2,0,0,0,0-.1,0Z"/><path class="ae" d="M8.8,7.1c-.1,0-.2,.2-.3,.3h0c.1-.4,.6-.5,1-.6,0,0,0,0,.1,0h0s0,0-.1,0c-.2,0-.5,.1-.7,.3h0c-.2,0-.3,0-.4,0h0c.1,0,.3,0,.4,0Z"/><path class="ae" d="M7.9,9.2h0c0,0-.2,0-.3,0h0c0,0,.2,0,.3,0Z"/><path class="ae" d="M6,8c0,0,0-.1,0-.2h0c0,0,0,.1,0,.2,0,0,0,.1,0,.2h0c0,0,0-.1,0-.2Z"/><path class="ae" d="M6.3,7.9s0,.1-.1,.2h0c0,0,.1,0,.1-.2,0,0,0-.2,0-.2,0,0,0-.1,0-.2,0,0,0,0,0,0h0s0,0,0,0c0,0,0,.1,0,.2,0,0,0,0,0,.2Z"/><path class="ae" d="M14,16c-.2,0-.3,0-.5-.1-.2-.2-.3-.4-.3-.7,0-.3,.1-.5,.3-.8h0c-.1,.2-.2,.5-.3,.8,0,.3,0,.5,.3,.7,0,0,.1,0,.2,.1-.1,.2-.3,.3-.5,.4h0c.2,0,.4-.2,.5-.4,.1,0,.2,0,.3,0,0,0,.2,0,.3,0-.1,.5-.5,.6-.6,.6h0c.2,0,.5,0,.7,.1,0,0,0,0,0,0-.2,.1-.5,.3-.8,.5,0,0,0,0,0,0,0-.1-.2-.2-.3-.2h0c.1,0,.2,.2,.2,.2,0,0,0,0,0,0-.1,0-.2,.1-.3,.2h0c0,0-.2-.2-.3-.2h0c.1,0,.2,.2,.2,.2,0,0,0,0,0,0h0c.1,0,.3-.1,.4-.2h0c.4-.2,.7-.4,.8-.5,0,0,0,0,0,0h0c.2-.2,.3-.3,.3-.4,0,0,0,0,0-.1-.3-.3-.5-.3-.7-.2Zm.3,0h0Zm.1,.6c-.1,0-.3,0-.6,0,0,0,.1,0,.2-.1,.1-.1,.2-.3,.3-.4,.1,0,.2,0,.3,.2,0,0,0,0,0,.1,0,0-.1,.2-.3,.3Z"/><path class="ae" d="M5.2,17.9c-.2,0-.5-.1-.7,.2h0c.2-.3,.4-.2,.6-.2,.1,0,.2,0,.3,0h0c0,0-.2,0-.3,0Z"/><path class="ae" d="M7,7.6h0s0,0,0,0c0,0,0,0,0,0,0,0,0,0,0,0,0,0,.1,.2,.2,.2,0,0,0,0,0,0,.1,0,.2,0,.3-.1,0,0,0,0,0-.1,0,0,.2,0,.3,0,.2,0,.3,0,.4,0h0c-.2,.1-.7,0-1,0-.3,0-.4,0-.4,0h0s0,0,.1,0Z"/><path class="ae" d="M3.7,10.9h0c0,0,0,.3,.1,.5h0c-.1-.1-.2-.4-.1-.5Z"/><path class="ae" d="M11.2,17.9c-.2,0-.5,0-.6,.1h0c0,0,.3-.1,.5,0,0,0,.1,0,.2,0,.2,0,.5,0,.6-.1h0c-.2,0-.6,.1-.8,0Z"/><path class="ae" d="M4.2,10.9h0c0,.2,0,.5,.1,.8h0c-.2-.3-.2-.6-.1-.8Z"/><path class="ae" d="M4.7,13.5s0,0,0,0c.1,.2,.3,.3,.5,.4h0s0,0,0,0c0,0,0,0,0,0,.2,.1,.4,.2,.6,.3h0s0,0,0,0c.2,0,.4,.1,.6,.2h0c-.2,0-.4-.1-.5-.2,0,0,0,0,0,0,0,0,0-.2,0-.2,0-.1,0-.2,0-.3h0c0,.2,0,.4,0,.5,0,0,0,0,0,0-.2,0-.4-.2-.6-.3,0,0,0,0,0,0,0,0,.2-.2,.1-.4h0c0,.2,0,.3-.1,.4,0,0,0,0,0,0-.2-.1-.3-.2-.5-.4,0,0,0,0,0,0,0,0,.2-.2,.2-.3h0c0,.1-.1,.2-.2,.3,0,0,0,0,0,0-.1-.1-.2-.2-.3-.4,0,0,0-.2,0-.2,0,0,.1-.1,0-.2h0c0,0,0,.1,0,.2,0,0-.1,.1,0,.3,0,.1,.2,.3,.3,.4h0Z"/><path class="ae" d="M5.4,17.6h0c-.2,0-.4,0-.5,0-.1,0-.2,0-.3,0h0c0,0,.2,0,.3,0,.1,0,.3,0,.5,0h0c.4,0,.8,0,1.2-.4h0c-.4,.3-.7,.4-1.2,.4Z"/><path class="ae" d="M10.1,15.6h0c.2-.2,.2-.5,.2-.9h0c0,.4,0,.7-.2,.9Z"/><path class="ae" d="M13,15.9c-.2,0-.5,.1-.6,.1h0s0,0,0,0c.2,0,.4,0,.6-.1h0Z"/><path class="ae" d="M11.6,17.7h0c.2,0,.5-.2,.7-.3h0c-.2,.1-.4,.2-.7,.3Z"/><path class="ae" d="M19.5,16h0c0-.1,0-.3,0-.4,0,0,0,0,0-.1,0,0,0,0,0,0h0c0-.3-.2-.5-.5-.7,0,0,0,0,0,0h0s0,0-.1,0c-.1,0-.3-.1-.5-.2,0,0,0,0,0,0h0c-.3,0-.5-.1-.9-.2,0,0-.1,0-.2,0-1.1-.2-1.4-.5-1.6-1.1,.2,0,.3,0,.5,0h0c-.2-.3-.2-.6,0-.9h0c-.2,.3-.2,.6,0,.8-.2-.2-.4-.3-.6-.5-.3-.2-.7-.5-1.1-.7-.5-.3-1.1-.6-1.6-.8,.7,0,1.7,0,2.7,0,.8,0,1.5,.2,2,.3h0s0,0,.1,0c0,0,0,0,0,0h0c0,0,.1,0,.2,0h0s0,0,0,0c0,0,0,0,0,0,0,0,0,0,0,0-.5-.3-1.4-.5-2.3-.7-.9-.1-1.8-.2-2.5-.2,1.6-.6,4.1-1.3,6.2-1.6,0,0,0,0,0,0,0,0,0,0,0,0s0,0,0,0h0s0,0,0,0h0c-1.7,.1-3.8,.5-5.9,1,1.1-.7,4-1.8,4.7-2h0c-.4,0-1.4,.5-2.3,.8-.7,.3-1.9,.8-2.5,1.2h0c2-.4,4-.8,5.6-.9-.9,.2-2,.4-3,.6-1.2,.3-2.2,.6-3,.9h0c1.4,0,3.6,.2,4.8,.8-.5-.1-1.2-.2-2.1-.3-1.1-.1-2.1-.2-2.8,0h0c.7,.3,1.7,.8,2.7,1.5,.1,0,.3,.2,.4,.3-.2-.1-.3-.2-.6-.3-.2-.1-.5-.2-.7-.3-.7-.3-1.5-.5-2.1-.6h0c.2,.2,.6,.6,.9,1,.3,.4,.6,.9,.8,1.3-.2-.3-.5-.7-.9-1,0,0-.2-.2-.3-.3-.3-.2-.6-.5-.9-.7h0c0,.2,.2,.4,.2,.7,.1,.6,.2,1.3,.2,1.8,0-.3-.1-.6-.2-.9-.1-.3-.2-.6-.4-.9,0-.1,0-.2-.1-.4h0c0,0-.1,.2-.2,.4-.3,.6-.6,1.5-.7,2.1,0-.7,0-1.5,.3-2.1,0,0,0-.1,0-.2h0c0,0-.2,0-.2,.2-.3,.3-.7,.7-.9,.9h0c.2-.2,.6-.6,.9-.9,0,0,.1-.1,.2-.1,0,0,0,0,0,.1,0,.2-.1,.6-.2,.9,0,.5,0,.9,0,1.2h0c0-.1-.2-.2-.4-.3-.3,0-.6,0-.8,.2,0-.1,0-.3,0-.5h0c0-.1,0-.2,0-.3h0c-.2,0-.4,.2-.6,.4,0,0-.1,0-.2,.1,0-.2,0-.5,0-.7h0c-.2,0-.8,.1-1.1,0,.5-.8,1.2-1.4,2.2-1.7h0c-.2,0-.4,.1-.6,.2-.5-.6-.7-1.9-.6-2.8,0,0,0-.3,.1-.4,.1,0,.2,0,.3,.2h0c0-.1,0-.2,0-.3,0,0,.2,0,.3,0h0c0,0-.1-.2-.2-.3,0,0,.2-.1,.2-.2h0c0,0-.1,0-.2-.1,0,0,0,0-.1,0,0,0,0-.2,.1-.2h0s0,.2-.1,.2h0s0,0,.1,0c0,0,.1,0,.2,0,0,0-.2,.1-.3,.2h0c.1,0,.2,.2,.3,.3,0,0-.2,0-.3,0h0c0,0,.1,.2,.1,.3-.1,0-.2-.1-.3-.2h0c0,.1,0,.3,0,.4,0,0,0-.2-.2-.2h0c0,0,0,.2-.2,.3,0-.1-.1-.3-.2-.4,0,0,0,0,0,0h0s0,0,0,0c0,.1,.2,.3,.2,.4h0c0,0,.2-.2,.2-.3,0,0,.1,.2,.2,.3,0,0,0,.2-.1,.3-.4,0-.6-.2-.6-.3h0c0,.1,.3,.3,.7,.3,0,.2-.1,.4-.2,.6-.1,0-.4,0-.6-.1,0,0-.1,0-.1-.1h0c0,0,0,.1,.1,.2,.1,0,.3,.1,.5,.1s0,0,0,0c0,.2-.1,.4-.2,.6h0c0,0-.2,0-.3,0-.2,0-.5-.2-.5-.3h0c0,0,0,.2,.2,.2,0,0,.2,.1,.3,.1,0,0,.2,0,.3,0s0,0,0,0c0,0,0,0,0,.1,0,.1,0,.3,0,.5,0,0-.1,0-.3,0-.2,0-.4,0-.5-.1-.2,0-.3-.2-.3-.2h0c0,.2,.5,.4,.8,.4,0,0,0,0,0,0,.1,0,.2,0,.2,0,0,.2,0,.5,0,.7,0,0,0,0-.2,.1-.2,0-.4,0-.7,0-.2,0-.4-.2-.5-.3h0c0,.1,.2,.2,.5,.3,.2,0,.4,0,.5,0s.1,0,.2,0c0,0,.1,0,.2,0,0,.2,0,.5,0,.7h0c0,0,0,.1-.2,.2-.3,.1-.9,.2-1.1,0h0c.1,.1,.3,.2,.5,.2h0c.2,0,.4,0,.6,0,.1,0,.2,0,.2-.2h0c-.1,.1-.2,.3-.3,.4h0c0,0,.2,0,.3,0,0,0-.2,.2-.2,.4,0,0,0,.1,0,.2h0c0,0,0,.1-.2,.2-.3,0-.8,0-.9,0-.2-.2-.3-.4-.3-.7h0c0,.3,0,.5,.3,.7,0,.1,0,.3,0,.4,0,.1,.1,.2,.2,.3,.1,0,.2,.2,.4,.2h0c-.2-.1-.4-.3-.5-.5,0-.1,0-.3,0-.4,0,0,.3,.1,.5,.1s.3,0,.4,0c0,0,.1,0,.2-.1,0,0,0,.2,0,.2,0,0-.1,0-.2,.2,0,.1,0,.3,0,.4,0,0,0,0-.1,.2h0s0,0,0-.1c0,.1,.3,.2,.4,.2h0c0,0,0,0,.1,0,0,.1-.1,.2-.2,.3h0s0,0-.1,0c-.1,0-.3,0-.3-.1h0c0,0,.2,.2,.3,.2h0c0,0,0,0,.1,0,0,.1-.1,.3-.2,.4,0,0,0,.1-.1,.2h0s0,0,0,0c0,0-.2,0-.2-.2h0c0,.1,.2,.2,.3,.2,0,0,0,0,0,0,0,0,0,0,0,0-.1,.2-.2,.5-.3,.6,0,0,0,0,0,0,0,0-.2,0-.3,0,0,0,0-.1,0-.2h0c0,.1,0,.2,0,.3,0,0,.2,0,.2,0s0,0,0,0c0,0,0,0,0,0h0c0-.2,.2-.5,.4-.9,.1-.2,.3-.5,.4-.8h0c0-.1,.1-.2,.2-.4,0,0,0,0,0,0,0,0,0,0,0,0h0c0,.2,0,.2,.1,.2h0c0,0,.1,0,.2-.3h0c0,0,0,0,.1-.1,0,0,0,0,0-.1,0,0,0,0,.1,0s0,0,0,0c0,0,.1-.1,.1-.3,0,0,0,0,.1,0s0,0,0,0c0,0,.1,0,.2-.1,0,0,0-.1,0-.2h0c0,0,.1,0,.2,0,0,.2,0,.5-.2,.8,0,.1,0,.3,0,.5,0,0,0,.2,0,.2h0c0,0,0-.2,0-.2,0-.2,0-.3,0-.4,.2-.3,.3-.6,.2-.9,.2,0,.3-.1,.5,0,.1,0,.3,.1,.4,.4h0c0-.3,.3-.5,.6-.6,.2,.3,.1,.8-.1,1.1h0c.1-.1,.2-.3,.2-.5,0-.2,0-.4-.1-.6,0,0,0,0,0,0,.3,0,.7,0,.9,.4,0,.1-.2,.4-.4,.6h0c.2-.1,.6,0,.9,0h0c-.2,0-.6-.1-.8,0,0,0,.1-.1,.2-.2h0s0,0,.1,0c.3,0,.5,0,.7-.3,.1,0,.2-.2,.2-.3,.1,0,.3,.1,.5,.1s.1,0,.2,0c.2,0,.3-.1,.4-.3,0,0,.1,.1,.2,.1,.1,0,.3,0,.5,0,0,0,.1,.1,.2,.2h0c-.1,0-.2-.2-.2-.2h0c-.3,.1-.6,0-.8-.2,.1-.3,.4-.6,.8-.7,.2,0,.4-.1,.6-.1,0,.3,.2,.5,.5,.7,0,0,0,0,0,0h0s0,.1,0,.2c0,.2-.3,.4-.6,.4h0c.2,0,.3,0,.4-.1,.1,0,.2-.2,.2-.3,0,0,0-.1,0-.2,.1,0,.3,.2,.5,.2h0s0,0,0,.1c0,.2-.2,.5-.5,.6h0c.3,0,.5-.4,.5-.6,0,0,0,0,0-.1,.1,0,.2,0,.4,0,0,0,.1,0,.2,0,0,0,.1,0,.2,0h0s0,0,0,0c0,.2-.2,.5-.4,.6h0c.1,0,.2-.1,.3-.2,0-.1,.1-.3,.1-.3,0,0,0,0,0,0,.2,0,.4,0,.6,.2,0,0,0,0,0,0,0,0,0,.2,0,.3,0,.1-.1,.2-.2,.2h0c.1,0,.3-.4,.3-.5,0,0,0,0,0,0,.1,0,.3,0,.4,.1,0,0,0,0,.1,0,0,0,0,0,0,0,0,.1-.2,.3-.3,.4h0c0,0,.3-.2,.3-.4,.2,.2,.4,.4,.4,.6,0,0,0,0,0,0,0,0-.3,0-.4,0h0c.1,0,.3,0,.3,0,0,0,0,0,0,0,0,.2,0,.3,0,.4h0s0,0,0,.1c0,0-.2,0-.3,0h0c0,0,.1,0,.2,0s.1,0,.2,0c0,0,0,0,0,0,0,.2,0,.4,0,.5h0c0,0,0,.1-.1,.1,0,0-.2,0-.2,0h0c0,0,.1,.1,.2,.1s0,0,0,0c0,0,0,0,.1,0,0,.3-.1,.4-.2,.4,0,0-.1,.1-.2,0,0,0-.1,0-.1,0h0c0,0,0,.1,.2,.1h0c0,0,.2,0,.2-.1,0,0,.1-.2,.2-.5,0-.2,0-.4,0-.6h0Zm-11.7-3.2h0c0,0,0-.2,0-.3,0,0,0,0,0,0h0c0,0,0,0,.1-.1,0,.1,.1,.2,.2,.3,0,0-.2,.1-.3,.1,0,0,0,0,0,0Zm0,0h0Zm.1-1.3s0,0,.1,0c0,.1,0,.2,0,.3,0,0-.2,.1-.3,.1,0-.1,0-.3,0-.4Zm.6-.6c0,0,0,.1,0,.2h0c0,.1,0,.2-.2,.4,0,0,0-.2,0-.3h0c.1-.1,.2-.3,.2-.4,0,0,0,0,0,.1Zm-.4,1.7c0-.1-.1-.2-.2-.3,0,0,.2-.1,.3-.2,0,.1,.1,.2,.2,.3,0,0-.2,.1-.2,.2Zm.3-.2s0,0,0,0c0,0-.2,.1-.2,.2,0,0,0,0,0-.1,0,0,.2-.1,.2-.2Zm-.3-.6c0,0,0,.2,0,.2,0,0-.2,.1-.3,.2,0-.1,0-.2-.1-.4,0,0,.2,0,.3-.1,0,0,0,0,0,0Zm.1,.2s0,0,0,0c0,0,0-.1,.1-.2,0,.1,.1,.2,.2,.3,0,0,0,.1-.2,.2,0,0,0,0,0,0,0,0-.1-.2-.2-.3Zm0,0c0-.1,0-.2-.1-.3,0,0,.1-.1,.2-.2,0,0,0,0,0,0,0,.1,0,.2,.1,.3,0,0-.1,.2-.2,.2Zm.1-.6c.1-.1,.2-.3,.2-.4,0,.1,0,.2,.1,.3h0c0,.1-.1,.2-.2,.3,0-.1,0-.2-.1-.3Zm0-.8c0,.1,0,.3-.2,.4,0-.1,0-.2,0-.3,.1-.1,.2-.3,.2-.4,0,.1,0,.2,0,.3h0Zm0-.4c0,.2,0,.3-.2,.4,0-.1,0-.2,0-.3,0,0,.2-.2,.2-.4,0,0,0,.2,0,.3h0Zm0-.4c0,.2-.1,.3-.2,.5,0,0,0-.2,0-.2,0-.2,.2-.5,.2-.7,0,.1,0,.3,0,.4h0Zm-.2,.5s0,0,0,0c0,0,0-.2,0-.2,0,0,0,.1,0,.2Zm0,.1s0,0,0,0c0,0,0,.2,0,.3,0,0-.1,.1-.2,.2,0-.1,0-.2,0-.4h0Zm0,.4c0,0,.2,0,.2-.2,0,.1,0,.2,0,.3,0,0-.2,.2-.2,.2,0-.1,0-.2,0-.3h0Zm.3,.2c0,0,0,.1,0,.2,0,0,0,0,0,.1,0,0,0,0,0,0,0,0-.1,.1-.2,.2,0-.1,0-.2,0-.3,0,0,.2-.1,.2-.2Zm-.3,1.1s0,0-.1,0c0-.1,0-.2,0-.4,0,.1,0,.2,.1,.3Zm.2,.4s0,0,0,.1c0,0-.2,.1-.2,.2,0,0,0-.1-.1-.2,0,0,.2,0,.3-.1Zm.4-.1s0,0,0,0c0,0,0,0,0,0,0,0,.1-.1,.2-.2,0,0,0,.1,0,.2,0,0-.2,0-.2,.2,0,0,0,0,0,0Zm.3-.2h0c0,0,0-.1,0-.2,0-.1,.2-.2,.2-.3,0,.1,.1,.2,.2,.3-.1,0-.2,.1-.3,.2Zm0-.5h0c0,0,0,.2-.2,.3,0-.1-.1-.2-.2-.3,0-.1,.2-.2,.2-.3,0,0,0,0,0,.1,0,0,0,.1,.1,.2Zm-.9-.7c0,0,0,.2,0,.3,0,0,0,0,0,0,0-.1,0-.2,0-.3Zm-.2,1.7h0c0,0,0,.1,.1,.2,0,0,0,.1-.1,.2,0-.1,0-.3,0-.4Zm-.1,1.5h0c0-.3,.1-.5,.2-.6,.3,0,.6,0,.7-.1,0,.2,0,.5,0,.7h0c0,0,.1,0,.2-.1,.2-.2,.4-.3,.6-.4,0,0,0,.2,0,.3,0,0,0,.2-.1,.2,0,0-.1,0-.2,0h0c0,.1,0,.2,0,.3,0,0-.1,0-.2,0h0c0,.2,0,.3-.1,.3-.1,0-.2,0-.3-.2h0c0,0,0,.2,0,.2,0,0,0,0,0,0h0c-.1,0-.3,0-.4-.2,0,0,0-.2,0-.3Zm.2,1.1c-.2,0-.4-.1-.4-.2,0-.1,0-.3,0-.4,0,0,.1-.2,.2-.2,0,.1,.3,.2,.4,.2h0s0,0,0,0c0,.2-.1,.4-.2,.5,0,0,0,0-.1,0Zm.4-.4s0,0,0-.1h0c0,0,0-.1,0-.2h0c0,0,0-.1,0-.2,0,0,.1,0,.2,.1h0c0,.2,0,.3-.1,.3,0,0,0,0-.1,0Zm.3,0c0,.2,0,.2-.1,.2h0s0,0-.1-.2c0,0,0,0,0,0,0,0,0,0,0,0,0,0,0,0,.1,0h0Zm0,0c0,0-.1,0-.1,0h0s0-.1,0-.2c0,0,.1,0,.2,0,0,0,0,0,0,0,0,.2,0,.3-.1,.3Zm.3-.1c0,0-.1,0-.1,0h0s0,0,0-.2h0s0-.1,0-.2c0,0,.1,0,.2,0h0c0,.2,0,.4-.1,.4Zm.5-.5c0,.2-.1,.3-.2,.3,0,0,0,0-.1,0h0c0,0,0-.1,0-.2h0c0,0,0-.1,0-.2,0,0,.1,0,.2,0,0,0,0,0,.1,0,0,0,0,.2,0,.2h0Zm2.8-1.9c0-.2-.1-.4-.2-.6,.3,.1,.6,.4,.8,.6,.5,.5,1,1,1.2,1.4h0c-.3,0-.6,0-.9,0-.3,.1-.6,.3-.8,.6h0c0-.6,0-1.4-.2-2Zm-.2,1.7c-.2,0-.4-.1-.6,0-.2,0-.3,0-.5,.2,0,0-.2,.2-.2,.3,.1-.6,.4-1.4,.7-2,0-.1,.1-.2,.2-.3,0,.1,0,.2,.1,.3,.3,.7,.6,1.4,.6,2,0-.1-.2-.2-.4-.3Zm1.9,.2c-.2,0-.5,0-.6,0h0c0,0,0-.2,0-.3h0c0,.2-.1,.4-.3,.6-.2,.2-.5,.3-.8,.2,0-.1,.1-.2,.2-.3,0,0,0,0,0,0h0c.3-.6,1.2-.8,1.7-.6,0,0,0,0,.1,.1,0,.1-.2,.2-.4,.3Zm1.1-1.2c-.2,0-.4,.2-.5,.3-.1,.1-.2,.3-.3,.4-.1-.4-.4-.9-.8-1.4h0c-.3-.4-.6-.8-.9-.9,.6,.1,1.3,.3,2,.6,.2,.1,.5,.2,.7,.3,.4,.2,.7,.4,.9,.6-.3,0-.7,0-1.1,.1Z"/><path class="ae" d="M17,17.5h0c.4,0,.6,.2,.8,.3,0,0,0,0,.1,0h0c0,0,0,0-.1-.1-.2-.1-.4-.3-.8-.3Z"/><path class="ae" d="M16.9,12.7h0c.3,0,.6,.3,.9,.6,.2,.2,.3,.3,.5,.5h0c-.2-.2-.4-.3-.5-.5-.3-.3-.6-.6-.9-.6Z"/><path class="ae" d="M21.9,9.2c0,.1,0,.4-.2,.7h0c0-.3,.2-.5,.2-.7h0Z"/><path class="ae" d="M17.3,18.1c.1,0,.2,0,.3,0h0c-.1,0-.2,0-.3,0h0Z"/><path class="ae" d="M21.2,9.8h0c.1-.3,.3-.7,.3-.8h0c0,.2-.2,.5-.3,.8Z"/></g><path class="af" d="M7.5,7.6h-.4s0,0,0,0h0c0,.1,0,.2,.2,.2h0c.1,0,.2-.1,.2-.1,0,0,0,0,0,0,0,0,0,0,0,0Z"/><g id="ac"><path class="ah" d="M14.7,14.3c-.2,.5-.8,.3-1.2,.4,.6,.4,1.3,.4,1.9-.2-.2,0-.3-.1-.5-.3,0,0-.2,0-.3,0h0Z"/><path class="ae" d="M15.5,14.5s0,0,0,0c0,0,0,0,0,0,0,0,0,0,0,0,0,0,0,0,0,0,0,0-.1,0-.2-.2h0s0,0-.1,0h-.1s0,0,0,0h0s0,0,0,0h0c0,.1,0,.1,0,.2-.2,0-.4,0-.6,0,0,0-.2,0-.3,0h0c.3,.2,.6,.3,.9,.3s0,0,0,0c0,0,.1,0,.2,0,0,0,0,0,0,0h0c0,0,.2,0,.2,0,0,0,.2,0,.2-.1,0,0,.2-.1,.2-.2h0s0,0,0,0h0Zm-.7,.4h0c-.4,0-.7,0-1.1-.2,0,0,.2,0,.3,0,.3,0,.7,0,.9-.4,0,0,0,0,0,0,0,0,.2,0,.3,0,0,0,0,0,0,0h0c0,0,0,0,0,0,0,0,0,0,0,0h0c0,0,0,0,0,0,0,0,0,0,0,0h0s0,0,0,0h0c0,0,.1,0,.2,0h0c-.2,.2-.5,.3-.7,.4Z"/></g><path class="ad" d="M21.3,12.5c.2-.3,.3-.5,.3-.8s0-.5-.2-.7c0-.2,.2-.6,.3-1,.2,.3,.5,.5,.9,.6h0c-.3-.6-.4-2.2-.3-3h0c-.4,.5-1.4,1.5-2.1,2.1,0,0-.1,.1-.2,.2h0c.3,0,.8,0,1.1,0-.1,.3-.2,.5-.2,.6-.4-.2-.9-.3-1.2-.3s-.6,.1-.8,.3c-.1,0-.2,.2-.3,.3,0,.1-.1,.3-.1,.4s0,.3,.1,.4c0,0,.1,.2,.3,.3,.2,.1,.5,.2,.8,.2s.6,0,.8-.2c0,.1-.1,.3-.3,.4-.4,.2-1.1,.3-1.6,.2-.7-.2-1.8-.3-2.4-.3,.2-.2,.4-.4,.7-.6,.3-.1,.5-.1,.8-.1,0,0,.1,0,.2,0h0c-.1-.2-.2-.3-.3-.5,0,0,0,0,0,0,0,0,0,0,0,0s0,0,0,0c0,0,0-.2,0-.3,0,0,0,0,0,0,.2-.6,.8-1.2,1.7-1.5h0c-.3-.2-.5-.3-.6-.5,0,0,0,0,0,0,0-.2,0-.5,.4-.8,.2-.3,.6-.6,1.1-.9h0c-1,.4-2.3,.9-2.8,1.1-.2,0-.3,0-.5,.1-.2,0-.3,0-.4-.1-.1-.1-.2-.4,0-.8,0-.2,0-.3,.2-.5h0c-.1,0-.3,.1-.4,.2-1.4,.8-2.5,1.4-3.3,1.9-.4,.3-.7,.5-.9,.8-.2,.2-.3,.5-.3,.7s0,.3,0,.5c0,.5,0,.8-.3,1,0,0,0,0-.1,0,0,0-.2,0-.3,0-.4,0-.8,.1-1.2,.2-.2-.3-.1-.5,0-.5,0,0,0,0,0,0,0,0,.3,0,.5,0h0c0-.3-.3-.5-.5-.5-.2,0-.2-.1-.2-.3,0-.1,0-.2,0-.2h0s0,0,0,0c.1,0,.5,0,.7,.2h0c0-.2,0-.4-.2-.5-.1-.1-.2-.2-.3-.2,0,0-.1,0-.2,0,0,0,0-.1,0-.2,0-.2,0-.2,.2-.2s.4,0,.5,.2h0c0-.2,0-.3-.1-.4,0-.1-.2-.2-.3-.2,0,0,0,0,0,0-.1,0-.2,0-.2-.2,0,0,0,0,0,0,0,0,.3,0,.5,0h0c-.2-.3-.5-.4-.6-.5h0c-.1,0-.1-.2-.2-.3h0c0-.1-.1-.2-.1-.2s0,0,0,0c0,0,.5-.3,.8-.5h0c0,0-.2,0-.3,0,0-.2,.2-.5,.1-.7h0s0,0,0,0c0,0,0,0,0,0h0c-.1,0-.3,.1-.4,.2,0-.2,.1-.5,0-.6h0c0,.2-.3,.3-.6,.4-.3,.1-.6,.3-.7,.5-.3,0-.6,0-.8,0h0c-.4,0-.7-.1-1,.4,0,0-.1,0-.2,0-.2,0-.4,0-.6,0-.2,0-.3,0-.4,0-.3,0-.7,.3-1,.6h0c.6,0,1.1,0,1.5,0,0,.1,0,.3,.2,.4,0,0,0,0,.2,0,0,0,0,0,0,0h-.4c-.5,0-1,0-1.5,0,.1,0,.3-.1,.3-.2,0,0,0,0,0,0h0c-.3,0-1.3-.4-1.7-.6h0c0,.3,.3,.6,.6,1,.3,.3,.7,.6,.9,.6h0c0-.1-.1-.3-.2-.4,.5,0,.9,0,1.4,0,.1,0,.3,0,.4,0,0,.1,0,.2,0,.3,0,0,0,.1,0,.2,0,.2,0,.4,.2,.6h0c0-.2,0-.3,.1-.4,0,0,0-.2,.1-.3,0,0,0,.2,0,.3h0c.2-.3,.3-.5,.8-.6,0,0,0,0,0,.1,0,0,0,0,0,0,0,0,0,0,0,0-.1,0-.2,.2-.2,.3,0,.1,0,.3,0,.3,0,0-.1,0-.2,.1,0,.1-.1,.3-.1,.5,0,0,0,0,0,0h0c0,0,0,.1,0,.2,0,0,0,0,0,0,0,0,0,0,0,0,0,.1,0,.2,0,.3-.2,.1-.2,.3-.3,.4,0,.1,0,.3,0,.4,0,0-.2,.2-.2,.3h-1.7c0-.3-.1-.6-.3-.8,0-.2,.1-.3,.3-.4,0,0,0,0,0,0,0,0,.1-.2,.1-.3,0,0,0,0,0-.1,0,0,0-.2,0-.3,0-.1-.1-.3-.2-.3h0c0,.2,0,.3,0,.4h0s0,0,0,0c0,0,0,0-.1,0,0,0,0,0-.1,0,0,0,0-.1,0-.2,0,0,0,0,0-.1s0,0,0-.1c0,0,0,0,0,0t0,0h0s0,0,0,0c0,0,0,0-.1,0,0-.1,0-.2-.2-.3-.1,0-.3-.1-.4,0h0c.2,0,.3,.2,.3,.4h0s0,0,0,0c0,0,0,.2,0,.3,0,.1-.1,.3,0,.4,0,0,0-.1-.1-.2,0-.1-.1-.3-.3-.3,0,0,0,0,0,0,0,0,0,0,0,0,0,0,0,0-.1,0,0,0,0,0,0,0-.1,0-.3,0-.4,0h0s0,0,.1,0c.1,0,.2,.1,.2,.2,0,0,0,0,0,.1,0,.1,0,.2,.1,.3,0,0,0,.2,0,.2,0,0,0,0,0,0,0,0,0,0,0,0,0,0,0,0,0,0,0,0,.2,.1,.2,.2,0,0,0,.1,0,.2,0,.1-.1,.4,0,.5,0,0,0,.1,0,.2H0c0-2.9,1-5.5,2.6-7.6C4.9,1.9,8.5,0,12.5,0s7.6,1.9,9.9,4.9c1.6,2.1,2.6,4.7,2.6,7.6h-3.7Z"/></g></g></g></svg>