<?xml version="1.0" encoding="UTF-8"?><svg xmlns="http://www.w3.org/2000/svg" viewBox="0 0 25 25"><defs><style>.d{fill:#fff;}.e{fill:#ff8b04;}.f{fill:#d0000f;}.g{fill:#fbdf2a;}.h{fill:#00adec;}.i{fill:#008600;}.j{fill:none;}.k{fill:#ff021d;}.l{fill:#ffb835;}</style></defs><g id="a"/><g id="b"><g id="c"><g><path class="i" d="M12.5,0V25h0C5.6,25,0,19.4,0,12.5S5.6,0,12.5,0h0Z"/><path class="k" d="M25,12.5c0,6.9-5.6,12.5-12.5,12.5V0c6.9,0,12.5,5.6,12.5,12.5Z"/><path class="j" d="M25,12.5c0,6.9-5.6,12.5-12.5,12.5h0C5.6,25,0,19.4,0,12.5S5.6,0,12.5,0h0c6.9,0,12.5,5.6,12.5,12.5Z"/><path class="j" d="M25,12.5c0,6.9-5.6,12.5-12.5,12.5h0C5.6,25,0,19.4,0,12.5S5.6,0,12.5,0h0c6.9,0,12.5,5.6,12.5,12.5Z"/><g><path class="e" d="M9.8,16.3h-1.3l-.7,.4c0,0,0,.2,.1,.3,1.4,.1,2.6,.2,3.7,.3-.7-.2-1.3-.5-1.9-1Z"/><path class="e" d="M16.6,17.7s0,0,0,0c0,0,0,0,0,0Z"/><path class="e" d="M14.6,16.8c-.5,.3-1,.5-1.6,.6h0c1.7,.2,2.9,.2,3.4,.4l-.8-.9h-1Z"/><path class="e" d="M16.4,17.7h0s0,0,.1,0c0,0,0,0-.1,0Z"/><path class="e" d="M17.7,13.8l-1.5,.4h0c0,.4-.2,.7-.3,1l2.5-.8c0-.1,0-.2,.1-.3l-.8-.3Z"/><path class="e" d="M18.5,10.4l-.7-.2-1.4,.5h0v1l2.1-.7c0-.2,0-.3,0-.5Z"/><path class="e" d="M7.4,9.4c0,0-.1,.2-.2,.3,.3,.4,.7,.9,1.1,1.4l.3-.2v-.6l-1.3-.9Z"/><path class="e" d="M8.6,13.4v-.3c-.6-.1-1.1-.2-1.7-.4l-.7,.4c0,0,0,.2,0,.3l2.4,.5c0-.1,0-.3,0-.4Z"/><path class="l" d="M18.7,10.5c-.1-.4-.3-.7-.5-1.1-1-1.8-2.9-3.1-5.2-3.3-.2,0-.3,0-.5,0h0c-.2,0-.3,0-.4,0-1.8,.1-3.4,1-4.5,2.3-.2,.2-.4,.5-.5,.7-.6,.9-1,2-1,3.2h0c0,0,0,.2,0,.2,0,.2,0,.4,0,.6,0,1.1,.5,2.1,1,3,.2,.2,.3,.5,.5,.7,1.1,1.3,2.7,2.2,4.5,2.3,.1,0,.3,0,.4,0h0c.1,0,.3,0,.4,0,1.3,0,2.5-.6,3.5-1.3h0c.2-.2,.4-.4,.6-.6,.8-.8,1.4-1.9,1.7-3,0-.3,.1-.6,.2-.9,0-.2,0-.4,0-.6,0-.8-.1-1.5-.4-2.1Zm-.5,3.4c0,.2-.1,.5-.2,.7-.3,.8-.7,1.5-1.3,2-.2,.2-.4,.4-.7,.6h0c-.2,.1-.3,.2-.5,.4h0c-.7,.4-1.6,.7-2.5,.8-.2,0-.3,0-.5,0h0c-.2,0-.3,0-.4,0-1.2,0-2.3-.6-3.2-1.3-.2-.2-.5-.4-.6-.6-.2-.2-.4-.5-.5-.7-.4-.6-.7-1.4-.8-2.2,0-.2,0-.5,0-.7,0,0,0-.1,0-.2,0-.2,0-.5,0-.7h0c0-.7,.3-1.4,.6-2,0-.1,.1-.2,.2-.4h0c.2-.3,.3-.5,.5-.7,1-1.1,2.4-1.9,3.9-2,.1,0,.3,0,.4,0h0c.2,0,.3,0,.5,0,1.6,.1,3,.9,4,2.1,.3,.4,.5,.8,.8,1.2,0,0,0,0,0,0,.1,.3,.2,.6,.3,.9,.2,.5,.2,1,.2,1.6s0,.3,0,.4c0,.3,0,.6-.1,.9Z"/><path class="g" d="M9.3,15.6l-1.6,1.2c0,0-.2,0-.3,0h0l-.3-.5c0,0,0-.2,0-.2h0l1.7-1.3c.1,.3,.2,.6,.4,.8h0Z"/><path class="g" d="M16.4,8.8l1.9,.7c.1,0,.3,.2,.3,.3l.3,.6c0,.1,0,.2-.1,.1l-2.3-.8v-.9Z"/><path class="g" d="M16.4,12.4l2.7,.9c0,0,.1,.1,.1,.2l-.2,.5c0,0-.1,.1-.2,.1h0l-2.4-.8v-1h0Z"/><path class="g" d="M15.7,15.6l1.4,1.5c0,0,0,.2,0,.2h0l-.4,.4c0,0-.2,0-.2,0l-1.3-1.4c.2-.2,.4-.5,.6-.7Z"/><path class="g" d="M8.6,11.8l-2.5,1.4c-.1,0-.2,0-.2,0v-.5c0,0,0-.2,.2-.3l2.5-1.4v.9h0Z"/><path class="g" d="M8.6,10.3l-1.6-1.1c0,0,0-.2,0-.2l.3-.5c0,0,.2,0,.2,0h0l1,.8v1.1Z"/><path class="g" d="M12.5,17.4c-.2,0-.3,0-.5,0v1.6s0,0,0,.1c0,0,0,0,.1,0h.6c0,0,.1,0,.1,0,0,0,0,0,0-.1v-1.7c-.2,0-.3,0-.5,0Zm.3-11.4h-.6c0,0-.2,0-.2,.2v2.3h.9v-2.3c0,0,0-.2-.2-.2Z"/><path class="f" d="M16.5,8.5v5c0,2.2-1.8,4-3.9,4s-3.9-1.8-3.9-4v-5h7.8Z"/><path class="d" d="M14.8,10.2v3.4c0,1.3-1,2.3-2.3,2.3s-2.3-1-2.3-2.3v-3.4h4.5Z"/><g><path class="h" d="M10.5,13.6c0,.1,.1,.3,.3,.3h.7c.1,0,.3-.1,.3-.3v-1.2c0-.1,0-.2-.2-.2h-.8c-.1,0-.2,0-.2,.2v1.2Z"/><path class="h" d="M11.9,15.3c0,.1,.1,.3,.3,.3h.7c.1,0,.3-.1,.3-.3v-1.1c0-.1-.1-.3-.3-.3h-.7c-.1,0-.3,.1-.3,.3v1.1Z"/><path class="h" d="M11.9,11.8c0,.1,.1,.3,.3,.3h.7c.1,0,.3-.1,.3-.3v-1.2c0-.1,0-.2-.2-.2h-.8c-.1,0-.2,0-.2,.2v1.2Z"/><path class="h" d="M13.3,12.4v1.2c0,.1,.1,.3,.3,.3h.7c.1,0,.3-.1,.3-.3v-1.2c0-.1,0-.2-.2-.2h-.8c-.1,0-.2,0-.2,.2Z"/><path class="h" d="M11.9,13.6c0,.1,.1,.3,.3,.3h.7c.1,0,.3-.1,.3-.3v-1.1c0-.2-.1-.3-.3-.3h-.7c-.2,0-.3,.1-.3,.3v1.1Z"/></g><path class="d" d="M11.1,12.8c0,0-.2,0-.2,.2s0,.2,.2,.2,.2,0,.2-.2,0-.2-.2-.2Zm.3,.5c0,0-.2,0-.2,.2s0,.2,.2,.2,.2,0,.2-.2h0c0,0,0-.2-.2-.2Zm0-1c0,0-.2,0-.2,.2s0,.2,.2,.2,.2,0,.2-.2,0-.2-.2-.2Zm-.5,0c0,0-.2,0-.2,.2s0,.2,.2,.2,.2,0,.2-.2,0-.2-.2-.2Zm3.1,.5c0,0-.2,0-.2,.2s0,.2,.2,.2,.2,0,.2-.2,0-.2-.2-.2Zm.3,.5c0,0-.2,0-.2,.2s0,.2,.2,.2,.2,0,.2-.2,0-.2-.2-.2Zm-.5,0c0,0-.2,0-.2,.2s0,.2,.2,.2,.1,0,.1-.2,0-.2-.1-.2Zm.5-1c0,0-.2,0-.2,.2s0,.2,.2,.2,.2,0,.2-.2,0-.2-.2-.2Zm-.5,0c0,0-.2,0-.2,.2s0,.2,.2,.2,.1,0,.1-.2,0-.2-.1-.2Zm-.9,2.7c0,0-.1,0-.1,.2s0,.2,.1,.2,.2,0,.2-.2,0-.2-.2-.2Zm-.5,0c0,0-.2,0-.2,.2s0,.2,.2,.2,.2,0,.2-.2,0-.2-.2-.2Zm.5-1c0,0-.1,0-.1,.2s0,.2,.1,.2,.2,0,.2-.2,0-.2-.2-.2Zm-.5,0c0,0-.2,0-.2,.2s0,.2,.2,.2,.2,0,.2-.2,0-.2-.2-.2Zm.3-1.3h0c0,0-.2,0-.2,.2s0,.2,.2,.2h0c0,0,.2,0,.2-.2h0c0,0,0-.2-.2-.2Zm.3,.5c0,0-.1,0-.1,.2s0,.2,.1,.2,.2,0,.2-.2,0-.2-.2-.2Zm-.5,0c0,0-.2,0-.2,.2s0,.2,.2,.2,.2,0,.2-.2h0c0,0,0-.2-.2-.2Zm.5-1c0,0-.1,0-.1,.2s0,.2,.1,.2,.2,0,.2-.2,0-.2-.2-.2Zm-.5,0c0,0-.2,0-.2,.2s0,.2,.2,.2,.2,0,.2-.2,0-.2-.2-.2Zm.3-1.3c0,0-.2,0-.2,.2s0,.2,.2,.2,.2,0,.2-.2,0-.2-.2-.2Zm.3,.5c0,0-.1,0-.1,.2s0,.2,.1,.2,.2,0,.2-.2,0-.2-.2-.2Zm-.5,0c0,0-.2,0-.2,.2s0,.2,.2,.2,.2,0,.2-.2,0-.2-.2-.2Zm.5-1c0,0-.1,0-.1,.2s0,.2,.1,.2,.2,0,.2-.2,0-.2-.2-.2Zm-.5,0c0,0-.2,0-.2,.2s0,.2,.2,.2,.2,0,.2-.2,0-.2-.2-.2Z"/><path class="g" d="M15.2,15.8h0v-.2h-.1v-.2h-.1v-.2h-.1v-.2h-.2v.2h0l.4,.7h.2v-.2Zm-.6,.4l-.5-.6h0l-.6,.2,.3,.3,.2,.3,.3,.3,.3-.5h0Zm0-.9h0l-.4,.2,.5,.6,.3-.3h0l-.5-.6Zm-4.1-.2h0v.2h-.1v.2h-.1v.2h-.1v.2h0l.5-.5h0Zm.4,.3l-.3,.3-.2,.3h0l.4,.5,.3-.3,.2-.3,.3-.3-.6-.2Zm-.4-.3l-.5,.6,.3,.3h0l.2-.3,.2-.3-.3-.3Zm-.7-3.2h-.8v.2h1v-.2h-.1Zm0,.7h-.8l-.2,.6h1.2l-.2-.6Zm-.8-.5v.5h.8v-.5h-.8Zm6.8-.2h-.8v.2h1v-.2h-.2Zm0,.7h-.8l-.2,.6h1.2l-.2-.6Zm-.8-.5v.5h.8v-.5h-.8Zm.7-3.7h-.8v.2h1v-.2h-.2Zm0,.6h-.8l-.2,.6h1.2l-.2-.6Zm-.8-.4v.4h.8v-.4h-.8Zm-2.3-.2h-.8v.2h1v-.2h-.2Zm0,.6h-.8l-.2,.6h1.2l-.2-.6Zm-.8-.4v.4h.8v-.4h-.8Zm-2.3-.2h-.8v.2h1v-.2h-.1Zm0,.6h-.8l-.2,.6h1.2l-.2-.6Zm-.8-.4v.4h.8v-.4h-.8Z"/><path class="e" d="M9.5,9.5c-.1,0-.2,0-.2,.2v.3h.4v-.3c0-.1,0-.2-.2-.2Zm.2-.5c0,0-.1,0-.1,.1v.2h.2v-.2c0,0,0-.1-.1-.1Zm-.3,0c0,0-.1,0-.1,.1v.2h.2v-.2c0,0,0-.1-.1-.1Zm5.1,7.1c0,0-.2,0-.3,0l-.2,.2,.2,.3,.2-.2c0,0,.1-.2,0-.3Zm.3-.4c0,0-.1,0-.2,0h-.1v.3h.3c0-.1,0-.2,0-.3Zm0,.3h-.1v.3h.3c0-.2,0-.2,0-.3,0,0-.1,0-.2,0Zm-3.7,.2c0,0-.2,0-.3,0,0,0,0,.2,0,.3l.2,.2,.2-.3-.2-.2Zm-.4-.4c0,0-.1,0-.2,0,0,0,0,.1,0,.2h.3v-.2Zm-.3,.3c0,0-.1,0-.2,0,0,0,0,.1,0,.2h.3v-.2Zm-1.1-2.9c-.1,0-.2,0-.2,.2v.3h.4v-.3c0-.1,0-.2-.2-.2Zm.2-.5c0,0-.1,0-.1,.1v.2h.2v-.2c0,0,0-.1-.1-.1Zm-.3,0c0,0-.1,0-.1,.1v.2h.2v-.2c0,0,0-.1-.1-.1Zm6.3,.5c0,0-.2,0-.2,.2v.3h.4v-.3c0-.1,0-.2-.2-.2Zm.2-.5c0,0-.1,0-.1,.1v.2h.2v-.2c0,0,0-.1-.1-.1Zm-.3,0c0,0-.1,0-.1,.1v.2h.2v-.2c0,0,0-.1-.1-.1Zm.2-3c0,0-.2,0-.2,.2v.3h.4v-.3c0-.1,0-.2-.2-.2Zm.2-.5c0,0-.1,0-.1,.1v.2h.2v-.2c0,0,0-.1-.1-.1Zm-.3,0c0,0-.1,0-.1,.1v.2h.2v-.2c0,0,0-.1-.1-.1Zm-2.9,.5h0c0,0-.2,0-.2,.2v.3h.4v-.3c0-.1,0-.2-.2-.2Zm.2-.5c0,0-.1,0-.1,.1v.2h.2v-.2c0,0,0-.1-.1-.1Zm-.3,0c0,0-.1,0-.1,.1v.2h.2v-.2c0,0,0-.1-.1-.1Z"/></g><path class="j" d="M25,12.5c0,6.9-5.6,12.5-12.5,12.5h0C5.6,25,0,19.4,0,12.5S5.6,0,12.5,0h0c6.9,0,12.5,5.6,12.5,12.5Z"/></g></g></g></svg>