<?xml version="1.0" encoding="UTF-8"?><svg xmlns="http://www.w3.org/2000/svg" viewBox="0 0 25 25"><defs><style>.d{fill:#fff;}.e{fill:#f01;}.f{fill:none;}</style></defs><g id="a"/><g id="b"><g id="c"><g><path class="e" d="M25,12.5c0,6.9-5.6,12.5-12.5,12.5S0,19.4,0,12.5,5.6,0,12.5,0s12.5,5.6,12.5,12.5Z"/><path class="f" d="M25,12.5c0,6.9-5.6,12.5-12.5,12.5S0,19.4,0,12.5,5.6,0,12.5,0s12.5,5.6,12.5,12.5Z"/><path class="f" d="M25,12.5c0,6.9-5.6,12.5-12.5,12.5S0,19.4,0,12.5,5.6,0,12.5,0s12.5,5.6,12.5,12.5Z"/><polygon class="d" points="20.3 10.1 14.9 10.1 14.9 4.7 10.1 4.7 10.1 10.1 4.7 10.1 4.7 14.9 10.1 14.9 10.1 20.2 14.9 20.2 14.9 14.9 20.3 14.9 20.3 10.1"/><path class="f" d="M25,12.5c0,6.9-5.6,12.5-12.5,12.5S0,19.4,0,12.5,5.6,0,12.5,0s12.5,5.6,12.5,12.5Z"/></g></g></g></svg>